<?xml version="1.0" standalone="no"?>
<!DOCTYPE svg PUBLIC "-//W3C//DTD SVG 20010904//EN"
 "http://www.w3.org/TR/2001/REC-SVG-20010904/DTD/svg10.dtd">
<svg version="1.0" xmlns="http://www.w3.org/2000/svg"
 width="900.000000pt" height="600.000000pt" viewBox="0 0 900.000000 600.000000"
 preserveAspectRatio="xMidYMid meet">
<metadata>
Created by potrace 1.10, written by Peter Selinger 2001-2011
</metadata>
<g transform="translate(0.000000,600.000000) scale(0.100000,-0.100000)"
fill="#3a58cf" stroke="none">
<path d="M20 5980 c0 -11 -4 -20 -10 -20 -5 0 -10 -7 -10 -15 0 -21 17 -19 30
4 13 25 13 51 0 51 -5 0 -10 -9 -10 -20z"/>
<path d="M308 5983 c-4 -21 -116 -46 -136 -30 -9 7 -21 2 -43 -19 -25 -24 -32
-27 -49 -16 -11 7 -27 12 -35 12 -24 0 -17 -19 9 -26 14 -3 27 -12 30 -20 8
-21 22 -17 49 12 20 22 35 26 98 30 41 3 76 10 78 15 2 6 14 14 27 19 13 5 24
16 24 25 0 21 -48 20 -52 -2z"/>
<path d="M1105 5990 c3 -5 -3 -15 -15 -22 -36 -23 -24 -55 40 -105 13 -10 23
-6 53 21 38 33 50 76 22 76 -8 0 -15 9 -15 20 0 17 -7 20 -46 20 -26 0 -43 -4
-39 -10z"/>
<path d="M1900 5983 c0 -10 8 -31 18 -48 10 -16 22 -43 26 -58 9 -37 28 -42
76 -20 39 17 40 20 34 55 -5 30 -2 39 15 50 34 21 26 38 -19 38 -29 0 -40 -4
-40 -15 0 -8 -7 -15 -15 -15 -9 0 -18 7 -21 15 -9 23 -74 20 -74 -2z"/>
<path d="M2380 5991 c0 -5 4 -21 10 -35 7 -20 17 -26 39 -26 16 0 31 -6 35
-15 3 -8 14 -15 23 -15 18 0 53 32 53 49 0 11 74 23 97 14 39 -14 53 -35 53
-83 0 -44 -3 -49 -40 -74 -45 -30 -62 -32 -80 -11 -15 18 -61 20 -78 3 -16
-16 -15 -48 2 -48 8 0 16 7 20 15 7 20 31 19 62 -2 24 -15 28 -15 61 1 67 32
83 54 83 117 0 50 -3 59 -25 73 -14 9 -25 23 -25 31 0 12 -14 15 -65 15 -44 0
-65 -4 -65 -12 0 -7 -12 -23 -26 -35 -26 -22 -27 -22 -57 -5 -16 9 -32 25 -35
35 -4 17 -42 25 -42 8z"/>
<path d="M2795 5978 c5 -13 10 -58 12 -101 l5 -78 -53 -54 c-29 -30 -60 -55
-69 -55 -9 0 -25 -7 -36 -15 -10 -8 -33 -15 -50 -15 -19 0 -34 -6 -38 -15 -3
-10 -19 -15 -45 -15 -39 0 -40 1 -43 38 -4 45 -19 48 -30 7 -10 -39 21 -70 78
-79 33 -5 45 -2 59 14 10 11 26 20 35 20 9 0 25 7 36 15 10 8 27 15 36 15 30
0 76 34 113 83 34 44 35 49 35 129 0 104 -6 128 -32 128 -17 0 -19 -4 -13 -22z"/>
<path d="M3767 5980 c-4 -16 -14 -20 -51 -20 -36 0 -48 -4 -57 -21 -17 -33 4
-47 40 -26 16 9 38 17 49 17 12 0 24 5 27 11 4 5 18 14 31 19 34 13 31 40 -5
40 -20 0 -30 -6 -34 -20z"/>
<path d="M3916 5975 c-8 -30 -79 -105 -101 -105 -9 0 -15 -9 -15 -22 0 -29 -9
-42 -37 -57 -31 -16 -32 -15 -49 25 -14 33 -17 35 -31 22 -17 -18 -10 -76 10
-83 7 -3 39 1 72 8 52 10 60 15 63 36 2 13 30 49 63 80 39 38 61 67 65 89 6
28 4 32 -14 32 -13 0 -22 -9 -26 -25z"/>
<path d="M5090 5980 c0 -16 7 -20 30 -20 23 0 30 4 30 20 0 16 -7 20 -30 20
-23 0 -30 -4 -30 -20z"/>
<path d="M5330 5991 c0 -11 94 -111 104 -111 20 0 76 69 76 94 l0 26 -90 0
c-50 0 -90 -4 -90 -9z"/>
<path d="M7467 5979 c-5 -18 -12 -20 -80 -18 -82 2 -97 -3 -97 -32 0 -16 3
-18 19 -9 11 5 50 10 88 10 57 1 72 4 96 25 33 30 35 45 3 45 -15 0 -26 -7
-29 -21z"/>
<path d="M7610 5974 c0 -19 -16 -42 -56 -80 -51 -49 -60 -54 -101 -54 -37 0
-50 -5 -73 -30 -15 -16 -34 -30 -42 -30 -23 0 -59 45 -52 63 4 13 1 17 -15 17
-17 0 -21 -6 -21 -35 0 -25 5 -37 18 -41 9 -3 29 -12 44 -20 41 -22 67 -17 85
15 14 23 24 29 53 29 59 1 160 65 160 101 0 5 7 14 15 21 8 7 15 25 15 41 0
19 -5 29 -15 29 -10 0 -15 -10 -15 -26z"/>
<path d="M7920 5985 c0 -9 -7 -18 -15 -21 -27 -11 -55 -88 -55 -154 0 -75 14
-83 77 -49 40 22 44 27 42 59 -3 55 -1 64 26 93 20 21 35 27 68 27 62 0 80 -8
105 -44 35 -51 30 -101 -14 -142 -20 -20 -46 -34 -60 -34 -30 0 -30 -15 0 -77
13 -26 27 -56 30 -65 7 -24 30 -23 77 4 41 23 50 42 24 52 -21 8 -19 19 8 47
44 45 67 94 67 142 0 46 -27 114 -56 138 -8 6 -14 18 -14 25 0 26 -18 14 -25
-17 -9 -38 -39 -36 -43 4 l-3 27 -95 0 -94 0 0 -30 c0 -16 -4 -30 -10 -30 -5
0 -10 14 -10 30 0 20 -5 30 -15 30 -8 0 -15 -7 -15 -15z"/>
<path d="M8480 5965 l0 -35 75 0 75 0 0 35 c0 39 -24 50 -33 15 -4 -15 -14
-20 -42 -20 -28 0 -38 5 -42 20 -9 35 -33 24 -33 -15z"/>
<path d="M6793 5950 c-24 -10 -43 -23 -43 -28 0 -22 42 -92 56 -92 19 0 77 29
86 43 8 13 0 34 -24 70 -23 32 -21 32 -75 7z"/>
<path d="M4284 5944 c-43 -21 -85 -67 -102 -111 -20 -52 -26 -127 -13 -152 12
-22 45 -28 56 -10 4 5 18 14 31 19 21 8 24 16 24 64 0 51 3 57 37 85 91 75
202 -1 179 -122 -5 -26 -15 -39 -49 -57 -69 -38 -68 -37 -43 -85 13 -23 26
-55 30 -69 7 -30 45 -36 66 -11 7 8 21 15 31 15 21 0 24 21 8 52 -9 16 -6 25
13 47 65 73 76 154 32 240 -37 75 -84 102 -188 107 -60 3 -89 0 -112 -12z"/>
<path d="M6164 5931 c-12 -3 -42 -19 -66 -35 -59 -37 -111 -132 -106 -191 l3
-40 49 -3 c71 -5 93 3 101 36 10 47 50 82 94 82 51 0 81 -32 81 -86 0 -54 -35
-86 -102 -92 -47 -4 -48 -5 -48 -38 0 -38 24 -48 33 -14 4 15 14 20 41 20 27
0 44 9 76 38 35 34 40 44 39 83 -1 56 -7 72 -42 100 -22 16 -42 22 -82 22 -58
0 -71 -9 -119 -80 -29 -43 -40 -49 -70 -37 -18 7 -22 49 -6 59 6 3 10 14 10
24 0 17 54 74 100 105 29 19 149 23 167 5 6 -6 22 -16 34 -23 13 -6 38 -31 56
-54 30 -40 33 -49 33 -117 0 -52 -4 -78 -15 -89 -8 -8 -15 -19 -15 -25 0 -6
-24 -29 -54 -51 -31 -24 -59 -54 -65 -71 -16 -46 -40 -48 -76 -5 -17 20 -34
34 -38 30 -12 -12 -8 -43 9 -70 15 -22 21 -24 68 -18 55 7 86 27 86 54 0 10
10 24 23 33 33 22 70 58 92 92 16 24 20 47 20 120 0 73 -4 96 -20 120 -30 45
-67 85 -78 85 -6 0 -18 6 -26 14 -17 14 -152 27 -187 17z"/>
<path d="M577 5881 c-85 -40 -134 -107 -144 -197 -7 -61 -4 -63 87 -55 63 6
65 7 68 36 4 35 36 69 74 78 31 8 83 -30 99 -71 17 -44 -34 -102 -90 -102 -57
0 -90 -42 -55 -71 14 -11 19 -9 36 14 14 19 29 27 49 27 41 0 99 62 99 107 0
37 -30 102 -46 103 -6 0 -17 7 -24 15 -7 9 -29 15 -54 15 -51 0 -116 -48 -116
-85 0 -19 -7 -25 -34 -31 -44 -8 -56 0 -56 35 0 41 86 141 121 141 9 0 22 7
29 15 16 19 67 19 104 0 15 -8 34 -15 40 -15 20 0 83 -72 100 -114 18 -43 21
-112 6 -121 -5 -3 -10 -16 -10 -28 0 -14 -23 -43 -62 -80 -39 -36 -63 -66 -63
-80 0 -19 -6 -22 -40 -22 -33 0 -40 4 -45 24 -10 45 -30 36 -30 -13 l0 -46 70
0 c48 0 72 4 74 13 3 6 7 24 10 39 3 15 14 29 25 33 33 10 90 77 97 112 3 18
10 36 15 39 19 11 9 105 -16 158 -29 61 -53 86 -118 121 -58 30 -142 33 -200
6z"/>
<path d="M5528 5865 c-21 -20 -38 -39 -38 -43 0 -16 62 -82 77 -82 8 0 33 18
54 40 l39 40 -40 40 c-22 22 -43 40 -47 40 -5 0 -25 -16 -45 -35z"/>
<path d="M3194 5876 c-96 -35 -144 -108 -144 -220 0 -41 4 -77 9 -80 4 -3 25
3 46 14 21 11 42 21 48 23 5 1 10 28 11 59 2 77 31 108 101 107 53 0 78 -14
109 -61 32 -49 -6 -140 -63 -153 -40 -8 -58 -30 -41 -50 17 -21 50 -87 50
-102 0 -23 19 -23 62 -1 24 12 45 23 47 24 2 2 -2 16 -8 32 -11 27 -10 32 16
60 15 17 36 57 46 89 19 57 19 59 -3 113 -48 124 -173 188 -286 146z"/>
<path d="M8499 5868 c-24 -9 -26 -75 -4 -118 14 -28 20 -30 69 -30 43 0 57 5
75 24 l23 24 -21 12 c-18 9 -26 7 -47 -9 -29 -23 -55 -16 -74 20 -17 32 5 51
55 48 45 -3 68 6 62 24 -4 13 -106 17 -138 5z"/>
<path d="M0 5855 c0 -8 5 -15 11 -15 6 0 20 -11 31 -25 11 -14 24 -25 29 -25
5 0 9 11 9 25 0 20 -5 25 -25 25 -14 0 -25 4 -25 9 0 5 -7 11 -15 15 -9 3 -15
0 -15 -9z"/>
<path d="M1385 5816 c-22 -13 -41 -31 -42 -42 -2 -11 15 -38 37 -62 33 -37 42
-42 59 -33 36 20 94 13 119 -13 32 -35 31 -101 -4 -132 -41 -39 -89 -33 -136
17 -37 39 -41 41 -64 28 -31 -16 -26 -33 10 -37 15 -2 30 -10 33 -18 3 -8 11
-14 18 -14 7 0 15 -7 19 -15 4 -10 20 -15 52 -15 36 0 54 6 85 31 37 29 39 33
39 89 0 55 -2 60 -37 89 -33 27 -45 31 -98 31 -48 0 -64 4 -78 20 -23 27 -22
33 12 53 45 26 133 23 179 -8 91 -60 112 -94 112 -185 0 -58 -4 -77 -22 -102
-35 -47 -64 -78 -75 -78 -6 0 -16 -7 -23 -15 -9 -11 -33 -15 -85 -15 -52 0
-76 4 -85 15 -14 17 -61 20 -76 5 -7 -7 -19 -3 -37 14 -28 26 -35 50 -17 61 6
3 10 10 10 16 0 16 -29 10 -51 -12 -23 -23 -27 -15 49 -98 30 -33 34 -35 46
-18 16 21 46 22 72 2 30 -22 141 -20 189 5 46 23 105 77 105 95 0 7 7 18 15
25 11 9 15 34 15 100 0 66 -4 91 -15 100 -8 7 -15 18 -15 24 0 16 -67 86 -83
86 -7 0 -22 7 -33 15 -31 23 -150 18 -199 -9z"/>
<path d="M2070 5795 c-7 -8 -20 -15 -30 -15 -32 0 -44 -25 -27 -57 9 -15 18
-36 21 -45 7 -22 34 -23 60 -3 11 8 28 15 38 15 23 0 23 17 -2 74 -22 48 -39
57 -60 31z"/>
<path d="M0 5725 c0 -27 9 -32 28 -13 18 18 14 38 -8 38 -15 0 -20 -7 -20 -25z"/>
<path d="M5000 5733 c-75 -49 -123 -120 -100 -148 7 -8 20 -15 29 -15 10 0 26
-7 37 -15 22 -16 64 -20 64 -5 0 6 9 19 20 30 29 29 97 27 133 -5 40 -36 37
-77 -10 -120 -41 -38 -73 -44 -93 -19 -8 9 -25 14 -44 12 -25 -2 -32 -8 -34
-30 -4 -32 4 -35 29 -12 16 15 20 15 41 0 12 -9 30 -16 40 -16 26 0 98 40 98
55 0 7 7 18 15 25 28 23 18 81 -20 123 -31 34 -38 37 -89 37 -42 0 -61 -5 -75
-19 -37 -37 -53 -40 -82 -19 -39 29 -28 51 48 106 27 18 45 22 113 22 62 0 82
-3 86 -15 4 -8 12 -15 20 -15 18 0 60 -47 84 -96 26 -50 25 -103 -2 -156 -25
-49 -85 -108 -109 -108 -9 0 -22 -7 -29 -15 -7 -8 -26 -15 -42 -15 -16 0 -41
-9 -54 -19 -18 -14 -32 -17 -52 -12 -23 7 -27 12 -24 38 4 39 -15 52 -27 20
-6 -14 -15 -28 -21 -32 -19 -11 38 -55 71 -55 15 0 31 -4 34 -10 11 -18 34
-10 37 13 2 17 10 23 40 25 20 2 42 10 48 18 7 8 23 14 35 14 27 0 97 69 125
125 24 47 27 140 5 169 -8 11 -15 27 -15 36 0 20 -42 65 -90 95 -35 22 -51 25
-127 24 -64 0 -95 -5 -113 -16z"/>
<path d="M7220 5728 c0 -6 -6 -19 -14 -27 -7 -9 -16 -33 -19 -53 -5 -34 -3
-39 27 -56 50 -30 90 -36 106 -17 17 21 7 29 -35 27 -42 -2 -65 19 -65 59 0
23 5 29 23 30 41 2 61 -3 73 -19 7 -10 18 -13 30 -8 18 7 17 9 -9 32 -15 13
-39 24 -52 24 -13 0 -27 5 -30 10 -9 14 -35 13 -35 -2z"/>
<path d="M3693 5713 c-9 -3 -13 -27 -13 -68 0 -78 8 -84 98 -77 57 4 62 6 62
28 0 31 -17 40 -40 19 -22 -20 -69 -17 -83 6 -5 9 -7 28 -3 42 5 22 12 27 37
27 17 0 39 -5 49 -10 15 -8 21 -6 29 9 6 10 7 21 4 25 -7 7 -122 7 -140 -1z"/>
<path d="M6813 5663 c-17 -2 -37 -11 -43 -19 -7 -8 -18 -14 -24 -14 -15 0 -66
-52 -66 -67 0 -6 -7 -16 -15 -23 -9 -7 -15 -29 -15 -52 l0 -39 57 3 c48 2 58
6 63 23 23 88 134 108 188 35 35 -47 30 -99 -14 -144 -34 -35 -40 -37 -88 -34
l-51 3 0 -85 0 -85 55 0 55 0 5 35 c4 28 10 36 30 38 67 10 150 122 150 202 0
71 -51 161 -114 199 -32 20 -117 32 -173 24z"/>
<path d="M7603 5580 c-28 -3 -60 -13 -70 -23 -11 -9 -23 -17 -27 -17 -4 0 -19
-12 -33 -27 -60 -65 -63 -90 -15 -113 15 -6 40 -18 55 -26 33 -16 62 -6 72 26
5 17 15 20 59 20 65 0 86 -19 86 -76 0 -44 -4 -51 -43 -81 l-29 -22 -36 19
c-44 24 -66 25 -86 4 -20 -20 -21 -54 -1 -54 8 0 15 5 15 10 0 6 13 10 29 10
17 0 33 -4 36 -10 15 -25 93 0 131 41 29 32 27 136 -3 166 -46 46 -123 48
-179 4 -26 -20 -66 -20 -87 -1 -13 12 19 54 62 84 32 22 48 26 112 26 54 0 81
-5 99 -18 39 -26 70 -55 70 -65 0 -5 7 -15 15 -23 11 -11 15 -38 15 -96 l0
-80 -46 -48 c-45 -47 -112 -80 -163 -80 -11 0 -25 -9 -31 -21 -9 -15 -19 -19
-43 -17 -29 3 -32 7 -37 43 -6 51 -29 52 -46 2 -13 -37 -13 -37 19 -54 18 -10
46 -22 64 -29 29 -10 34 -9 54 12 12 13 33 24 46 24 13 0 31 4 41 9 9 4 34 16
55 26 38 19 87 58 87 70 0 4 9 18 20 32 29 38 29 172 -1 228 -52 97 -139 138
-266 125z"/>
<path d="M2407 5552 c-10 -10 -17 -26 -17 -36 0 -9 -5 -26 -10 -36 -13 -25 19
-60 54 -60 13 0 29 -7 36 -15 21 -25 42 -18 38 13 -2 20 -8 27 -22 25 -11 -1
-30 3 -43 8 -21 8 -24 15 -21 46 3 33 7 38 31 41 19 2 33 -3 46 -19 11 -14 24
-20 34 -16 28 11 19 25 -29 47 -57 25 -76 25 -97 2z"/>
<path d="M8756 5525 c-11 -8 -26 -15 -34 -15 -21 0 -89 -78 -95 -108 -6 -33
-1 -42 22 -42 10 0 24 -7 31 -15 21 -25 66 -18 100 15 63 61 150 24 150 -64 0
-35 -5 -46 -30 -64 -35 -26 -86 -28 -112 -5 -21 19 -42 12 -62 -20 -14 -21 8
-47 25 -30 6 6 35 9 72 6 59 -5 64 -4 100 28 35 31 37 36 37 90 0 54 -2 59
-37 88 -51 42 -101 42 -153 1 -46 -37 -82 -39 -99 -6 -12 21 -10 27 10 47 55
57 101 79 163 79 39 0 65 -5 76 -15 9 -8 31 -18 48 -21 28 -6 32 -4 32 15 0
15 -6 21 -23 21 -13 0 -32 7 -43 15 -12 9 -43 14 -89 14 -46 0 -77 -5 -89 -14z"/>
<path d="M5706 5517 c-58 -17 -119 -82 -141 -150 -26 -83 -10 -171 27 -153 61
30 73 43 73 82 0 107 104 161 184 96 26 -22 34 -37 37 -73 6 -58 -11 -90 -63
-113 -50 -23 -58 -37 -34 -68 10 -13 21 -34 24 -48 3 -14 13 -34 21 -45 13
-17 18 -18 33 -7 10 7 30 17 46 23 31 13 30 10 17 44 -9 22 -5 32 21 65 75 93
54 242 -44 312 -64 46 -123 56 -201 35z"/>
<path d="M8213 5500 c-38 -23 -40 -37 -13 -90 l20 -39 37 15 c52 21 77 41 69
56 -38 78 -62 90 -113 58z"/>
<path d="M1977 5489 c-54 -28 -113 -90 -127 -133 -19 -57 -10 -67 57 -64 52 3
57 5 64 31 11 42 47 66 98 67 39 0 48 -5 78 -37 45 -51 45 -97 2 -141 -33 -34
-40 -36 -106 -32 l-43 2 -2 -66 c-1 -36 -2 -76 -2 -88 -1 -21 3 -23 59 -23 57
0 60 1 60 25 0 19 10 30 44 47 50 26 97 74 117 122 34 82 8 190 -59 245 -23
18 -56 41 -74 50 -44 22 -119 20 -166 -5z"/>
<path d="M106 5455 c-71 -43 -111 -116 -71 -131 23 -9 18 -42 -10 -60 -17 -11
-25 -25 -25 -45 0 -34 24 -48 49 -31 9 7 26 16 38 22 20 8 22 15 17 57 -5 41
-2 52 19 74 28 29 92 44 129 30 76 -29 97 -126 40 -181 -17 -16 -43 -32 -57
-36 -30 -7 -31 -18 -5 -72 11 -23 25 -54 30 -68 11 -29 30 -27 88 8 30 19 32
22 18 37 -22 24 -20 33 14 66 17 16 30 37 30 46 0 10 4 20 9 24 20 11 24 92 7
126 -9 18 -16 37 -16 44 0 13 -63 74 -102 98 -43 27 -153 23 -202 -8z"/>
<path d="M3901 5459 c-63 -33 -64 -49 -10 -109 35 -39 42 -43 59 -32 35 21 76
14 114 -20 46 -41 47 -73 3 -116 -48 -47 -84 -44 -143 13 l-48 45 -23 -22
c-26 -24 -22 -38 13 -38 13 0 33 -9 43 -19 65 -65 150 -53 203 27 22 33 23 75
3 92 -8 7 -15 18 -15 24 0 7 -13 22 -30 34 -22 17 -43 22 -88 22 -47 0 -63 4
-78 21 -19 21 -19 21 11 45 24 19 42 24 91 24 43 0 65 -5 74 -15 7 -8 18 -15
24 -15 17 0 86 -75 86 -93 0 -8 7 -17 15 -21 11 -4 15 -21 15 -64 0 -41 -5
-64 -15 -72 -8 -7 -15 -18 -15 -25 0 -15 -70 -85 -85 -85 -7 0 -18 -7 -25 -15
-18 -22 -143 -21 -161 1 -10 12 -24 14 -63 10 -50 -7 -51 -6 -65 26 -11 23
-11 33 -3 36 15 5 16 42 1 42 -14 0 -48 -41 -49 -58 0 -7 13 -25 28 -40 16
-15 31 -35 35 -45 8 -21 30 -22 47 -2 16 19 41 19 66 0 30 -22 141 -20 189 5
50 25 115 87 115 109 0 10 7 26 15 37 25 33 18 107 -16 178 -27 55 -39 68 -92
100 -55 32 -69 36 -127 35 -42 -1 -77 -8 -99 -20z"/>
<path d="M4564 5435 c-10 -8 -26 -15 -35 -15 -9 0 -22 -7 -30 -16 -10 -13 -10
-20 4 -44 9 -15 17 -35 17 -44 0 -20 38 -21 64 -1 11 8 28 15 38 15 22 0 23
19 4 57 -8 15 -17 36 -20 46 -7 21 -16 22 -42 2z"/>
<path d="M1123 5395 c-21 -19 -41 -35 -45 -35 -33 0 57 -119 90 -120 30 0 28
24 -3 44 -14 10 -31 28 -37 41 -9 21 -8 27 13 44 13 11 29 20 35 21 15 0 41
-31 46 -55 5 -27 38 -33 38 -7 0 21 -70 102 -88 102 -6 0 -28 -16 -49 -35z"/>
<path d="M2732 5400 c-19 -10 -49 -36 -68 -57 -51 -57 -58 -103 -14 -103 10 0
25 -6 32 -14 32 -31 57 -29 98 8 50 45 86 47 123 8 19 -20 27 -39 27 -63 0
-68 -84 -114 -136 -74 -27 21 -50 18 -68 -7 -12 -16 -13 -26 -4 -41 11 -21 11
-21 29 1 10 13 20 18 24 12 3 -5 32 -10 64 -10 52 0 60 3 91 35 30 31 34 41
33 86 -1 46 -5 56 -36 86 -30 28 -43 33 -85 33 -41 0 -53 -5 -78 -30 -35 -35
-37 -36 -74 -8 l-29 21 22 24 c75 83 182 103 264 50 23 -15 50 -39 60 -54 10
-16 23 -34 30 -41 19 -20 17 -146 -2 -166 -8 -8 -15 -18 -15 -23 -2 -36 -110
-103 -166 -103 -25 0 -41 -7 -57 -26 -21 -24 -23 -25 -52 -10 -25 13 -29 21
-27 46 4 39 -17 40 -39 2 -15 -26 -15 -30 2 -50 9 -12 26 -22 37 -22 11 0 25
-7 32 -15 16 -19 60 -20 60 -1 0 22 40 46 75 46 63 0 143 57 176 124 26 53 26
180 2 227 -26 48 -74 95 -105 103 -16 3 -28 11 -28 16 0 18 -161 9 -198 -10z"/>
<path d="M3412 5340 c-19 -10 -36 -20 -38 -23 -5 -5 25 -87 37 -101 6 -7 87
23 108 40 6 5 -21 67 -37 87 -18 20 -27 20 -70 -3z"/>
<path d="M6204 5347 c-3 -8 -4 -43 -2 -78 l3 -64 70 3 c39 2 73 7 77 11 10 9
-2 51 -14 51 -5 0 -16 -7 -25 -16 -9 -9 -28 -14 -47 -12 -29 3 -31 6 -31 43 0
39 1 40 35 39 19 0 44 -2 55 -5 15 -3 20 1 20 16 0 18 -8 20 -68 23 -50 2 -69
-1 -73 -11z"/>
<path d="M668 5308 l-48 -10 0 -58 c0 -71 17 -90 82 -90 53 0 95 27 85 53 -8
21 -35 22 -58 1 -23 -21 -57 -10 -71 22 -16 34 0 47 61 48 57 1 69 9 51 31
-14 17 -33 17 -102 3z"/>
<path d="M4917 5203 c-4 -3 -7 -19 -7 -35 0 -16 -6 -31 -15 -34 -26 -10 -18
-49 13 -63 15 -7 40 -19 55 -27 39 -19 55 -18 62 7 9 28 2 32 -51 35 -24 1
-48 4 -51 8 -3 3 0 24 7 46 10 32 18 40 37 40 12 0 23 -4 23 -9 0 -11 59 -36
67 -28 12 13 -8 37 -30 37 -14 0 -30 7 -37 15 -13 15 -61 21 -73 8z"/>
<path d="M4490 5128 c-25 -11 -58 -32 -73 -47 -34 -31 -83 -129 -71 -141 5 -4
30 -10 57 -13 43 -4 49 -2 67 23 11 16 20 32 20 37 1 17 55 47 86 46 69 -2
127 -80 106 -143 -19 -53 -50 -74 -109 -73 -29 1 -54 -2 -57 -5 -2 -4 -7 -44
-10 -89 l-7 -83 60 0 c60 0 61 1 61 28 0 23 9 32 57 57 40 21 67 44 88 75 26
40 30 53 30 120 0 85 -21 132 -78 172 -84 60 -150 71 -227 36z"/>
<path d="M8696 5123 c-3 -3 -6 -23 -6 -44 0 -34 3 -39 28 -45 34 -7 43 -11 65
-26 15 -11 21 -9 43 20 19 24 33 32 57 32 18 0 41 7 51 15 11 8 30 15 43 15
16 0 23 6 23 20 0 12 -7 20 -18 20 -9 0 -34 -9 -55 -20 -20 -11 -53 -20 -72
-20 -29 0 -37 -5 -45 -25 -11 -29 -12 -29 -57 -13 -26 10 -33 17 -33 39 0 28
-12 44 -24 32z"/>
<path d="M6797 5084 c-4 -4 -7 -31 -7 -61 l0 -53 65 0 66 0 -3 58 -3 57 -55 3
c-31 2 -59 0 -63 -4z"/>
<path d="M8130 5065 c-55 -29 -91 -67 -114 -122 -26 -59 -18 -73 43 -73 44 0
53 3 68 28 38 61 54 72 104 72 38 0 54 -6 76 -26 24 -22 28 -34 28 -79 0 -77
-27 -103 -109 -107 l-61 -3 -7 -75 c-4 -41 -5 -81 -3 -87 3 -8 24 -13 60 -13
53 0 55 1 55 28 0 22 8 32 38 47 53 28 112 75 112 90 0 7 7 18 15 25 11 9 15
33 15 89 0 66 -4 81 -28 118 -71 107 -188 142 -292 88z"/>
<path d="M906 5071 c-4 -6 -20 -11 -37 -11 -26 0 -79 -34 -79 -50 0 -4 16 -28
35 -54 29 -37 42 -46 66 -46 17 0 32 6 35 15 9 24 29 18 73 -22 65 -58 53
-115 -31 -151 -33 -13 -80 6 -105 44 -10 16 -25 24 -44 24 -38 0 -39 -27 -1
-41 15 -5 35 -20 44 -32 14 -18 27 -22 83 -22 64 0 68 1 95 35 39 46 40 98 4
146 -15 19 -33 34 -40 34 -8 0 -23 6 -34 12 -16 10 -24 10 -41 0 -37 -23 -88
8 -89 56 0 18 6 22 28 22 15 0 38 7 51 16 22 16 25 16 51 0 16 -9 37 -16 48
-16 23 0 112 -76 112 -95 0 -7 7 -18 15 -25 21 -18 20 -107 -3 -150 -30 -58
-54 -90 -67 -90 -7 0 -15 -6 -18 -14 -6 -14 -58 -27 -112 -28 -42 0 -87 12
-107 30 -16 14 -20 13 -36 -1 -27 -24 -51 -21 -64 9 -9 19 -9 33 -1 55 13 34
-3 52 -22 26 -7 -10 -17 -17 -24 -17 -24 0 -9 -44 28 -81 39 -40 68 -48 89
-27 8 8 15 8 24 1 26 -21 117 -30 186 -18 52 9 117 68 150 136 27 55 30 150 7
169 -8 7 -15 23 -15 36 0 31 -88 106 -137 117 -76 16 -111 19 -117 8z"/>
<path d="M3631 5030 c-28 -22 -51 -45 -51 -50 0 -6 9 -19 20 -30 11 -11 20
-22 20 -25 0 -15 44 -46 63 -43 27 4 28 17 2 32 -26 15 -54 48 -55 64 0 14 38
51 54 52 15 0 56 -50 56 -71 0 -10 7 -19 15 -19 27 0 16 44 -24 88 -21 23 -40
42 -44 42 -3 0 -28 -18 -56 -40z"/>
<path d="M5239 5032 c-56 -33 -79 -56 -101 -104 -18 -39 -15 -48 15 -48 11 0
28 -6 36 -14 35 -29 64 -27 105 10 21 18 48 34 60 34 27 0 96 -69 96 -95 0
-11 -14 -35 -31 -52 -34 -37 -75 -43 -123 -18 -40 21 -55 19 -62 -11 -8 -31 8
-49 33 -39 10 4 47 6 82 5 61 -1 64 0 97 36 26 28 34 45 34 74 0 107 -114 167
-197 104 -62 -47 -132 -12 -83 42 31 33 119 74 159 74 59 0 181 -85 181 -126
0 -9 7 -22 15 -30 9 -9 15 -34 15 -58 0 -27 -6 -48 -15 -56 -8 -7 -15 -18 -15
-25 0 -18 -44 -70 -83 -97 -20 -15 -52 -25 -87 -28 -48 -4 -56 -8 -68 -33 -13
-26 -15 -27 -31 -13 -10 9 -24 16 -33 16 -24 0 -29 12 -12 31 10 11 14 25 9
36 -6 16 -10 14 -36 -15 -28 -31 -29 -36 -16 -55 8 -12 25 -24 38 -25 13 -2
32 -11 41 -19 24 -22 61 -13 68 17 5 23 11 25 63 28 31 2 57 7 57 11 0 5 10
11 23 15 33 8 95 73 102 107 4 16 11 31 16 34 15 10 10 128 -6 149 -8 11 -15
27 -15 36 0 24 -64 87 -112 110 -62 30 -159 26 -219 -8z"/>
<path d="M7453 5037 c-13 -6 -23 -18 -23 -27 0 -9 -7 -25 -15 -36 -26 -35 -18
-59 28 -82 68 -34 94 -37 106 -13 14 25 0 36 -48 36 -43 0 -60 23 -43 59 15
33 66 37 82 5 13 -23 45 -22 45 1 0 13 -21 26 -95 60 -8 4 -25 3 -37 -3z"/>
<path d="M6514 5015 c-10 -8 -30 -15 -44 -15 -41 0 -102 -48 -135 -107 -18
-31 -18 -33 0 -53 10 -11 28 -20 41 -20 13 0 26 -4 29 -10 13 -21 55 -11 65
15 6 17 17 25 33 25 13 0 28 5 33 10 15 15 62 -6 91 -40 23 -26 31 -70 13 -70
-6 0 -15 -11 -20 -24 -11 -31 -57 -41 -119 -27 -51 11 -56 9 -64 -19 -6 -23 9
-36 26 -22 7 5 42 9 78 9 73 -1 91 10 122 76 17 37 17 40 0 70 -28 51 -45 67
-68 67 -11 0 -26 5 -32 11 -14 14 -62 -2 -102 -33 -18 -14 -33 -17 -60 -12
-20 4 -37 8 -39 9 -15 13 83 115 110 115 10 0 33 8 52 17 33 15 37 15 54 0 10
-9 30 -17 44 -17 18 0 40 -14 68 -43 92 -94 92 -212 0 -304 -25 -25 -52 -43
-66 -43 -27 0 -109 -34 -118 -49 -4 -6 -22 -11 -40 -11 -26 0 -35 5 -39 22 -4
12 -1 28 4 35 21 25 -2 35 -27 12 -32 -30 -32 -69 0 -69 13 0 26 -6 29 -14 3
-8 24 -16 48 -18 34 -3 43 0 47 14 2 9 13 20 23 23 10 4 19 11 19 16 0 5 20 9
44 9 26 0 48 6 56 15 7 8 18 15 24 15 15 1 76 85 76 107 0 10 7 27 15 37 8 11
15 32 15 46 0 14 -7 35 -15 46 -8 10 -15 31 -15 45 0 15 -7 32 -15 39 -8 7
-15 18 -15 24 -1 18 -87 76 -113 76 -13 0 -32 7 -43 15 -24 19 -45 19 -70 0z"/>
<path d="M5940 4985 c-7 -8 -21 -15 -31 -15 -10 0 -21 -5 -24 -10 -7 -11 12
-76 28 -97 13 -18 42 -16 57 2 7 8 20 15 30 15 28 0 30 22 8 73 -21 49 -45 60
-68 32z"/>
<path d="M8647 4977 c-8 -13 -17 -45 -18 -73 -4 -47 -3 -49 24 -52 16 -2 31
-10 34 -18 6 -16 59 -19 68 -4 10 16 -14 40 -31 33 -9 -3 -26 0 -40 7 -33 18
-35 85 -3 93 12 3 19 12 17 19 -8 22 -34 20 -51 -5z"/>
<path d="M8710 4961 c0 -5 14 -16 31 -25 25 -13 31 -13 35 -1 3 8 3 19 -1 25
-8 12 -65 14 -65 1z"/>
<path d="M375 4948 c-11 -6 -27 -14 -35 -18 -23 -11 -23 -51 0 -88 23 -37 34
-37 97 0 31 19 33 22 18 38 -8 9 -15 24 -15 33 0 16 -26 47 -38 46 -4 0 -16
-5 -27 -11z"/>
<path d="M1430 4906 c-25 -18 -50 -42 -55 -53 -6 -12 -16 -27 -22 -34 -11 -14
-18 -93 -15 -158 2 -31 4 -33 30 -26 15 3 34 13 43 21 8 8 21 14 29 14 9 0 11
11 7 38 -11 87 49 142 134 123 87 -20 118 -114 59 -179 -16 -18 -43 -35 -60
-38 -16 -4 -30 -13 -30 -20 0 -13 69 -144 76 -144 2 0 24 10 49 22 40 20 61
48 35 48 -22 0 -9 52 18 75 19 16 33 41 41 77 23 96 -20 192 -110 246 -29 18
-51 22 -110 21 -67 0 -78 -3 -119 -33z"/>
<path d="M1991 4913 c-12 -24 -18 -89 -8 -99 13 -14 97 -21 111 -10 15 12 28
87 17 104 -3 6 -29 14 -58 18 -45 5 -52 4 -62 -13z"/>
<path d="M3201 4891 c-123 -50 -182 -188 -131 -303 32 -73 42 -76 90 -28 40
40 41 42 26 65 -9 14 -16 42 -16 63 0 30 7 45 33 70 45 43 98 44 147 3 32 -26
35 -34 35 -80 0 -46 -3 -54 -38 -83 -20 -18 -37 -36 -37 -39 0 -3 26 -34 58
-67 l57 -61 38 35 c41 38 46 60 20 80 -17 12 -17 14 0 42 23 41 23 141 -1 185
-30 55 -65 88 -121 113 -63 28 -100 29 -160 5z"/>
<path d="M2637 4873 c-4 -3 -7 -13 -7 -20 0 -8 -10 -27 -22 -43 -18 -25 -20
-33 -10 -55 6 -14 19 -25 28 -25 9 0 31 -9 48 -19 40 -24 76 -13 76 24 0 26
-25 36 -33 13 -3 -10 -9 -10 -26 0 -11 6 -28 12 -36 12 -19 0 -19 23 0 60 17
34 27 37 45 15 7 -8 19 -15 27 -15 7 0 16 -7 19 -15 11 -27 36 -18 32 12 -2
22 -10 29 -40 36 -21 5 -38 13 -38 18 0 10 -53 12 -63 2z"/>
<path d="M3965 4742 c-49 -28 -70 -45 -94 -79 -24 -33 -22 -53 7 -53 10 0 27
-7 39 -15 20 -14 53 -12 53 4 1 20 35 45 72 51 75 14 128 -30 128 -108 0 -86
-95 -142 -165 -96 -31 20 -55 12 -55 -20 0 -13 -7 -37 -15 -52 -8 -16 -15 -41
-15 -56 0 -24 6 -29 42 -39 40 -10 43 -10 63 15 11 14 29 26 39 26 35 0 101
24 134 49 48 36 82 108 82 175 0 86 -43 153 -127 199 -41 23 -147 22 -188 -1z"/>
<path d="M7525 4740 c-11 -5 -31 -9 -44 -9 -29 -1 -93 -52 -120 -95 -23 -36
-38 -138 -27 -180 4 -17 13 -26 26 -26 11 0 20 4 20 9 0 5 14 14 30 20 28 9
30 13 29 54 -1 27 4 53 14 67 19 28 71 60 97 60 49 0 120 -73 120 -123 0 -35
-34 -78 -79 -98 -23 -10 -41 -24 -41 -31 0 -24 62 -138 76 -138 7 0 29 10 49
21 26 16 34 26 29 38 -17 41 -16 59 5 66 12 3 21 11 21 17 0 6 7 19 16 29 21
23 29 114 14 167 -7 28 -27 59 -55 87 -40 40 -58 49 -145 70 -8 2 -24 0 -35
-5z"/>
<path d="M576 4633 c-28 -24 -45 -47 -45 -60 -1 -13 3 -23 8 -23 5 0 19 -16
32 -35 18 -27 30 -35 49 -33 31 4 33 32 3 36 -30 4 -57 47 -44 71 24 45 95 30
103 -22 4 -26 26 -34 35 -11 4 11 -1 23 -15 35 -12 9 -22 21 -22 26 0 9 -44
53 -53 53 -3 0 -26 -17 -51 -37z"/>
<path d="M2216 4652 c-40 -23 -96 -83 -96 -103 0 -9 -7 -22 -15 -29 -19 -16
-21 -116 -2 -122 6 -3 39 -2 72 1 60 6 60 6 65 41 8 55 36 80 90 80 62 0 92
-32 88 -92 -2 -32 -8 -45 -24 -53 -12 -6 -28 -16 -35 -22 -8 -6 -30 -13 -49
-15 -30 -3 -35 -7 -38 -30 -4 -31 11 -36 34 -13 9 8 24 15 33 15 10 0 24 7 31
15 7 8 18 15 24 15 6 0 21 11 34 24 17 18 22 36 22 73 0 42 -4 53 -33 81 -29
28 -39 32 -90 32 -52 0 -58 -2 -84 -35 -15 -19 -30 -45 -33 -57 -5 -19 -14
-24 -48 -26 -42 -3 -42 -3 -42 31 0 19 7 40 15 47 8 7 15 17 15 22 0 17 37 58
75 83 30 21 48 25 110 25 68 0 77 -3 117 -33 23 -18 48 -43 54 -56 7 -12 17
-28 23 -34 17 -17 14 -152 -4 -167 -8 -7 -15 -18 -15 -25 0 -7 -20 -28 -45
-46 -27 -21 -45 -42 -45 -55 0 -27 -43 -67 -66 -62 -10 2 -21 14 -24 28 -6 25
-36 36 -34 13 1 -7 2 -24 3 -37 1 -31 25 -39 64 -22 18 8 43 16 57 18 19 2 26
11 31 38 4 19 13 36 20 39 18 6 69 63 69 77 0 6 7 17 15 24 11 9 15 34 15 95
0 61 -4 86 -15 95 -8 7 -15 18 -15 26 0 16 -55 75 -92 97 -38 23 -190 22 -232
-1z"/>
<path d="M4497 4564 c-4 -4 -7 -33 -7 -64 l0 -57 53 -6 c28 -3 56 -2 60 3 15
13 19 110 5 114 -30 10 -105 16 -111 10z"/>
<path d="M5866 4553 c-61 -19 -130 -85 -147 -141 -17 -59 -9 -72 49 -72 53 0
65 9 76 53 5 20 19 34 51 49 44 21 44 22 80 2 40 -21 75 -69 75 -104 0 -65
-74 -119 -145 -106 l-33 6 -4 -77 c-3 -43 -3 -84 0 -90 3 -8 24 -13 57 -13 54
0 65 8 65 50 0 12 10 20 30 24 45 8 112 83 128 139 6 26 12 59 12 72 0 91 -71
182 -163 209 -64 19 -67 19 -131 -1z"/>
<path d="M5132 4476 c-27 -53 -29 -95 -4 -102 9 -3 34 -14 54 -24 34 -19 68
-18 68 0 0 5 3 16 7 26 5 14 2 16 -20 10 -35 -8 -87 18 -87 44 0 11 10 28 22
40 18 17 24 18 37 6 28 -24 81 -47 81 -36 0 25 -22 50 -44 50 -13 0 -29 7 -36
15 -24 29 -55 18 -78 -29z"/>
<path d="M8150 4476 c0 -19 -2 -40 -5 -48 -9 -24 10 -36 68 -43 l58 -7 -3 63
-3 64 -57 3 -58 3 0 -35z"/>
<path d="M163 4493 c-17 -2 -37 -11 -43 -19 -7 -8 -17 -14 -22 -14 -12 0 -38
-25 -60 -59 -14 -21 -18 -48 -18 -129 0 -147 17 -170 84 -110 39 35 44 49 21
68 -8 7 -15 28 -15 47 0 73 74 126 144 103 47 -15 68 -42 73 -94 5 -42 3 -48
-31 -82 -20 -20 -36 -41 -36 -48 0 -7 24 -38 54 -70 l54 -57 41 36 c46 42 50
55 21 73 -24 15 -26 35 -5 52 11 9 15 33 15 89 -1 66 -4 81 -28 116 -55 78
-140 112 -249 98z"/>
<path d="M6340 4430 c-25 -49 -25 -81 -1 -102 26 -22 98 -33 116 -18 23 19 8
30 -44 30 -41 0 -50 3 -54 21 -9 32 20 69 53 69 15 0 33 -7 40 -15 13 -16 50
-21 50 -6 0 12 -68 46 -107 54 -31 6 -34 4 -53 -33z"/>
<path d="M3531 4427 c-22 -18 -40 -39 -40 -49 -1 -14 61 -88 73 -88 6 0 86 79
86 85 0 3 -18 23 -40 45 l-39 39 -40 -32z"/>
<path d="M6723 4436 c-65 -31 -65 -49 6 -127 29 -31 31 -32 49 -16 30 27 79
22 113 -12 35 -35 37 -70 8 -117 -19 -31 -25 -34 -69 -34 -42 0 -52 4 -75 33
-37 43 -51 50 -75 35 -28 -18 -25 -38 5 -38 13 0 40 -13 58 -30 29 -25 43 -30
84 -30 44 0 54 4 86 37 32 31 37 43 37 82 0 41 -4 49 -42 84 -41 37 -45 38
-99 34 -53 -5 -58 -3 -77 23 l-21 27 29 22 c36 26 140 30 160 6 7 -8 18 -15
24 -15 15 0 86 -72 86 -87 0 -6 7 -16 15 -23 10 -9 15 -32 15 -77 0 -47 -4
-65 -15 -69 -8 -4 -15 -14 -15 -23 0 -19 -59 -81 -77 -81 -6 0 -16 -7 -23 -15
-18 -22 -152 -21 -170 1 -10 11 -27 14 -62 12 -44 -3 -51 0 -66 24 -16 26 -15
28 3 42 19 14 19 15 2 21 -19 8 -57 -19 -57 -39 1 -6 21 -33 45 -60 42 -47 44
-48 66 -32 29 20 53 20 69 1 9 -11 33 -15 90 -15 57 0 81 4 90 15 7 8 20 15
30 15 10 0 20 7 24 15 3 8 12 15 21 15 8 0 15 6 15 14 0 7 7 19 15 26 8 7 15
20 15 30 0 10 7 23 15 30 11 9 15 32 15 80 0 48 -4 71 -15 80 -8 7 -15 20 -15
30 0 24 -63 86 -112 110 -55 26 -147 25 -205 -4z"/>
<path d="M1060 4433 c-23 -5 -83 -46 -123 -86 -29 -29 -18 -57 28 -73 54 -19
58 -18 76 14 9 15 32 33 53 40 32 12 42 12 70 -2 62 -29 87 -86 66 -150 -19
-59 -118 -99 -150 -61 -7 8 -23 15 -35 15 -24 0 -35 -17 -35 -53 0 -12 -7 -31
-15 -41 -27 -36 -19 -62 25 -80 40 -16 70 -13 70 8 1 26 20 37 70 41 65 6 101
28 146 90 31 44 34 55 34 119 0 65 -3 75 -36 123 -20 29 -51 61 -70 72 -34 20
-129 33 -174 24z"/>
<path d="M1707 4399 c-47 -24 -52 -37 -33 -83 19 -45 35 -52 78 -30 60 30 61
32 31 85 -14 27 -29 49 -32 48 -3 -1 -23 -10 -44 -20z"/>
<path d="M8623 4406 c-50 -18 -106 -69 -130 -118 -27 -53 -28 -71 -9 -87 20
-17 97 -10 106 9 4 8 13 27 20 41 15 32 59 59 97 59 21 0 41 -11 66 -37 49
-48 52 -102 8 -151 -27 -29 -35 -32 -90 -32 l-61 0 0 -84 0 -83 53 -6 c62 -6
67 -4 67 31 0 23 7 30 45 45 65 27 135 129 135 197 0 33 -31 113 -57 147 -51
67 -167 99 -250 69z"/>
<path d="M3006 4361 c-3 -4 -19 -11 -36 -15 -45 -8 -95 -51 -131 -110 -40 -64
-45 -146 -14 -213 26 -56 47 -62 95 -28 60 41 64 49 49 90 -17 46 0 81 54 109
l37 20 37 -31 c58 -46 57 -83 -1 -138 -25 -24 -46 -49 -46 -57 0 -7 12 -21 25
-31 22 -16 26 -16 31 -3 3 8 3 20 -1 25 -3 6 10 27 29 47 32 33 36 43 36 90 0
58 -17 84 -77 119 -31 18 -33 18 -75 0 -66 -29 -87 -59 -88 -126 0 -41 -5 -60
-18 -72 -24 -22 -30 -21 -53 6 -23 28 -26 118 -4 137 8 7 15 20 15 30 0 25 87
100 115 100 13 0 27 5 30 10 25 40 215 -52 215 -104 0 -7 7 -19 15 -26 22 -18
21 -127 -2 -153 -12 -13 -18 -35 -18 -68 0 -33 -6 -54 -18 -66 -16 -17 -19
-17 -52 1 -42 23 -55 15 -33 -22 22 -36 60 -40 103 -11 42 29 60 58 46 72 -16
16 -13 49 5 76 25 34 21 154 -5 208 -23 46 -111 123 -141 123 -10 0 -22 5 -25
10 -8 12 -92 13 -99 1z"/>
<path d="M4385 4240 c-3 -5 -20 -13 -37 -18 -53 -13 -54 -43 -3 -99 35 -38 46
-46 56 -35 7 6 32 12 54 12 81 0 122 -84 73 -150 -18 -26 -29 -30 -66 -30 -40
0 -49 4 -79 40 -38 44 -62 50 -80 21 -14 -22 -8 -31 22 -31 12 0 38 -13 56
-30 28 -24 43 -30 82 -30 33 0 49 5 53 15 4 8 11 15 16 15 23 0 47 46 48 91 0
39 -5 51 -37 82 -34 35 -40 37 -101 37 -54 0 -67 3 -82 22 -17 22 -17 23 7 45
20 19 35 23 92 23 49 0 72 -4 81 -15 7 -8 18 -15 24 -15 18 0 63 -51 86 -95
13 -25 20 -59 20 -93 0 -48 -4 -59 -46 -113 -25 -32 -52 -59 -60 -59 -8 0 -17
-7 -20 -15 -5 -12 -24 -15 -85 -15 -62 0 -81 3 -85 15 -7 17 -55 20 -71 4 -8
-8 -20 -3 -44 20 -30 29 -31 32 -16 49 22 24 21 32 -1 32 -18 0 -52 -29 -52
-43 0 -4 8 -15 18 -25 9 -10 29 -33 45 -50 30 -35 45 -40 53 -17 4 8 18 15 34
15 16 0 30 -7 34 -15 8 -23 144 -21 187 3 42 22 83 63 114 112 33 52 35 144 5
206 -27 55 -79 109 -113 118 -15 3 -27 11 -27 16 0 13 -147 13 -155 0z"/>
<path d="M3857 4193 c-3 -16 -9 -40 -13 -55 -5 -22 -2 -29 12 -34 16 -5 53
-20 76 -32 9 -5 48 72 48 96 0 21 -57 52 -94 52 -18 0 -25 -7 -29 -27z"/>
<path d="M5167 4201 c-86 -40 -137 -121 -137 -216 0 -68 8 -79 52 -68 54 14
68 32 66 85 -2 45 1 53 30 79 54 48 126 39 168 -22 21 -31 25 -46 21 -76 -7
-44 -52 -93 -84 -93 -35 0 -38 -24 -9 -76 14 -26 26 -52 26 -58 0 -7 5 -17 11
-23 12 -12 72 8 98 33 13 12 12 16 -4 34 -18 20 -18 21 11 53 65 71 81 154 42
229 -61 118 -184 169 -291 119z"/>
<path d="M7720 4206 c-6 -8 -21 -16 -33 -18 -28 -4 -33 -35 -13 -82 10 -24 21
-36 35 -36 19 0 91 37 91 47 0 2 -10 27 -21 54 -22 50 -38 60 -59 35z"/>
<path d="M2339 4093 c-33 -5 -40 -28 -25 -84 16 -65 19 -66 83 -61 64 5 83 15
83 43 0 23 -23 25 -40 4 -7 -8 -27 -15 -45 -15 -27 0 -35 5 -45 30 -20 47 -8
62 47 59 39 -3 48 0 51 14 3 14 -4 17 -40 16 -24 -1 -55 -4 -69 -6z"/>
<path d="M465 4015 c-19 -19 -35 -39 -35 -46 0 -15 62 -79 76 -79 13 0 84 67
84 79 -1 11 -70 81 -80 81 -6 0 -26 -16 -45 -35z"/>
<path d="M6474 4028 c-77 -61 -77 -61 -31 -123 24 -33 39 -44 60 -45 36 0 36
25 0 42 -15 7 -34 25 -42 40 -14 25 -14 28 9 47 14 11 31 20 38 21 20 0 51
-41 52 -68 0 -17 5 -22 18 -20 27 6 17 41 -24 87 -21 22 -40 41 -44 41 -4 0
-20 -10 -36 -22z"/>
<path d="M5857 3973 c-5 -8 -10 -74 -8 -101 1 -9 18 -12 64 -10 l62 3 0 55 0
55 -57 3 c-31 2 -58 -1 -61 -5z"/>
<path d="M936 3887 c-8 -7 -18 -33 -21 -59 -7 -46 -7 -47 26 -56 19 -5 41 -13
50 -16 11 -5 20 4 32 29 30 62 22 82 -40 103 -23 8 -35 7 -47 -1z"/>
<path d="M7140 3869 c-60 -32 -130 -135 -130 -192 0 -65 80 -211 107 -194 4 3
19 26 33 51 l24 45 -24 26 c-19 20 -25 38 -25 72 0 38 5 49 34 75 30 27 39 30
86 26 66 -6 96 -33 103 -95 4 -35 0 -51 -17 -73 -27 -37 -27 -56 2 -71 12 -7
39 -25 60 -41 37 -30 67 -32 67 -5 0 8 7 20 15 27 22 19 19 61 -5 67 -19 5
-20 11 -14 68 6 56 4 68 -21 114 -27 50 -47 67 -112 103 -43 24 -136 22 -183
-3z"/>
<path d="M3242 3832 c-23 -20 -42 -40 -42 -45 0 -15 75 -107 87 -107 7 0 33
15 58 32 37 26 45 38 43 58 -4 33 -34 39 -43 8 -14 -43 -59 -52 -89 -16 -19
21 -18 22 8 45 15 13 36 23 47 23 14 0 19 6 17 18 -6 30 -41 24 -86 -16z"/>
<path d="M4110 3820 c-11 -11 -22 -20 -25 -20 -10 0 -45 -40 -45 -51 0 -7 16
-32 36 -55 24 -30 43 -44 60 -44 34 0 31 27 -5 48 -17 9 -34 26 -40 38 -8 18
-5 25 17 43 14 11 30 21 34 21 15 0 48 -40 48 -58 0 -26 11 -34 27 -21 18 16
17 24 -9 53 -13 13 -31 34 -40 45 -22 26 -33 26 -58 1z"/>
<path d="M8627 3833 c-2 -5 -8 -30 -12 -57 -8 -59 -1 -66 72 -66 l51 0 7 51
c4 28 3 54 -1 59 -13 11 -112 22 -117 13z"/>
<path d="M1706 3806 c-88 -27 -161 -138 -153 -231 5 -59 35 -128 58 -133 15
-3 89 61 89 78 0 4 -7 13 -15 20 -9 7 -15 29 -15 55 0 35 6 48 37 78 48 48 85
49 137 5 29 -26 39 -43 43 -75 5 -39 2 -46 -31 -79 -20 -20 -36 -43 -36 -52 0
-17 94 -122 109 -122 4 0 24 18 45 39 l38 39 -21 18 c-24 21 -26 41 -6 68 22
29 19 128 -5 174 -36 69 -70 96 -149 121 -42 13 -74 13 -125 -3z"/>
<path d="M8099 3775 c-50 -33 -101 -99 -97 -127 2 -16 12 -24 36 -29 19 -4 39
-12 45 -18 20 -20 53 -12 75 19 19 25 29 30 66 30 45 0 57 -8 88 -66 17 -30
17 -30 -20 -72 -31 -35 -44 -42 -74 -42 -19 0 -41 7 -48 15 -19 23 -45 18 -58
-10 -11 -23 -10 -25 13 -25 13 0 27 5 31 11 5 8 10 6 16 -5 10 -19 78 -22 95
-5 6 6 22 17 35 23 12 6 24 20 26 31 2 11 8 30 14 42 13 26 0 63 -37 106 -20
23 -32 27 -76 27 -42 0 -58 -5 -89 -30 l-38 -30 -36 21 c-34 20 -35 22 -19 42
9 12 35 37 59 55 40 30 48 32 124 32 l82 0 54 -56 c31 -33 54 -66 54 -78 0
-12 7 -31 15 -43 13 -19 13 -24 0 -50 -8 -15 -15 -38 -15 -49 0 -24 -81 -114
-103 -114 -8 0 -20 -7 -27 -15 -7 -9 -29 -15 -55 -15 -34 0 -44 -4 -53 -24
-10 -23 -12 -24 -49 -11 -33 11 -38 17 -35 40 3 21 0 26 -15 23 -13 -2 -18
-12 -18 -38 0 -33 2 -36 43 -44 23 -6 42 -13 42 -18 0 -18 41 -6 56 17 9 14
26 25 39 25 40 0 112 39 157 85 90 91 84 245 -13 335 -52 49 -85 60 -172 59
-69 0 -88 -4 -118 -24z"/>
<path d="M280 3742 c-40 -8 -90 -39 -90 -56 0 -7 17 -31 37 -54 39 -45 79 -56
103 -27 11 13 8 15 -22 15 -39 0 -68 27 -68 64 0 21 6 24 50 30 92 12 145 -1
195 -50 25 -23 45 -49 45 -57 0 -8 7 -20 15 -27 22 -18 19 -96 -5 -145 -31
-65 -86 -110 -153 -125 -44 -10 -63 -11 -82 -2 -14 7 -37 12 -50 12 -13 0 -25
6 -28 13 -4 10 -7 10 -18 0 -20 -19 -52 -16 -73 8 -15 18 -16 25 -6 49 17 41
4 56 -26 28 -28 -27 -30 -48 -7 -69 10 -9 28 -28 40 -42 18 -22 27 -25 46 -18
31 12 114 2 128 -15 15 -18 40 -18 65 1 10 8 32 15 48 15 41 0 106 57 139 121
36 72 36 138 1 205 -24 47 -65 94 -80 94 -4 0 -15 7 -24 15 -19 17 -125 27
-180 17z"/>
<path d="M6060 3716 c-53 -16 -122 -93 -144 -158 l-19 -55 24 -68 c32 -90 45
-98 92 -51 41 40 44 51 22 80 -43 57 24 156 104 156 17 0 41 -13 64 -34 33
-30 37 -39 37 -81 0 -41 -5 -52 -35 -81 -19 -18 -35 -37 -35 -43 0 -5 25 -35
56 -66 l56 -56 38 33 c45 39 47 47 19 77 -20 21 -20 23 -4 41 13 14 17 37 17
93 0 62 -4 80 -25 113 -58 93 -165 132 -267 100z"/>
<path d="M2639 3685 c-20 -13 -51 -42 -68 -64 -28 -35 -33 -51 -38 -116 -8
-106 17 -128 86 -73 20 15 25 28 25 69 1 69 34 99 110 99 29 0 59 -6 67 -12
28 -24 49 -67 49 -102 0 -41 -47 -94 -91 -103 -32 -6 -38 -28 -14 -59 8 -10
15 -25 15 -33 0 -7 9 -29 21 -47 19 -32 21 -33 45 -19 83 51 77 45 59 66 -19
20 -14 34 33 87 24 27 37 105 27 164 -9 54 -59 119 -110 147 -58 31 -166 29
-216 -4z"/>
<path d="M5402 3670 c-24 -11 -42 -26 -42 -35 0 -17 37 -95 45 -95 10 0 95 43
100 50 6 10 -32 82 -48 91 -7 4 -32 -1 -55 -11z"/>
<path d="M4470 3659 c-43 -23 -100 -77 -100 -95 0 -7 -6 -19 -14 -26 -17 -18
-27 -115 -12 -127 6 -4 41 -6 79 -3 l67 4 0 31 c0 37 51 87 90 87 34 0 90 -57
90 -92 0 -16 -12 -38 -31 -57 -25 -25 -39 -31 -74 -31 -37 0 -44 -3 -49 -24
-3 -14 -3 -32 0 -40 9 -24 31 -19 38 9 5 21 12 25 45 25 33 0 44 6 70 37 25
31 31 47 31 87 0 44 -4 53 -37 83 -32 28 -46 33 -86 33 -42 0 -54 -5 -82 -33
-18 -18 -35 -44 -37 -58 -3 -21 -8 -24 -43 -24 -39 0 -40 1 -38 35 1 19 6 36
12 38 6 2 11 9 11 16 0 19 56 72 101 95 93 49 208 0 272 -116 42 -77 2 -189
-91 -253 -24 -17 -39 -36 -42 -55 -5 -27 -9 -30 -45 -30 -36 0 -40 3 -43 28
-2 15 -9 27 -18 27 -10 0 -14 -13 -14 -45 l0 -46 72 3 72 3 9 38 c6 25 17 41
31 47 66 25 116 115 116 210 0 100 -47 179 -133 220 -54 26 -167 26 -217 -1z"/>
<path d="M350 3611 c0 -5 10 -13 23 -16 32 -10 67 -54 67 -84 -1 -28 -31 -71
-49 -71 -7 0 -14 -7 -17 -15 -4 -8 -12 -15 -20 -15 -18 0 -84 46 -102 71 -8
12 -23 19 -35 17 -28 -4 -36 -38 -10 -38 11 0 30 -10 43 -22 13 -12 39 -30 58
-40 34 -17 37 -17 77 1 47 21 85 73 85 117 0 43 -53 104 -91 104 -16 0 -29 -4
-29 -9z"/>
<path d="M930 3545 c-7 -8 -20 -15 -30 -15 -21 0 -100 -76 -100 -96 0 -8 8
-18 18 -21 9 -4 31 -17 49 -31 35 -26 59 -24 88 8 28 31 85 27 118 -8 34 -35
35 -81 5 -122 -19 -26 -28 -30 -69 -30 -30 0 -51 5 -56 14 -4 7 -18 16 -30 20
-17 5 -26 1 -39 -19 -21 -32 -15 -39 21 -25 22 8 31 7 45 -5 10 -9 35 -15 62
-15 38 0 50 5 81 37 32 31 37 43 37 83 0 40 -5 52 -37 83 -32 33 -42 37 -85
37 -33 0 -50 -5 -54 -14 -8 -20 -50 -29 -74 -16 -33 18 -24 52 25 88 39 28 52
32 108 32 45 0 68 -5 77 -15 7 -8 18 -15 24 -15 15 0 76 -62 76 -77 0 -6 7
-16 15 -23 11 -9 15 -33 15 -87 0 -56 -4 -75 -15 -79 -8 -4 -15 -12 -15 -18 0
-16 -62 -76 -78 -76 -7 0 -15 -7 -18 -15 -5 -11 -23 -15 -74 -15 -48 0 -71 -4
-80 -15 -15 -18 -66 -20 -76 -3 -4 6 -7 26 -6 45 2 40 -19 45 -36 8 -17 -38
-15 -53 10 -61 13 -4 27 -13 33 -20 5 -8 24 -17 42 -20 25 -5 33 -2 42 15 10
18 21 21 81 21 39 0 70 4 70 9 0 5 10 13 23 17 32 10 66 37 67 52 0 7 7 15 15
18 8 4 15 14 15 24 0 10 7 23 15 30 11 9 15 33 15 90 0 57 -4 81 -15 90 -8 7
-15 20 -15 30 0 22 -68 90 -90 90 -10 0 -23 7 -30 15 -9 11 -33 15 -85 15 -52
0 -76 -4 -85 -15z"/>
<path d="M7539 3473 c-13 -21 -25 -41 -27 -44 -1 -3 18 -20 42 -37 l45 -32 35
43 c20 24 36 48 36 54 0 12 -72 53 -93 53 -8 0 -26 -17 -38 -37z"/>
<path d="M3370 3485 c-7 -8 -20 -15 -30 -15 -26 0 -110 -97 -110 -126 0 -16 6
-24 18 -24 9 0 26 -7 36 -15 32 -24 77 -18 110 15 43 44 85 41 125 -7 17 -21
31 -43 31 -50 0 -16 -20 -51 -42 -75 -23 -23 -103 -25 -112 -3 -3 8 -12 15
-20 15 -16 0 -50 -47 -38 -53 4 -2 40 -5 80 -6 64 -1 77 2 106 24 38 29 67 98
48 117 -7 7 -12 20 -12 29 0 9 -15 28 -34 43 -49 37 -102 36 -147 -4 -40 -35
-69 -38 -94 -10 -15 17 -16 22 -4 37 34 44 55 63 70 63 9 0 22 7 29 15 9 10
32 15 77 15 70 0 100 -15 159 -78 38 -41 63 -127 45 -160 -6 -11 -11 -31 -11
-44 0 -51 -108 -135 -181 -140 -36 -2 -46 -8 -57 -30 -14 -30 -26 -34 -45 -18
-7 6 -21 17 -32 24 -15 11 -17 17 -7 28 16 20 4 30 -19 17 -41 -21 -13 -79 37
-79 10 0 25 -7 35 -16 23 -21 46 -12 59 21 8 20 16 25 44 25 86 0 183 90 205
190 11 48 11 68 0 110 -16 63 -72 130 -132 159 -54 26 -167 30 -187 6z"/>
<path d="M8866 3425 c-15 -8 -34 -15 -41 -15 -25 0 -100 -86 -112 -128 -17
-55 -16 -124 1 -147 13 -18 15 -18 49 -2 44 21 51 32 49 74 -3 37 11 68 42 95
17 15 33 18 84 15 l62 -5 0 52 c0 50 -1 52 -33 64 -44 16 -66 15 -101 -3z"/>
<path d="M2027 3339 c-20 -17 -37 -37 -37 -45 0 -22 52 -84 71 -84 9 0 33 16
54 35 36 35 37 36 21 60 -9 14 -21 25 -26 25 -5 0 -12 9 -15 20 -9 28 -24 25
-68 -11z"/>
<path d="M17 3332 c-25 -28 -22 -44 8 -36 16 4 25 2 25 -5 0 -15 41 -71 52
-71 15 0 8 40 -9 58 -10 9 -27 30 -38 45 -20 28 -21 28 -38 9z"/>
<path d="M5154 3335 c-10 -8 -26 -15 -34 -15 -20 0 -79 -69 -86 -100 -3 -14
-9 -33 -15 -42 -19 -35 -1 -138 24 -138 5 0 30 11 53 25 40 24 43 27 32 50 -9
20 -8 32 8 61 26 49 50 64 105 64 43 0 51 -4 83 -42 20 -23 36 -50 36 -59 0
-51 -60 -119 -104 -119 -9 0 -16 -8 -16 -20 0 -25 60 -140 73 -140 15 0 87 43
87 52 0 5 -5 17 -12 27 -10 16 -5 26 26 65 36 43 38 50 39 118 1 104 -32 162
-120 211 -40 22 -151 23 -179 2z"/>
<path d="M1450 3271 c-98 -35 -170 -127 -170 -218 0 -58 25 -71 96 -50 39 11
50 19 53 38 9 68 104 98 155 50 32 -30 35 -80 6 -106 -22 -20 -84 -45 -111
-45 -29 0 -40 -56 -13 -67 9 -3 21 2 29 14 8 11 34 25 57 31 60 15 88 55 88
124 0 59 -15 79 -80 109 -33 15 -38 15 -77 -2 -27 -11 -52 -33 -72 -63 -26
-37 -38 -46 -61 -46 -19 0 -31 6 -35 19 -8 25 27 91 69 129 41 37 137 67 165
52 11 -5 30 -10 43 -10 27 -1 50 -19 101 -81 34 -42 37 -51 37 -109 0 -47 -6
-72 -22 -99 -26 -42 -74 -88 -105 -101 -12 -5 -23 -19 -25 -32 -2 -19 -10 -24
-41 -26 -32 -3 -38 0 -47 23 -13 34 -30 23 -30 -20 0 -26 5 -35 23 -41 12 -5
27 -7 32 -5 6 2 30 6 55 10 38 6 45 10 43 28 -2 13 8 28 25 39 38 27 102 95
102 110 0 7 5 14 12 16 19 7 12 173 -9 206 -30 48 -106 112 -140 118 -18 3
-36 10 -39 15 -8 13 -63 9 -114 -10z"/>
<path d="M6378 3246 c-21 -18 -38 -38 -38 -44 0 -6 18 -29 40 -52 l40 -42 39
33 c22 19 40 42 40 52 1 18 -61 87 -77 87 -4 -1 -24 -16 -44 -34z"/>
<path d="M4058 3261 c-20 -4 -45 -14 -55 -21 -43 -33 -83 -75 -83 -87 0 -8 -7
-24 -16 -37 -10 -17 -14 -43 -12 -87 3 -74 14 -82 78 -52 38 17 39 20 38 64
-3 56 26 97 79 115 32 11 41 10 74 -6 48 -25 69 -55 69 -101 0 -46 -36 -93
-85 -111 -19 -6 -35 -16 -35 -20 0 -5 11 -26 24 -47 13 -21 26 -49 28 -62 5
-38 35 -36 117 8 2 1 -1 15 -7 32 -9 27 -7 34 26 76 75 97 48 233 -64 312 -35
24 -119 36 -176 24z"/>
<path d="M7080 3244 c-14 -7 -32 -14 -40 -14 -18 0 -78 -54 -103 -93 -10 -16
-22 -52 -27 -80 -11 -71 4 -89 69 -80 59 7 87 25 94 60 6 27 52 63 82 63 19 0
85 -67 85 -86 0 -16 -28 -65 -45 -76 -5 -4 -23 -8 -38 -8 -45 0 -89 -27 -85
-53 4 -29 43 -35 57 -9 6 11 25 22 45 25 40 6 67 31 91 81 16 34 16 38 0 73
-10 21 -23 43 -30 49 -17 17 -72 44 -90 44 -27 0 -95 -50 -106 -78 -13 -33
-26 -42 -61 -42 -26 0 -28 3 -28 40 0 21 6 43 13 47 7 4 20 19 29 34 32 51
182 103 202 70 3 -4 18 -11 33 -14 36 -7 103 -74 110 -110 3 -15 10 -30 14
-33 11 -7 12 -69 0 -92 -4 -9 -16 -34 -27 -56 -10 -21 -30 -46 -44 -55 -14 -8
-31 -21 -38 -28 -7 -7 -18 -13 -23 -13 -5 0 -8 -12 -7 -27 3 -26 0 -28 -39
-31 -37 -3 -42 0 -45 20 -5 35 -32 29 -36 -8 -4 -43 13 -51 88 -45 62 6 64 7
71 37 8 40 17 54 35 54 28 0 67 53 99 134 19 50 19 77 -2 140 -21 60 -97 141
-143 151 -16 4 -32 11 -35 16 -9 14 -96 9 -125 -7z"/>
<path d="M8017 3220 c-10 -22 -17 -54 -15 -72 2 -27 8 -34 30 -36 14 -2 32
-10 38 -18 22 -26 70 -10 70 23 0 9 -8 11 -24 7 -30 -7 -86 21 -86 44 0 27 29
62 51 62 10 0 19 -4 19 -10 0 -15 58 -42 65 -30 9 15 -14 40 -37 40 -11 0 -26
7 -34 15 -28 27 -57 18 -77 -25z"/>
<path d="M2276 3215 c-11 -8 -27 -15 -36 -15 -9 0 -26 -10 -38 -23 l-21 -23
22 -24 c12 -14 30 -37 40 -52 19 -31 48 -36 67 -13 14 17 46 20 55 4 4 -5 17
-14 30 -19 31 -12 41 -67 21 -114 -14 -34 -17 -36 -65 -36 -44 0 -54 4 -83 36
-29 30 -38 34 -62 28 -32 -8 -32 -40 0 -37 12 1 33 -10 49 -27 26 -27 35 -30
89 -30 77 0 104 24 113 99 7 62 -10 92 -68 122 -35 18 -45 19 -70 8 -27 -10
-32 -9 -54 11 -14 13 -25 31 -25 39 1 34 137 69 155 41 4 -6 21 -16 39 -24 43
-18 106 -83 106 -110 0 -12 7 -34 15 -49 13 -26 13 -31 0 -50 -8 -12 -15 -33
-15 -47 0 -17 -18 -42 -55 -79 l-55 -54 -87 1 c-68 0 -89 3 -98 16 -15 20 -34
20 -59 1 -17 -13 -21 -12 -42 8 -27 25 -31 55 -9 63 18 7 20 34 3 34 -24 -1
-60 -39 -54 -57 9 -27 70 -93 86 -93 7 0 22 7 32 17 17 15 19 15 36 0 15 -13
39 -17 115 -17 60 0 97 4 97 10 0 6 11 15 24 20 13 4 41 30 62 56 l39 47 -1
98 c0 78 -4 102 -17 117 -9 10 -17 22 -17 26 0 15 -76 76 -95 76 -11 0 -29 7
-39 15 -25 19 -105 19 -130 0z"/>
<path d="M0 3180 c0 -16 5 -21 23 -18 12 2 22 10 22 18 0 8 -10 16 -22 18 -18
3 -23 -2 -23 -18z"/>
<path d="M2898 3164 c-27 -13 -48 -26 -48 -27 0 -14 44 -89 55 -93 16 -6 95
32 95 47 0 13 -37 86 -47 92 -5 3 -29 -6 -55 -19z"/>
<path d="M5886 3125 c-11 -8 -27 -15 -35 -15 -25 -1 -67 -41 -91 -87 -25 -48
-22 -57 23 -77 64 -29 72 -28 113 9 48 42 91 46 128 11 35 -31 36 -97 4 -132
-27 -27 -92 -33 -123 -10 -16 12 -22 12 -42 -1 -24 -16 -30 -38 -13 -48 6 -3
15 -3 22 1 6 4 40 6 76 5 61 -2 66 -1 98 30 31 30 34 38 34 90 0 55 -2 59 -39
88 -53 42 -104 42 -149 1 -41 -37 -88 -41 -101 -7 -7 18 -3 29 27 60 20 20 41
37 48 37 6 0 17 7 24 15 9 10 32 15 75 15 43 0 66 -5 75 -15 7 -8 18 -15 25
-15 8 0 34 -24 59 -52 l46 -53 0 -77 c0 -56 -4 -83 -15 -95 -9 -10 -26 -30
-38 -44 -36 -41 -90 -69 -136 -69 -34 0 -43 -4 -50 -24 -5 -13 -18 -26 -30
-29 -24 -6 -61 30 -61 61 0 29 -26 28 -32 -1 -7 -38 8 -67 35 -67 14 0 30 -7
37 -15 20 -24 47 -18 67 15 15 26 23 30 59 30 25 0 47 6 54 15 7 8 18 15 26
15 21 0 84 68 84 91 0 11 7 22 15 25 24 10 21 149 -5 199 -25 49 -79 105 -101
105 -9 0 -22 7 -29 15 -17 20 -137 20 -164 0z"/>
<path d="M8950 3107 c-28 -15 -32 -58 -6 -86 8 -9 16 -27 18 -41 2 -14 11 -26
21 -28 15 -3 17 6 17 82 0 92 -3 97 -50 73z"/>
<path d="M4592 3095 c-30 -7 -56 -15 -59 -18 -9 -10 9 -118 22 -131 10 -10 25
-10 69 -2 61 13 82 27 73 50 -5 13 -11 13 -53 -1 -45 -15 -48 -15 -61 2 -18
26 -16 39 7 60 17 15 24 16 45 7 25 -12 55 -7 55 8 0 11 -29 40 -38 39 -4 -1
-31 -7 -60 -14z"/>
<path d="M750 3010 c-14 -22 -28 -40 -32 -40 -5 0 -8 -11 -8 -25 0 -19 8 -29
28 -38 15 -7 39 -20 54 -30 21 -15 31 -16 48 -7 27 14 20 36 -10 32 -13 -1
-30 4 -39 11 -9 8 -24 17 -35 21 -17 6 -17 8 -4 24 8 9 18 25 21 35 4 9 11 17
17 17 19 0 54 -21 72 -44 15 -18 19 -19 27 -6 12 18 -23 60 -50 60 -9 0 -22 7
-29 15 -20 24 -34 18 -60 -25z"/>
<path d="M7622 3030 c-42 -23 -87 -72 -114 -127 -29 -59 -21 -72 44 -70 51 2
54 4 76 44 57 104 202 66 202 -52 0 -32 -7 -51 -25 -74 -23 -27 -33 -30 -88
-33 l-62 -3 -6 -75 c-3 -41 -1 -81 4 -87 5 -8 31 -13 58 -13 48 0 49 1 49 30
0 24 7 32 38 46 49 23 112 72 112 89 0 7 7 18 15 25 11 9 15 33 15 91 0 66 -4
85 -24 117 -27 42 -56 69 -103 95 -42 23 -146 21 -191 -3z"/>
<path d="M269 2972 c-73 -48 -136 -142 -117 -175 6 -12 23 -17 58 -17 46 0 51
3 66 32 25 49 42 61 92 66 37 3 53 0 74 -17 56 -45 54 -135 -5 -181 -22 -18
-38 -21 -85 -18 l-57 3 -3 -79 c-2 -44 1 -83 5 -87 4 -4 31 -9 58 -11 49 -3
50 -3 53 28 3 29 32 54 63 54 19 0 78 52 99 87 28 48 32 183 7 211 -10 10 -17
23 -17 28 0 15 -50 59 -87 78 -44 22 -168 21 -204 -2z"/>
<path d="M8460 2962 c-55 -5 -94 -28 -145 -84 -46 -51 -53 -74 -25 -89 89 -47
116 -49 150 -9 36 44 81 41 125 -7 19 -21 35 -45 35 -53 0 -23 -77 -90 -102
-90 -13 0 -32 7 -42 15 -30 23 -65 19 -75 -7 -5 -13 -7 -26 -5 -29 1 -3 39 -6
84 -7 92 -2 117 9 149 64 26 43 26 63 4 105 -29 54 -52 68 -112 69 -45 0 -58
-4 -88 -30 l-34 -30 -29 22 c-27 20 -29 24 -17 42 8 12 36 36 63 54 38 25 59
32 97 32 54 0 109 -22 145 -56 55 -53 91 -163 64 -197 -5 -6 -12 -23 -15 -37
-8 -29 -72 -100 -91 -100 -8 0 -19 -7 -26 -15 -8 -10 -30 -15 -61 -15 -42 0
-50 -3 -62 -26 -9 -17 -17 -23 -21 -15 -4 6 -19 11 -33 11 -24 0 -25 2 -19 40
3 22 3 40 -2 40 -14 0 -52 -40 -52 -55 0 -22 41 -55 67 -55 13 0 26 -7 29 -15
10 -25 42 -17 59 15 13 25 21 30 54 30 21 0 53 7 72 16 47 23 116 97 124 133
4 17 11 33 16 36 15 10 10 108 -6 129 -8 11 -15 26 -15 33 0 24 -43 73 -90
102 -45 28 -103 39 -170 33z"/>
<path d="M3260 2936 c0 -13 -7 -29 -15 -36 -9 -7 -15 -29 -15 -51 0 -34 3 -39
24 -39 13 0 29 -7 36 -16 18 -21 74 -15 78 9 3 13 -3 17 -28 17 -40 0 -80 27
-80 54 0 11 12 29 26 39 22 16 27 17 37 5 13 -16 75 -43 82 -36 12 12 -29 48
-54 48 -16 0 -34 7 -41 15 -20 24 -50 19 -50 -9z"/>
<path d="M6498 2867 c-66 -51 -88 -97 -88 -189 0 -89 4 -92 76 -58 41 20 41
21 36 65 -6 58 14 88 70 106 38 13 48 13 80 0 62 -26 89 -109 54 -164 -10 -14
-38 -34 -62 -43 -46 -18 -52 -28 -31 -53 7 -9 22 -36 32 -61 29 -69 26 -68
108 -24 26 15 27 17 13 33 -23 25 -20 41 12 76 82 88 60 241 -46 313 -44 30
-53 32 -129 32 -77 0 -84 -2 -125 -33z"/>
<path d="M2842 2876 c-40 -15 -122 -82 -122 -100 0 -8 -7 -19 -16 -26 -10 -9
-14 -26 -12 -49 l3 -36 55 0 c48 0 55 3 60 23 7 30 56 81 86 88 31 8 75 -10
106 -43 43 -46 20 -149 -37 -170 -11 -3 -42 -7 -70 -7 l-50 -1 0 -85 0 -84 55
-1 c53 0 55 1 60 30 4 21 12 31 27 33 12 2 27 10 33 18 7 8 18 14 25 14 13 0
65 62 65 78 0 5 7 15 15 22 24 20 20 130 -6 180 -53 102 -175 153 -277 116z"/>
<path d="M4796 2855 c-11 -8 -28 -15 -38 -15 -21 0 -58 -34 -58 -52 0 -7 17
-32 38 -55 39 -44 77 -56 88 -28 9 22 27 19 73 -12 38 -24 41 -30 41 -70 0
-60 -25 -83 -88 -83 -43 0 -52 4 -78 35 -31 38 -54 44 -74 20 -10 -13 -7 -17
21 -29 19 -8 43 -24 53 -35 16 -17 31 -21 82 -21 57 0 64 2 88 31 20 24 26 41
26 80 0 42 -5 54 -29 78 -36 36 -98 58 -114 42 -19 -19 -45 -12 -67 19 -23 32
-20 50 9 50 10 0 24 7 32 16 9 11 24 14 48 11 66 -9 112 -34 162 -87 l49 -53
0 -77 c0 -57 -4 -81 -15 -90 -8 -7 -15 -18 -15 -24 0 -24 -81 -81 -123 -88
-56 -9 -144 1 -158 18 -15 18 -38 18 -45 -1 -4 -8 -12 -15 -19 -15 -31 0 -66
77 -39 87 18 7 18 33 1 33 -8 0 -26 -10 -41 -23 l-27 -23 38 -52 c26 -35 45
-52 61 -52 12 0 22 5 22 10 0 13 33 13 45 1 11 -10 90 -16 166 -13 40 2 53 8
96 50 74 70 83 90 83 175 0 53 -6 85 -20 114 -22 46 -97 113 -126 113 -10 0
-28 7 -38 15 -25 19 -85 19 -110 0z"/>
<path d="M5425 2820 c-3 -5 -14 -10 -24 -10 -10 0 -30 -10 -45 -21 -23 -18
-25 -23 -13 -38 7 -9 18 -28 25 -43 6 -16 17 -28 24 -28 23 1 98 39 98 50 0
12 -49 100 -55 100 -2 0 -7 -4 -10 -10z"/>
<path d="M2000 2801 c0 -5 -16 -19 -35 -32 -19 -13 -35 -33 -35 -43 0 -23 66
-106 84 -106 8 0 19 7 26 15 10 12 9 16 -6 21 -29 10 -64 45 -64 64 0 8 10 24
21 34 17 14 26 16 45 7 13 -6 24 -15 24 -21 0 -15 33 -50 47 -50 21 0 15 25
-13 51 -14 13 -30 34 -35 47 -6 15 -17 22 -34 22 -14 0 -25 -4 -25 -9z"/>
<path d="M3646 2801 c-3 -5 -20 -12 -38 -15 -58 -11 -166 -133 -136 -153 35
-22 64 -34 97 -39 32 -5 42 -1 70 25 37 35 60 38 97 14 39 -25 54 -70 35 -108
-8 -16 -19 -33 -25 -37 -17 -12 -105 -9 -127 3 -15 7 -24 7 -35 -2 -18 -15
-20 -64 -1 -52 6 4 48 8 93 9 93 1 114 14 135 82 10 35 9 45 -7 78 -21 43 -75
84 -111 84 -13 0 -42 -14 -65 -30 -52 -38 -92 -38 -96 1 -2 21 6 33 36 58 22
17 49 31 60 31 12 0 24 5 27 10 3 6 21 10 40 10 19 0 37 -4 40 -10 3 -5 18
-10 32 -10 63 0 163 -164 134 -218 -6 -11 -11 -30 -11 -42 0 -14 -22 -43 -56
-76 -48 -46 -61 -54 -94 -54 -49 0 -90 -15 -90 -34 0 -8 -9 -18 -21 -21 -26
-9 -69 29 -66 58 3 35 -29 33 -36 -2 -7 -35 0 -61 17 -61 6 0 30 -10 53 -22
l43 -23 28 31 c21 23 40 32 75 37 90 13 160 77 191 178 17 52 17 59 2 103 -9
26 -16 53 -16 60 0 25 -101 115 -136 122 -19 3 -37 10 -40 15 -3 5 -25 9 -49
9 -24 0 -46 -4 -49 -9z"/>
<path d="M4263 2720 c-24 -11 -43 -25 -43 -31 0 -7 10 -32 21 -56 23 -47 21
-47 91 -15 39 18 48 41 24 62 -8 6 -16 21 -18 33 -4 28 -23 30 -75 7z"/>
<path d="M928 2720 c-45 -8 -100 -49 -133 -98 -29 -44 -44 -156 -26 -190 l12
-22 48 24 c47 24 48 26 47 70 -2 78 63 131 139 112 43 -11 85 -64 85 -107 0
-43 -40 -93 -89 -110 -30 -11 -42 -41 -22 -54 5 -3 21 -30 35 -60 14 -30 27
-55 29 -55 3 0 26 12 51 26 43 24 46 28 32 43 -21 24 -21 25 17 68 45 52 62
123 45 189 -14 57 -55 115 -101 142 -35 22 -112 31 -169 22z"/>
<path d="M1535 2691 l-50 -6 -3 -64 c-2 -35 2 -69 7 -74 11 -11 100 -11 134
-1 10 3 17 15 17 29 0 31 -14 39 -35 19 -8 -9 -30 -17 -47 -18 -28 -1 -33 3
-38 31 -9 42 1 55 41 53 56 -3 69 -1 69 14 0 13 -23 28 -38 24 -4 0 -29 -4
-57 -7z"/>
<path d="M7153 2663 l-53 -4 0 -63 c0 -35 5 -67 12 -74 7 -7 37 -12 68 -12 58
0 80 11 80 42 0 29 -30 34 -49 9 -24 -32 -67 -20 -76 20 -9 42 1 51 59 48 46
-3 51 -1 54 19 3 18 -1 22 -20 20 -13 -1 -47 -3 -75 -5z"/>
<path d="M5766 2578 c-8 -13 -16 -45 -18 -73 -3 -43 0 -50 17 -53 11 -2 27
-11 37 -19 21 -18 73 -14 73 7 0 10 -10 15 -30 15 -43 0 -75 32 -68 69 4 17
14 31 25 34 23 6 20 35 -4 40 -9 2 -23 -7 -32 -20z"/>
<path d="M5830 2560 c0 -5 4 -10 10 -10 5 0 18 -10 30 -22 26 -28 48 -12 31
21 -12 22 -71 31 -71 11z"/>
<path d="M5356 2517 c-53 -15 -131 -92 -147 -145 -17 -58 -8 -72 43 -72 52 0
60 5 82 50 15 34 63 70 91 70 23 0 82 -39 99 -65 50 -76 -23 -171 -125 -163
l-34 3 -6 -75 c-3 -41 -2 -80 2 -85 5 -6 32 -11 61 -10 52 0 53 1 53 30 1 23
6 31 22 33 12 2 27 10 33 18 7 8 18 14 24 14 20 0 69 68 88 122 17 49 17 55 1
111 -23 82 -88 148 -162 165 -60 14 -71 14 -125 -1z"/>
<path d="M7647 2474 c-4 -4 -7 -33 -7 -64 l0 -57 53 -6 c28 -2 55 -3 60 0 4 2
7 31 7 64 l0 59 -39 0 c-22 0 -46 2 -53 5 -8 3 -17 2 -21 -1z"/>
<path d="M1672 2422 c-18 -15 -32 -32 -32 -39 0 -6 17 -29 38 -50 37 -39 38
-40 100 -35 56 4 64 2 82 -19 13 -16 19 -39 20 -70 0 -39 -4 -48 -30 -67 -44
-33 -71 -28 -123 23 -53 51 -69 55 -85 20 -13 -28 -2 -40 27 -30 14 4 23 0 31
-15 6 -11 17 -20 24 -20 8 0 19 -7 26 -15 7 -8 27 -15 45 -15 18 0 38 7 45 15
7 8 18 15 25 15 28 0 45 36 45 97 0 57 -2 62 -34 87 -29 21 -45 26 -95 26 -53
0 -63 3 -76 24 -13 19 -14 29 -5 45 9 19 20 21 90 21 91 0 125 -17 178 -87 30
-39 32 -48 32 -120 l0 -78 -46 -53 c-25 -28 -54 -52 -64 -52 -9 0 -23 -7 -30
-15 -18 -21 -108 -20 -132 2 -14 12 -35 17 -74 16 -44 -1 -57 2 -68 19 -13 18
-13 24 -1 42 8 11 15 26 15 32 0 20 -40 4 -57 -22 -17 -27 -16 -30 44 -94 26
-27 35 -32 45 -22 17 17 70 15 94 -3 26 -20 105 -19 151 2 49 22 123 81 123
97 0 8 7 19 15 26 11 10 15 36 15 110 0 78 -3 99 -15 104 -8 3 -15 11 -15 19
0 15 -61 77 -77 77 -6 0 -16 7 -23 15 -9 11 -35 15 -104 15 -84 -1 -93 -3
-124 -28z"/>
<path d="M4480 2414 c-25 -20 -46 -41 -48 -47 -1 -7 11 -27 28 -45 16 -18 30
-37 30 -42 0 -22 56 -26 64 -4 4 11 -4 19 -28 29 -30 13 -46 32 -46 55 0 5 12
20 27 34 l26 25 24 -22 c12 -12 23 -30 23 -40 0 -20 27 -34 40 -21 11 11 -65
114 -83 113 -7 0 -32 -16 -57 -35z"/>
<path d="M6166 2441 c-4 -5 -23 -12 -44 -16 -41 -7 -60 -21 -109 -78 -45 -52
-43 -72 10 -96 23 -10 49 -20 57 -22 20 -4 60 10 60 22 0 5 16 15 36 24 32 13
38 13 62 -2 40 -24 52 -43 52 -78 0 -48 -40 -80 -93 -76 -103 7 -111 7 -115
-12 -2 -10 -1 -25 2 -34 6 -14 9 -14 26 2 16 15 26 16 60 7 86 -22 150 29 150
120 -1 62 -16 85 -75 111 -39 18 -41 17 -88 -3 -26 -12 -47 -25 -47 -31 0 -6
-17 -9 -37 -7 -30 2 -39 8 -41 24 -4 29 71 94 109 94 15 0 31 5 34 10 3 6 17
10 30 10 13 0 27 -4 30 -10 3 -5 18 -10 33 -10 33 0 96 -53 123 -104 25 -47
25 -125 0 -174 -33 -65 -80 -100 -146 -113 -33 -7 -69 -20 -80 -29 -11 -9 -26
-20 -33 -24 -20 -12 -52 23 -52 56 0 39 -23 36 -43 -7 -18 -37 -19 -36 41 -67
57 -29 89 -32 96 -10 8 23 39 38 99 47 52 8 106 48 145 109 23 36 26 51 26
121 -1 72 -4 85 -33 132 -32 52 -84 91 -131 100 -14 2 -29 8 -34 14 -13 12
-73 12 -80 0z"/>
<path d="M8918 2398 c-27 -28 -48 -57 -48 -64 0 -8 -5 -23 -12 -33 -6 -10 -8
-26 -5 -35 9 -22 102 -23 111 -1 3 8 12 15 21 15 12 0 15 15 15 85 0 104 -12
109 -82 33z"/>
<path d="M8292 2405 c-12 -14 -22 -34 -22 -44 0 -10 -7 -24 -15 -31 -12 -10
-12 -15 2 -36 8 -13 23 -24 32 -24 10 0 26 -7 37 -15 28 -22 61 -19 69 6 8 23
-9 41 -30 33 -6 -3 -24 0 -38 5 -37 14 -39 67 -2 81 20 8 29 5 52 -16 30 -27
48 -27 48 2 0 11 -8 20 -20 22 -11 2 -27 10 -35 17 -31 26 -55 26 -78 0z"/>
<path d="M267 2413 c-4 -3 -7 -30 -7 -59 l0 -52 56 -7 c67 -8 74 -2 74 66 0
34 -5 49 -16 53 -21 8 -99 8 -107 -1z"/>
<path d="M7280 2372 c-65 -45 -121 -126 -105 -151 3 -6 16 -11 29 -11 12 0 31
-7 42 -15 10 -8 27 -15 37 -15 18 0 57 33 57 50 0 6 24 10 53 10 47 0 56 -3
75 -30 32 -43 28 -80 -11 -118 -37 -36 -79 -42 -108 -16 -27 24 -69 11 -69
-21 0 -29 17 -33 35 -8 13 17 14 17 32 0 24 -21 76 -22 93 -2 7 8 18 15 24 15
23 0 56 58 56 97 0 29 -8 47 -35 76 -31 34 -38 37 -88 37 -42 0 -58 -5 -73
-21 -33 -36 -52 -42 -79 -22 -13 10 -25 25 -25 32 0 18 49 71 66 71 6 0 17 7
24 15 9 11 33 15 87 15 71 0 76 -2 128 -41 30 -23 55 -49 55 -59 0 -10 7 -23
15 -30 10 -9 15 -32 15 -75 0 -43 -5 -66 -15 -75 -8 -7 -15 -18 -15 -25 0 -16
-66 -75 -109 -97 -19 -10 -48 -18 -65 -18 -16 0 -34 -6 -40 -14 -11 -15 -26
-19 -63 -17 -17 1 -22 8 -25 36 -4 45 -20 46 -31 3 -7 -27 -5 -35 13 -50 12
-10 33 -18 46 -18 12 0 26 -4 29 -10 10 -17 32 -11 38 10 3 11 17 22 33 25 90
20 204 95 204 133 0 10 7 26 15 36 21 27 21 149 0 166 -8 7 -15 19 -15 27 0
17 -72 93 -88 93 -5 0 -15 7 -22 15 -19 22 -186 20 -220 -3z"/>
<path d="M6773 2362 c-40 -19 -46 -35 -29 -75 29 -63 29 -64 85 -36 48 23 62
41 41 54 -5 3 -10 14 -10 24 0 19 -30 52 -46 50 -5 -1 -23 -8 -41 -17z"/>
<path d="M2323 2311 c-107 -60 -146 -122 -141 -224 l3 -62 38 1 c52 2 80 29
72 70 -12 67 39 121 115 122 33 1 44 -5 74 -39 26 -27 36 -48 36 -71 0 -47
-38 -96 -82 -109 -21 -5 -38 -15 -38 -20 0 -6 11 -33 25 -61 14 -27 25 -56 25
-64 0 -25 26 -26 69 -4 41 21 52 45 30 67 -9 9 -5 18 14 35 14 13 35 49 47 79
34 84 17 161 -50 228 -66 65 -172 89 -237 52z"/>
<path d="M2845 2301 c-9 -16 -15 -82 -9 -103 4 -15 17 -18 65 -18 l59 0 0 60
0 60 -32 0 c-18 0 -43 3 -54 6 -12 3 -25 1 -29 -5z"/>
<path d="M4075 2278 c-80 -21 -147 -87 -165 -165 -11 -45 -11 -63 0 -106 15
-58 36 -97 54 -97 17 0 76 63 76 80 0 8 -7 24 -15 34 -8 11 -15 28 -15 37 0
35 39 85 81 103 39 18 42 18 76 0 86 -45 96 -135 21 -194 -16 -12 -28 -25 -28
-30 0 -13 106 -120 119 -120 6 0 26 17 45 37 l34 37 -20 26 c-18 25 -18 28 -2
65 21 51 13 143 -17 191 -27 44 -86 89 -125 97 -18 3 -42 8 -55 11 -13 2 -42
0 -64 -6z"/>
<path d="M3487 2250 c-9 -11 -17 -28 -17 -38 0 -10 -7 -27 -15 -38 -19 -25
-19 -54 0 -54 8 0 32 -9 54 -21 49 -25 86 -22 86 6 0 16 -7 20 -37 20 -46 1
-69 26 -58 64 6 22 11 26 40 23 18 -2 40 -12 49 -23 12 -14 20 -16 31 -9 21
14 2 42 -38 56 -18 5 -37 15 -44 22 -17 17 -31 15 -51 -8z"/>
<path d="M0 2181 c0 -11 15 -35 34 -53 36 -35 66 -103 66 -151 0 -27 -2 -32
-33 -95 -20 -40 -21 -59 -4 -65 19 -6 -11 -54 -39 -61 -18 -5 -24 -13 -24 -33
0 -25 1 -25 18 -10 10 10 22 17 26 17 4 0 20 10 36 22 31 22 39 55 19 75 -7 7
-7 17 -1 29 44 87 54 162 27 198 -8 11 -15 26 -15 34 0 21 -50 82 -82 98 -26
14 -28 13 -28 -5z"/>
<path d="M1128 2179 c-42 -21 -45 -33 -24 -84 18 -42 46 -46 100 -14 20 12 36
22 36 24 0 14 -54 95 -63 94 -7 -1 -29 -10 -49 -20z"/>
<path d="M4857 2143 c-53 -15 -157 -100 -157 -130 0 -15 37 -32 85 -40 25 -4
33 1 50 26 21 32 68 47 108 35 34 -10 87 -75 87 -105 0 -58 -57 -119 -110
-119 -14 0 -38 7 -54 15 -40 21 -44 20 -62 -22 -9 -21 -23 -52 -31 -70 -17
-35 -12 -63 12 -63 9 0 27 -7 40 -16 29 -19 52 -7 57 29 3 19 8 22 39 19 59
-5 140 44 184 113 29 45 28 167 -2 215 -30 49 -66 81 -111 98 -41 16 -107 23
-135 15z"/>
<path d="M8300 2103 c-87 -58 -120 -116 -120 -213 0 -49 4 -70 13 -71 29 -3
52 4 78 23 25 19 28 26 23 62 -15 109 133 152 205 60 33 -42 23 -98 -26 -141
-20 -18 -44 -33 -54 -33 -25 0 -33 -18 -16 -38 7 -9 23 -39 33 -66 10 -26 24
-50 31 -53 12 -5 88 31 97 46 3 5 -1 14 -9 21 -22 18 -19 33 15 65 17 16 30
34 30 41 0 6 7 25 15 40 19 38 19 59 -3 122 -22 60 -58 103 -114 132 -50 26
-162 28 -198 3z"/>
<path d="M3070 2036 c-55 -37 -104 -97 -122 -152 -23 -66 -22 -77 2 -99 16
-14 24 -16 47 -7 16 6 42 12 58 14 25 2 30 7 28 26 -2 13 4 25 12 28 8 4 15
10 15 15 0 19 41 49 68 49 16 0 42 -11 58 -25 58 -50 28 -155 -45 -155 -44 0
-61 -10 -61 -35 0 -34 21 -43 38 -17 8 12 24 22 36 22 11 1 36 14 55 30 32 27
34 32 33 92 -1 58 -3 65 -34 90 -24 20 -44 28 -75 28 -23 0 -45 -5 -48 -11 -4
-5 -18 -14 -31 -19 -13 -5 -24 -18 -24 -28 0 -28 -27 -59 -57 -65 -51 -10 -82
25 -48 53 8 7 15 20 15 30 0 23 59 82 109 108 51 27 148 31 157 7 4 -8 13 -15
20 -15 20 0 74 -41 74 -56 0 -7 5 -14 11 -16 16 -5 28 -93 21 -152 -4 -43 -12
-56 -63 -107 -38 -38 -59 -67 -61 -86 -3 -25 -7 -28 -45 -31 -38 -3 -42 -1
-45 23 -5 38 -23 31 -26 -10 -4 -44 9 -50 86 -39 52 8 57 11 60 36 2 17 25 49
61 86 55 56 58 63 63 118 3 33 3 83 1 111 -5 46 -11 59 -52 100 -66 69 -99 83
-184 82 -58 0 -79 -5 -107 -23z"/>
<path d="M1440 2020 c-11 -11 -23 -20 -27 -20 -5 0 -15 -11 -25 -23 -16 -23
-15 -25 30 -75 26 -29 53 -52 60 -52 22 0 9 44 -15 55 -32 14 -45 48 -27 74
21 29 49 26 73 -6 36 -48 42 -54 52 -48 17 11 9 30 -31 73 -44 47 -61 51 -90
22z"/>
<path d="M0 1980 c0 -25 4 -39 10 -35 13 8 13 62 0 70 -6 4 -10 -10 -10 -35z"/>
<path d="M495 2010 c-16 -4 -42 -11 -56 -14 -27 -6 -119 -87 -119 -105 0 -12
42 -35 80 -44 20 -5 32 1 59 28 58 60 132 43 171 -38 11 -23 20 -45 20 -49 0
-23 -55 -91 -86 -105 -32 -16 -36 -16 -63 0 -45 27 -79 22 -86 -10 -4 -16 -10
-35 -16 -43 -18 -30 -29 -62 -23 -71 7 -11 71 -39 90 -39 7 0 20 14 29 30 13
26 21 30 58 30 61 1 113 30 153 85 32 45 34 54 34 127 0 66 -4 85 -24 117 -29
46 -69 76 -127 96 -46 17 -51 17 -94 5z"/>
<path d="M5357 1937 c-14 -10 -18 -24 -15 -62 l3 -50 60 0 60 0 3 58 3 57 -35
0 c-19 0 -40 2 -48 5 -7 3 -22 0 -31 -8z"/>
<path d="M6685 1923 c-38 -19 -95 -73 -95 -89 0 -6 -7 -17 -15 -24 -8 -7 -15
-28 -15 -46 l0 -34 60 0 c50 0 60 3 60 18 1 9 11 30 24 46 19 23 34 30 74 34
48 4 53 2 81 -29 47 -51 46 -107 -2 -156 -28 -30 -37 -33 -89 -33 l-58 0 0
-85 0 -85 40 -2 c22 -1 48 -2 58 -2 12 -1 18 9 22 34 4 29 11 37 37 45 82 27
143 115 143 207 0 73 -49 153 -122 201 -36 23 -160 23 -203 0z"/>
<path d="M5975 1844 c-30 -62 -28 -80 10 -90 14 -3 25 -10 25 -14 0 -12 56
-23 80 -15 11 4 20 15 20 27 0 17 -4 19 -38 13 -32 -5 -41 -2 -61 19 l-24 25
24 25 c27 29 61 26 93 -6 12 -13 22 -16 28 -10 16 16 2 41 -29 53 -15 6 -36
15 -45 20 -39 20 -56 10 -83 -47z"/>
<path d="M958 1850 c-84 -52 -117 -133 -104 -244 4 -31 16 -63 30 -80 l22 -29
37 34 c38 35 48 74 26 96 -17 17 -2 79 27 110 20 22 33 27 74 27 55 0 74 -13
104 -68 18 -34 18 -38 2 -74 -9 -21 -30 -46 -46 -57 -17 -11 -30 -23 -30 -26
0 -13 110 -119 124 -119 14 0 76 64 76 79 0 5 -9 15 -20 22 -19 14 -19 14 1
73 18 52 19 64 8 110 -7 28 -26 67 -41 88 -71 91 -197 117 -290 58z"/>
<path d="M7202 1838 c-7 -7 -12 -25 -12 -40 0 -16 -7 -31 -15 -34 -35 -14 -9
-48 54 -72 72 -27 81 -27 81 1 0 30 -18 46 -30 26 -7 -10 -14 -11 -32 -2 -13
6 -31 14 -42 17 -17 6 -17 8 -3 24 8 9 17 26 19 37 5 29 33 30 71 1 35 -27 47
-25 47 6 0 13 -7 18 -26 18 -14 0 -32 7 -40 15 -18 18 -55 20 -72 3z"/>
<path d="M7620 1835 c-14 -8 -32 -15 -40 -15 -34 -2 -84 -70 -51 -70 4 0 21
-18 36 -40 30 -43 62 -52 85 -25 18 22 37 19 76 -12 30 -25 34 -34 34 -74 0
-59 -23 -82 -85 -83 -40 -1 -49 3 -79 37 -27 30 -39 37 -56 32 -28 -9 -22 -39
9 -43 14 -2 33 -15 44 -28 16 -21 27 -24 86 -24 63 0 69 2 89 30 16 21 22 43
22 82 -1 62 -16 85 -78 112 -39 18 -43 18 -60 3 -25 -23 -27 -22 -62 14 -36
38 -38 59 -7 59 13 0 32 7 43 15 24 19 74 19 98 0 11 -8 27 -15 35 -15 18 0
91 -63 91 -78 0 -5 7 -15 15 -22 11 -9 15 -34 15 -96 l0 -83 -54 -54 c-47 -47
-61 -55 -103 -60 -64 -7 -140 2 -154 19 -15 18 -33 18 -49 -1 -10 -13 -15 -12
-36 3 -23 17 -34 72 -14 72 6 0 10 7 10 15 0 8 -3 15 -6 15 -14 0 -64 -35 -64
-46 0 -17 73 -104 88 -104 7 0 21 6 32 12 16 10 24 10 42 -1 32 -20 194 -18
217 3 10 9 22 16 28 16 6 0 29 25 52 55 41 54 41 55 41 140 0 73 -3 91 -24
124 -30 48 -94 101 -121 101 -11 0 -29 7 -39 15 -25 19 -73 19 -106 0z"/>
<path d="M4378 1805 c-21 -17 -38 -39 -38 -48 0 -16 58 -87 72 -87 13 0 78 70
78 85 0 8 -10 24 -22 37 -47 48 -50 48 -90 13z"/>
<path d="M1880 1800 c-45 -25 -120 -97 -120 -116 0 -8 7 -14 15 -14 8 0 30 -8
50 -17 l36 -17 35 37 c30 32 41 37 80 37 38 0 49 -5 79 -36 28 -29 35 -43 35
-76 0 -35 -6 -47 -40 -81 -37 -36 -45 -39 -80 -34 -22 3 -47 12 -56 21 -8 9
-19 14 -24 11 -12 -8 -40 -65 -40 -83 0 -9 -8 -24 -17 -34 -30 -33 3 -59 87
-71 9 -1 16 7 18 19 2 17 12 22 50 27 67 8 131 45 162 92 42 64 64 165 40 180
-5 3 -10 16 -10 27 0 30 -63 102 -110 127 -53 27 -141 28 -190 1z"/>
<path d="M2550 1776 c-7 -9 -19 -16 -26 -16 -20 0 -17 -27 7 -76 l20 -43 49
25 c59 30 67 40 47 62 -8 9 -17 26 -19 37 -4 26 -59 33 -78 11z"/>
<path d="M113 1722 c-10 -10 -30 -26 -45 -35 -16 -10 -28 -23 -28 -29 0 -16
71 -118 82 -118 13 0 113 81 112 91 -1 5 -2 16 -2 24 -3 25 -31 17 -47 -15 -9
-16 -22 -30 -29 -30 -8 0 -16 -6 -19 -12 -6 -19 -47 20 -47 45 0 23 36 57 60
57 24 0 32 11 19 27 -16 18 -35 16 -56 -5z"/>
<path d="M3790 1715 c-73 -40 -90 -60 -125 -149 -19 -50 -20 -120 0 -136 8 -7
15 -21 15 -32 0 -10 9 -28 19 -39 l19 -21 56 42 c60 45 65 57 41 94 -14 21
-13 26 15 64 26 37 35 42 68 42 52 0 82 -32 82 -87 0 -35 -5 -46 -36 -71 -28
-23 -35 -35 -32 -58 4 -39 38 -47 38 -9 0 17 12 38 36 61 35 32 36 36 32 90
-7 80 -36 107 -116 108 -65 1 -82 -9 -113 -72 -22 -42 -23 -56 -7 -81 10 -17
8 -23 -13 -40 -13 -11 -29 -20 -36 -21 -30 -1 -59 129 -33 145 6 3 10 14 10
24 0 23 53 85 95 111 23 14 50 20 95 20 73 0 108 -18 164 -81 35 -41 36 -44
36 -124 0 -64 -4 -86 -16 -96 -12 -10 -15 -24 -11 -52 5 -33 1 -43 -20 -63
-26 -24 -26 -24 -40 -4 -18 26 -43 26 -43 0 0 -21 36 -60 55 -60 7 0 20 9 31
21 10 12 31 27 46 35 31 16 36 45 13 64 -14 11 -14 16 2 39 13 20 17 48 17
116 1 81 -2 94 -25 130 -28 42 -44 57 -92 88 -44 28 -178 29 -227 2z"/>
<path d="M5250 1625 c-14 -8 -32 -15 -40 -15 -17 -1 -60 -34 -60 -47 0 -4 18
-29 41 -55 41 -48 75 -61 85 -33 9 24 51 18 84 -12 26 -23 31 -36 32 -72 1
-57 -27 -86 -82 -86 -32 0 -47 7 -79 39 -30 29 -44 36 -61 31 -28 -9 -22 -39
9 -43 13 -2 34 -15 46 -28 19 -21 31 -24 87 -24 60 0 66 2 86 30 16 21 22 43
22 82 -1 58 -15 81 -67 111 -38 21 -57 22 -73 2 -16 -19 -20 -18 -46 3 -31 26
-40 61 -17 68 10 3 31 12 46 21 48 25 132 -5 199 -73 l48 -48 0 -86 c0 -83 -1
-86 -35 -124 -59 -67 -80 -76 -171 -76 -60 0 -85 4 -94 15 -16 19 -44 19 -60
0 -10 -13 -15 -12 -36 3 -27 19 -31 54 -9 72 8 7 15 16 15 21 0 18 -37 8 -59
-15 l-23 -25 20 -28 c11 -15 32 -39 46 -52 24 -22 28 -23 52 -11 20 11 29 12
45 2 31 -19 197 -17 218 2 10 9 23 16 29 16 6 0 30 25 52 55 l40 54 0 95 c0
74 -3 95 -15 100 -8 3 -15 14 -15 25 0 26 -61 75 -119 96 -66 24 -112 28 -141
10z"/>
<path d="M4706 1560 c-22 -56 -21 -63 23 -82 66 -31 82 -22 94 55 5 30 2 39
-11 43 -9 3 -25 10 -34 15 -36 19 -55 10 -72 -31z"/>
<path d="M6025 1583 c-61 -22 -110 -75 -134 -149 -19 -53 -20 -70 -11 -103 13
-48 25 -58 48 -38 9 8 27 18 40 21 19 6 22 14 22 54 0 39 6 53 33 83 46 50 89
57 139 23 43 -30 69 -96 49 -124 -6 -8 -16 -27 -22 -42 -6 -16 -17 -28 -24
-28 -7 0 -23 -9 -36 -19 -24 -20 -24 -20 -6 -51 9 -18 17 -39 17 -48 0 -9 9
-28 19 -42 18 -23 21 -23 38 -8 10 9 27 18 38 20 16 3 20 12 21 50 2 47 26 93
54 103 22 7 14 147 -11 196 -48 96 -168 140 -274 102z"/>
<path d="M8544 1576 c-42 -18 -46 -36 -22 -85 23 -47 27 -48 84 -22 50 23 59
35 39 51 -8 7 -15 18 -15 26 0 16 -28 44 -43 44 -7 -1 -26 -7 -43 -14z"/>
<path d="M3210 1476 c-34 -12 -35 -14 -38 -74 -3 -57 -1 -63 20 -71 13 -5 33
-5 46 0 13 5 37 9 53 9 24 0 29 4 29 23 0 32 -10 40 -30 22 -9 -8 -31 -16 -50
-17 l-35 -3 0 45 0 45 47 0 c50 0 71 11 48 25 -20 13 -47 11 -90 -4z"/>
<path d="M311 1437 c-12 -24 -21 -48 -21 -53 0 -8 89 -54 104 -54 10 0 47 92
43 104 -3 8 -19 17 -36 21 -17 4 -33 11 -36 16 -13 20 -34 7 -54 -34z"/>
<path d="M1313 1396 c-18 -17 -33 -35 -33 -40 0 -14 61 -86 74 -86 13 0 86 71
86 84 0 12 -72 76 -84 75 -6 -1 -26 -15 -43 -33z"/>
<path d="M7328 1413 c-9 -10 -28 -28 -42 -40 -32 -27 -33 -44 -1 -74 13 -13
25 -29 25 -36 0 -15 32 -25 54 -17 21 8 21 23 -1 31 -30 10 -53 35 -53 57 0
21 31 56 49 56 14 0 41 -36 41 -54 0 -19 23 -31 46 -22 12 5 5 17 -32 61 -26
30 -53 55 -59 55 -6 0 -18 -8 -27 -17z"/>
<path d="M646 1379 c-96 -33 -156 -121 -156 -226 0 -71 18 -97 48 -69 10 9 23
16 29 16 20 0 37 32 35 66 -5 67 39 113 108 114 74 0 133 -68 116 -133 -9 -38
-43 -74 -76 -80 -17 -4 -33 -13 -36 -21 -6 -16 48 -140 66 -151 6 -4 19 0 29
9 10 9 25 16 35 16 22 0 29 21 17 52 -8 22 -5 31 20 59 16 18 32 45 35 59 3
14 9 37 14 52 9 30 -13 131 -30 136 -5 2 -10 10 -10 17 0 20 -69 70 -115 83
-68 19 -79 19 -129 1z"/>
<path d="M6706 1355 c-3 -9 -6 -36 -6 -61 0 -49 14 -58 86 -52 l39 3 0 60 0
60 -56 3 c-45 2 -58 0 -63 -13z"/>
<path d="M2473 1349 c-46 -8 -57 -16 -109 -67 -48 -48 -66 -90 -62 -153 3 -60
-1 -58 93 -42 43 7 51 12 54 33 10 72 109 101 156 46 43 -50 29 -93 -42 -133
-13 -7 -33 -13 -45 -13 -37 0 -51 -15 -44 -44 7 -28 30 -35 40 -11 3 8 11 15
19 15 23 0 87 38 107 63 28 35 26 101 -2 143 -29 42 -84 60 -136 43 -37 -11
-81 -53 -82 -76 0 -15 -7 -19 -47 -27 -26 -6 -32 -4 -37 12 -9 28 28 94 76
136 39 35 43 36 123 36 75 0 85 -2 124 -30 23 -17 47 -43 54 -58 6 -15 16 -30
21 -34 6 -4 12 -35 14 -70 3 -50 1 -67 -12 -77 -9 -7 -16 -19 -16 -26 0 -14
-65 -76 -98 -94 -12 -6 -22 -21 -22 -32 0 -21 -10 -27 -50 -31 -18 -2 -28 4
-38 25 -20 40 -34 33 -30 -15 l3 -43 70 0 c67 0 70 1 73 25 3 24 24 47 72 80
11 8 34 36 51 63 40 66 42 161 3 236 -15 28 -37 57 -49 65 -12 8 -28 21 -36
28 -14 14 -107 39 -137 37 -9 -1 -36 -5 -59 -10z"/>
<path d="M1778 1249 c-23 -39 -24 -89 -2 -89 9 0 29 -8 44 -17 34 -20 55 -8
62 35 3 15 8 35 12 44 6 13 -3 21 -40 37 -25 12 -49 21 -53 21 -3 0 -14 -14
-23 -31z"/>
<path d="M6055 1269 c-4 -6 -5 -13 -2 -16 7 -7 27 6 27 18 0 12 -17 12 -25 -2z"/>
<path d="M6350 1274 c0 -3 12 -18 26 -34 50 -53 80 -174 50 -199 -9 -8 -16
-22 -16 -33 0 -11 -20 -39 -45 -64 -47 -45 -52 -54 -34 -54 16 0 79 54 79 68
0 7 7 15 15 18 8 4 15 15 15 25 0 11 7 31 16 44 28 44 4 142 -50 203 -26 28
-56 43 -56 26z"/>
<path d="M4103 1222 c-27 -19 -50 -37 -52 -38 -6 -5 21 -64 30 -64 4 0 11 -9
14 -21 10 -29 54 -48 69 -29 6 8 28 26 48 40 40 26 49 54 22 64 -28 11 -44 6
-44 -11 0 -10 -11 -28 -24 -40 l-23 -22 -22 22 c-11 13 -21 30 -21 38 0 19 33
47 65 55 30 7 33 30 5 37 -13 3 -36 -7 -67 -31z"/>
<path d="M7969 1218 c-64 -43 -94 -100 -94 -181 0 -34 3 -70 7 -80 7 -16 11
-16 58 8 55 28 55 28 39 53 -9 14 -7 27 10 60 25 49 51 65 109 66 39 1 48 -3
78 -38 57 -65 42 -132 -38 -172 -46 -24 -63 -54 -38 -69 5 -3 18 -25 29 -49
10 -24 24 -46 30 -50 11 -7 85 27 95 43 4 5 2 12 -4 16 -19 12 -9 50 20 79 17
16 30 39 30 51 0 12 5 36 11 54 8 22 8 40 1 59 -6 15 -13 38 -16 52 -8 33 -57
88 -101 111 -25 14 -55 19 -107 19 -65 -1 -78 -5 -119 -32z"/>
<path d="M6008 1206 c-18 -38 -15 -46 18 -46 19 0 22 5 21 40 -2 49 -16 51
-39 6z"/>
<path d="M4970 1211 c0 -4 -18 -21 -40 -36 -47 -33 -50 -51 -12 -87 15 -14 33
-33 40 -42 8 -10 21 -16 30 -14 20 4 29 38 10 38 -21 1 -58 37 -58 57 0 10 10
27 21 37 18 15 25 16 45 6 13 -7 24 -22 26 -33 4 -26 34 -45 48 -31 7 7 0 20
-20 42 -16 18 -35 42 -40 53 -11 19 -50 27 -50 10z"/>
<path d="M1385 1170 c-3 -5 -20 -10 -36 -10 -38 0 -97 -37 -132 -83 -41 -55
-32 -97 22 -97 13 0 32 -7 42 -16 16 -14 20 -13 50 15 17 17 37 31 44 31 7 0
18 7 25 15 11 13 15 13 29 2 9 -8 24 -17 34 -20 9 -4 21 -17 27 -31 5 -13 13
-27 18 -30 6 -3 2 -21 -9 -43 -20 -40 -79 -69 -108 -54 -45 23 -70 22 -87 -4
-22 -33 -14 -40 30 -25 26 8 40 8 56 0 24 -13 83 4 110 30 27 27 45 79 31 93
-6 6 -11 21 -11 34 0 27 -33 63 -58 63 -10 0 -23 5 -29 11 -14 14 -78 -8 -112
-39 -17 -15 -28 -19 -35 -12 -5 5 -20 10 -33 10 -27 0 -29 9 -7 47 18 30 76
73 99 73 7 0 20 6 28 14 12 13 23 12 78 -2 51 -14 72 -26 111 -65 31 -31 48
-57 48 -72 0 -13 4 -34 9 -47 5 -14 4 -42 -3 -72 -14 -64 -91 -146 -135 -146
-16 0 -34 -7 -41 -15 -7 -8 -23 -15 -37 -15 -13 0 -26 -7 -29 -15 -4 -9 -19
-15 -39 -15 -29 0 -35 4 -45 35 -12 38 -24 44 -34 19 -13 -34 -7 -54 18 -54
13 0 26 -6 29 -14 6 -14 63 -27 85 -19 6 3 12 11 12 19 0 16 61 44 97 44 27 0
38 8 99 69 24 24 44 53 44 64 0 11 5 37 12 59 9 29 9 41 0 50 -7 7 -12 28 -12
48 0 66 -91 160 -154 160 -14 0 -28 5 -31 10 -3 6 -19 10 -35 10 -16 0 -32 -4
-35 -10z"/>
<path d="M8801 1163 c-50 -6 -141 -70 -141 -99 0 -6 -7 -17 -15 -24 -25 -21
-21 -169 6 -214 12 -20 25 -36 31 -36 5 0 27 18 49 41 37 39 38 41 23 65 -20
30 -14 97 12 125 20 23 72 34 118 25 25 -5 41 -16 55 -40 36 -58 24 -108 -39
-162 l-25 -22 50 -53 c28 -30 56 -55 62 -57 10 -3 13 43 13 207 0 207 0 211
-21 211 -11 0 -27 7 -35 15 -9 8 -30 15 -49 15 -18 0 -39 2 -47 3 -7 2 -28 2
-47 0z"/>
<path d="M6065 1150 c-8 -14 21 -24 43 -15 16 7 15 8 -3 15 -27 12 -33 12 -40
0z"/>
<path d="M3127 1108 c-20 -11 -53 -39 -72 -63 -32 -39 -36 -50 -41 -121 -3
-44 -1 -85 4 -92 12 -17 50 -7 86 22 24 19 27 26 18 42 -8 15 -6 30 8 61 22
50 44 63 105 63 38 0 52 -5 75 -29 32 -32 45 -69 36 -104 -8 -33 -55 -77 -88
-84 -21 -4 -28 -11 -28 -29 0 -12 4 -26 10 -29 5 -3 20 -28 31 -56 12 -27 26
-49 31 -49 13 0 86 38 92 49 4 5 2 12 -4 16 -18 11 -10 49 15 73 33 31 60 127
46 159 -6 13 -11 35 -11 48 0 31 -61 100 -111 126 -52 26 -151 25 -202 -3z"/>
<path d="M6829 1101 c-74 -15 -139 -82 -162 -166 -27 -99 3 -166 55 -126 13
10 31 20 40 24 13 5 16 14 11 42 -8 47 18 94 63 118 43 21 58 21 92 0 93 -60
92 -159 -2 -205 -25 -12 -46 -26 -46 -30 0 -5 9 -26 20 -48 11 -22 20 -46 20
-54 0 -8 10 -22 21 -30 20 -14 25 -13 61 7 35 20 38 25 33 54 -5 26 1 40 30
78 32 43 35 52 35 117 0 48 -6 80 -17 101 -22 40 -64 87 -77 87 -5 0 -17 6
-25 14 -20 17 -104 26 -152 17z"/>
<path d="M7548 1072 c-27 -2 -48 -7 -48 -11 0 -5 -11 -12 -24 -15 -57 -14
-148 -173 -131 -227 6 -18 15 -20 78 -17 64 3 72 5 77 26 3 12 18 38 33 57 34
43 81 48 115 13 61 -66 23 -148 -72 -158 -49 -5 -51 -6 -54 -37 -4 -38 9 -42
38 -13 11 11 32 20 47 20 69 0 129 95 103 162 -21 53 -57 77 -115 77 -57 0
-87 -20 -124 -81 -22 -37 -43 -46 -68 -30 -16 10 -5 92 13 99 8 3 14 10 14 16
0 13 48 57 62 57 5 0 16 7 24 15 11 10 36 15 79 15 43 0 68 -5 79 -15 8 -8 19
-15 24 -15 5 0 26 -19 47 -41 44 -48 60 -111 46 -186 -10 -49 -54 -111 -94
-131 -15 -7 -30 -27 -37 -46 -17 -53 -61 -63 -82 -18 -18 37 -44 36 -41 -2 4
-51 9 -56 60 -56 59 0 97 18 101 48 2 12 30 48 62 80 50 50 59 66 70 115 21
103 -23 215 -103 262 -17 10 -35 23 -38 28 -7 10 -66 14 -141 9z"/>
<path d="M6270 1055 c-7 -8 -19 -15 -27 -15 -8 0 -28 -11 -44 -24 l-29 -24 30
-7 c21 -5 30 -13 30 -26 0 -25 25 -35 53 -21 12 5 30 13 40 16 26 8 32 34 13
55 -9 10 -16 27 -16 39 0 26 -31 30 -50 7z"/>
<path d="M7 1033 c-4 -3 -7 -37 -7 -75 0 -60 2 -68 19 -68 11 0 36 16 57 35
l37 35 -34 39 c-32 37 -57 49 -72 34z"/>
<path d="M6117 1024 c-15 -15 -7 -45 11 -42 9 2 17 12 17 22 0 20 -16 31 -28
20z"/>
<path d="M2001 931 c-91 -37 -151 -127 -151 -227 0 -69 19 -82 79 -53 40 19
41 20 41 72 0 46 4 57 29 81 43 41 107 47 146 13 75 -64 55 -179 -35 -197 -32
-7 -36 -32 -12 -78 10 -20 22 -49 26 -64 8 -33 19 -34 74 -8 45 22 51 34 27
60 -13 14 -11 19 12 45 82 88 84 206 3 299 -30 34 -121 76 -164 75 -17 0 -51
-8 -75 -18z"/>
<path d="M4470 931 c-95 -39 -160 -146 -147 -242 7 -55 19 -66 54 -49 54 27
63 40 57 79 -5 31 -1 41 28 74 44 51 93 60 143 26 43 -30 59 -66 50 -117 -7
-43 -39 -78 -77 -84 -32 -4 -35 -38 -7 -96 33 -70 48 -86 68 -68 9 7 27 17 40
21 20 6 23 12 18 42 -6 34 9 66 51 111 19 21 16 157 -5 195 -25 45 -71 85
-122 108 -53 23 -92 23 -151 0z"/>
<path d="M6066 901 c-25 -28 -13 -58 27 -66 18 -4 40 -14 49 -22 23 -21 51
-13 58 17 4 19 13 26 35 28 84 7 100 32 20 30 -34 0 -50 -7 -74 -30 l-30 -29
-30 22 c-24 17 -29 28 -25 46 7 28 -7 30 -30 4z"/>
<path d="M203 878 c-4 -7 -17 -18 -28 -24 -30 -17 -28 -35 9 -78 34 -38 36
-39 98 -37 67 2 76 -3 105 -56 14 -25 3 -61 -32 -100 -32 -37 -69 -30 -122 22
-51 50 -63 54 -81 25 -16 -25 -7 -43 18 -35 10 3 21 1 25 -5 14 -22 85 -60
113 -60 37 0 95 53 111 102 14 42 6 64 -37 111 -23 24 -33 27 -87 27 -73 0
-102 21 -91 65 6 24 9 25 86 25 67 0 87 -4 118 -24 79 -50 111 -124 97 -225
-5 -39 -15 -58 -50 -95 -24 -25 -53 -46 -63 -46 -11 0 -25 -7 -32 -15 -17 -21
-79 -19 -133 5 -35 16 -51 18 -71 10 -32 -12 -50 -5 -66 25 -10 19 -10 27 -1
39 7 8 11 22 9 32 -2 13 -7 12 -30 -9 -19 -17 -25 -31 -21 -46 3 -12 9 -21 14
-21 5 0 14 -10 20 -23 14 -32 48 -52 62 -38 15 15 67 13 97 -4 33 -19 110 -18
134 0 11 8 27 15 35 15 18 0 91 61 91 75 0 4 6 16 14 24 21 26 40 134 27 159
-6 11 -11 30 -11 42 0 11 -4 26 -10 33 -48 60 -74 87 -85 87 -7 0 -18 7 -25
15 -16 20 -195 22 -207 3z"/>
<path d="M5045 870 c-54 -19 -120 -73 -147 -121 -12 -20 -18 -52 -18 -89 0
-66 14 -79 64 -60 15 5 38 10 52 10 25 0 28 4 38 52 4 19 19 34 45 48 43 21
60 17 109 -25 44 -39 15 -110 -57 -134 -19 -6 -36 -9 -39 -6 -11 11 -42 -18
-42 -40 0 -33 18 -41 43 -17 12 10 35 22 50 26 16 4 44 22 63 40 30 29 34 39
34 85 0 28 -4 51 -8 51 -5 0 -14 10 -21 23 -7 12 -30 30 -52 41 -34 16 -44 16
-71 5 -39 -16 -85 -59 -90 -83 -3 -21 -50 -41 -73 -32 -25 9 -17 48 20 102 54
78 139 113 219 89 67 -20 110 -56 141 -116 31 -62 32 -105 3 -161 -22 -45 -93
-118 -114 -118 -7 0 -14 -12 -16 -27 -3 -25 -7 -28 -43 -28 -33 0 -40 4 -45
23 -3 13 -9 23 -15 23 -13 -1 -19 -71 -8 -82 5 -5 39 -6 76 -2 60 5 67 8 67
28 0 13 20 38 54 68 69 59 96 114 96 193 0 84 -33 146 -113 210 -16 13 -118
45 -139 43 -7 -1 -35 -10 -63 -19z"/>
<path d="M870 845 c-7 -8 -21 -15 -31 -15 -28 0 -31 -15 -10 -63 24 -56 34
-62 68 -43 16 8 36 17 46 20 22 7 22 28 -3 76 -22 42 -48 52 -70 25z"/>
<path d="M3896 811 c-4 -6 -24 -11 -44 -11 -31 0 -46 -8 -89 -49 -28 -27 -54
-58 -57 -69 -11 -33 10 -62 43 -62 16 0 34 -7 41 -15 18 -22 27 -19 59 18 25
28 36 32 75 31 61 -1 86 -24 86 -79 0 -44 -9 -56 -66 -88 -28 -15 -33 -15 -44
-2 -15 18 -71 20 -88 3 -16 -16 -15 -48 2 -48 8 0 16 7 20 15 6 17 49 18 84 2
16 -8 26 -7 34 1 7 7 19 12 28 12 30 0 60 55 60 108 0 40 -5 53 -28 75 -24 23
-38 28 -86 28 -49 1 -62 -3 -85 -25 -27 -26 -29 -26 -64 -11 -20 8 -37 22 -37
30 0 22 87 89 128 98 49 11 59 11 109 1 42 -9 123 -68 123 -90 0 -6 7 -17 15
-24 11 -9 15 -33 15 -86 0 -51 -4 -77 -15 -88 -8 -8 -15 -18 -15 -22 0 -17
-83 -84 -104 -84 -13 0 -29 -7 -37 -16 -8 -9 -21 -13 -35 -10 -17 5 -26 1 -34
-14 -7 -14 -21 -20 -44 -20 -36 0 -46 13 -46 56 0 36 -26 29 -34 -8 -5 -27 -2
-35 21 -54 40 -32 90 -35 122 -9 32 26 76 45 102 45 11 0 25 4 32 10 64 51 87
75 87 90 0 10 7 23 15 30 11 9 15 34 15 95 0 61 -4 86 -15 95 -8 7 -15 18 -15
25 0 29 -87 101 -131 108 -19 3 -48 9 -65 12 -19 4 -34 3 -38 -4z"/>
<path d="M6027 793 c-4 -3 -7 -21 -7 -39 0 -19 -6 -34 -15 -38 -9 -3 -15 -18
-15 -36 0 -25 4 -30 24 -30 13 0 29 -7 36 -16 17 -20 85 -15 85 6 0 11 -11 15
-36 15 -37 0 -79 27 -79 49 1 6 11 24 24 40 l24 29 42 -33 c30 -24 44 -30 52
-22 16 16 -18 52 -49 52 -14 0 -31 7 -39 15 -16 16 -36 19 -47 8z"/>
<path d="M2550 771 l-55 -6 2 -69 c2 -38 5 -71 8 -74 9 -9 129 -1 142 10 17
14 17 48 -1 48 -8 0 -27 -8 -44 -17 -37 -21 -58 -13 -66 27 -9 45 0 53 51 46
34 -4 45 -2 50 10 5 14 -13 36 -27 32 -3 -1 -30 -4 -60 -7z"/>
<path d="M5610 715 c-50 -18 -115 -78 -140 -130 -32 -66 -26 -79 40 -83 l55
-2 18 39 c17 38 71 81 102 81 24 0 73 -34 89 -61 48 -81 -17 -177 -111 -163
-48 7 -48 7 -57 -97 -5 -69 3 -79 66 -79 46 0 47 1 54 35 3 20 12 35 20 35 31
0 89 42 120 86 31 44 34 54 34 121 0 115 -52 188 -156 218 -60 17 -86 17 -134
0z"/>
<path d="M8250 713 c-47 -31 -60 -46 -51 -57 4 -6 11 -23 15 -38 9 -38 38 -44
86 -17 22 13 40 27 40 32 0 19 -44 97 -54 96 -6 0 -22 -7 -36 -16z"/>
<path d="M6415 640 c-3 -5 -17 -10 -29 -10 -43 0 -156 -107 -156 -149 0 -6
114 -61 128 -61 4 0 20 13 35 29 15 17 37 33 48 36 30 10 83 -20 104 -58 l18
-34 -28 -37 c-31 -41 -48 -45 -139 -32 -44 7 -47 6 -56 -20 -6 -15 -9 -28 -7
-30 2 -2 20 1 40 7 26 7 43 7 57 -1 30 -16 94 4 119 38 12 15 25 32 31 39 16
19 12 59 -11 97 -20 35 -77 76 -106 76 -16 0 -67 -26 -95 -48 -9 -7 -29 -12
-45 -10 -22 2 -29 9 -31 31 -2 15 0 27 5 27 4 0 23 14 42 30 18 17 42 30 52
30 10 0 29 5 43 11 18 9 33 9 53 1 15 -6 39 -13 53 -16 35 -7 89 -63 111 -114
20 -47 25 -117 9 -127 -5 -3 -10 -12 -10 -20 0 -48 -92 -125 -150 -125 -37 0
-85 -23 -93 -45 -9 -22 -40 -18 -66 8 -19 22 -20 25 -6 37 22 19 3 35 -24 21
-28 -15 -31 -81 -3 -81 10 0 26 -6 37 -14 43 -29 62 -28 95 4 21 21 40 30 63
30 65 0 169 82 182 142 4 15 11 30 16 33 12 8 12 122 0 129 -5 3 -12 18 -16
33 -10 42 -93 115 -152 136 -56 19 -109 22 -118 7z"/>
<path d="M1211 594 c-28 -47 -27 -90 2 -108 33 -21 96 -29 113 -15 22 18 7 29
-40 29 -47 0 -66 13 -66 47 0 38 65 59 90 28 14 -17 46 -20 54 -6 6 10 -61 45
-106 55 -22 5 -29 1 -47 -30z"/>
<path d="M3378 583 c-27 -14 -48 -30 -48 -35 0 -15 50 -88 60 -88 16 0 90 42
90 51 0 13 -43 99 -49 98 -4 0 -27 -12 -53 -26z"/>
<path d="M7034 565 c-48 -21 -59 -40 -40 -67 9 -12 16 -30 16 -40 0 -25 49
-24 94 3 38 22 38 27 3 87 -21 35 -27 37 -73 17z"/>
<path d="M758 528 c-68 -47 -134 -157 -105 -175 6 -4 33 -7 60 -7 45 -1 50 1
62 30 21 50 63 77 113 71 63 -7 93 -41 94 -108 1 -48 -1 -55 -32 -80 -26 -22
-45 -29 -89 -31 l-56 -3 0 -85 0 -85 57 -3 57 -3 3 33 c2 28 10 36 45 53 170
82 181 290 20 397 -36 24 -52 28 -112 28 -63 0 -76 -3 -117 -32z"/>
<path d="M2720 516 c-6 -8 -21 -16 -33 -18 -37 -5 -32 -41 10 -85 38 -39 40
-40 96 -35 50 4 60 1 82 -19 38 -36 35 -99 -6 -133 -45 -39 -75 -34 -130 20
-31 31 -53 45 -63 41 -24 -9 -20 -45 6 -53 12 -3 39 -19 61 -35 44 -32 97 -38
117 -14 7 8 17 15 22 15 24 0 47 46 48 96 0 44 -4 54 -33 82 -30 29 -38 32
-99 32 -57 0 -68 3 -80 22 -14 20 -14 25 -1 45 14 20 24 23 85 23 73 0 129
-20 158 -57 55 -70 60 -82 60 -148 0 -52 -5 -73 -22 -98 -39 -55 -71 -87 -89
-87 -9 0 -22 -7 -29 -15 -17 -20 -108 -20 -130 0 -18 16 -76 23 -101 11 -12
-5 -25 1 -43 20 -23 25 -24 30 -11 44 17 19 20 40 6 40 -6 0 -23 -11 -38 -25
l-28 -25 53 -51 c40 -39 56 -49 65 -40 16 16 82 14 97 -4 17 -20 109 -20 136
0 10 8 26 15 34 15 21 0 100 74 100 93 0 8 7 20 15 27 11 9 15 34 15 95 0 61
-4 86 -15 95 -8 7 -15 20 -15 30 0 19 -50 66 -99 93 -42 22 -182 24 -201 3z"/>
<path d="M7585 491 c-30 -6 -30 -7 -30 -76 l0 -70 68 0 c71 0 92 10 81 39 -7
18 -25 21 -41 5 -6 -6 -26 -9 -44 -7 -32 3 -34 5 -33 41 1 21 4 41 8 45 4 3
27 -1 52 -10 38 -14 46 -14 51 -2 15 40 -27 53 -112 35z"/>
<path d="M1590 472 c-46 -13 -88 -41 -124 -84 -47 -55 -46 -89 2 -99 19 -4 39
-12 45 -18 19 -19 48 -12 77 19 19 21 38 30 58 30 46 0 61 -9 80 -49 14 -29
16 -42 8 -61 -28 -64 -77 -87 -121 -57 -38 26 -54 27 -75 5 -11 -12 -19 -26
-17 -32 2 -5 40 -11 86 -13 72 -2 86 0 113 20 17 12 38 40 48 62 16 37 16 43
1 75 -30 67 -48 80 -115 80 -54 -1 -64 -4 -90 -30 -26 -27 -31 -29 -46 -15 -9
8 -22 15 -28 15 -23 0 -21 18 6 47 88 99 224 98 315 -1 84 -92 45 -273 -69
-316 -13 -5 -24 -14 -24 -20 0 -6 -24 -10 -55 -10 -30 0 -55 -4 -55 -10 0 -5
25 -10 55 -10 30 0 55 5 55 10 0 6 15 10 33 10 26 0 41 9 76 48 58 63 101 188
71 207 -5 3 -10 13 -10 22 0 39 -45 105 -95 138 -42 27 -65 35 -116 39 -35 3
-75 2 -89 -2z"/>
<path d="M0 461 c0 -14 54 -100 63 -101 4 0 10 7 14 16 4 10 -6 26 -26 44 -17
16 -31 34 -31 39 0 6 -4 11 -10 11 -5 0 -10 -4 -10 -9z"/>
<path d="M8625 446 c-5 -2 -23 -7 -38 -10 -15 -4 -47 -26 -70 -49 -78 -80 -87
-127 -23 -127 19 0 41 -3 49 -6 10 -3 22 6 33 26 19 31 73 70 99 70 22 0 69
-31 90 -59 13 -17 20 -42 20 -70 0 -38 -5 -47 -39 -77 -41 -35 -91 -45 -113
-23 -19 19 -40 3 -47 -38 -4 -21 -10 -48 -13 -60 -5 -22 -2 -23 50 -23 40 0
56 4 61 15 4 10 19 15 49 15 37 0 51 6 91 41 27 24 46 49 46 62 0 12 7 31 15
41 41 54 -16 194 -99 245 -31 19 -136 37 -161 27z m35 -410 c0 -8 -4 -18 -10
-21 -5 -3 -10 3 -10 14 0 12 5 21 10 21 6 0 10 -6 10 -14z"/>
<path d="M2213 393 c-18 -9 -33 -22 -33 -29 0 -12 39 -104 44 -104 2 0 22 10
46 23 57 30 69 50 47 75 -9 10 -17 26 -17 35 0 22 -43 22 -87 0z"/>
<path d="M4680 389 c-40 -22 -40 -21 -17 -72 22 -48 36 -53 87 -31 46 20 51
43 23 93 -21 36 -43 38 -93 10z"/>
<path d="M7876 335 c-11 -8 -27 -15 -37 -15 -19 0 -119 -106 -119 -127 0 -7 8
-16 18 -20 9 -3 24 -12 33 -20 9 -7 33 -14 53 -15 30 -1 43 5 66 30 36 40 78
42 116 7 22 -20 27 -34 27 -70 0 -63 -25 -85 -97 -85 -30 0 -58 5 -61 10 -7
12 -35 -5 -35 -21 0 -17 153 -9 185 10 28 16 30 23 33 79 3 66 -3 78 -57 114
-38 26 -72 22 -119 -12 -28 -20 -54 -30 -77 -30 -31 0 -35 3 -35 26 0 31 61
94 89 94 10 0 24 7 31 15 16 19 90 20 116 0 10 -8 26 -15 34 -15 19 -1 57 -35
88 -79 20 -27 24 -45 24 -111 0 -44 -4 -84 -7 -91 -5 -7 -1 -10 11 -7 17 3 19
15 22 99 2 77 0 99 -13 109 -8 7 -15 18 -15 25 0 20 -64 76 -106 93 -57 22
-145 26 -168 7z"/>
<path d="M5125 291 l-60 -6 1 -45 c0 -25 3 -57 7 -72 7 -27 10 -28 71 -28 66
0 96 14 96 46 0 18 -24 18 -61 -2 -38 -19 -53 -14 -74 27 -22 41 -9 51 60 47
44 -3 50 -1 50 17 0 23 -8 24 -90 16z"/>
<path d="M3316 267 c-53 -15 -131 -92 -147 -145 -17 -58 -9 -70 45 -70 49 0
76 17 76 48 0 21 42 58 76 66 33 9 60 -3 99 -43 37 -38 47 -87 23 -112 -11
-10 0 -11 52 -9 61 3 65 5 69 28 1 14 -3 49 -10 79 -17 71 -83 140 -152 159
-54 14 -77 14 -131 -1z"/>
<path d="M3722 240 c-6 -11 -12 -30 -12 -43 0 -13 -5 -28 -10 -33 -12 -12 26
-42 79 -64 30 -12 35 -12 47 5 19 26 9 35 -41 35 -24 0 -46 3 -49 8 -2 4 -1
23 3 42 5 29 12 36 35 38 19 2 35 -3 47 -17 11 -11 26 -18 34 -14 18 6 15 24
-6 33 -8 4 -24 12 -36 18 -35 18 -77 15 -91 -8z"/>
<path d="M4278 211 c-61 -21 -102 -52 -135 -103 l-27 -40 29 -24 c37 -30 120
-38 136 -13 3 6 19 17 34 25 25 13 32 12 66 -3 22 -9 41 -25 45 -35 7 -23 34
-24 34 0 -1 24 -29 54 -73 76 -36 19 -38 19 -74 0 -21 -10 -45 -25 -55 -32 -9
-7 -31 -12 -49 -10 -44 4 -49 30 -12 64 55 52 73 59 153 59 71 0 79 -2 117
-33 47 -37 83 -89 83 -121 0 -14 6 -21 19 -21 44 0 -8 130 -66 167 -16 10 -30
21 -33 24 -3 4 -22 10 -43 14 -20 4 -40 11 -43 16 -8 13 -52 9 -106 -10z"/>
<path d="M240 141 c-52 -32 -100 -90 -100 -120 0 -31 69 -29 107 3 15 12 44
31 64 40 34 16 37 16 82 -4 26 -12 51 -30 57 -40 8 -16 21 -20 60 -20 43 0 50
3 50 19 0 32 -63 104 -110 128 -67 34 -151 31 -210 -6z"/>
<path d="M5604 135 c-3 -7 -4 -34 -2 -61 l3 -49 57 -3 56 -3 4 51 c1 29 1 55
-2 60 -9 14 -111 18 -116 5z"/>
<path d="M6916 106 c-44 -31 -86 -79 -86 -98 0 -15 121 -9 136 7 24 23 114 23
151 -1 23 -14 133 -20 133 -6 0 19 -42 67 -86 98 -44 32 -53 34 -124 34 -71 0
-80 -2 -124 -34z"/>
<path d="M2454 98 c-54 -42 -64 -52 -64 -64 0 -15 48 -39 57 -29 5 4 2 10 -4
12 -18 7 -16 20 7 43 34 34 75 20 93 -32 8 -22 23 -23 31 -3 3 8 -6 27 -19 42
-14 16 -29 34 -35 41 -16 18 -34 15 -66 -10z"/>
<path d="M6242 66 c-27 -53 -27 -66 -3 -66 13 0 21 8 23 23 2 18 10 23 41 25
26 2 39 -1 43 -12 6 -16 35 -22 47 -9 12 11 -35 53 -59 53 -12 0 -27 7 -34 15
-20 25 -35 17 -58 -29z"/>
<path d="M5280 62 c-20 -9 -49 -27 -65 -39 -28 -21 -29 -22 -8 -23 12 0 42 11
67 25 52 29 133 35 142 10 4 -9 19 -15 35 -15 16 0 29 -4 29 -10 0 -5 10 -10
23 -10 21 0 20 1 -8 25 -16 13 -37 24 -46 25 -9 0 -22 7 -29 15 -17 20 -95 18
-140 -3z"/>
<path d="M1490 46 c0 -8 -3 -22 -6 -31 -5 -13 -2 -16 17 -13 33 4 42 58 10 58
-12 0 -21 -6 -21 -14z"/>
</g>
</svg>
