 <svg  version="1.0" xmlns="http://www.w3.org/2000/svg"  width="300.000000pt" height="422.000000pt" viewBox="0 0 300.000000 422.000000"  preserveAspectRatio="xMidYMid meet">  <g transform="translate(0.000000,422.000000) scale(0.100000,-0.100000)" fill="#cc003d" stroke="none"> <path d="M887 4207 c-3 -8 -19 -17 -36 -20 -61 -12 -32 -27 52 -26 l82 1 -39 18 c-21 10 -42 23 -46 30 -5 9 -9 8 -13 -3z"/> <path d="M2179 4203 c6 -10 24 -34 40 -53 32 -38 31 -38 50 33 5 20 6 37 1 37 -10 0 -20 -25 -20 -51 0 -28 -12 -23 -39 16 -24 35 -50 50 -32 18z"/> <path d="M2720 4195 c0 -17 5 -25 18 -25 22 0 42 19 41 40 0 11 -4 9 -16 -7 -19 -28 -37 -30 -30 -3 3 11 1 20 -4 20 -5 0 -9 -11 -9 -25z"/> <path d="M2808 4194 c2 -13 13 -26 23 -29 20 -7 100 18 132 40 19 13 19 15 4 15 -10 0 -25 -7 -33 -15 -9 -8 -28 -15 -44 -15 -16 0 -30 -5 -32 -11 -2 -6 -11 -7 -22 -3 -18 7 -18 8 -2 14 16 5 15 7 -6 17 -23 10 -25 9 -20 -13z"/> <path d="M1715 4183 c-11 -2 -37 -11 -57 -20 -29 -12 -43 -13 -69 -4 -65 22 -129 11 -171 -31 -22 -22 -23 -29 -20 -133 2 -60 7 -113 10 -117 4 -4 27 2 52 13 55 25 133 39 154 27 9 -5 37 -1 75 12 35 11 87 20 122 20 l61 0 -6 88 c-4 48 -9 94 -12 103 -2 8 -25 23 -52 32 -48 17 -52 18 -87 10z m79 -35 c14 -63 26 -130 26 -138 0 -5 -24 -6 -54 -3 -39 4 -63 1 -87 -11 -18 -9 -33 -15 -34 -14 -2 2 -6 37 -10 79 l-6 76 38 16 c21 9 57 16 80 16 36 1 43 -2 47 -21z m-223 2 c39 -11 39 -10 55 -122 l6 -48 -43 6 c-28 4 -60 0 -89 -10 -24 -8 -45 -14 -46 -13 -1 1 -4 40 -5 87 l-4 85 35 12 c44 15 47 15 91 3z m281 -115 c4 -42 3 -58 -2 -40 -4 17 -9 46 -10 65 l-2 35 -8 -30 c-10 -39 -12 -4 -3 50 6 36 7 37 13 15 4 -14 9 -56 12 -95z m-413 -32 c1 -35 3 -63 5 -63 2 0 21 7 42 16 24 10 60 15 98 13 42 -2 73 3 100 15 31 14 51 16 100 10 l61 -8 -78 -7 c-43 -4 -84 -12 -90 -19 -9 -10 -8 -12 6 -6 10 3 37 8 60 11 38 5 38 4 -10 -8 -33 -9 -69 -11 -98 -7 -52 8 -79 5 -148 -17 -27 -8 -50 -13 -52 -12 -1 2 -5 47 -9 99 -3 59 -2 85 3 70 5 -14 9 -53 10 -87z"/> <path d="M1688 4113 c-16 -2 -28 -9 -28 -14 0 -5 12 -6 28 -2 15 3 35 6 45 5 9 0 17 3 17 9 0 9 -12 9 -62 2z"/> <path d="M1695 4083 c-37 -9 -43 -26 -6 -18 18 4 40 8 47 9 7 1 17 5 20 9 8 8 -29 8 -61 0z"/> <path d="M1690 4039 c-11 -7 -1 -8 35 -3 28 4 52 8 54 10 10 9 -76 3 -89 -7z"/> <path d="M1487 4093 c-3 -5 17 -8 44 -8 27 0 49 3 49 8 0 4 -20 7 -44 7 -25 0 -47 -3 -49 -7z"/> <path d="M1490 4062 c0 -5 22 -8 49 -8 28 0 48 3 45 8 -3 4 -25 8 -50 8 -24 0 -44 -4 -44 -8z"/> <path d="M1496 4022 c-3 -5 17 -8 45 -8 27 1 49 4 49 9 0 10 -88 9 -94 -1z"/> <path d="M2394 4158 c-11 -23 -42 -49 -105 -88 -49 -30 -89 -57 -89 -60 0 -3 38 -18 84 -34 l83 -29 86 67 c70 54 88 74 100 110 l15 44 -62 11 c-89 16 -95 15 -112 -21z m134 -12 c1 -2 0 -10 -3 -18 -8 -21 -105 -3 -105 20 0 12 9 13 52 8 29 -4 54 -9 56 -10z m-43 -40 l50 -12 -63 -49 c-106 -83 -101 -81 -172 -60 -33 10 -63 21 -65 25 -2 3 33 31 78 62 56 38 88 54 102 50 11 -3 43 -10 70 -16z"/> <path d="M2366 4091 c-4 -5 -3 -11 1 -14 5 -2 2 -2 -5 -1 -14 4 -92 -44 -92 -56 0 -10 100 -31 113 -23 45 25 107 77 100 83 -13 12 -111 21 -117 11z m71 -45 c-7 -7 -24 -17 -37 -21 -22 -7 -23 -6 -8 9 9 9 21 16 27 16 6 0 11 5 11 11 0 5 5 7 10 4 6 -4 5 -11 -3 -19z"/> <path d="M202 4156 c-85 -21 -123 -36 -94 -36 20 0 13 -102 -14 -189 -5 -16 -4 -22 4 -17 6 3 12 -3 14 -16 2 -13 7 18 12 67 9 110 14 137 25 131 5 -3 6 -34 4 -69 l-5 -63 52 -17 c60 -19 118 -22 172 -7 34 10 37 14 44 55 3 25 11 45 18 45 6 1 24 7 40 13 l29 13 -94 57 c-52 31 -99 57 -104 56 -6 0 -52 -11 -103 -23z m194 -43 l77 -48 -89 -18 -89 -18 -77 43 c-43 24 -77 46 -78 49 0 7 122 36 157 38 12 1 57 -20 99 -46z m-158 -69 c56 -33 63 -35 99 -25 61 17 71 15 65 -16 -2 -16 -11 -34 -20 -40 -22 -18 -145 -16 -189 2 -33 14 -35 18 -29 46 3 17 6 40 6 50 0 11 2 19 4 19 3 0 32 -16 64 -36z"/> <path d="M2070 4169 c0 -7 9 -42 20 -78 18 -60 23 -118 10 -105 -3 3 -5 9 -5 13 0 10 -110 131 -118 131 -14 0 -6 -37 16 -76 31 -57 58 -88 101 -117 20 -14 38 -27 38 -29 1 -2 -10 -24 -25 -49 -32 -54 -33 -70 -9 -92 27 -25 69 -21 87 6 14 22 13 29 -5 82 -11 33 -19 63 -18 67 2 4 29 -13 60 -38 32 -25 66 -44 75 -42 24 4 29 53 8 84 -12 19 -24 24 -58 24 -60 1 -74 16 -92 99 -17 83 -28 106 -55 121 -24 13 -30 13 -30 -1z m65 -90 c8 -30 15 -64 15 -77 0 -32 -25 -23 -26 9 -1 13 -2 37 -3 52 0 16 -4 26 -8 24 -5 -3 -8 10 -9 29 -1 47 14 29 31 -37z m-83 -55 c42 -43 61 -57 86 -58 17 -1 39 -9 48 -18 11 -11 27 -14 54 -11 31 4 40 1 54 -18 18 -27 21 -55 5 -64 -9 -6 -129 79 -137 97 -2 4 -10 4 -18 1 -13 -5 -13 -7 -2 -14 11 -7 11 -9 -1 -9 -26 0 -78 40 -107 82 -15 24 -32 49 -37 56 -22 29 6 8 55 -44z m127 -222 c1 -15 -8 -26 -24 -34 -22 -10 -29 -9 -47 9 -15 15 -18 27 -12 40 7 16 8 14 11 -9 4 -28 24 -41 49 -31 12 4 14 14 9 42 -10 51 -14 55 -38 34 -21 -18 -21 -18 -4 7 9 13 17 34 18 45 1 25 37 -72 38 -103z m-27 -14 c-6 -6 -15 -7 -21 -4 -15 9 -14 39 1 54 10 10 15 7 22 -13 5 -17 4 -31 -2 -37z"/> <path d="M2236 3921 c-3 -4 6 -18 19 -31 22 -20 25 -21 31 -6 11 29 -34 63 -50 37z"/> <path d="M2620 4161 c14 -27 14 -27 -22 -42 l-33 -13 41 -4 c33 -2 43 -8 48 -25 l7 -22 10 24 c7 18 14 22 34 17 30 -8 33 4 5 22 -12 7 -17 18 -13 27 4 13 0 15 -19 10 -16 -4 -29 -1 -37 9 -19 23 -34 20 -21 -3z m62 -36 c9 -13 -10 -24 -32 -18 -11 3 -16 11 -13 19 6 16 34 15 45 -1z"/> <path d="M633 4143 c-38 -19 -41 -28 -13 -43 25 -13 26 -27 1 -35 -45 -14 -46 -107 -2 -164 21 -28 90 -42 133 -28 38 12 68 65 68 119 0 59 -25 83 -75 75 -33 -5 -34 -4 -24 14 6 12 9 23 6 25 -2 2 -10 -7 -17 -21 -14 -27 -25 -31 -35 -15 -3 6 1 10 9 10 21 0 21 44 0 64 -8 9 -16 16 -17 15 -1 0 -17 -8 -34 -16z m32 -36 c13 -10 15 -16 6 -21 -12 -8 -41 10 -41 25 0 13 13 11 35 -4z m25 -62 c10 -12 15 -12 36 2 32 20 71 5 80 -31 8 -35 -13 -92 -43 -115 -28 -23 -92 -23 -119 -1 -23 20 -44 65 -44 96 0 52 60 85 90 49z"/> <path d="M1047 4110 c-76 -15 -140 -29 -142 -31 -2 -2 10 -54 26 -114 26 -97 34 -114 67 -143 78 -69 61 -67 243 -22 90 23 165 43 168 45 2 2 -30 21 -71 41 l-75 37 -32 101 c-18 55 -36 104 -40 107 -3 3 -68 -6 -144 -21z m151 -87 c11 -43 19 -80 17 -81 -5 -5 -228 -53 -230 -50 -4 5 -36 158 -35 165 2 7 159 39 206 42 18 1 24 -10 42 -76z m-254 -18 c7 -48 -8 -19 -18 35 -5 23 -4 30 2 20 5 -8 12 -33 16 -55z m300 -62 c6 -17 3 -23 -9 -23 -9 0 -13 -5 -10 -10 4 -6 11 -7 17 -4 13 8 131 -47 121 -57 -5 -4 -22 -10 -40 -14 -36 -7 -58 13 -24 22 l22 6 -21 14 c-12 8 -24 12 -28 8 -3 -3 0 -11 8 -16 12 -9 12 -10 -3 -5 -10 3 -24 6 -30 6 -7 0 -3 8 8 17 20 15 19 15 -4 10 -14 -4 -30 -2 -37 4 -9 7 -37 5 -91 -7 -43 -9 -96 -19 -118 -20 -35 -3 -33 -2 15 10 30 8 90 21 134 31 l78 17 -6 31 c-6 34 6 20 18 -20z m-14 -73 c16 -14 19 -20 8 -20 -8 0 -25 9 -38 20 -16 14 -19 20 -8 20 8 0 25 -9 38 -20z m-40 -10 c14 -12 18 -20 9 -19 -18 1 -57 17 -44 18 6 1 3 6 -5 11 -13 8 -13 10 1 10 9 0 26 -9 39 -20z m-48 -9 c14 -16 14 -20 2 -25 -8 -3 -14 -1 -14 4 0 6 -8 10 -17 10 -16 0 -16 2 -3 11 12 8 10 9 -7 4 -14 -4 -23 -2 -23 4 0 18 45 12 62 -8z m-101 -22 c35 -27 42 -29 75 -20 21 6 41 8 46 5 17 -10 -3 -23 -47 -29 -40 -6 -48 -4 -84 26 -37 31 -50 49 -35 49 3 0 23 -14 45 -31z m233 2 c3 -5 -7 -11 -22 -14 -15 -3 -35 -9 -44 -12 -10 -4 -20 0 -26 12 -9 16 -5 18 39 20 26 2 50 -1 53 -6z"/> <path d="M2754 4091 c-23 -10 -63 -40 -90 -65 -26 -25 -57 -46 -68 -46 -30 0 -41 -10 -65 -57 -26 -52 -26 -63 -1 -56 27 7 25 -9 -5 -37 -24 -22 -71 -128 -61 -137 9 -9 80 23 108 49 28 26 39 56 16 42 -7 -4 -10 -3 -5 1 4 5 16 10 27 12 17 2 19 -1 14 -23 l-7 -27 54 29 c43 23 55 35 57 57 2 17 21 46 48 73 53 52 83 114 84 167 0 35 -2 37 -32 37 -18 0 -52 -9 -74 -19z m70 -7 c19 -7 21 -41 3 -82 l-12 -30 -49 44 -48 44 33 15 c38 16 51 18 73 9z m-35 -108 c19 -23 -1 -50 -77 -106 l-67 -49 -34 33 -33 34 32 48 c18 27 46 63 63 81 l30 32 37 -29 c20 -16 42 -36 49 -44z m-201 -45 c-13 -22 -31 -42 -40 -45 -22 -5 -22 -2 -1 32 37 60 75 71 41 13z m42 -114 c0 -6 -8 -3 -17 5 -35 30 -42 29 -63 -4 -26 -43 -27 -62 -1 -48 24 12 31 13 31 0 0 -11 -89 -65 -96 -57 -8 8 31 84 63 120 l28 33 28 -20 c15 -11 27 -24 27 -29z m86 17 c-3 -9 -6 -17 -6 -20 0 -6 -62 -36 -66 -31 -9 9 7 33 34 49 35 21 46 22 38 2z"/> <path d="M2682 3994 c-41 -29 -23 -84 28 -84 32 0 50 17 50 46 0 20 -32 54 -50 54 -3 0 -16 -7 -28 -16z m61 -26 c13 -20 -6 -48 -34 -48 -20 0 -36 40 -24 60 10 16 46 8 58 -12z"/> <path d="M2890 4032 c0 -4 5 -13 12 -20 8 -8 4 -14 -18 -24 l-29 -12 30 -4 c16 -2 34 -11 40 -19 11 -14 12 -14 18 1 5 12 13 15 27 11 24 -8 27 10 4 19 -10 4 -14 12 -10 22 5 12 2 15 -10 10 -9 -4 -27 1 -40 9 -13 9 -24 12 -24 7z"/> <path d="M469 3912 c-14 -9 -39 -30 -55 -45 -16 -16 -76 -58 -134 -94 -58 -36 -114 -73 -125 -83 -11 -9 -46 -31 -77 -49 -39 -22 -55 -36 -51 -46 8 -22 22 -18 83 19 30 19 58 32 62 30 4 -3 28 9 52 25 25 17 47 31 50 31 9 0 7 -38 -1 -42 -7 -3 -27 -69 -58 -195 -8 -32 -9 -53 -4 -53 14 0 34 52 55 143 10 42 23 77 29 77 8 0 16 -43 24 -122 13 -126 27 -176 44 -159 6 6 2 53 -11 128 -12 64 -19 120 -16 122 3 3 7 -5 11 -17 3 -12 9 -19 14 -16 5 3 6 -2 3 -10 -10 -26 55 -130 71 -114 3 3 -15 45 -39 94 -24 49 -46 96 -48 104 -2 8 -7 18 -12 21 -5 4 -10 21 -11 38 -2 28 3 34 54 65 31 18 67 37 81 41 35 10 90 45 90 57 0 13 -39 68 -48 67 -4 0 -19 -8 -33 -17z m46 -64 c-31 -24 -39 -23 -55 8 -12 22 -12 27 0 34 22 14 27 12 44 -12 18 -26 21 -17 5 15 -9 19 -8 19 9 -2 20 -25 20 -25 -3 -43z m-85 -22 c0 -8 -27 -31 -59 -50 -61 -38 -77 -56 -59 -74 11 -11 3 -32 -14 -32 -6 0 -8 9 -5 19 3 12 -3 27 -14 37 -23 21 -14 37 17 30 16 -4 22 -2 19 6 -5 13 79 76 103 77 6 1 12 -5 12 -13z m-166 -105 c6 -9 -77 -63 -91 -59 -4 1 -27 -10 -50 -25 -24 -15 -48 -27 -55 -27 -7 0 12 16 42 35 30 19 60 33 67 30 7 -2 10 1 7 8 -2 7 8 19 23 29 32 19 50 22 57 9z"/> <path d="M8 3838 c9 -12 10 -23 2 -43 -6 -15 -9 -29 -8 -30 2 -2 24 -6 50 -10 41 -6 48 -5 58 15 17 33 5 70 -24 70 -13 0 -39 3 -57 7 -30 6 -32 4 -21 -9z m70 -14 c34 -9 26 -48 -10 -52 -25 -3 -27 0 -25 27 2 34 2 33 35 25z"/> <path d="M2393 3813 c-28 -19 -29 -39 -4 -53 30 -15 40 -12 53 15 8 19 8 28 -2 40 -15 18 -19 18 -47 -2z m37 -23 c0 -13 -7 -20 -19 -20 -27 0 -35 17 -14 29 26 15 33 13 33 -9z"/> <path d="M1943 3800 c-12 -5 -95 -11 -185 -14 -135 -4 -171 -8 -208 -25 l-45 -20 130 5 c72 2 156 7 188 9 49 4 57 2 57 -13 0 -12 -43 -38 -151 -92 -83 -41 -153 -78 -155 -81 -2 -4 18 -4 44 -1 32 3 97 30 202 83 86 44 163 79 173 79 9 0 17 7 17 15 0 8 11 17 25 21 23 6 33 23 19 36 -3 4 -19 2 -35 -2 -17 -5 -29 -5 -29 1 0 11 -18 11 -47 -1z m17 -53 c0 -15 -7 -18 -32 -15 -41 4 -46 23 -11 41 30 16 43 9 43 -26z m-110 22 c-25 -4 -92 -7 -150 -6 l-105 1 115 6 c63 3 131 6 150 7 30 0 29 -1 -10 -8z m-64 -120 c-76 -39 -141 -68 -144 -65 -3 3 -3 7 -1 9 16 14 257 126 269 126 8 0 -47 -31 -124 -70z"/> <path d="M2792 3798 c-7 -7 -12 -24 -12 -39 0 -15 -7 -29 -15 -33 -24 -9 -18 -45 9 -52 13 -3 26 -15 29 -26 3 -11 14 -22 25 -24 16 -5 18 -11 11 -52 -4 -26 -3 -51 2 -57 5 -5 9 -1 9 12 0 12 8 24 18 27 19 6 47 45 38 53 -11 11 -35 -7 -30 -22 3 -8 2 -15 -3 -15 -16 0 -14 60 2 66 8 4 15 12 15 19 0 8 9 11 24 8 17 -4 27 1 35 15 12 22 5 52 -11 52 -5 0 -7 13 -3 30 6 25 3 31 -19 41 -21 10 -29 9 -45 -5 -16 -15 -19 -15 -31 -1 -15 18 -32 19 -48 3z m46 -39 c4 -35 -43 -86 -63 -69 -19 15 -10 30 17 30 17 0 18 3 8 15 -16 19 -3 57 18 53 10 -2 18 -14 20 -29z m82 13 c0 -10 -5 -23 -12 -30 -7 -7 -20 -12 -30 -12 -21 0 -24 30 -6 48 18 18 48 15 48 -6z m15 -72 c0 -9 -11 -16 -27 -18 -27 -3 -38 14 -21 32 12 12 48 2 48 -14z m-65 -41 c0 -13 -7 -19 -24 -19 -27 0 -40 14 -33 34 8 21 57 8 57 -15z"/> <path d="M914 3733 c-7 -45 -13 -57 -29 -59 -45 -7 -60 -68 -20 -86 38 -17 59 9 74 89 7 38 15 78 18 91 4 17 1 22 -14 22 -16 0 -21 -10 -29 -57z m6 -77 c0 -3 -4 -16 -10 -30 -13 -34 -50 -36 -50 -3 0 13 3 27 7 30 7 8 53 10 53 3z"/> <path d="M691 3694 c-9 -35 -16 -44 -27 -40 -47 18 -77 -61 -32 -85 19 -10 25 -8 46 16 14 17 22 37 20 50 -4 18 0 22 16 20 12 -1 33 -3 49 -4 35 -1 36 -27 0 -26 -33 0 -57 -38 -42 -67 11 -21 52 -24 66 -5 12 16 75 159 71 162 -4 3 -131 25 -145 25 -6 0 -16 -21 -22 -46z m149 2 c-1 -6 -9 -26 -19 -45 -16 -30 -19 -31 -23 -14 -4 15 -17 22 -52 27 -47 7 -53 14 -37 45 9 16 17 17 70 8 34 -5 61 -15 61 -21z m-165 -66 c8 -14 -13 -50 -30 -50 -19 0 -27 16 -20 40 7 21 39 27 50 10z m120 -22 c4 4 0 -8 -9 -26 -12 -23 -22 -32 -32 -28 -9 3 -18 6 -20 6 -2 0 -4 9 -4 20 0 23 30 42 46 29 6 -5 14 -5 19 -1z"/> <path d="M715 3702 c-3 -8 -4 -16 -3 -17 8 -7 98 -22 103 -17 16 16 -1 30 -45 39 -40 8 -50 7 -55 -5z m80 -12 c17 -7 16 -9 -10 -9 -16 0 -39 4 -50 9 -17 7 -16 9 10 9 17 0 39 -4 50 -9z"/> <path d="M2315 3699 c-22 -15 -51 -28 -65 -29 -39 0 -50 -18 -50 -78 0 -45 3 -55 19 -59 11 -3 21 -15 23 -27 2 -15 10 -21 28 -21 21 0 25 5 25 30 0 35 20 52 41 35 16 -14 19 -46 4 -55 -5 -3 -10 -12 -10 -20 0 -8 -4 -25 -9 -38 -9 -23 -12 -24 -58 -16 -26 5 -58 11 -70 14 -13 3 -23 2 -23 -3 0 -5 32 -14 71 -21 l70 -13 -6 -42 c-9 -52 -16 -59 -49 -50 -22 5 -26 11 -26 44 0 31 -4 39 -22 44 -40 10 -48 7 -65 -29 -13 -28 -23 -35 -44 -35 -17 0 -34 -8 -43 -22 -21 -30 -11 -37 15 -10 13 15 27 20 42 17 12 -3 69 -12 127 -20 140 -21 137 -19 132 -55 -2 -17 -6 -30 -7 -30 -13 0 -314 60 -328 65 -10 4 -17 3 -17 -4 0 -6 1 -11 3 -11 1 -1 81 -16 177 -34 96 -19 176 -33 178 -31 2 2 7 33 13 70 5 36 14 76 20 87 6 11 9 37 5 57 -3 20 1 53 8 75 18 52 5 80 -49 106 -23 11 -46 20 -53 20 -6 0 -16 8 -21 18 -8 14 -2 22 30 40 36 21 49 44 32 55 -5 3 -26 -8 -48 -24z m-48 -47 c12 -8 33 -55 33 -76 0 -6 -18 -17 -40 -22 -32 -9 -40 -8 -45 3 -10 28 -5 72 11 87 17 18 24 19 41 8z m86 -66 c18 -7 40 -23 51 -34 17 -19 17 -26 5 -65 -11 -39 -16 -44 -41 -43 -32 1 -35 16 -12 51 18 27 7 57 -26 75 -11 6 -20 15 -20 20 0 13 5 13 43 -4z m47 -171 c15 -19 6 -61 -16 -69 -27 -10 -53 3 -60 30 -8 30 11 54 41 54 12 0 28 -7 35 -15z m-182 -77 c-3 -20 -8 -23 -38 -20 -42 5 -42 5 -34 26 4 10 18 16 41 16 30 0 34 -3 31 -22z m144 -8 c11 0 18 -7 18 -20 0 -16 -7 -20 -30 -20 -33 0 -47 18 -36 47 5 12 9 14 18 5 7 -7 20 -12 30 -12z"/> <path d="M550 3661 c0 -47 -3 -61 -15 -61 -21 0 -48 -45 -40 -69 8 -27 34 -34 61 -16 22 14 24 22 24 100 0 47 0 88 1 93 0 4 -7 8 -15 10 -13 3 -16 -8 -16 -57z m10 -115 c-13 -35 -45 -32 -45 4 0 18 6 26 23 28 20 3 22 9 24 65 l2 62 3 -66 c2 -36 -1 -78 -7 -93z"/> <path d="M2626 3702 c-6 -16 -15 -22 -38 -22 -30 0 -30 -1 -14 -19 9 -10 14 -25 10 -35 -7 -18 0 -20 26 -6 13 7 21 7 25 0 11 -18 33 -11 28 9 -3 14 5 22 34 34 l38 16 -43 0 c-35 1 -44 5 -51 23 l-8 23 -7 -23z m24 -49 c-21 -15 -50 -11 -50 6 0 12 29 19 53 13 16 -4 16 -6 -3 -19z"/> <path d="M1433 3673 c-7 -3 -13 -11 -13 -18 0 -7 -6 -15 -14 -18 -18 -7 -10 -47 9 -47 7 0 15 -7 19 -15 3 -8 15 -15 26 -15 15 0 20 7 20 25 0 16 6 25 16 25 22 0 13 34 -11 39 -11 2 -24 9 -30 16 -5 7 -16 11 -22 8z m17 -23 c0 -5 9 -10 20 -10 23 0 27 -15 6 -23 -8 -3 -16 -16 -19 -29 l-4 -23 -8 23 c-4 12 -14 22 -21 22 -8 0 -14 5 -14 10 0 6 5 10 10 10 6 0 10 7 10 15 0 8 5 15 10 15 6 0 10 -4 10 -10z"/> <path d="M1275 3665 c-5 -2 -27 -6 -47 -10 -24 -4 -38 -11 -38 -21 0 -21 18 -25 84 -17 52 7 60 11 61 31 1 18 -3 22 -24 21 -14 0 -30 -2 -36 -4z m44 -28 c-10 -10 -109 -17 -109 -8 0 12 93 30 104 19 5 -4 8 -9 5 -11z"/> <path d="M1020 3594 c0 -14 13 -46 30 -70 16 -24 27 -51 23 -59 -3 -9 -2 -68 2 -131 7 -107 9 -116 30 -126 17 -8 36 -6 74 7 28 9 51 21 51 26 0 5 11 9 24 9 18 0 29 10 45 40 30 58 27 82 -11 104 -18 11 -52 34 -74 52 -23 18 -53 39 -68 45 -16 7 -34 30 -45 53 -32 73 -81 103 -81 50z m54 -27 c31 -54 37 -77 20 -70 -13 5 -64 81 -64 96 0 19 27 3 44 -26z m79 -93 c5 -5 -57 -44 -70 -44 -6 0 12 36 21 42 14 9 40 10 49 2z m66 -54 c31 -26 32 -30 15 -36 -54 -17 -72 -27 -101 -54 -18 -17 -34 -30 -37 -30 -4 0 -6 24 -6 53 0 39 5 58 18 69 40 35 68 35 111 -2z m75 -49 c3 -5 -11 -11 -32 -14 -48 -6 -128 -55 -153 -93 -15 -23 -19 -25 -19 -10 0 52 181 156 204 117z m6 -41 c0 -15 -7 -20 -29 -20 -16 0 -31 6 -34 14 -8 19 1 26 35 26 21 0 28 -5 28 -20z m-70 -15 c10 -11 10 -19 2 -27 -6 -6 -8 -16 -6 -22 6 -16 -39 -36 -81 -36 -38 0 -42 7 -22 33 12 17 77 66 88 67 4 0 12 -7 19 -15z m46 -26 c10 -17 -13 -36 -27 -22 -12 12 -4 33 11 33 5 0 12 -5 16 -11z"/> <path d="M1242 3600 c-41 -10 -44 -13 -36 -34 5 -14 15 -16 48 -11 88 13 97 16 94 33 -4 20 -54 25 -106 12z m88 -9 c0 -9 -48 -21 -88 -21 -34 0 -17 17 23 23 54 7 65 7 65 -2z"/> <path d="M1974 3559 c-3 -6 -1 -16 5 -22 9 -9 14 -8 21 3 9 15 4 30 -10 30 -5 0 -12 -5 -16 -11z"/> <path d="M1913 3520 c-3 -11 -14 -20 -24 -20 -21 0 -26 -29 -9 -46 8 -8 8 -30 1 -75 -6 -35 -11 -67 -11 -70 0 -3 -21 -19 -46 -35 -66 -41 -95 -106 -78 -170 4 -17 23 -24 112 -42 59 -12 112 -22 119 -22 18 0 46 96 39 135 -4 18 -18 50 -32 71 -24 34 -25 43 -19 105 4 37 13 79 21 94 18 34 11 45 -29 45 -22 0 -28 3 -18 9 15 10 8 41 -10 41 -6 0 -13 -9 -16 -20z m59 -47 c4 -2 3 -12 -2 -21 -5 -9 -14 -53 -20 -96 -10 -77 -10 -80 13 -105 46 -49 52 -115 18 -178 -13 -25 -7 -25 -141 6 l-75 17 -3 48 c-4 59 12 86 73 121 30 18 45 34 46 48 0 21 1 21 8 3 5 -14 11 2 20 54 10 64 10 75 -4 82 -8 5 -15 16 -15 24 0 12 8 13 38 8 20 -4 40 -8 44 -11z"/> <path d="M1816 3241 c-31 -19 -48 -58 -44 -102 3 -32 4 -33 83 -51 44 -9 85 -18 91 -18 16 0 44 62 44 97 0 44 -19 61 -87 76 -54 12 -64 12 -87 -2z m94 -13 c58 -13 75 -34 66 -82 -13 -61 -23 -66 -101 -49 -39 9 -76 20 -83 26 -18 14 -9 73 14 98 20 22 34 23 104 7z"/> <path d="M1863 3173 c-18 -6 -16 -40 1 -46 8 -3 20 1 27 9 10 12 9 18 -2 28 -8 8 -20 12 -26 9z"/> <path d="M604 3463 c-20 -32 -51 -83 -67 -113 -16 -30 -37 -63 -45 -73 -8 -9 -12 -20 -9 -24 7 -6 127 8 377 44 58 8 106 16 108 18 2 1 -59 40 -135 85 -76 46 -150 91 -165 102 l-27 19 -37 -58z m69 15 c15 -7 27 -16 27 -20 0 -5 6 -8 14 -8 7 0 24 -10 38 -23 14 -13 30 -21 36 -19 7 2 15 -3 18 -12 3 -9 12 -16 20 -16 8 0 14 -4 14 -10 0 -5 9 -10 20 -10 11 0 20 -4 20 -8 0 -5 12 -13 28 -18 31 -12 47 -9 -210 -44 -206 -28 -196 -29 -164 23 14 23 43 72 63 109 21 38 40 68 44 68 3 0 17 -6 32 -12z"/> <path d="M653 3418 c-16 -20 -43 -76 -43 -89 0 -8 15 -10 53 -5 92 12 117 18 117 30 0 8 -68 54 -111 74 -3 1 -11 -3 -16 -10z m65 -35 l47 -28 -65 -11 c-36 -5 -67 -9 -70 -7 -4 4 30 73 37 73 3 0 25 -12 51 -27z"/> <path d="M1439 3459 c-7 -13 -9 -41 -5 -70 6 -43 5 -47 -13 -42 -13 3 -29 -6 -50 -28 -17 -17 -31 -34 -31 -36 0 -17 25 -43 50 -51 28 -10 29 -13 19 -39 -12 -33 -5 -69 17 -77 19 -7 104 30 104 46 0 5 6 8 12 6 7 -3 13 -13 13 -24 0 -13 7 -19 23 -18 12 0 22 -3 22 -7 0 -10 39 -19 57 -12 11 4 14 19 11 59 -3 51 -2 54 23 59 34 8 71 42 67 63 -2 9 -17 25 -33 37 -25 16 -31 28 -33 65 -5 69 -21 79 -80 48 l-48 -25 -37 33 c-42 39 -71 43 -88 13z m81 -28 l35 -29 -25 -26 c-16 -18 -33 -26 -50 -24 -23 3 -25 8 -28 56 -3 45 -1 52 15 52 10 0 34 -13 53 -29z m155 -12 c5 -15 2 -25 -9 -31 -9 -5 -16 -16 -16 -23 0 -23 -46 -18 -64 8 -16 22 -17 22 -11 0 5 -18 2 -20 -15 -16 -20 5 -20 6 -3 25 19 22 81 57 100 58 6 0 15 -10 18 -21z m-65 -109 c11 -25 9 -33 -10 -60 -32 -45 -73 -42 -99 9 -18 34 -18 40 -5 60 12 16 25 21 58 21 39 0 45 -3 56 -30z m-150 -2 c0 -13 -9 -34 -19 -47 -17 -23 -21 -23 -50 -11 -47 19 -34 72 14 54 8 -4 17 1 21 10 9 24 34 19 34 -6z m250 7 c46 -24 37 -51 -23 -74 -25 -10 -29 -8 -37 14 -6 17 -6 33 2 50 13 29 19 30 58 10z m-221 -61 c14 -32 11 -37 -22 -29 -23 6 -25 9 -15 31 14 31 22 30 37 -2z m151 -8 c0 -14 -29 -31 -38 -21 -6 6 18 35 29 35 5 0 9 -6 9 -14z m-118 -50 c12 -18 10 -21 -31 -44 -65 -37 -83 -24 -65 44 5 19 11 21 47 16 23 -3 45 -10 49 -16z m137 -38 c1 -15 -4 -30 -9 -33 -17 -10 -47 4 -53 25 -3 11 -12 20 -21 20 -40 0 -6 37 39 42 33 3 43 -9 44 -54z"/> <path d="M1524 3306 c-11 -28 4 -48 33 -44 22 2 28 8 28 28 0 20 -6 26 -28 28 -18 2 -29 -2 -33 -12z m46 -16 c0 -11 -7 -20 -15 -20 -8 0 -15 9 -15 20 0 11 7 20 15 20 8 0 15 -9 15 -20z"/> <path d="M2481 3447 c-19 -19 -12 -52 18 -87 l29 -35 36 34 c25 24 36 44 36 63 0 15 -3 29 -7 29 -41 7 -104 4 -112 -4z m106 -23 c5 -14 -42 -74 -57 -74 -13 0 -51 62 -47 74 7 19 97 18 104 0z"/> <path d="M2710 3428 c-133 -90 -107 -290 43 -330 54 -14 61 -33 17 -43 -43 -9 -47 -25 -7 -25 19 0 55 -3 81 -6 57 -8 61 8 6 26 -42 14 -55 40 -20 40 30 0 90 27 90 40 0 6 -6 8 -12 4 -7 -4 3 10 22 30 33 35 35 41 35 104 0 54 -4 73 -23 100 -34 47 -95 75 -148 69 -24 -2 -45 0 -46 5 -2 5 -19 -1 -38 -14z m24 -14 c22 -9 20 -21 -5 -27 -16 -4 -19 -11 -14 -26 5 -16 3 -20 -9 -15 -9 3 -16 13 -16 22 0 12 -3 13 -11 5 -13 -13 3 -34 34 -46 10 -4 15 -12 12 -18 -4 -6 0 -25 8 -42 8 -18 19 -45 23 -61 5 -16 14 -31 19 -33 10 -3 65 101 65 122 0 15 -66 55 -90 55 -11 0 -20 7 -20 15 0 8 6 15 14 15 8 0 18 9 21 20 5 16 15 20 49 20 45 0 88 -21 68 -34 -16 -9 -15 -49 0 -64 7 -7 20 -12 31 -12 14 0 17 -5 12 -20 -4 -13 0 -31 10 -46 16 -24 15 -27 -11 -61 -86 -113 -264 -56 -266 86 0 21 3 48 7 61 5 15 4 20 -4 16 -19 -12 -12 2 20 39 35 39 31 37 53 29z m206 -74 c21 -41 28 -106 10 -95 -5 3 -10 22 -10 41 0 21 -5 34 -13 34 -7 0 -21 6 -31 13 -16 11 -17 17 -7 36 15 27 26 21 51 -29z m-139 -33 l25 -22 -27 -50 -28 -50 -7 43 c-4 23 -11 45 -15 48 -5 3 -9 16 -9 30 0 31 26 31 61 1z"/> <path d="M86 3418 c-19 -10 -20 -33 -5 -75 10 -30 10 -30 51 -19 42 13 62 35 53 58 -8 21 -79 47 -99 36z m39 -18 c3 -5 15 -10 26 -10 39 0 17 -41 -28 -52 -17 -5 -24 0 -31 21 -5 14 -7 32 -5 39 6 14 29 16 38 2z"/> <path d="M239 3222 c-15 -27 -18 -28 -80 -24 l-65 4 -16 -52 -17 -52 30 -29 c32 -31 41 -34 68 -19 13 7 60 -3 172 -36 85 -24 156 -49 157 -54 9 -26 36 -41 61 -35 14 4 43 6 63 6 36 -1 38 0 48 41 6 24 18 65 27 91 8 27 13 50 12 52 -22 21 -385 135 -430 135 -8 0 -21 -13 -30 -28z m111 -2 c112 -31 314 -100 325 -111 7 -7 5 -8 -5 -5 -61 21 -327 96 -342 96 -10 0 -18 4 -18 8 0 5 -12 13 -27 19 -46 18 -12 14 67 -7z m-55 -12 c4 4 5 -4 2 -18 -28 -121 -34 -131 -65 -112 -9 6 -10 16 -1 40 6 18 15 32 20 32 5 0 4 -12 -1 -26 -6 -14 -10 -31 -9 -37 0 -12 19 33 34 83 7 24 7 24 -9 5 -16 -21 -20 -14 -10 23 5 16 10 20 19 12 6 -5 15 -6 20 -2z m-66 -60 c-12 -29 -23 -59 -26 -65 -9 -24 -23 -13 -23 17 0 17 -3 31 -7 31 -44 7 -63 6 -58 -1 3 -5 0 -12 -6 -16 -8 -4 -9 -3 -5 4 4 7 3 12 -3 12 -5 0 -12 -6 -14 -12 -4 -10 -6 -10 -6 -1 -1 7 11 20 25 29 23 16 28 16 59 1 l34 -16 21 34 c30 49 33 43 9 -17z m-20 26 c3 -2 0 -9 -5 -14 -12 -12 -86 9 -77 22 5 9 72 2 82 -8z m150 7 c19 -12 4 -51 -19 -51 -24 0 -31 11 -23 38 6 23 19 27 42 13z m79 -21 c8 0 10 -9 6 -27 -9 -36 -6 -35 -43 -22 -22 8 -30 16 -27 26 3 8 6 19 6 25 0 6 10 8 23 4 12 -3 28 -6 35 -6z m84 -29 c4 -3 5 -17 1 -29 -5 -20 -10 -22 -37 -16 -39 8 -38 7 -30 38 5 22 10 25 33 20 14 -4 29 -9 33 -13z m-356 -13 c4 -7 3 -8 -4 -4 -16 9 -15 -7 0 -22 9 -9 9 -15 -1 -24 -10 -11 -11 -9 -5 6 6 15 4 17 -7 11 -7 -5 -21 -10 -30 -10 -20 -2 -14 23 9 43 20 15 29 15 38 0z m281 -34 c81 -25 162 -50 179 -55 31 -10 32 -11 21 -44 -8 -27 -16 -35 -34 -35 -18 0 -23 6 -23 24 0 14 -4 28 -10 31 -5 3 -10 1 -10 -5 0 -6 -5 -8 -11 -4 -22 13 18 25 47 14 15 -6 29 -8 32 -6 6 7 9 6 -171 62 -82 25 -151 43 -154 40 -3 -2 41 -19 98 -36 57 -17 113 -35 124 -40 19 -8 19 -9 1 -9 -11 -1 -27 -8 -37 -17 -16 -15 -25 -14 -111 10 -51 15 -98 29 -105 31 -8 3 -8 14 -1 44 6 23 12 41 13 41 2 0 70 -20 152 -46z m151 12 c7 -35 -5 -46 -38 -34 -21 7 -29 15 -26 25 3 8 6 21 6 28 0 20 54 3 58 -19z m58 -18 c-3 -13 -6 -26 -6 -30 0 -5 -9 -8 -19 -8 -26 0 -31 10 -20 38 5 13 17 22 30 22 17 0 20 -4 15 -22z m-98 -106 c-5 -28 -33 -20 -34 10 -1 24 1 26 18 17 11 -6 18 -18 16 -27z"/> <path d="M919 3183 c-24 -15 -59 -70 -59 -92 0 -5 -16 -35 -35 -67 -20 -33 -47 -94 -60 -137 -44 -138 -28 -157 33 -40 l40 76 7 -32 c5 -25 15 -36 42 -47 19 -8 43 -12 54 -9 13 4 36 -4 66 -24 26 -17 52 -31 58 -31 29 0 81 48 99 92 25 60 16 110 -29 155 -30 30 -38 33 -93 33 -64 0 -110 -15 -154 -50 -16 -12 -28 -18 -28 -13 0 4 -21 -34 -45 -86 -25 -52 -47 -92 -50 -89 -6 5 18 83 45 146 19 44 25 50 40 42 14 -8 19 -5 24 14 3 13 19 38 35 55 16 17 33 45 36 62 4 17 13 33 21 36 8 3 14 9 14 14 0 14 -33 10 -61 -8z m3 -56 c-28 -64 -65 -82 -42 -21 12 30 50 77 58 70 2 -2 -5 -24 -16 -49z m137 -96 c-20 -16 -21 -21 -10 -35 20 -24 60 -20 70 6 l8 21 16 -24 c22 -31 21 -37 -5 -32 -13 2 -30 -1 -38 -6 -22 -15 1 -46 34 -46 30 1 33 -13 11 -55 -17 -34 -52 -60 -78 -60 -11 0 -32 11 -49 25 -22 19 -41 25 -77 25 -63 0 -83 21 -79 81 3 38 9 47 46 76 46 34 74 44 52 18 -17 -21 -5 -45 23 -45 46 0 64 44 25 60 -19 7 -14 9 26 9 l48 1 -23 -19z m-44 -11 c7 -11 -35 -31 -48 -23 -11 6 12 33 29 33 7 0 16 -5 19 -10z m85 0 c11 -7 12 -12 3 -21 -15 -15 -43 -5 -43 16 0 17 18 19 40 5z m46 -71 c10 -17 -13 -36 -27 -22 -12 12 -4 33 11 33 5 0 12 -5 16 -11z"/> <path d="M886 2981 c-31 -34 1 -63 48 -45 19 7 21 35 4 52 -17 17 -32 15 -52 -7z m51 -17 c5 -14 -38 -27 -50 -15 -5 5 -6 14 -2 21 8 14 47 9 52 -6z"/> <path d="M910 2891 c0 -19 25 -31 48 -24 6 3 12 13 12 24 0 14 -7 19 -30 19 -23 0 -30 -5 -30 -19z"/> <path d="M1072 2888 c-26 -26 1 -65 37 -53 26 8 33 31 15 50 -19 18 -36 19 -52 3z m48 -21 c0 -19 -10 -27 -26 -20 -21 8 -17 33 6 33 11 0 20 -6 20 -13z"/> <path d="M2467 3162 c-10 -10 -17 -25 -17 -33 0 -9 -6 -24 -14 -34 -12 -17 -15 -18 -37 -3 -43 27 -63 2 -37 -45 7 -12 11 -32 9 -44 -4 -34 20 -39 45 -10 28 33 32 33 44 2 11 -30 37 -32 101 -10 56 20 77 40 85 82 5 29 2 39 -22 64 -15 16 -36 29 -45 29 -10 0 -21 5 -24 10 -10 17 -71 11 -88 -8z m39 -12 c-50 -25 -54 -25 -31 0 10 11 30 20 44 20 24 -1 22 -3 -13 -20z m112 -36 c17 -20 20 -29 11 -34 -6 -4 -9 -12 -6 -17 4 -6 0 -18 -7 -28 -13 -18 -15 -17 -39 7 -17 18 -24 33 -20 47 3 12 1 21 -6 21 -6 0 -11 -13 -11 -28 0 -34 -21 -82 -36 -82 -6 0 -24 10 -39 22 l-28 22 -19 -27 c-23 -32 -42 -36 -33 -7 3 10 1 29 -5 40 -18 33 -7 43 22 21 l26 -21 23 36 c41 67 121 80 167 28z m-33 -104 c-5 -9 -55 -20 -55 -12 0 3 8 10 17 17 18 13 47 9 38 -5z"/> <path d="M2964 3027 l-27 -24 28 -36 c35 -44 46 -41 15 4 l-23 32 24 18 c13 10 21 20 18 24 -4 3 -19 -5 -35 -18z"/> <path d="M1220 3028 c0 -2 9 -26 20 -54 l19 -52 -23 -76 c-13 -42 -20 -76 -15 -76 5 0 9 4 9 10 0 10 52 40 69 40 6 0 16 -18 22 -40 7 -22 16 -39 20 -38 4 2 70 59 147 128 l140 125 -137 12 c-75 6 -166 14 -203 17 -38 3 -68 5 -68 4z m280 -35 l65 -6 -135 -23 c-74 -13 -141 -23 -148 -21 -8 1 -20 17 -28 36 l-14 33 98 -6 c53 -4 126 -9 162 -13z m10 -28 c0 -2 -46 -19 -102 -37 -75 -23 -111 -40 -130 -61 -31 -32 -35 -24 -14 28 12 28 21 35 43 36 15 0 64 9 108 18 101 23 95 22 95 16z m-47 -99 l-118 -103 -22 55 c-13 30 -22 56 -20 58 1 1 44 17 96 34 52 18 108 38 125 46 64 28 53 11 -61 -90z m-163 -20 c0 -8 -7 -17 -16 -20 -30 -11 -37 -6 -19 14 21 23 35 26 35 6z"/> <path d="M2649 2970 c-24 -23 -30 -37 -27 -62 3 -29 10 -37 68 -66 l65 -33 -60 6 c-33 3 -71 8 -85 11 -25 7 -25 7 -6 -14 11 -12 17 -23 15 -25 -2 -1 -14 -10 -26 -20 -21 -18 -22 -18 -49 0 -20 13 -47 18 -94 18 -55 0 -72 -5 -112 -30 -32 -20 -49 -39 -53 -57 -7 -32 1 -51 17 -42 8 5 9 1 3 -12 -4 -10 -10 -36 -13 -56 -5 -46 26 -101 69 -123 16 -9 29 -23 29 -33 0 -11 3 -13 8 -5 4 7 36 13 70 15 34 2 62 7 62 12 0 4 14 24 31 43 27 32 30 41 27 87 -3 28 -8 60 -13 71 -6 16 -6 18 6 8 39 -37 56 23 17 64 l-21 23 62 0 c34 0 77 7 96 14 42 18 44 11 15 -53 -22 -47 -20 -62 5 -41 12 10 16 9 21 -4 10 -25 21 -10 34 45 l12 51 43 -42 c46 -45 75 -49 109 -14 34 34 19 63 -49 95 -32 15 -81 55 -136 111 -47 49 -91 88 -98 88 -7 0 -26 -13 -42 -30z m77 -1 c4 -8 -1 -9 -15 -4 -15 4 -29 1 -42 -11 -21 -19 -26 -54 -8 -54 6 0 9 6 6 14 -3 8 1 22 8 33 13 17 15 17 35 -3 l21 -20 -22 -29 c-15 -18 -18 -26 -8 -23 8 2 21 19 30 37 l15 33 38 -46 c31 -38 35 -49 26 -66 -13 -25 -12 -25 -63 1 -65 33 -69 38 -52 62 19 27 19 37 0 37 -8 0 -12 -6 -9 -14 6 -16 -29 -31 -46 -21 -16 10 -12 30 11 59 21 27 62 35 75 15z m124 -142 c0 -7 -6 -22 -14 -33 -12 -15 -17 -16 -27 -7 -10 10 -9 17 6 33 21 23 35 26 35 7z m-73 -33 c-9 -10 -112 -34 -142 -34 -26 1 -28 2 -14 13 9 7 14 17 12 22 -2 6 25 9 73 7 42 -2 74 -6 71 -8z m203 -50 c0 -13 -28 -38 -51 -46 -9 -4 -30 9 -54 33 -37 37 -38 39 -21 58 18 20 19 19 72 -7 30 -14 54 -31 54 -38z m-171 19 c-1 -38 -24 -82 -37 -74 -10 6 -10 14 -3 32 5 13 12 32 15 42 3 9 10 17 16 17 5 0 10 -8 9 -17z m-273 -6 c4 -3 -4 -15 -17 -25 -17 -15 -30 -18 -52 -11 -15 4 -34 6 -42 3 -7 -3 -26 2 -40 12 -25 16 -26 19 -9 26 22 9 150 6 160 -5z m-172 -23 c25 -9 19 -18 -24 -43 -39 -22 -40 -22 -40 -2 0 11 10 27 22 35 26 19 22 18 42 10z m230 -26 c31 -44 14 -51 -39 -15 -19 13 -32 27 -28 30 14 15 53 6 67 -15z m-89 -12 c78 -33 98 -138 37 -198 -104 -104 -290 10 -226 138 33 66 114 91 189 60z"/> <path d="M2394 2686 c-41 -18 -74 -62 -74 -98 0 -90 97 -146 180 -103 41 21 60 53 60 101 0 34 -6 49 -29 72 -17 16 -44 32 -62 36 -40 8 -38 8 -75 -8z m31 -16 c-3 -5 -1 -10 4 -10 6 0 11 5 11 10 0 22 53 9 81 -19 26 -27 42 -70 20 -56 -5 3 -12 1 -16 -5 -3 -5 1 -10 9 -10 43 0 -16 -83 -68 -96 -44 -11 -98 16 -121 60 -16 31 -17 40 -6 44 11 3 11 6 0 12 -9 6 -3 18 23 44 32 32 79 51 63 26z"/> <path d="M2420 2590 c0 -5 -13 -16 -30 -25 -16 -9 -30 -20 -30 -26 0 -6 16 -1 35 11 l35 22 0 -28 c0 -35 15 -21 25 24 6 28 4 32 -14 32 -12 0 -21 -4 -21 -10z"/> <path d="M2048 2977 c-32 -6 -58 -13 -58 -16 0 -3 23 -19 51 -35 43 -24 83 -33 238 -57 102 -16 189 -29 194 -29 4 0 12 12 18 26 20 54 12 58 -169 88 -215 36 -207 36 -274 23z m62 -21 c0 -35 -11 -45 -36 -34 -40 18 -28 42 24 47 6 0 12 -5 12 -13z m185 -14 c96 -16 100 -18 97 -41 -1 -14 -4 -27 -7 -29 -2 -2 -32 0 -67 6 -35 6 -95 16 -134 22 -70 11 -70 11 -66 41 5 33 -15 33 177 1z m173 -31 c23 -14 10 -46 -21 -49 -29 -4 -30 0 -21 36 7 23 20 27 42 13z"/> <path d="M155 2948 c10 -46 30 -63 21 -19 -3 18 -6 37 -6 42 0 5 -5 9 -11 9 -7 0 -8 -12 -4 -32z"/> <path d="M1706 2945 c-79 -43 -95 -141 -33 -205 l30 -31 -26 -52 c-35 -68 -44 -112 -25 -120 8 -3 19 -2 25 1 10 7 38 85 48 135 5 25 9 27 50 27 38 0 52 6 83 34 35 33 37 38 37 95 0 55 -3 64 -32 92 -38 39 -110 50 -157 24z m109 -19 c35 -15 65 -59 65 -96 0 -34 -28 -78 -60 -95 -87 -45 -176 27 -155 124 5 22 11 28 22 24 12 -5 15 -2 10 10 -8 20 27 47 61 47 12 0 38 -6 57 -14z m-117 -301 c-13 -37 -27 -66 -33 -64 -5 2 -8 11 -6 19 5 24 54 120 58 116 2 -2 -6 -34 -19 -71z"/> <path d="M175 2892 c-37 -7 -65 -43 -65 -82 0 -78 96 -115 146 -56 55 64 2 154 -81 138z m65 -32 c43 -43 11 -120 -48 -120 -33 0 -57 23 -67 62 -5 21 -1 33 19 52 30 31 69 33 96 6z"/> <path d="M2180 2790 c-8 -5 -28 -10 -45 -10 -34 0 -111 -33 -140 -59 -11 -10 -32 -21 -47 -25 -34 -8 -36 -28 -8 -74 20 -32 41 -46 92 -56 60 -13 115 -89 87 -122 -7 -8 -10 -17 -7 -19 8 -8 83 17 112 38 l28 20 -26 14 c-22 12 -26 20 -26 59 0 25 5 54 10 64 8 14 5 33 -10 71 -19 51 -19 69 1 69 5 0 10 -19 10 -42 2 -33 3 -36 6 -14 3 15 2 39 -1 52 -6 22 -9 23 -29 13 -20 -11 -21 -11 -8 4 34 42 58 2 48 -79 -3 -28 -1 -42 4 -37 12 12 14 91 5 121 -8 23 -31 28 -56 12z m-3 -67 c11 -31 17 -66 15 -98 -7 -98 -5 -118 14 -132 20 -15 20 -15 -23 -37 -42 -21 -43 -21 -43 15 0 31 -33 71 -92 111 -15 10 -33 38 -42 65 l-17 48 27 21 c25 20 103 52 131 53 6 1 20 -20 30 -46z m-227 -57 c0 -8 9 -24 21 -37 l20 -24 -17 28 c-9 15 -13 31 -10 35 11 11 38 -31 32 -51 -2 -9 3 -21 12 -27 10 -5 12 -10 7 -10 -19 0 -55 31 -70 60 -18 34 -18 40 -5 40 6 0 10 -6 10 -14z"/> <path d="M290 2771 c0 -13 38 -33 53 -28 7 2 -3 11 -20 21 -18 9 -33 12 -33 7z"/> <path d="M447 2758 c-26 -9 -27 -11 -12 -28 15 -16 14 -23 -9 -83 l-24 -65 22 -4 c20 -4 26 4 53 83 22 63 28 90 20 98 -13 13 -13 13 -50 -1z m41 -20 c-3 -7 -15 -43 -27 -80 -13 -38 -26 -68 -31 -68 -5 0 3 32 17 71 22 59 24 72 12 80 -11 7 -8 9 10 9 14 0 21 -5 19 -12z"/> <path d="M1025 2694 c-7 -49 0 -74 10 -30 3 14 7 37 10 51 3 14 1 25 -4 25 -5 0 -12 -21 -16 -46z"/> <path d="M628 2716 c-39 -10 -53 -41 -24 -52 8 -3 11 -15 8 -31 -4 -19 -1 -24 9 -21 21 8 49 -10 49 -32 0 -15 -7 -20 -25 -20 -34 0 -33 -28 2 -36 38 -10 58 7 61 54 3 33 -1 44 -21 58 -21 16 -22 22 -13 46 14 37 0 47 -46 34z m27 -47 c-14 -25 -14 -29 -1 -29 17 0 46 -38 46 -60 0 -9 -6 -24 -13 -34 -11 -15 -18 -17 -33 -8 -18 11 -18 11 4 12 18 0 22 6 22 30 0 25 -6 33 -30 44 -28 11 -29 13 -14 34 14 21 14 22 -12 22 -31 0 -23 15 11 22 31 7 36 -1 20 -33z"/> <path d="M1399 2671 c-74 -23 -111 -75 -111 -154 0 -56 19 -88 73 -125 28 -19 44 -23 85 -20 185 15 193 268 9 301 -16 3 -42 2 -56 -2z m58 -31 c16 -25 11 -26 -62 -20 l-60 5 35 17 c46 23 72 22 87 -2z m43 0 c0 -4 10 -11 23 -15 12 -3 17 -9 10 -11 -6 -3 -23 2 -37 12 -28 18 -35 37 -11 28 8 -4 15 -10 15 -14z m69 -87 c10 -34 -2 -97 -19 -108 -6 -4 -10 11 -10 35 0 43 -18 88 -44 109 -29 24 -17 30 24 13 31 -13 42 -25 49 -49z m-129 50 c-1 -19 -28 -40 -66 -51 -23 -7 -47 -19 -54 -27 -16 -19 -11 -19 29 1 17 8 35 14 39 12 5 -2 -6 -27 -24 -57 -31 -51 -33 -52 -44 -31 -31 59 -19 145 22 153 40 8 98 7 98 0z m76 -70 c8 -18 14 -50 14 -72 0 -44 -23 -68 -70 -71 -51 -4 -55 -1 -33 23 18 20 43 77 43 98 0 5 -9 18 -21 30 -20 20 -20 22 -3 40 16 18 18 18 37 2 11 -10 26 -32 33 -50z m-69 -9 c8 -21 -13 -83 -37 -112 -16 -19 -23 -21 -40 -12 -26 14 -26 16 11 83 30 57 54 71 66 41z"/> <path d="M0 2646 c0 -3 6 -15 13 -26 10 -17 9 -22 -3 -30 -8 -5 -12 -12 -8 -15 6 -7 38 22 38 34 0 4 -9 16 -20 26 -11 10 -20 15 -20 11z"/> <path d="M500 2632 c-26 -21 -19 -46 11 -37 30 10 24 -29 -11 -68 -16 -19 -30 -44 -30 -56 0 -19 6 -21 50 -21 47 0 50 2 50 26 0 21 -4 24 -20 19 -19 -6 -19 -4 5 31 30 43 32 84 7 107 -24 22 -35 21 -62 -1z m60 -22 c8 -15 6 -29 -10 -59 -11 -22 -24 -42 -30 -46 -19 -11 -10 -25 16 -25 14 0 23 -4 19 -10 -3 -5 -19 -10 -36 -10 -22 0 -29 5 -29 19 0 10 7 24 16 32 23 19 46 69 40 85 -3 8 -15 14 -26 14 -12 0 -18 5 -15 10 11 17 44 11 55 -10z"/> <path d="M910 2592 c-38 -39 -40 -84 -5 -136 15 -22 25 -51 25 -71 0 -32 2 -34 28 -31 15 2 19 1 10 -1 -21 -5 -24 -23 -5 -23 23 0 57 31 57 52 0 11 21 41 46 66 42 41 46 48 40 80 -9 55 -44 84 -110 90 -51 4 -57 2 -86 -26z m125 4 c38 -16 68 -65 58 -93 -6 -18 -78 -93 -88 -93 -3 0 4 18 15 40 24 47 24 51 5 44 -8 -4 -15 -1 -15 6 0 6 -4 9 -9 5 -5 -3 -12 -1 -15 4 -10 15 -48 0 -42 -16 3 -8 6 -29 6 -48 0 -29 4 -33 33 -40 17 -4 26 -9 19 -12 -6 -2 -10 -9 -6 -14 3 -5 -9 -9 -25 -9 -35 0 -43 19 -8 21 l22 2 -22 4 c-13 2 -23 11 -23 18 0 8 -10 30 -21 50 -57 96 13 174 116 131z m-22 -115 c12 -11 -17 -61 -35 -61 -14 0 -18 9 -18 41 0 37 2 40 23 34 12 -4 25 -10 30 -14z"/> <path d="M795 2582 c6 -5 26 -13 45 -17 25 -5 32 -4 25 4 -6 6 -26 14 -45 17 -24 5 -32 3 -25 -4z"/> <path d="M1796 2562 c-21 -76 -36 -154 -31 -161 9 -16 82 -23 105 -11 18 10 21 18 17 45 -4 24 -1 35 9 39 8 3 14 12 14 19 0 20 -46 64 -80 76 -24 8 -30 7 -34 -7z m72 -32 c25 -24 28 -48 7 -56 -11 -5 -12 -10 -4 -26 18 -33 4 -48 -45 -48 -25 0 -47 3 -49 8 -4 6 15 93 28 130 7 18 39 14 63 -8z"/> <path d="M1814 2487 c-9 -29 -19 -58 -22 -64 -6 -17 40 -17 56 -1 9 9 7 17 -9 34 l-21 22 21 7 c24 7 28 40 7 48 -11 4 -20 -9 -32 -46z"/> <path d="M2730 2559 c-42 -26 -57 -44 -69 -86 -14 -48 3 -97 47 -133 33 -28 42 -31 90 -27 43 3 59 10 84 34 35 36 48 84 35 133 -15 59 -44 83 -112 94 -31 5 -48 2 -75 -15z m46 -31 c-57 -74 -76 -86 -76 -49 0 27 54 81 80 81 22 0 22 0 -4 -32z m86 10 c24 -20 48 -61 48 -83 0 -16 -5 -12 -26 16 -14 20 -36 42 -50 49 -13 8 -24 17 -24 22 0 12 34 10 52 -4z m-5 -58 c45 -44 51 -69 23 -92 -21 -17 -24 -17 -48 -2 -35 23 -71 66 -72 84 0 9 7 26 16 38 18 26 31 21 81 -28z m-90 -57 c14 -20 13 -23 -16 -37 -42 -22 -56 -20 -70 10 -9 20 -9 29 0 41 18 20 69 12 86 -14z m56 -47 c42 -32 -3 -65 -64 -47 -22 7 -39 15 -39 19 0 7 58 39 75 40 6 1 18 -5 28 -12z"/> <path d="M235 2554 c-16 -8 -37 -22 -46 -30 -8 -8 -30 -14 -48 -14 -21 0 -41 -9 -56 -25 -26 -25 -32 -45 -15 -45 5 0 21 -12 35 -26 24 -24 27 -25 50 -10 34 22 133 1 148 -32 14 -30 52 -39 76 -18 10 9 23 16 29 16 19 0 14 80 -7 127 -31 67 -101 91 -166 57z m59 -26 c-9 -31 -7 -31 -56 -21 l-43 9 30 17 c17 9 40 16 53 17 20 0 22 -4 16 -22z m49 10 c23 -12 46 -37 47 -51 0 -7 -65 0 -81 9 -7 4 1 54 8 54 2 0 14 -5 26 -12z m-12 -62 c33 -8 62 -16 64 -18 7 -8 16 -68 10 -68 -4 0 -15 10 -25 22 -16 21 -21 22 -52 10 -49 -17 -140 1 -154 31 -5 12 -17 21 -27 21 -9 -1 -17 5 -17 14 0 12 11 14 70 8 38 -3 97 -13 131 -20z m-198 -12 c9 -4 17 -15 17 -25 0 -25 -20 -25 -27 0 -3 13 -12 18 -24 16 -10 -2 -19 0 -19 4 0 13 13 22 24 16 6 -3 19 -8 29 -11z m235 -77 c8 -10 5 -13 -14 -15 -15 -1 -24 3 -24 13 0 18 24 20 38 2z"/> <path d="M1931 2494 c-26 -33 -29 -115 -5 -138 30 -31 104 -9 104 31 0 19 -34 25 -46 9 -29 -40 -46 2 -24 60 10 24 12 25 23 10 11 -15 15 -15 32 -2 19 14 19 15 1 35 -26 29 -60 26 -85 -5z m65 2 c10 -8 16 -18 11 -22 -4 -4 -13 -2 -19 4 -17 17 -23 15 -36 -13 -27 -59 -4 -116 33 -85 20 17 32 5 15 -15 -30 -36 -80 -2 -80 55 0 23 8 48 21 64 24 30 28 31 55 12z"/> <path d="M1145 2492 c6 -6 30 -14 55 -18 31 -4 42 -3 35 4 -5 5 -30 13 -55 17 -31 5 -42 4 -35 -3z"/> <path d="M1666 2478 c-9 -27 -46 -165 -46 -171 0 -4 11 -7 24 -7 15 0 26 7 29 20 3 11 12 20 20 20 8 0 17 -9 20 -20 3 -14 14 -20 31 -20 14 0 26 4 26 8 0 4 -13 46 -28 92 -23 69 -33 86 -50 88 -12 2 -24 -3 -26 -10z m63 -79 c23 -70 21 -100 -3 -66 -16 21 -66 23 -66 2 0 -8 -5 -15 -11 -15 -7 0 -9 9 -5 23 3 12 11 46 17 75 18 76 39 70 68 -19z"/> <path d="M1680 2433 c0 -10 -3 -28 -6 -40 -5 -19 -2 -23 15 -23 13 0 21 6 21 18 0 14 -2 15 -10 2 -5 -8 -12 -11 -16 -7 -4 4 -2 13 4 19 15 15 16 48 2 48 -5 0 -10 -8 -10 -17z"/> <path d="M2108 2338 c-92 -60 -108 -74 -108 -97 0 -14 4 -32 9 -40 5 -7 63 -31 130 -53 l122 -39 110 83 110 82 -23 18 c-23 17 -23 17 -3 32 18 13 15 15 -50 35 -121 35 -178 51 -184 51 -3 -1 -54 -33 -113 -72z m290 10 c53 -13 51 -15 -73 -88 l-90 -52 -65 17 c-36 10 -84 23 -106 29 l-42 10 102 66 101 67 65 -19 c36 -10 84 -24 108 -30z m32 -74 c-6 -6 -8 -13 -5 -16 3 -3 -3 -11 -12 -19 -16 -13 -17 -12 -4 4 7 9 10 17 6 17 -12 0 -66 -42 -61 -48 3 -2 12 1 21 8 8 7 15 10 15 8 0 -11 -122 -98 -137 -98 -22 0 -236 71 -230 76 2 2 44 -10 92 -26 49 -17 94 -29 100 -27 5 2 -34 18 -87 36 -63 21 -98 38 -98 47 0 8 1 14 3 14 1 0 45 -14 97 -29 89 -27 95 -31 95 -55 -1 -20 4 -26 20 -26 22 0 110 59 101 67 -3 3 -23 -9 -45 -26 -40 -32 -65 -33 -59 -4 4 22 181 133 190 119 4 -6 3 -15 -2 -22z"/> <path d="M2202 2364 c-30 -20 -23 -26 60 -53 65 -22 68 -22 98 -5 16 10 30 21 30 24 0 3 -30 14 -67 24 -38 10 -75 20 -83 23 -8 2 -26 -4 -38 -13z m113 -23 c42 -15 47 -19 32 -28 -13 -7 -35 -4 -78 11 -32 12 -59 24 -59 28 0 13 52 7 105 -11z"/> <path d="M2991 2327 c0 -10 -6 -27 -11 -38 -11 -19 -12 -19 -40 -2 -38 22 -58 7 -39 -28 7 -13 12 -36 11 -52 -3 -39 25 -48 51 -16 11 13 24 23 28 22 14 -4 10 15 -3 20 -7 2 -22 -10 -33 -27 l-20 -31 -3 30 c-1 17 -8 40 -14 52 -16 32 -6 37 25 13 14 -11 27 -20 30 -20 10 0 29 59 24 77 -4 17 -5 17 -6 0z"/> <path d="M8 2318 c7 -7 12 -26 12 -42 0 -28 1 -29 16 -14 15 15 20 14 66 -10 55 -29 62 -57 18 -79 -22 -11 -28 -8 -68 28 -56 52 -64 45 -12 -9 44 -47 65 -51 104 -21 41 32 31 59 -35 94 -32 17 -66 38 -76 48 -22 19 -44 24 -25 5z"/> <path d="M778 2310 c-43 -15 -63 -18 -83 -10 -57 22 -128 8 -170 -32 -21 -21 -22 -28 -18 -127 6 -139 4 -135 50 -115 57 25 145 43 165 32 12 -5 38 -2 77 12 33 11 88 21 122 21 l62 2 -7 75 c-12 128 -12 128 -68 146 -62 20 -60 20 -130 -4z m125 -17 c3 -10 8 -36 11 -58 4 -22 9 -52 12 -67 l5 -26 -60 5 c-46 4 -66 2 -85 -11 -14 -8 -27 -12 -29 -8 -3 4 -7 39 -11 78 l-7 71 38 16 c54 22 120 22 126 0z m-195 -17 c11 -10 32 -105 32 -144 0 -10 -11 -12 -43 -7 -27 4 -58 1 -87 -9 -24 -8 -45 -14 -46 -13 -1 1 -4 41 -7 90 l-5 87 32 10 c38 11 106 4 124 -14z m230 -71 c0 -25 -2 -24 -9 10 -10 51 -10 92 1 50 4 -16 8 -43 8 -60z m24 -30 c3 -38 3 -59 1 -45 -4 20 -7 22 -12 8 -3 -9 -6 22 -7 70 -1 96 10 77 18 -33z m-413 -32 c1 -35 3 -63 6 -63 4 0 20 7 37 16 20 11 52 15 97 13 44 -1 78 4 103 15 40 17 77 19 118 6 20 -6 15 -8 -25 -9 -27 -1 -63 -8 -80 -16 l-30 -14 30 6 c17 3 27 2 22 -2 -4 -5 -49 -7 -101 -6 -68 1 -104 -3 -135 -15 -23 -9 -43 -15 -45 -13 -2 2 -6 47 -10 99 -3 59 -2 85 3 70 5 -14 9 -53 10 -87z"/> <path d="M805 2253 c-11 -3 -24 -10 -30 -15 -7 -8 -4 -9 8 -4 10 3 32 6 48 6 16 0 29 5 29 10 0 10 -20 11 -55 3z"/> <path d="M790 2218 c-40 -16 -9 -20 40 -4 40 12 42 14 15 14 -16 1 -41 -4 -55 -10z"/> <path d="M590 2233 c0 -5 22 -8 49 -8 27 0 47 3 44 8 -2 4 -24 7 -49 7 -24 0 -44 -3 -44 -7z"/> <path d="M600 2202 c0 -5 20 -8 45 -8 59 1 59 16 0 16 -25 0 -45 -4 -45 -8z"/> <path d="M606 2162 c-3 -5 17 -8 45 -8 27 1 49 4 49 9 0 10 -88 9 -94 -1z"/> <path d="M317 2285 c-35 -24 -77 -74 -158 -186 -60 -85 -109 -159 -109 -166 0 -18 29 -43 49 -43 16 0 83 83 217 266 22 30 59 136 52 153 -2 5 -25 -6 -51 -24z m25 -21 c3 -3 1 -18 -5 -34 -9 -24 -13 -26 -29 -17 -21 14 -23 28 -6 45 13 13 31 16 40 6z m-43 -61 c18 -17 16 -21 -62 -126 -76 -101 -81 -106 -101 -93 -12 7 -20 17 -18 22 5 18 147 214 155 214 4 0 16 -8 26 -17z m-161 -259 c1 -1 -6 -12 -17 -25 -19 -23 -20 -23 -40 -5 -19 17 -19 20 -4 42 15 24 16 24 37 7 11 -10 22 -18 24 -19z"/> <path d="M1185 2290 c-77 -15 -139 -31 -139 -36 1 -5 14 -56 30 -114 25 -94 32 -109 68 -140 74 -65 58 -64 233 -20 87 22 162 42 168 43 5 2 -25 22 -67 45 l-75 42 -33 105 c-19 58 -36 104 -39 104 -3 -1 -69 -14 -146 -29z m153 -87 c12 -42 20 -78 19 -80 -2 -1 -54 -13 -116 -27 -81 -17 -113 -21 -116 -13 -10 29 -35 136 -35 149 0 11 26 19 93 30 144 24 131 29 155 -59z m-252 -18 c8 -31 13 -59 11 -61 -2 -3 -10 17 -16 43 -7 26 -15 57 -18 68 -3 11 -2 17 1 13 4 -3 14 -32 22 -63z m368 -119 c61 -35 62 -39 9 -50 -38 -9 -55 10 -21 23 22 8 22 9 -14 27 -21 10 -38 21 -38 26 0 4 -10 7 -22 7 -17 -1 -19 -2 -5 -6 9 -2 17 -9 17 -14 0 -5 -10 -4 -23 2 -17 8 -46 5 -117 -10 -107 -24 -130 -26 -130 -10 0 5 4 8 9 4 5 -3 62 6 126 20 64 14 119 25 122 25 3 0 3 17 -1 38 l-6 37 18 -43 c14 -35 28 -49 76 -76z m-94 -6 c9 -6 19 -5 28 2 10 9 17 7 30 -6 16 -16 15 -17 -12 -10 -22 5 -27 4 -21 -6 6 -9 2 -10 -16 -5 -29 10 -57 35 -37 35 7 0 20 -4 28 -10z m-30 -20 c21 -18 21 -20 4 -20 -19 0 -57 19 -39 20 6 0 3 5 -5 10 -13 8 -13 10 1 10 9 0 26 -9 39 -20z m-44 -11 l19 -21 -35 6 c-22 5 -30 4 -22 -2 11 -7 10 -10 -3 -16 -23 -8 -27 -8 -20 3 3 5 -3 12 -12 14 -15 4 -15 5 2 6 11 1 27 6 35 12 13 9 12 10 -2 5 -10 -3 -20 -1 -23 4 -12 20 43 9 61 -11z m-103 -19 c39 -27 45 -29 80 -19 22 6 41 8 44 5 11 -11 -9 -25 -47 -31 -36 -6 -46 -3 -85 27 -40 30 -55 48 -39 48 3 0 24 -13 47 -30z m231 1 c3 -5 -8 -11 -25 -15 -44 -9 -69 -7 -69 3 0 16 85 27 94 12z"/> <path d="M2587 2292 c-10 -10 -17 -28 -17 -40 0 -18 -6 -22 -29 -22 -19 0 -34 -8 -44 -24 -14 -21 -14 -26 1 -47 57 -84 191 -212 207 -198 3 2 40 40 84 83 l80 79 -27 33 c-43 52 -149 132 -190 144 -48 13 -46 13 -65 -8z m106 -27 c20 -14 37 -29 37 -32 0 -14 -50 -69 -77 -85 -28 -16 -31 -16 -74 5 -24 12 -46 23 -48 24 -4 2 112 112 119 113 3 0 22 -11 43 -25z m136 -117 c30 -38 10 -43 -25 -7 -20 21 -35 28 -50 25 -27 -7 -39 17 -23 45 10 19 11 19 44 -8 18 -15 43 -40 54 -55z m-314 32 c-4 -6 7 -15 23 -21 33 -11 98 -97 84 -111 -5 -5 -24 13 -47 47 -36 51 -55 72 -40 43 4 -7 -3 -2 -14 11 -23 25 -27 41 -10 41 5 0 7 -5 4 -10z m185 -57 c-17 -18 -30 -37 -30 -41 0 -12 54 -62 66 -62 5 1 -6 14 -25 30 l-34 29 42 42 42 42 31 -31 31 -31 -34 -39 c-62 -70 -63 -70 -130 -5 -59 58 -72 77 -44 67 8 -4 27 2 43 12 15 10 36 17 47 16 11 -1 14 1 8 4 -7 3 -13 10 -13 16 0 6 6 6 15 -2 13 -11 11 -17 -15 -47z m10 -135 c0 -15 -25 -8 -54 15 -17 14 -26 29 -22 35 5 8 18 3 42 -16 19 -15 34 -30 34 -34z"/> <path d="M2607 2234 c-27 -23 -28 -26 -13 -49 13 -19 20 -22 43 -16 36 10 53 56 27 76 -25 19 -24 19 -57 -11z m50 -25 c-1 -10 -4 -19 -8 -19 -4 0 -15 -3 -25 -7 -12 -4 -15 -3 -10 5 4 7 1 12 -9 12 -14 0 -13 4 6 24 26 27 49 20 46 -15z"/> <path d="M2730 2105 c-19 -19 -29 -35 -24 -35 6 0 25 16 44 35 19 19 29 35 24 35 -6 0 -25 -16 -44 -35z"/> <path d="M1835 2244 c-38 -30 -103 -80 -142 -111 -40 -32 -73 -62 -73 -68 0 -10 181 -248 185 -243 3 3 99 393 110 446 4 17 3 32 -2 31 -4 0 -39 -25 -78 -55z m20 -170 c-26 -104 -49 -196 -51 -204 -5 -16 -10 -10 -115 123 -52 67 -58 78 -42 84 10 4 29 17 43 30 14 13 31 23 38 23 7 0 10 5 7 10 -6 9 8 14 28 11 4 0 7 6 7 14 0 8 6 15 14 15 8 0 16 7 20 15 3 8 12 15 20 15 7 0 17 7 20 16 3 8 10 12 16 9 5 -3 10 0 10 9 0 12 20 28 28 21 1 -1 -18 -87 -43 -191z"/> <path d="M1753 2104 c-26 -20 -50 -38 -52 -40 -2 -2 13 -24 34 -49 23 -29 41 -43 47 -37 11 11 38 109 38 140 0 30 -11 28 -67 -14z m53 -1 c-3 -10 -10 -40 -17 -67 l-12 -49 -28 34 -29 34 38 32 c42 37 56 41 48 16z"/> <path d="M1963 2144 c-3 -8 -1 -20 6 -27 6 -6 11 -20 11 -30 0 -10 8 -31 18 -45 22 -33 112 -251 112 -272 0 -16 79 -114 87 -107 2 3 -5 24 -16 48 -67 145 -120 284 -111 293 12 12 26 -1 247 -211 34 -33 35 -29 8 25 -16 31 -58 79 -122 137 -54 49 -115 107 -136 128 -20 21 -41 36 -46 32 -5 -3 -12 3 -16 14 -8 25 -34 35 -42 15z m60 -37 c4 3 7 1 7 -5 0 -6 -10 -16 -21 -23 -14 -7 -19 -7 -15 0 4 6 -1 23 -11 38 l-17 28 25 -23 c14 -12 29 -19 32 -15z m41 -43 c19 -50 -6 -71 -40 -33 -18 20 -18 21 1 35 24 18 31 18 39 -2z m201 -187 c28 -27 45 -47 38 -45 -18 5 -223 199 -223 210 0 10 56 -40 185 -165z m-150 -42 c30 -71 50 -124 45 -119 -13 13 -120 264 -119 278 0 13 3 8 74 -159z"/> <path d="M316 2054 c-9 -8 -16 -26 -16 -39 0 -12 -7 -25 -15 -29 -25 -9 -18 -45 10 -52 14 -3 25 -12 25 -20 0 -7 11 -20 24 -29 20 -14 23 -22 19 -68 -2 -37 -1 -46 6 -32 5 11 21 30 35 42 29 25 35 49 10 39 -9 -3 -19 -6 -22 -6 -4 0 -1 -4 7 -9 9 -6 10 -11 2 -15 -6 -4 -13 4 -17 20 -5 19 -2 29 10 36 9 5 16 15 16 23 0 8 7 11 19 8 35 -9 70 50 36 63 -10 4 -12 15 -9 34 8 39 -26 59 -61 36 -20 -13 -25 -13 -35 -1 -16 19 -25 19 -44 -1z m43 -26 c12 -31 -5 -51 -30 -37 -22 11 -24 30 -7 47 18 18 28 15 37 -10z m81 4 c0 -23 -19 -42 -42 -42 -21 0 -24 30 -6 48 18 18 48 15 48 -6z m-105 -61 c7 -12 -29 -33 -39 -24 -3 3 -6 12 -6 20 0 15 36 18 45 4z m125 -6 c0 -9 -7 -18 -15 -21 -23 -9 -45 3 -39 21 8 20 54 20 54 0z m-79 -25 c5 0 9 -9 9 -20 0 -15 -7 -20 -24 -20 -14 0 -27 4 -30 9 -10 16 6 42 21 37 8 -3 19 -6 24 -6z"/> <path d="M851 2002 c-13 -21 -37 -43 -52 -49 -25 -10 -29 -17 -29 -48 0 -47 28 -97 50 -90 11 3 21 -4 30 -20 7 -14 17 -25 20 -25 17 0 30 30 27 66 -2 34 1 39 18 36 29 -5 29 -6 31 -76 l2 -62 -77 -14 c-42 -8 -66 -15 -54 -18 12 -2 45 1 75 7 29 5 55 7 57 5 2 -2 7 -24 11 -48 6 -40 4 -45 -14 -50 -38 -10 -45 -6 -54 27 -7 28 -12 32 -43 32 -32 0 -34 -3 -43 -42 -6 -31 -14 -43 -31 -47 -14 -4 -28 -20 -38 -48 -9 -23 -16 -43 -14 -44 3 -3 298 42 335 51 26 6 27 16 7 91 -9 34 -11 63 -6 73 9 17 -1 55 -18 66 -6 3 -11 27 -11 53 0 26 -4 52 -8 58 -14 21 -51 34 -100 34 -69 0 -82 18 -42 61 16 19 29 38 27 44 -8 23 -34 13 -56 -23z m16 -99 c17 -25 16 -26 -11 -49 -35 -31 -42 -30 -61 6 -19 37 -19 55 1 74 19 19 46 8 71 -31z m113 -6 c20 -10 26 -22 30 -58 5 -43 4 -47 -22 -57 -31 -12 -40 0 -27 35 12 33 2 50 -42 67 -21 9 -39 18 -39 21 0 10 76 4 100 -8z m58 -139 c7 -7 12 -21 12 -33 0 -12 -5 -26 -12 -33 -28 -28 -78 -7 -78 33 0 12 5 26 12 33 7 7 21 12 33 12 12 0 26 -5 33 -12z m10 -100 c-2 -14 -13 -24 -32 -29 -34 -9 -31 -11 -40 18 -6 19 -3 22 26 26 18 2 37 5 41 5 5 1 7 -8 5 -20z m-164 -25 c4 -9 3 -20 -1 -24 -11 -10 -62 -16 -63 -6 -1 29 3 36 23 40 12 2 25 5 28 6 4 0 10 -7 13 -16z m179 -40 c3 -16 4 -29 3 -31 -3 -3 -301 -52 -316 -52 -8 0 14 59 23 60 81 17 248 48 263 49 16 1 23 -6 27 -26z"/> <path d="M2341 1986 c-8 -10 -9 -22 -1 -42 6 -16 12 -34 15 -41 3 -9 15 -8 50 3 36 13 45 20 45 39 0 40 -84 71 -109 41z m44 -6 c3 -5 15 -10 25 -10 44 0 31 -40 -17 -55 -18 -5 -25 -1 -34 19 -17 37 6 78 26 46z"/> <path d="M1066 1934 c-6 -17 5 -42 39 -89 17 -23 24 -50 29 -110 9 -120 17 -169 29 -184 15 -18 78 -9 114 17 15 11 37 21 48 23 25 5 57 71 53 108 -2 17 -13 31 -33 41 -16 8 -50 29 -75 46 -25 16 -57 35 -72 41 -15 7 -35 27 -44 45 -33 67 -75 96 -88 62z m52 -34 c32 -42 44 -78 30 -86 -7 -4 -8 -3 -4 4 4 7 3 12 -3 12 -12 0 -61 70 -61 87 0 21 15 15 38 -17z m92 -94 c0 -2 -16 -13 -35 -25 -35 -20 -50 -10 -23 17 11 11 58 17 58 8z m63 -43 l42 -26 -41 -18 c-23 -9 -57 -33 -76 -52 l-35 -35 -11 46 c-12 54 -4 75 36 96 36 20 36 20 85 -11z m82 -43 c3 -5 -3 -10 -13 -10 -46 0 -154 -78 -173 -125 -7 -19 -8 -19 -8 2 -1 30 61 90 123 119 58 27 62 28 71 14z m3 -48 c3 -18 -2 -22 -21 -22 -14 0 -30 7 -37 15 -10 12 -8 16 11 24 32 13 43 9 47 -17z m-60 -44 c-1 -23 -9 -35 -32 -49 -87 -53 -114 7 -30 65 44 30 63 25 62 -16z"/> <path d="M1506 1913 c11 -45 26 -64 20 -24 -3 18 -6 37 -6 42 0 5 -5 9 -10 9 -6 0 -8 -11 -4 -27z"/> <path d="M2917 1923 c-3 -5 -8 -32 -12 -60 -5 -43 -11 -53 -26 -53 -28 0 -53 -44 -39 -69 15 -29 58 -28 70 2 11 25 40 151 40 173 0 14 -25 20 -33 7z m-23 -129 c9 -3 16 -11 16 -17 0 -18 -31 -46 -46 -40 -17 6 -18 35 -2 51 14 14 12 14 32 6z"/> <path d="M2697 1873 c-2 -5 -10 -25 -16 -45 -10 -29 -18 -38 -35 -38 -43 0 -63 -53 -31 -80 25 -20 59 2 74 47 13 38 14 39 49 34 19 -3 37 -12 40 -20 3 -9 -1 -11 -16 -7 -42 14 -73 -62 -34 -82 32 -17 55 3 85 74 15 38 29 75 30 83 1 10 -18 18 -63 27 -80 16 -78 16 -83 7z m126 -33 c5 -4 -1 -27 -12 -51 -11 -24 -18 -34 -15 -22 4 19 -1 23 -51 33 -43 9 -55 15 -51 27 3 8 6 19 6 25 0 12 110 1 123 -12z m-158 -70 c11 -18 -6 -50 -25 -50 -25 0 -33 15 -20 40 11 21 35 27 45 10z m112 -28 c10 -6 9 -13 -3 -30 -18 -26 -39 -29 -48 -6 -12 30 23 54 51 36z"/> <path d="M2707 1836 c-8 -20 93 -43 104 -24 12 18 1 28 -29 27 -24 -2 -24 -2 -4 -6 12 -2 22 -9 22 -14 0 -9 -33 -5 -70 8 -12 4 -11 7 5 13 19 8 19 9 -1 9 -12 1 -24 -5 -27 -13z"/> <path d="M2547 1854 c-4 -4 -7 -34 -7 -66 0 -52 -2 -58 -20 -58 -23 0 -40 -33 -32 -62 6 -24 50 -35 67 -17 17 18 25 201 9 206 -5 2 -13 0 -17 -3z m-1 -182 c-18 -19 -49 -8 -44 15 2 10 13 22 26 28 19 8 22 18 24 70 2 53 2 51 5 -19 3 -60 0 -83 -11 -94z"/> <path d="M1485 1825 c-17 -16 -25 -35 -25 -57 0 -38 6 -48 40 -71 36 -25 68 -21 102 13 26 27 30 36 25 68 -12 70 -92 97 -142 47z m88 4 c29 -16 37 -28 37 -63 0 -39 -26 -66 -64 -66 -37 0 -49 7 -65 37 -17 33 -14 51 14 78 27 28 45 31 78 14z"/> <path d="M507 1823 c-16 -16 -16 -18 4 -39 20 -22 20 -22 1 -28 -32 -10 -47 -60 -33 -106 18 -60 60 -97 113 -97 50 -1 67 9 97 57 46 76 14 158 -57 146 -27 -4 -32 -2 -24 6 14 14 16 28 3 28 -5 0 -13 -12 -18 -26 -8 -23 -10 -25 -22 -10 -11 13 -11 16 1 16 13 0 17 26 10 63 -3 14 -58 7 -75 -10z m68 -87 c16 -12 22 -12 42 1 72 47 107 -73 41 -144 -30 -32 -98 -32 -129 0 -41 43 -51 107 -22 139 19 22 42 23 68 4z"/> <path d="M104 1775 c-4 -14 -3 -44 0 -67 6 -35 4 -40 -10 -34 -20 8 -84 -50 -84 -75 0 -19 41 -49 65 -49 13 0 14 -4 5 -20 -6 -12 -10 -35 -8 -53 2 -27 8 -33 31 -35 18 -2 43 6 68 22 47 32 47 31 51 4 2 -13 10 -23 18 -24 8 0 23 -4 33 -9 9 -4 29 -4 43 -1 24 6 26 10 22 58 -3 50 -2 52 28 60 68 17 81 74 24 98 -27 11 -30 17 -30 59 0 74 -30 90 -92 47 l-35 -23 -36 33 c-45 42 -84 45 -93 9z m99 -32 c16 -19 16 -20 -6 -40 -12 -12 -33 -23 -47 -25 -22 -3 -26 2 -34 39 -12 57 4 79 43 59 14 -8 34 -23 44 -33z m139 -8 c4 -17 1 -25 -9 -25 -8 0 -17 -8 -20 -19 -6 -22 -41 -17 -60 8 -17 22 -16 24 15 43 40 26 69 23 74 -7z m-67 -95 c9 -17 13 -36 9 -43 -18 -31 -49 -57 -70 -57 -27 0 -57 44 -57 82 0 15 -4 25 -8 22 -4 -2 -11 1 -15 7 -5 9 0 10 14 7 12 -4 25 -2 28 3 3 5 23 9 44 9 34 0 42 -4 55 -30z m-151 3 c8 -20 -23 -83 -40 -83 -6 0 -23 10 -38 21 -25 20 -26 23 -11 39 10 11 25 15 40 12 18 -3 25 0 25 12 0 21 16 21 24 -1z m264 -9 c12 -8 22 -22 22 -30 0 -14 -55 -44 -79 -44 -16 0 -24 46 -11 69 13 25 37 27 68 5z m-231 -59 c10 -24 9 -25 -18 -25 -32 0 -34 3 -19 31 14 25 23 24 37 -6z m153 -11 c0 -8 -9 -14 -20 -14 -18 0 -19 3 -10 20 12 22 30 18 30 -6z m-118 -47 c10 -16 0 -27 -45 -47 -49 -22 -70 -12 -61 29 4 14 9 30 11 34 7 11 86 -3 95 -16z m129 -4 c2 -38 -1 -56 -10 -66 -12 -12 -38 2 -44 24 -3 11 -14 19 -26 19 -40 0 -17 34 29 43 47 8 50 7 51 -20z"/> <path d="M200 1635 c-19 -23 -8 -50 20 -50 19 0 26 6 28 24 5 35 -26 53 -48 26z m40 -20 c0 -8 -9 -15 -20 -15 -11 0 -20 7 -20 15 0 8 9 15 20 15 11 0 20 -7 20 -15z"/> <path d="M1659 1710 c12 -11 28 -17 34 -13 12 8 -20 33 -42 33 -12 -1 -10 -6 8 -20z"/> <path d="M1845 1657 c17 -26 16 -27 -9 -38 -36 -17 -32 -26 10 -21 25 3 39 -1 48 -13 12 -17 13 -17 19 4 4 15 13 21 34 21 l28 1 -27 14 c-20 11 -25 20 -20 37 5 21 4 21 -11 9 -16 -13 -31 -12 -71 4 -18 8 -18 7 -1 -18z m69 -23 c3 -7 -2 -18 -10 -24 -9 -9 -14 -9 -14 -2 0 6 -6 9 -14 6 -10 -4 -13 0 -10 13 6 21 41 26 48 7z"/> <path d="M2053 1639 c-57 -12 -114 -55 -149 -115 -17 -29 -33 -43 -53 -47 -24 -5 -33 -15 -50 -62 -26 -69 -26 -67 4 -59 30 8 31 1 5 -37 -23 -31 -48 -134 -37 -145 14 -14 91 51 112 94 22 46 41 57 31 17 -8 -32 -1 -31 43 2 45 34 51 42 51 74 0 15 16 50 35 79 43 64 60 122 48 170 -8 34 -10 36 -40 29z m11 -25 c11 -4 16 -18 16 -43 0 -61 -11 -67 -61 -35 -24 16 -46 30 -49 32 -7 5 53 52 67 52 6 0 18 -3 27 -6z m-91 -66 c12 -6 37 -22 54 -36 33 -24 33 -24 16 -53 -10 -16 -40 -51 -68 -79 l-51 -50 -37 25 -37 26 16 37 c9 20 18 44 22 52 8 20 54 90 59 90 2 0 14 -5 26 -12z m-105 -85 c-2 -5 -10 -25 -17 -45 -13 -33 -37 -55 -48 -45 -6 6 28 81 41 89 14 10 29 10 24 1z m27 -127 c11 -8 16 -16 12 -16 -14 0 -67 33 -67 43 0 9 24 -3 55 -27z m99 12 c-6 -21 -42 -57 -56 -58 -16 0 -7 25 19 52 32 34 47 36 37 6z m-165 -48 c-16 -44 -7 -55 21 -30 17 15 20 20 8 16 -20 -6 -23 10 -8 34 8 13 12 12 27 -4 10 -10 12 -15 4 -11 -11 6 -13 4 -8 -9 9 -22 -21 -65 -61 -88 l-29 -17 7 37 c6 35 36 102 45 102 2 0 -1 -13 -6 -30z"/> <path d="M1930 1501 c-15 -28 -12 -46 8 -64 24 -22 45 -21 65 1 20 22 22 53 5 70 -19 19 -66 15 -78 -7z m70 -12 c14 -24 -2 -49 -31 -49 -28 0 -43 35 -23 54 21 22 41 20 54 -5z"/> <path d="M2396 1633 c-34 -18 -31 -44 7 -57 31 -11 47 2 47 40 0 29 -20 35 -54 17z m44 -17 c0 -22 -23 -36 -40 -25 -13 8 -12 12 4 24 25 19 36 19 36 1z"/> <path d="M2800 1584 c-97 -11 -212 -26 -267 -36 l-63 -11 0 -36 c0 -35 -1 -36 -60 -54 l-60 -17 0 -48 c0 -52 5 -61 37 -79 31 -18 53 -16 76 5 14 12 63 23 175 38 138 19 160 19 179 7 26 -17 59 -9 73 18 7 12 21 19 40 19 18 0 30 5 29 13 0 6 -6 50 -13 97 l-11 85 -50 1 c-28 1 -66 0 -85 -2z m120 -14 c0 -5 -15 -10 -33 -10 -18 0 -95 -9 -172 -20 -77 -11 -156 -20 -175 -20 -36 0 -36 0 -32 -37 5 -48 -3 -41 -11 8 l-5 37 77 12 c61 9 204 26 339 39 6 0 12 -3 12 -9z m-10 -50 c0 -23 -4 -30 -20 -30 -16 0 -20 7 -20 30 0 23 4 30 20 30 16 0 20 -7 20 -30z m-57 -2 c7 -25 -7 -38 -40 -38 -19 0 -23 6 -23 30 0 26 3 30 29 30 21 0 30 -6 34 -22z m-75 -12 c5 -22 -13 -36 -45 -36 -19 0 -23 5 -23 31 0 28 2 30 32 27 23 -2 34 -9 36 -22z m-85 -8 c8 -30 1 -38 -34 -38 -18 0 -29 5 -29 14 0 8 -3 21 -6 30 -5 13 1 16 29 16 27 0 36 -5 40 -22z m-153 -19 c0 -17 -4 -28 -10 -24 -5 3 -10 17 -10 31 0 13 5 24 10 24 6 0 10 -14 10 -31z m73 9 c7 -27 1 -38 -23 -38 -18 0 -30 18 -30 46 0 24 47 17 53 -8z m-106 -135 c15 -12 14 -13 -8 -13 -16 0 -28 8 -34 22 -6 14 -22 26 -40 29 -29 7 -29 7 7 8 34 1 37 3 45 44 l8 42 3 -60 c2 -42 8 -64 19 -72z m433 87 c0 -36 -2 -40 -25 -40 -16 0 -25 6 -25 15 0 8 -5 15 -11 15 -5 0 -7 -6 -3 -12 4 -7 3 -9 -1 -5 -19 17 -12 35 18 41 16 3 28 8 26 10 -5 5 -316 -31 -334 -38 -22 -9 55 -5 155 9 57 7 107 12 109 9 2 -2 -4 -4 -14 -4 -14 0 -13 -4 9 -21 21 -17 24 -24 15 -35 -9 -11 -15 -12 -25 -3 -12 9 -12 15 -2 27 11 13 10 15 -5 9 -11 -4 -16 -3 -12 3 3 6 1 10 -4 10 -6 0 -12 -4 -12 -10 -1 -5 -2 -16 -3 -22 -1 -9 -40 -19 -111 -29 -60 -9 -112 -15 -114 -13 -2 2 -7 21 -11 41 l-8 38 -1 -38 c-1 -46 -21 -40 -21 6 l0 32 163 21 c89 12 181 22 205 22 l42 2 0 -40z m-482 -24 c-1 -2 -20 -6 -40 -9 -27 -4 -38 -2 -38 7 0 18 74 35 78 18 2 -8 2 -15 0 -16z m62 -16 c0 -22 -4 -40 -10 -40 -5 0 -10 18 -10 40 0 22 5 40 10 40 6 0 10 -18 10 -40z m-64 -32 c4 -5 1 -15 -5 -21 -14 -14 -15 -30 -1 -22 6 3 10 2 10 -3 0 -6 -7 -13 -16 -16 -8 -3 -12 -2 -9 4 3 6 -1 10 -10 10 -10 0 -13 -5 -9 -12 6 -9 3 -9 -9 1 -22 18 -4 55 24 48 10 -3 19 -1 19 4 0 13 -37 11 -46 -2 -4 -8 -9 -7 -16 2 -8 11 -9 10 -4 -3 3 -10 1 -20 -4 -23 -13 -8 -13 28 0 41 12 12 67 6 76 -8z"/> <path d="M2141 1563 c13 -15 13 -15 -16 -31 -18 -10 -16 -11 16 -12 26 0 39 -5 44 -17 7 -17 8 -16 15 2 4 11 12 21 19 21 32 4 34 6 12 15 -12 5 -21 15 -18 22 3 8 -9 12 -39 13 -36 1 -42 -2 -33 -13z"/> <path d="M1437 1514 c-87 -44 -87 -44 -72 -68 11 -16 17 -51 18 -109 1 -47 5 -80 9 -74 5 7 8 3 8 -10 0 -13 4 -23 10 -23 5 0 7 12 5 28 -3 15 -9 54 -15 86 -12 74 -13 96 0 96 5 0 12 -27 16 -60 6 -53 10 -61 31 -66 44 -11 156 2 198 23 38 20 39 22 36 66 -2 44 -1 47 36 66 27 14 34 21 23 25 -51 20 -196 66 -204 65 -6 0 -50 -20 -99 -45z m201 -1 l86 -27 -81 -39 -81 -39 -74 22 c-122 37 -120 32 -37 72 41 20 80 37 88 37 7 1 52 -11 99 -26z m30 -108 c0 -32 -5 -38 -41 -57 -42 -21 -166 -32 -182 -16 -9 8 -25 91 -20 97 2 2 34 -6 71 -17 l67 -21 46 24 c25 13 49 24 53 25 3 0 6 -16 6 -35z"/> <path d="M1073 1515 c-24 -10 -39 -28 -54 -62 -12 -26 -25 -55 -30 -63 -56 -97 -91 -185 -105 -262 -10 -61 9 -44 59 50 41 77 47 83 47 55 0 -48 30 -73 86 -73 35 0 54 -6 76 -25 16 -14 42 -25 56 -25 30 1 70 26 59 37 -4 4 -13 1 -19 -5 -19 -19 -70 -14 -95 10 -17 16 -37 22 -74 23 -38 1 -55 6 -65 20 -16 22 -19 91 -4 100 6 3 10 -3 10 -15 0 -11 6 -23 14 -26 22 -8 56 14 56 37 0 15 5 19 15 15 25 -9 65 11 65 34 0 11 -7 20 -16 20 -8 0 -12 5 -9 10 3 6 19 10 35 10 16 0 32 -4 35 -10 3 -5 -1 -10 -9 -10 -22 0 -28 -17 -16 -40 8 -15 19 -20 38 -18 22 2 27 8 27 32 l-1 28 23 -28 c30 -38 29 -44 -6 -44 -39 0 -48 -17 -23 -42 16 -16 23 -18 40 -9 19 10 20 9 11 -21 -5 -17 -13 -36 -19 -42 -12 -12 -13 -26 -1 -26 5 0 16 18 25 40 65 164 -110 266 -262 153 l-33 -25 7 29 c4 15 20 43 35 61 16 18 32 45 35 60 4 15 14 35 22 45 18 20 8 21 -35 2z m2 -37 c-8 -29 -38 -71 -53 -76 -9 -3 -10 3 -2 22 22 60 70 106 55 54z m19 -144 c-4 -16 -12 -20 -32 -17 -26 3 -27 3 -4 -7 28 -12 24 -34 -6 -38 -35 -5 -25 46 12 69 35 21 37 20 30 -7z m66 7 c0 -9 -24 -21 -41 -21 -5 0 -9 7 -9 15 0 9 9 15 25 15 14 0 25 -4 25 -9z m86 -2 c3 -6 2 -15 -3 -20 -13 -13 -43 -1 -43 17 0 16 36 19 46 3z m-246 -6 c0 -14 -91 -195 -96 -190 -13 13 64 197 82 197 8 0 14 -3 14 -7z m290 -66 c0 -21 -12 -28 -27 -16 -19 16 -16 29 7 29 11 0 20 -6 20 -13z"/> <path d="M645 1486 c-3 -14 -7 -37 -10 -51 -3 -14 -1 -25 4 -25 5 0 12 21 16 46 7 49 0 74 -10 30z"/> <path d="M2210 1383 c0 -16 2 -16 11 -3 9 13 10 13 6 0 -2 -9 -14 -14 -31 -13 -21 1 -26 -3 -26 -22 0 -13 4 -26 9 -29 15 -9 -16 -150 -36 -161 -9 -5 -35 -26 -56 -46 -36 -32 -41 -42 -45 -92 -4 -52 -3 -57 19 -67 34 -15 201 -49 214 -44 17 7 37 72 37 115 -1 40 -13 72 -42 104 -17 18 -17 28 -7 103 6 45 14 82 19 82 4 0 8 9 8 20 0 16 -7 20 -31 20 -26 0 -30 2 -19 15 6 8 9 19 5 25 -10 16 -35 11 -35 -7z m57 -47 c1 -1 -2 -18 -7 -37 -4 -19 -11 -62 -15 -95 -6 -58 -5 -64 24 -104 22 -31 31 -54 31 -82 0 -48 -25 -98 -48 -98 -42 1 -185 39 -193 51 -28 44 6 118 72 159 27 16 53 30 57 30 4 0 12 34 18 75 8 66 7 76 -8 87 -30 21 -20 30 25 23 23 -4 43 -8 44 -9z"/> <path d="M2101 1094 c-27 -22 -31 -32 -31 -74 l0 -48 73 -17 c39 -9 80 -18 89 -21 19 -6 49 41 47 73 0 10 -5 3 -10 -15 -6 -18 -16 -35 -24 -38 -12 -5 -97 8 -147 22 -22 6 -25 72 -5 95 30 36 40 38 107 21 53 -14 66 -21 68 -40 2 -12 8 -22 13 -22 10 0 3 38 -10 52 -5 6 -116 38 -132 38 -4 0 -21 -12 -38 -26z"/> <path d="M2144 1025 c-8 -19 3 -35 26 -35 22 0 33 23 17 39 -15 15 -37 14 -43 -4z"/> <path d="M531 1365 c-16 -14 -31 -36 -33 -48 -5 -30 11 -87 28 -104 8 -8 14 -30 14 -48 0 -35 21 -65 45 -65 19 0 55 40 55 61 0 10 16 31 35 46 49 39 61 73 40 112 -35 70 -128 92 -184 46z m101 5 c42 -12 78 -51 78 -85 0 -20 -77 -111 -87 -102 -2 3 5 20 16 40 l19 34 -38 12 c-64 19 -69 17 -59 -30 6 -23 8 -44 5 -46 -9 -9 -56 72 -56 97 0 31 25 69 54 80 28 11 25 11 68 0z m-6 -123 c9 -8 -15 -67 -28 -67 -9 0 -13 8 -22 53 -6 25 -4 27 18 24 14 -1 28 -6 32 -10z m-21 -77 c20 -9 20 -9 0 -10 -20 -1 -20 -1 0 -10 17 -7 15 -9 -12 -9 -17 -1 -35 4 -38 9 -3 6 0 10 7 10 9 0 9 3 -2 10 -12 8 -12 10 5 9 11 0 29 -4 40 -9z"/> <path d="M414 1345 c11 -8 34 -15 50 -15 38 1 18 14 -34 24 -33 7 -34 6 -16 -9z"/> <path d="M136 1333 c-33 -9 -95 -52 -106 -73 -13 -24 -4 -63 12 -54 8 5 9 1 3 -12 -27 -65 -11 -131 43 -172 20 -15 39 -30 42 -33 3 -4 31 -3 63 2 32 5 62 7 68 4 5 -4 9 0 9 8 0 7 13 26 29 41 38 36 49 93 27 137 -19 38 -20 47 -4 31 21 -21 38 -13 38 18 0 53 -67 99 -154 105 -28 2 -60 1 -70 -2z m131 -24 c27 -11 27 -11 7 -19 -12 -5 -24 -12 -27 -17 -7 -12 -97 -1 -122 14 -17 11 -18 14 -5 23 20 13 112 13 147 -1z m-153 -32 c15 -11 12 -15 -28 -35 -44 -21 -46 -21 -46 -2 0 10 10 26 22 34 27 19 30 19 52 3z m220 -16 c10 -11 16 -27 14 -35 -2 -13 -10 -11 -46 12 -23 16 -39 32 -35 35 13 14 50 7 67 -12z m-84 -16 c46 -24 70 -62 70 -113 0 -38 -5 -50 -39 -83 -35 -36 -43 -39 -92 -39 -67 0 -109 24 -133 75 -15 31 -16 44 -7 74 15 48 20 55 61 80 41 24 99 27 140 6z"/> <path d="M146 1240 c-42 -13 -75 -48 -82 -88 -22 -116 136 -179 217 -86 72 83 -25 207 -135 174z m19 -20 c-3 -5 -1 -10 4 -10 6 0 11 5 11 11 0 20 64 1 88 -27 22 -25 31 -61 13 -49 -5 3 -12 1 -16 -5 -3 -5 1 -10 9 -10 25 0 19 -34 -12 -63 -57 -55 -146 -41 -179 29 -13 27 -15 38 -6 41 7 2 9 11 6 19 -6 17 22 52 52 65 28 11 37 11 30 -1z"/> <path d="M138 1122 c-47 -34 -49 -51 -3 -23 l35 20 0 -24 c0 -14 5 -25 10 -25 6 0 10 11 10 24 0 14 5 28 10 31 13 8 3 25 -13 24 -7 0 -29 -13 -49 -27z"/> <path d="M2987 1303 c-9 -9 -7 -63 3 -88 5 -14 8 -1 7 37 -1 32 -2 58 -3 58 0 0 -4 -3 -7 -7z"/> <path d="M760 1261 c0 -5 14 -11 31 -15 45 -9 65 -8 54 3 -14 12 -85 22 -85 12z"/> <path d="M2612 1245 c-7 -8 -26 -35 -43 -61 -18 -25 -47 -62 -66 -82 -19 -20 -60 -66 -91 -101 -31 -36 -81 -90 -110 -122 -47 -50 -51 -58 -36 -70 14 -11 22 -6 62 39 26 29 52 52 58 52 12 0 74 62 74 75 0 5 -14 -4 -30 -20 -39 -37 -60 -22 -26 18 13 15 28 27 35 27 6 0 11 6 11 13 1 6 27 40 59 75 43 45 63 60 76 56 14 -6 8 -15 -31 -55 -25 -26 -52 -45 -58 -43 -6 2 -19 -8 -28 -24 -14 -23 -15 -31 -5 -41 9 -9 11 -53 9 -157 -2 -87 0 -144 6 -144 17 0 22 29 22 131 0 73 3 99 13 99 6 0 28 -43 47 -96 36 -101 64 -154 79 -154 13 0 0 41 -43 134 -20 43 -36 83 -36 88 0 6 20 -15 45 -46 51 -62 85 -87 85 -62 0 12 -34 54 -155 186 -7 8 -16 26 -20 40 -6 26 -7 26 150 165 l40 35 -35 30 c-39 34 -40 34 -58 15z m54 -27 l19 -22 -30 18 -30 19 23 -25 c22 -24 22 -25 4 -41 -17 -16 -20 -16 -41 7 l-22 24 22 21 c28 26 31 26 55 -1z m-276 -299 c0 -6 -4 -8 -9 -4 -5 3 -26 -15 -47 -40 -20 -25 -39 -43 -42 -40 -3 2 15 26 39 53 41 45 59 55 59 31z"/> <path d="M1061 1231 c-8 -5 -11 -16 -8 -25 7 -18 34 -21 56 -7 12 8 12 12 2 25 -15 18 -29 20 -50 7z"/> <path d="M1211 1211 c-8 -5 -11 -16 -6 -30 8 -25 46 -29 65 -6 24 29 -23 58 -59 36z m47 -24 c2 -10 -3 -17 -12 -17 -18 0 -29 16 -21 31 9 14 29 6 33 -14z"/> <path d="M1925 1200 c-3 -11 -15 -20 -25 -20 -27 0 -34 -17 -10 -25 17 -5 18 -10 9 -27 -10 -19 -9 -20 7 -13 11 5 31 8 45 8 22 0 26 4 25 23 -1 26 -14 32 -22 11 -6 -17 -32 -18 -38 -1 -6 16 28 28 57 20 14 -3 32 3 47 15 21 17 22 19 5 15 -71 -18 -75 -18 -75 -2 0 23 -17 20 -25 -4z"/> <path d="M2883 1139 c-29 -11 -29 -19 -1 -16 31 3 47 -57 28 -102 -17 -41 -22 -35 -9 10 13 41 -2 92 -25 83 -8 -3 -17 -1 -20 4 -10 17 -115 -13 -160 -45 -23 -17 -54 -33 -69 -37 -31 -7 -33 -16 -12 -56 18 -35 61 -70 87 -70 27 0 95 -46 103 -70 4 -11 3 -34 0 -51 -7 -29 -5 -31 16 -24 41 12 109 48 109 58 0 5 -9 11 -20 14 -31 8 -31 105 1 157 21 35 24 88 6 127 -10 22 -16 25 -34 18z m-20 -82 c13 -41 15 -72 11 -128 -6 -64 -4 -78 11 -92 17 -17 17 -19 -1 -32 -11 -8 -22 -15 -26 -15 -3 0 -13 -3 -21 -6 -11 -4 -13 1 -10 18 8 48 -60 116 -124 123 -28 3 -70 39 -79 68 -6 19 9 37 31 37 6 -1 2 -5 -7 -11 -17 -9 -17 -12 -3 -39 14 -28 52 -57 61 -47 2 2 -3 20 -11 40 -28 67 -19 81 75 118 69 27 74 25 93 -34z m33 19 c8 -32 -6 -58 -17 -30 -11 28 -11 54 1 54 5 0 12 -11 16 -24z m-216 -92 c14 -36 13 -39 -10 -19 -21 19 -27 45 -10 45 6 0 15 -12 20 -26z"/> <path d="M1451 1112 c-11 -20 0 -45 35 -81 l24 -24 34 27 c70 53 56 95 -30 95 -41 0 -56 -5 -63 -17z m117 -14 c3 -17 -5 -29 -40 -56 -14 -11 -20 -9 -42 15 -43 46 -34 60 38 59 31 -1 42 -5 44 -18z"/> <path d="M741 1109 c-22 -9 -22 -11 -8 -27 14 -15 13 -22 -9 -76 -29 -73 -30 -76 -1 -76 19 0 26 12 50 87 23 69 26 88 15 94 -16 10 -17 10 -47 -2z m39 -17 c0 -15 -43 -137 -51 -146 -15 -17 -10 9 16 77 22 60 23 66 7 70 -12 3 -11 5 6 6 12 0 22 -3 22 -7z"/> <path d="M918 1067 c-21 -6 -38 -15 -38 -21 0 -21 18 -39 30 -31 9 6 9 3 1 -14 -13 -24 -7 -42 12 -36 17 7 34 -7 39 -30 2 -14 -3 -20 -14 -20 -10 0 -22 -5 -29 -12 -15 -15 25 -37 56 -29 43 11 40 100 -4 122 -14 7 -19 14 -12 18 12 8 15 67 4 65 -5 -1 -25 -6 -45 -12z m42 -17 c0 -6 -7 -22 -16 -35 -16 -24 -15 -25 4 -25 26 0 44 -32 40 -68 -2 -20 -9 -28 -28 -29 -25 -3 -25 -3 -2 7 12 5 22 17 22 26 0 21 -28 54 -47 54 -16 0 -16 5 -3 31 9 16 7 19 -10 19 -11 0 -20 4 -20 9 0 8 10 12 53 20 4 0 7 -4 7 -9z"/> <path d="M1777 1038 c-10 -23 -35 -46 -86 -78 -128 -79 -125 -72 -40 -103 41 -15 81 -27 89 -27 9 0 52 27 95 61 63 48 83 70 96 105 10 24 14 46 11 48 -4 2 -29 7 -57 10 -27 4 -60 10 -72 13 -18 4 -25 -2 -36 -29z m125 -15 c4 -2 5 -10 1 -19 -4 -11 -14 -13 -37 -9 -56 12 -66 16 -66 31 0 12 9 14 48 8 26 -3 50 -8 54 -11z m-55 -36 c41 -8 60 -16 55 -23 -14 -22 -156 -125 -166 -121 -6 2 -35 12 -63 21 -29 10 -53 21 -53 25 0 8 150 111 160 110 3 0 33 -6 67 -12z"/> <path d="M1717 948 c-26 -17 -45 -33 -43 -36 3 -3 12 1 21 8 8 7 15 8 15 2 0 -13 -26 -23 -44 -16 -8 3 -16 2 -19 -3 -3 -5 19 -16 49 -24 l54 -16 50 35 c28 19 49 36 47 38 -7 7 -46 -9 -41 -17 3 -5 -1 -9 -10 -9 -8 0 -16 -6 -19 -12 -2 -7 -8 -9 -13 -5 -5 5 -1 13 9 19 14 8 16 13 6 24 -8 10 -8 14 0 14 6 0 11 -4 11 -10 0 -6 9 -6 25 0 14 5 32 7 40 4 8 -4 15 -2 15 4 0 5 -17 13 -37 16 -21 4 -45 9 -53 11 -8 3 -37 -9 -63 -27z"/> <path d="M1216 1010 c-63 -19 -104 -89 -92 -156 8 -40 53 -90 89 -99 24 -6 25 -10 22 -77 -3 -86 2 -108 26 -108 24 0 26 16 16 116 l-6 60 38 17 c51 23 87 87 77 139 -8 46 -41 87 -82 104 -37 16 -47 16 -88 4z m87 -31 c37 -20 56 -52 57 -94 1 -129 -175 -151 -210 -27 -7 26 -6 38 3 46 31 28 59 66 49 66 -7 0 -21 -15 -32 -32 -11 -18 -20 -27 -20 -20 0 8 13 27 29 43 32 32 84 39 124 18z m-34 -337 c1 -40 -3 -61 -9 -57 -5 3 -10 41 -9 83 1 94 17 70 18 -26z"/> <path d="M440 993 c0 -5 20 -42 44 -83 24 -41 43 -76 41 -78 -1 -1 -32 16 -69 38 -81 50 -96 56 -96 41 0 -38 113 -136 169 -147 38 -8 45 -29 28 -80 -25 -69 22 -117 78 -80 34 22 32 52 -10 113 -19 29 -35 54 -35 57 0 3 31 -9 69 -26 39 -17 77 -28 85 -25 20 8 20 46 0 75 -16 23 -66 30 -93 13 -28 -18 -61 11 -97 83 -20 39 -41 76 -47 83 -15 15 -67 28 -67 16z m70 -43 c11 -16 31 -53 45 -83 28 -63 63 -84 113 -65 36 14 59 6 74 -27 20 -45 -1 -49 -83 -14 -41 17 -78 38 -82 45 -4 8 -15 14 -23 14 -9 0 -14 6 -11 13 2 6 -3 18 -12 25 -9 8 -10 11 -4 7 9 -4 11 -1 7 9 -3 9 -11 13 -17 9 -6 -4 -7 -1 -2 7 5 8 -1 20 -16 32 -13 11 -18 17 -12 13 9 -4 11 -1 7 9 -3 9 -10 14 -14 11 -4 -3 -10 2 -14 10 -10 27 22 16 44 -15z m-58 -103 c29 -19 59 -32 67 -29 8 3 11 0 7 -7 -6 -10 13 -16 37 -12 5 1 6 -3 3 -8 -4 -5 0 -12 6 -14 7 -3 3 -6 -10 -6 -31 -1 -88 29 -137 73 -51 44 -40 46 27 3z m166 -141 c38 -65 39 -71 8 -91 -20 -13 -29 -14 -46 -5 -19 10 -21 17 -15 48 3 21 7 52 8 70 1 17 4 32 7 32 3 0 20 -24 38 -54z"/> <path d="M671 787 c-9 -12 -6 -17 19 -27 35 -15 49 -7 34 18 -15 22 -38 26 -53 9z"/> <path d="M580 689 c-18 -32 -9 -63 19 -67 33 -5 42 15 23 55 -18 38 -27 41 -42 12z m40 -41 c0 -19 -25 -25 -35 -8 -3 5 -3 21 1 36 7 26 8 26 20 9 8 -11 14 -27 14 -37z"/> <path d="M791 983 c-20 -16 -21 -20 -7 -38 9 -11 16 -14 16 -7 0 15 30 16 30 1 0 -6 -15 -32 -33 -58 -45 -63 -40 -81 24 -81 47 0 50 2 47 23 -2 14 -9 21 -21 21 -21 -2 -21 -2 3 38 47 78 4 152 -59 101z m67 -32 c2 -13 -9 -44 -27 -72 l-30 -49 25 0 c14 0 22 -4 19 -10 -8 -14 -65 -13 -65 1 0 6 14 30 31 54 37 51 37 91 1 88 -14 -2 -21 1 -17 8 4 5 19 9 33 7 20 -2 28 -10 30 -27z"/> <path d="M17 978 c-9 -5 -17 -14 -17 -20 0 -7 5 -6 15 2 8 7 22 10 30 6 25 -9 17 -43 -15 -66 -17 -12 -30 -26 -30 -31 0 -14 67 38 74 57 7 18 -8 50 -27 57 -7 3 -21 1 -30 -5z"/> <path d="M142 908 c-33 -55 -82 -186 -84 -229 l-3 -41 109 -39 c60 -21 111 -37 114 -35 2 3 17 42 33 88 37 107 41 211 8 229 -12 6 -34 9 -49 6 -22 -5 -29 -1 -38 19 -7 13 -18 24 -26 24 -8 0 -21 3 -29 6 -9 3 -22 -7 -35 -28z m26 -5 c-8 -10 -19 -25 -23 -33 -8 -13 -7 -13 8 -1 15 12 17 11 17 -3 0 -13 -37 -88 -56 -115 -2 -1 -8 0 -14 4 -7 5 -2 21 15 52 15 24 24 47 21 50 -8 8 23 63 36 63 7 0 5 -7 -4 -17z m58 -29 c26 -11 39 -13 42 -5 2 6 8 11 14 11 6 0 8 -6 5 -14 -3 -8 5 -18 20 -25 23 -11 25 -16 20 -57 -2 -25 -7 -47 -10 -50 -7 -8 -87 15 -114 33 -19 13 -23 24 -23 69 0 30 2 54 4 54 2 0 21 -7 42 -16z m-62 -79 c-4 -10 5 -21 25 -32 17 -10 31 -25 31 -35 0 -13 -7 -15 -40 -11 l-39 6 -12 -47 c-11 -43 -29 -63 -29 -33 0 17 34 117 49 146 13 24 23 28 15 6z m-54 -62 c0 -5 -7 -28 -14 -53 -11 -34 -16 -41 -21 -27 -11 26 3 87 20 87 8 0 15 -3 15 -7z m191 -13 c5 0 9 -8 9 -19 0 -25 -41 -121 -51 -121 -12 0 -12 0 6 51 13 37 14 44 1 51 -19 11 -9 51 11 44 8 -3 19 -6 24 -6z m-81 -26 c22 -9 40 -22 40 -29 0 -29 -23 -76 -35 -71 -7 2 -31 10 -54 17 -46 14 -45 11 -30 62 11 42 21 44 79 21z"/> <path d="M212 840 c-10 -17 -9 -25 4 -46 23 -34 65 -30 75 8 6 24 3 29 -23 43 -39 19 -41 19 -56 -5z m38 0 c0 -5 7 -10 15 -10 9 0 15 -9 15 -21 0 -15 -5 -19 -15 -15 -8 3 -15 1 -15 -5 0 -6 -5 -7 -10 -4 -6 4 -8 11 -5 16 4 5 -2 9 -12 10 -10 0 -13 3 -5 6 6 2 12 11 12 19 0 8 5 14 10 14 6 0 10 -4 10 -10z"/> <path d="M160 685 c0 -4 67 -35 76 -35 2 0 4 4 4 8 0 4 -15 13 -33 20 -36 13 -47 15 -47 7z"/> <path d="M1923 858 c-95 -68 -102 -212 -14 -292 11 -10 39 -23 63 -30 53 -16 62 -41 17 -50 -50 -10 -23 -24 54 -28 37 -2 67 -1 67 1 0 9 -37 30 -53 31 -25 0 -18 34 8 38 41 6 76 25 71 38 -3 7 2 18 10 25 47 39 62 141 29 197 -11 18 -36 44 -57 58 -31 22 -46 25 -92 22 -31 -1 -56 0 -56 5 0 12 -14 8 -47 -15z m46 -7 c11 -7 8 -13 -13 -26 -21 -14 -24 -20 -15 -31 9 -11 8 -14 -4 -14 -29 0 -31 23 -3 47 15 12 24 23 20 23 -5 0 -23 -14 -41 -32 -18 -18 -33 -28 -33 -24 0 9 59 66 69 66 3 0 12 -4 20 -9z m110 -2 c32 -11 39 -23 21 -34 -5 -3 -10 -17 -10 -29 0 -17 9 -27 30 -36 22 -9 30 -19 30 -37 0 -13 5 -33 10 -44 9 -15 6 -26 -10 -49 -61 -86 -193 -79 -251 12 -15 25 -19 45 -16 85 2 29 6 55 9 58 3 3 17 0 32 -6 18 -9 26 -20 26 -39 0 -14 4 -30 8 -36 5 -5 14 -28 21 -51 6 -24 15 -43 19 -43 6 1 75 133 69 134 -1 1 -16 11 -34 24 -18 12 -41 22 -52 22 -32 0 -33 15 -3 48 29 34 51 38 101 21z m79 -68 c22 -39 31 -108 12 -96 -5 3 -10 20 -10 36 0 22 -6 32 -24 39 -32 12 -41 28 -26 45 18 22 24 19 48 -24z m-142 -33 c16 -12 30 -22 32 -23 1 -1 -10 -24 -25 -51 l-27 -48 -11 41 c-5 23 -13 45 -17 49 -13 13 -9 54 6 54 7 0 26 -10 42 -22z"/> <path d="M1562 814 c-12 -8 -22 -25 -22 -37 0 -12 -7 -30 -14 -40 -14 -18 -16 -18 -41 -1 -35 23 -54 7 -37 -31 7 -14 12 -39 12 -54 0 -39 25 -47 46 -16 19 29 32 32 41 8 4 -10 11 -21 17 -25 14 -10 38 -10 33 0 -3 4 8 7 23 8 48 2 87 24 106 59 26 50 12 83 -51 117 -59 31 -82 34 -113 12z m62 -2 c2 -4 -11 -12 -30 -18 -38 -12 -46 -3 -11 14 28 13 35 14 41 4z m76 -42 c15 -15 19 -30 17 -56 -5 -43 -10 -48 -37 -39 -24 7 -43 47 -34 70 4 8 1 15 -5 15 -8 0 -11 -17 -9 -49 2 -33 7 -47 15 -44 19 8 38 -8 22 -18 -29 -18 -48 -10 -43 17 3 16 1 23 -6 19 -5 -3 -10 -15 -10 -26 0 -25 -8 -24 -52 6 l-37 25 -16 -30 c-19 -36 -38 -40 -29 -6 3 15 -1 34 -11 50 -20 30 -3 36 27 10 17 -16 20 -14 61 30 38 41 48 46 85 46 29 0 48 -6 62 -20z"/> <path d="M763 658 c-95 -65 -103 -74 -103 -103 0 -18 6 -37 13 -42 14 -12 219 -73 242 -73 16 0 223 159 224 173 1 4 -8 7 -19 7 -25 0 -26 25 -2 39 14 8 15 10 2 15 -36 13 -220 56 -237 56 -10 -1 -64 -33 -120 -72z m221 37 c98 -24 121 -34 100 -42 -6 -2 -51 -31 -100 -64 l-89 -61 -50 15 c-27 9 -68 19 -90 23 -70 12 -71 18 -13 57 29 19 71 49 93 66 22 17 42 31 45 31 3 0 50 -11 104 -25z m119 -89 c7 4 1 -5 -12 -19 -15 -17 -31 -25 -41 -22 -9 3 -25 -4 -35 -15 -17 -19 -10 -28 11 -12 5 4 -2 -3 -16 -16 -14 -13 -40 -35 -57 -49 l-33 -25 -107 31 c-60 18 -113 33 -119 36 -7 2 -9 15 -6 30 3 19 9 24 21 20 9 -4 53 -16 98 -27 60 -16 83 -26 86 -39 6 -23 9 -24 -92 6 -47 14 -92 25 -100 24 -9 0 37 -16 101 -35 l117 -35 41 32 c22 18 38 34 35 37 -2 2 -22 -10 -44 -27 -39 -31 -40 -31 -46 -10 -5 14 -2 25 6 30 8 4 50 32 94 62 69 47 80 52 83 36 2 -12 8 -17 15 -13z"/> <path d="M853 688 c-13 -6 -23 -14 -23 -18 0 -3 34 -17 76 -30 74 -24 76 -24 110 -5 19 10 34 21 34 24 0 6 -146 42 -165 40 -5 0 -20 -5 -32 -11z m132 -22 c38 -12 39 -13 19 -24 -18 -9 -34 -7 -84 10 -43 14 -58 23 -49 29 14 9 44 5 114 -15z"/> <path d="M2728 637 c-19 -13 -52 -27 -74 -30 -43 -7 -101 -59 -72 -65 8 -2 20 -14 26 -27 12 -26 49 -34 69 -14 7 7 28 7 73 -2 48 -9 63 -17 70 -34 5 -12 16 -25 25 -29 19 -7 55 10 55 25 0 6 7 9 15 5 12 -4 15 4 15 41 0 58 -32 126 -66 141 -41 19 -98 14 -136 -11z m77 -14 c-4 -16 -7 -28 -8 -29 -7 -5 -77 10 -77 16 0 9 60 39 79 40 9 0 11 -8 6 -27z m69 -4 c30 -23 36 -53 9 -45 -10 3 -30 8 -44 11 -21 5 -25 11 -21 31 5 29 21 30 56 3z m-59 -45 c50 -9 93 -22 97 -28 11 -16 10 -66 -1 -66 -5 0 -11 9 -14 20 -4 14 -14 20 -34 20 -16 0 -33 -4 -38 -9 -17 -16 -127 11 -135 33 -3 10 -17 24 -31 32 -23 13 -22 13 21 14 25 0 86 -7 135 -16z m61 -86 c-1 -29 -22 -34 -36 -7 -7 12 -8 19 -3 16 5 -3 15 -2 23 4 8 5 16 9 16 9 1 0 1 -10 0 -22z"/> <path d="M2297 577 c-88 -82 -35 -227 82 -227 84 0 141 56 141 139 0 37 -6 49 -39 82 -36 36 -43 39 -94 39 -49 0 -60 -4 -90 -33z m74 -12 c-17 -20 -31 -40 -31 -45 0 -10 -39 -24 -46 -17 -9 9 25 65 48 81 12 9 31 16 41 16 16 0 15 -5 -12 -35z m88 9 c22 -16 51 -70 51 -95 0 -7 -10 3 -23 22 -12 18 -37 43 -54 55 -30 20 -34 34 -9 34 7 0 22 -7 35 -16z m-29 -34 c16 -11 39 -37 51 -57 l22 -36 -22 -18 c-13 -11 -27 -19 -32 -19 -5 0 -30 19 -54 41 -46 42 -50 62 -23 97 14 17 25 15 58 -8z m-78 -67 c25 -22 23 -38 -7 -51 -39 -18 -54 -15 -67 13 -21 46 33 75 74 38z m66 -62 c22 -16 23 -19 7 -34 -19 -20 -49 -21 -89 -4 l-30 13 40 21 c48 27 44 26 72 4z"/> <path d="M84 539 c-4 -7 -6 -44 -5 -83 2 -57 -5 -92 -29 -166 -16 -52 -30 -102 -30 -112 0 -44 92 -65 125 -28 15 17 17 30 11 87 l-6 68 19 -25 c11 -14 25 -45 32 -70 13 -47 29 -75 29 -50 0 8 4 21 9 29 8 12 12 13 25 1 51 -41 2 64 -53 116 -36 33 -32 44 17 45 20 0 46 4 56 8 18 7 18 8 2 14 -12 5 -16 13 -12 23 6 15 0 16 -37 11 -23 -3 -50 -9 -59 -12 -15 -6 -15 -1 0 55 l17 62 -24 19 c-26 21 -76 25 -87 8z m67 -15 c19 -9 29 -21 25 -29 -3 -8 -10 -32 -16 -55 -10 -36 -14 -41 -33 -36 -12 3 -24 6 -27 6 -11 0 -9 115 3 122 16 10 13 10 48 -8z m102 -139 c8 -20 -1 -24 -66 -29 -57 -5 -97 1 -97 14 0 16 45 20 56 5 6 -8 14 -11 18 -7 7 7 63 30 77 31 4 1 9 -6 12 -14z m-113 -99 l0 -51 -49 -1 -50 0 15 27 c8 16 14 35 14 43 0 23 28 45 50 39 17 -4 20 -14 20 -57z m64 7 c20 -21 36 -41 36 -44 0 -4 7 -15 16 -23 14 -15 14 -16 -5 -16 -12 0 -24 -1 -28 -2 -3 -2 -11 11 -16 27 -5 17 -20 45 -34 63 -33 44 -14 41 31 -5z m-76 -81 c2 -6 -7 -16 -20 -21 -12 -6 -16 -10 -8 -10 10 -1 11 -4 3 -12 -8 -8 -17 -8 -33 1 -26 14 -16 29 22 32 15 1 24 6 22 10 -3 5 -17 5 -32 2 -21 -4 -24 -3 -12 5 19 14 52 10 58 -7z m-62 -52 c28 -11 54 -4 54 15 0 7 7 15 15 19 19 7 19 -4 -1 -32 -8 -12 -25 -22 -37 -22 -30 0 -67 27 -66 48 1 15 2 15 6 -1 3 -10 16 -22 29 -27z"/> <path d="M475 510 c-30 -12 -75 -64 -84 -96 -26 -100 47 -194 152 -194 148 0 202 202 75 280 -34 21 -106 26 -143 10z m84 -23 c7 -14 29 -28 56 -36 52 -15 68 -47 55 -106 -13 -59 -30 -67 -30 -15 0 88 -65 146 -157 138 -24 -2 -43 -2 -43 0 0 1 15 11 33 22 42 26 71 25 86 -3z m41 3 c0 -4 10 -11 23 -15 12 -3 17 -9 10 -11 -6 -3 -23 2 -37 12 -28 18 -35 37 -11 28 8 -4 15 -10 15 -14z m-67 -36 c13 -13 -14 -43 -45 -49 -18 -4 -45 -16 -60 -27 -28 -19 -28 -19 -28 1 0 37 22 70 49 74 45 7 77 7 84 1z m70 -46 c12 -17 22 -48 25 -82 4 -48 2 -56 -19 -69 -13 -9 -42 -19 -64 -23 l-39 -7 19 29 c51 78 56 103 24 135 -16 16 -18 23 -8 35 17 20 38 14 62 -18z m-129 -65 c-38 -67 -41 -69 -58 -35 -17 32 -11 43 39 70 41 23 46 13 19 -35z m60 41 c23 -9 19 -51 -9 -101 -28 -47 -33 -49 -60 -30 -17 13 -16 17 15 75 18 34 34 62 36 62 1 0 9 -3 18 -6z"/> <path d="M1093 411 c-11 -47 -18 -89 -14 -94 13 -13 98 -12 114 2 12 9 14 19 7 36 -6 17 -5 27 6 35 35 30 8 70 -67 99 -24 8 -25 6 -46 -78z m100 31 c23 -20 22 -38 -4 -45 -17 -5 -18 -8 -8 -25 21 -34 5 -52 -46 -52 -52 0 -54 5 -30 85 24 81 22 77 47 64 13 -6 31 -18 41 -27z"/> <path d="M1141 442 c-22 -41 -10 -54 25 -28 18 14 18 16 2 32 -15 15 -17 15 -27 -4z"/> <path d="M1116 374 c-12 -31 -6 -44 19 -44 29 0 44 25 26 43 -9 9 -11 8 -6 -5 5 -12 1 -20 -9 -24 -23 -9 -30 1 -16 25 6 12 7 21 1 21 -5 0 -12 -7 -15 -16z"/> <path d="M1450 484 c0 -3 8 -28 17 -54 15 -43 15 -52 1 -111 -9 -35 -15 -65 -13 -67 2 -2 17 4 34 12 43 23 48 21 56 -24 4 -22 10 -40 15 -40 5 0 26 15 47 34 189 167 242 217 231 220 -7 3 -78 9 -158 15 -80 7 -164 14 -187 17 -24 3 -43 2 -43 -2z m275 -34 c33 -4 50 -8 38 -9 -13 0 -23 -5 -23 -10 0 -5 -8 -7 -18 -4 -10 2 -58 -3 -108 -11 -119 -21 -120 -21 -133 15 -6 18 -11 34 -11 37 0 5 167 -6 255 -18z m60 -39 c-51 -49 -207 -181 -213 -181 -8 0 -46 100 -40 105 2 1 48 18 103 38 55 19 111 40 125 45 38 16 46 14 25 -7z m-165 -28 c-96 -33 -129 -53 -130 -77 0 -5 6 -3 14 3 8 7 17 8 20 3 3 -6 -5 -17 -18 -26 -31 -19 -36 -8 -23 51 10 41 12 43 61 53 180 39 204 36 76 -7z"/> <path d="M2618 428 c-4 -24 -8 -25 -45 -13 -33 9 -28 -8 8 -29 25 -15 30 -22 24 -44 -5 -22 -4 -24 10 -12 12 10 21 10 41 1 23 -10 25 -10 19 9 -4 12 -1 27 5 35 10 12 7 17 -14 25 -14 5 -26 16 -26 24 0 25 -18 28 -22 4z m39 -57 c0 -10 -8 -18 -17 -17 -18 1 -31 29 -17 38 16 10 36 -2 34 -21z"/> <path d="M1244 415 c-25 -38 -30 -100 -10 -130 20 -31 63 -33 97 -6 20 16 21 21 10 35 -17 21 -31 20 -47 -1 -19 -25 -33 -2 -25 40 6 29 31 51 31 28 0 -15 12 -14 35 2 17 13 17 15 -3 35 -30 30 -67 28 -88 -3z m72 1 c10 -8 16 -18 11 -22 -4 -4 -13 -2 -19 4 -19 19 -28 14 -44 -24 -26 -61 5 -111 44 -72 6 6 15 8 19 4 9 -8 -24 -36 -42 -36 -6 0 -20 6 -30 14 -25 18 -26 83 -2 119 20 30 34 33 63 13z"/> <path d="M961 328 c-27 -104 -27 -108 4 -108 18 0 25 5 25 20 0 13 7 20 20 20 13 0 20 -7 20 -20 0 -16 7 -20 31 -20 21 0 30 4 27 13 -3 6 -17 49 -32 95 -24 71 -31 82 -50 82 -20 0 -26 -10 -45 -82z m92 -35 c14 -46 14 -53 1 -53 -7 0 -14 7 -14 15 0 10 -10 15 -30 15 -20 0 -30 -5 -30 -15 0 -8 -6 -15 -14 -15 -11 0 -10 14 6 72 30 112 43 109 81 -19z"/> <path d="M997 351 c-11 -52 -9 -61 13 -61 17 0 19 4 14 28 -15 62 -20 68 -27 33z"/> <path d="M2942 334 c-42 -27 -52 -40 -52 -62 0 -38 9 -46 58 -61 56 -16 65 -9 12 9 -22 7 -46 20 -53 29 -9 12 -9 13 1 7 7 -4 12 -1 12 8 0 18 18 20 54 6 14 -5 26 -6 26 -1 0 15 -73 31 -87 19 -7 -6 -13 -8 -13 -5 0 3 21 20 48 38 59 40 56 38 51 44 -3 2 -28 -11 -57 -31z"/> <path d="M1931 349 c-64 -11 -65 -12 -57 -36 6 -18 12 -18 71 -9 59 8 65 12 65 33 0 25 0 25 -79 12z m69 -19 c0 -5 -8 -10 -17 -10 -10 0 -35 -3 -55 -6 -24 -4 -38 -3 -38 4 0 6 12 13 28 15 53 8 82 7 82 -3z"/> <path d="M2100 349 c0 -7 -7 -17 -16 -23 -18 -13 -9 -46 12 -46 8 0 14 -7 14 -15 0 -10 10 -15 26 -15 21 0 25 4 21 20 -3 13 0 20 8 20 8 0 16 4 19 9 10 16 -5 41 -25 41 -10 0 -19 5 -19 10 0 6 -9 10 -20 10 -11 0 -20 -5 -20 -11z m34 -14 c3 -8 12 -12 21 -9 8 3 15 2 15 -4 0 -5 -6 -12 -14 -15 -8 -3 -16 -16 -19 -29 l-4 -23 -8 23 c-4 12 -14 22 -21 22 -8 0 -14 5 -14 10 0 6 5 10 10 10 6 0 10 7 10 15 0 19 16 19 24 0z"/> <path d="M797 333 c18 -2 50 -2 70 0 21 2 7 4 -32 4 -38 0 -55 -2 -38 -4z"/> <path d="M2614 299 c-29 -4 -57 -10 -63 -13 -6 -4 -26 -2 -44 5 -29 10 -39 8 -85 -15 -49 -25 -61 -46 -26 -46 31 0 6 -25 -33 -33 -49 -9 -132 -75 -111 -88 41 -27 196 6 183 39 -13 34 -17 67 -7 57 22 -22 23 -70 3 -97 l-20 -25 52 -6 c45 -6 55 -4 77 17 14 13 58 33 99 46 77 24 151 80 151 113 0 34 -91 57 -176 46z m-116 -18 c20 -12 -64 -54 -85 -42 -14 7 -9 12 23 29 45 24 45 24 62 13z m157 -52 c20 -73 20 -73 -77 -89 -97 -17 -110 -13 -124 38 l-13 42 42 22 c46 23 113 46 138 47 12 1 21 -17 34 -60z m83 45 c28 -19 28 -38 0 -64 -48 -45 -53 -43 -69 21 l-16 59 31 0 c18 0 42 -7 54 -16z m-334 -90 c29 -11 18 -34 -16 -34 l-33 1 25 14 c17 10 20 14 9 15 -9 0 -24 -9 -33 -19 -17 -18 -17 -19 2 -25 10 -4 28 -4 38 -1 10 3 6 -1 -11 -9 -34 -17 -83 -20 -104 -7 -11 7 -3 16 34 40 50 32 62 35 89 25z m126 -79 c-13 -16 -90 -21 -90 -6 0 13 19 19 64 20 33 1 37 -1 26 -14z"/> <path d="M2556 244 c-9 -8 -16 -24 -16 -34 0 -22 26 -50 46 -50 46 0 73 57 42 88 -17 17 -54 15 -72 -4z m58 -10 c20 -19 20 -29 0 -48 -12 -12 -20 -13 -35 -6 -21 12 -25 40 -7 58 16 16 23 15 42 -4z"/> <path d="M1927 290 c-45 -8 -51 -14 -43 -36 5 -12 14 -15 37 -10 18 3 43 6 58 6 35 0 53 13 45 33 -7 18 -32 20 -97 7z m83 -10 c0 -5 -17 -12 -37 -15 -21 -3 -46 -8 -55 -10 -10 -2 -18 3 -18 10 0 13 12 16 93 23 9 1 17 -2 17 -8z"/> <path d="M1233 196 c4 -22 11 -44 17 -50 9 -8 10 0 5 29 -10 54 -30 73 -22 21z"/> <path d="M781 171 c-31 -17 -37 -17 -72 -3 -54 21 -121 9 -159 -28 -26 -26 -30 -36 -30 -85 0 -42 3 -55 15 -55 12 0 15 14 16 63 l2 62 6 -57 c9 -84 19 -80 13 6 l-4 74 33 7 c44 10 94 8 118 -5 14 -7 21 -26 26 -68 3 -32 11 -65 16 -73 7 -9 8 6 3 44 -4 33 -7 66 -8 75 -2 24 68 54 117 50 l42 -3 17 -80 c9 -44 17 -83 17 -87 1 -5 5 -8 10 -8 6 0 12 19 14 43 l4 42 1 -42 c1 -24 6 -43 10 -43 4 0 5 26 1 58 -4 31 -8 69 -8 85 -1 20 -6 27 -20 27 -11 0 -23 5 -26 10 -11 17 -117 11 -154 -9z"/> <path d="M1665 133 c-109 -56 -102 -51 -82 -66 8 -6 18 -25 20 -42 l4 -30 2 33 c1 33 21 46 21 15 0 -10 5 -25 11 -33 8 -12 10 -9 6 13 -3 19 -1 27 7 24 7 -3 39 -13 73 -22 59 -16 61 -16 101 4 53 27 60 27 65 -6 3 -23 4 -22 6 8 1 31 6 39 31 49 17 7 33 16 35 20 4 7 -57 30 -200 76 -5 2 -50 -18 -100 -43z m189 -2 l90 -29 -80 -39 -79 -40 -80 24 c-44 12 -86 25 -94 28 -8 3 19 22 65 45 43 21 81 39 84 39 3 0 45 -12 94 -28z"/> <path d="M2780 165 c0 -10 -10 -15 -27 -16 l-28 0 23 -16 c12 -8 22 -23 22 -33 0 -13 5 -17 21 -13 12 4 25 0 29 -8 5 -7 12 -10 16 -6 4 3 1 13 -5 21 -8 10 -9 16 -1 21 15 10 12 25 -6 25 -9 0 -18 9 -21 20 -6 23 -23 27 -23 5z"/> <path d="M1362 140 c-22 -28 -24 -28 -58 -14 -29 12 -39 12 -68 0 -40 -16 -61 -63 -46 -101 14 -37 21 -30 14 13 -5 34 -3 42 21 60 36 29 60 28 92 -4 21 -21 24 -32 20 -60 -3 -19 -2 -34 3 -34 14 0 21 47 10 75 -8 22 -6 29 22 54 17 15 27 30 22 34 -5 3 -20 -7 -32 -23z"/> <path d="M800 150 c-24 -15 -8 -17 40 -4 45 12 45 12 10 13 -19 0 -42 -3 -50 -9z"/> <path d="M308 123 c4 -20 7 -23 10 -10 3 14 7 16 18 6 26 -21 16 -35 -21 -31 -19 2 -46 1 -60 -2 -26 -7 -60 -58 -52 -79 3 -7 8 -4 12 8 26 66 85 85 113 35 11 -19 25 -30 39 -30 12 0 25 -5 28 -10 8 -13 25 -13 25 0 0 5 -18 14 -39 20 -38 10 -65 40 -36 40 8 0 15 -7 15 -15 0 -17 9 -19 30 -5 13 8 12 10 -2 10 -22 0 -22 4 -3 34 14 22 14 25 0 40 -9 9 -31 16 -49 16 -31 0 -33 -2 -28 -27z m56 11 c9 -3 16 -15 16 -25 0 -27 -13 -24 -27 6 -12 27 -12 28 11 19z"/> <path d="M822 120 c-18 -4 -36 -11 -40 -15 -4 -5 4 -5 18 -2 14 4 37 7 53 7 15 0 27 5 27 10 0 11 -11 11 -58 0z"/> <path d="M1125 120 c-6 -11 31 -33 47 -28 6 2 -1 12 -15 21 -15 9 -28 13 -32 7z"/> <path d="M616 102 c-3 -5 17 -8 44 -8 27 0 47 3 44 8 -3 4 -23 8 -44 8 -21 0 -41 -4 -44 -8z"/> <path d="M825 93 c-11 -3 -24 -9 -30 -14 -13 -13 76 0 90 12 9 9 -25 10 -60 2z"/> <path d="M620 71 c0 -5 20 -9 45 -9 25 0 43 4 39 9 -7 12 -84 12 -84 0z"/> <path d="M0 60 c0 -5 9 -10 21 -10 18 0 20 -4 15 -25 -4 -14 -2 -25 3 -25 16 0 23 40 11 55 -14 17 -50 20 -50 5z"/> <path d="M820 50 c-24 -15 -8 -17 40 -4 45 12 45 12 10 13 -19 0 -42 -3 -50 -9z"/> <path d="M2322 25 c6 -14 15 -25 20 -25 5 0 7 4 3 9 -3 6 4 9 15 8 11 -1 20 -5 20 -9 0 -21 16 -5 18 18 2 23 0 25 -13 14 -12 -10 -21 -10 -41 -1 -34 15 -35 15 -22 -14z"/> <path d="M626 31 c-3 -5 16 -8 44 -8 27 0 47 4 44 9 -7 11 -81 10 -88 -1z"/> <path d="M815 11 c-12 -5 8 -8 53 -7 41 0 65 3 55 7 -24 10 -83 10 -108 0z"/> </g> </svg> 