 <svg  version="1.0" xmlns="http://www.w3.org/2000/svg"  width="300.000000pt" height="300.000000pt" viewBox="0 0 300.000000 300.000000"  preserveAspectRatio="xMidYMid meet">  <g transform="translate(0.000000,300.000000) scale(0.100000,-0.100000)" fill="#2f8156" stroke="none"> <path d="M0 2976 c0 -22 3 -23 53 -18 51 4 77 16 77 33 0 5 -29 9 -65 9 -62 0 -65 -1 -65 -24z"/> <path d="M169 2991 c-1 -3 -1 -10 0 -15 1 -5 -5 -6 -13 -3 -9 4 -23 -3 -33 -17 -10 -12 -23 -21 -30 -19 -19 7 -24 -14 -5 -28 16 -13 16 -13 2 5 -14 18 -13 19 3 13 10 -4 24 -7 30 -7 7 0 4 -7 -6 -14 -13 -10 -15 -16 -7 -21 17 -10 33 9 33 39 0 14 5 26 11 26 6 0 19 11 28 24 13 18 14 23 2 23 -8 0 -15 -3 -15 -6z"/> <path d="M215 2991 c3 -5 -8 -24 -24 -42 -26 -28 -31 -42 -33 -98 -3 -64 -4 -66 -30 -69 -28 -3 -48 -39 -34 -60 3 -5 -7 -12 -22 -15 -26 -5 -46 9 -36 25 3 4 -3 5 -13 2 -12 -4 -10 0 7 14 19 16 28 18 40 9 8 -6 12 -8 8 -3 -4 5 3 17 15 27 15 13 17 17 5 13 -10 -3 -31 8 -57 31 l-41 37 0 -99 0 -100 44 0 c53 0 103 -27 134 -74 21 -29 23 -43 19 -97 -3 -34 -1 -65 4 -68 5 -2 22 2 38 11 36 18 41 19 41 4 0 -18 -67 -105 -95 -123 -24 -16 -25 -16 -25 6 0 16 3 19 9 10 6 -10 20 0 54 38 55 61 59 77 16 55 -22 -12 -34 -13 -43 -6 -20 17 -43 -14 -26 -34 6 -8 10 -20 7 -27 -4 -8 -6 -7 -6 4 -1 26 -18 31 -45 13 -21 -14 -24 -14 -29 -1 -4 9 -2 18 3 21 6 4 10 11 10 18 0 8 -3 8 -12 -1 -7 -7 -31 -12 -55 -12 l-43 0 1 -107 c1 -60 4 -96 6 -81 4 26 27 43 44 32 14 -8 0 -24 -16 -17 -10 3 -15 -2 -15 -16 0 -28 28 -27 39 2 17 45 71 63 71 23 0 -9 11 -16 28 -18 23 -3 27 -7 25 -33 -1 -16 4 -37 13 -46 13 -15 13 -18 -1 -33 -9 -9 -21 -16 -26 -16 -6 0 -8 -4 -5 -9 13 -21 -7 -43 -33 -38 -16 3 -33 -1 -44 -11 -18 -16 -20 -16 -35 3 -10 11 -25 21 -34 23 -15 2 -18 -5 -18 -47 0 -49 1 -50 24 -40 20 9 36 3 120 -46 53 -32 96 -59 96 -61 0 -2 -21 -29 -48 -61 -26 -32 -71 -90 -100 -130 -41 -56 -57 -70 -72 -66 -18 5 -20 0 -20 -46 0 -50 0 -50 26 -41 36 14 72 2 88 -29 8 -14 73 -66 145 -116 72 -49 131 -96 131 -102 0 -7 -3 -13 -6 -13 -4 0 -66 41 -140 90 -73 50 -142 90 -153 90 -12 0 -33 13 -48 30 -35 40 -43 38 -43 -9 0 -36 3 -40 30 -46 66 -14 121 -88 119 -157 -1 -27 -3 -25 -9 15 -13 75 -48 117 -112 132 -42 11 -33 -8 12 -27 87 -36 106 -141 36 -205 -20 -18 -45 -33 -56 -33 -11 0 -20 -4 -20 -10 0 -39 111 24 125 71 4 11 9 18 12 16 2 -3 -2 -19 -11 -35 -18 -34 -73 -72 -105 -72 -19 0 -21 -6 -21 -52 0 -84 7 -98 46 -98 40 0 46 23 15 61 l-18 23 -16 -30 c-9 -16 -16 -24 -17 -17 0 18 49 71 73 78 61 18 57 22 57 -49 0 -50 3 -66 14 -66 8 0 17 6 19 13 4 9 6 9 6 0 1 -8 15 -13 36 -13 41 0 47 23 16 61 l-18 23 -16 -30 c-9 -16 -16 -24 -17 -19 0 6 7 21 16 33 15 21 14 23 -18 37 -18 8 -26 14 -18 14 49 0 100 -63 100 -124 0 -61 -51 -124 -100 -124 -8 0 -1 6 16 13 l32 14 -22 46 c-31 66 -46 60 -46 -20 0 -71 4 -67 -57 -49 -24 7 -73 60 -73 78 1 7 8 -1 17 -17 l16 -30 18 23 c31 38 25 61 -15 61 -28 0 -35 -4 -40 -26 -4 -14 -6 -153 -5 -309 1 -256 3 -283 18 -280 11 1 16 12 16 36 0 19 -5 33 -11 32 -18 -3 -11 21 14 47 l25 25 -17 -32 c-10 -20 -12 -34 -6 -38 17 -10 11 -61 -8 -78 -10 -10 -22 -14 -25 -10 -4 3 -7 -13 -7 -36 0 -34 4 -44 20 -48 11 -3 20 -10 20 -15 0 -5 4 -7 9 -3 12 7 23 -27 16 -51 -3 -10 1 -6 8 9 l13 28 13 -40 c6 -22 16 -43 21 -46 7 -5 90 22 90 30 0 1 -7 19 -15 39 -8 20 -22 52 -30 71 l-14 35 -53 -21 c-29 -12 -62 -23 -73 -25 -11 -3 18 11 65 30 47 20 88 35 91 36 6 0 79 -171 79 -184 0 -2 -48 -23 -107 -47 l-106 -42 -19 22 c-10 13 -18 31 -17 40 0 11 3 9 9 -6 5 -13 12 -23 15 -23 4 0 -22 76 -30 87 -1 2 -2 -33 -4 -77 l-1 -80 70 0 c54 0 72 4 76 15 7 18 30 20 40 3 5 -7 3 -8 -6 -3 -8 5 -11 4 -7 -3 5 -6 65 -11 162 -11 132 -2 155 0 155 13 0 22 34 38 48 24 9 -9 17 -7 33 8 20 18 21 18 35 -1 8 -10 14 -25 14 -32 0 -7 10 -13 23 -12 21 0 21 1 2 9 -16 7 -17 9 -3 9 9 1 20 -3 23 -9 8 -13 355 -14 355 -1 0 6 -9 16 -20 24 -18 13 -19 15 -5 21 22 8 67 7 81 -2 6 -4 16 -17 23 -29 12 -23 15 -23 205 -23 l194 0 11 46 c9 35 15 44 28 40 8 -4 35 -11 60 -17 24 -7 42 -14 39 -16 -2 -2 -21 0 -42 6 -40 11 -66 3 -70 -23 -2 -16 22 -23 28 -7 2 4 12 5 23 0 19 -7 19 -8 -2 -8 -39 -2 -25 -21 15 -21 27 0 33 3 22 10 -13 8 -12 10 3 10 9 0 17 -4 17 -10 0 -15 46 -12 59 4 10 11 6 16 -16 25 l-28 11 30 -6 c38 -7 41 -10 25 -29 -11 -13 13 -15 218 -15 211 0 231 1 235 18 4 13 5 13 6 2 1 -13 20 -16 111 -18 61 -1 110 1 110 5 0 5 -18 21 -40 36 l-40 28 -30 -21 c-17 -12 -30 -26 -30 -32 0 -6 -3 -8 -7 -4 -5 5 7 21 26 36 l33 28 -25 17 c-34 22 -63 12 -88 -28 -10 -18 -19 -27 -19 -21 0 18 39 62 61 69 16 5 44 -9 109 -54 88 -61 89 -61 159 -61 l72 0 -16 31 c-9 17 -14 33 -12 36 3 2 37 -12 76 -31 42 -22 85 -36 107 -36 37 0 37 -1 18 46 -3 6 7 16 21 22 23 11 26 9 45 -28 l20 -40 91 0 91 0 -5 101 c-2 59 -9 105 -16 112 -10 9 -10 6 -1 -17 6 -16 9 -31 6 -33 -2 -2 -8 10 -14 26 -10 30 -2 48 16 37 5 -3 9 13 11 35 1 30 -1 39 -10 33 -7 -4 -22 -9 -33 -10 -12 -2 -33 -7 -48 -10 -33 -7 -35 1 -14 60 18 52 62 106 86 106 19 0 20 9 20 335 l0 335 -27 0 c-38 0 -89 33 -114 72 -16 26 -19 45 -16 91 3 49 8 62 38 93 20 21 51 40 77 47 l42 11 0 97 0 97 -72 29 -73 29 -3 44 c-3 43 -3 43 15 23 10 -11 44 -35 76 -53 l57 -32 -2 142 c-1 120 -4 138 -15 118 -7 -13 -12 -18 -13 -12 0 5 7 19 15 30 16 22 21 134 5 134 -5 0 -10 8 -10 18 0 11 3 13 8 5 4 -6 8 11 9 38 2 33 -1 47 -8 43 -6 -3 -9 -15 -6 -25 3 -11 1 -17 -4 -13 -14 9 -10 41 6 48 12 4 15 26 15 112 0 105 0 106 -30 134 -17 15 -30 36 -30 47 0 12 5 8 16 -14 19 -38 44 -51 44 -23 0 10 -4 21 -9 24 -5 4 -5 18 2 36 15 39 2 49 -28 20 -14 -13 -27 -21 -31 -18 -4 5 14 53 34 90 2 3 -6 4 -17 1 -35 -9 -25 25 14 49 l36 20 -2 119 c0 65 -5 117 -9 114 -5 -3 -12 5 -16 17 -4 14 -1 25 10 33 9 7 16 22 16 34 0 20 -5 21 -90 21 -49 0 -90 -2 -90 -4 0 -2 27 -61 59 -130 56 -118 59 -127 41 -136 -10 -5 -23 -10 -28 -10 -4 0 -37 63 -72 140 -63 139 -64 140 -96 140 -24 0 -32 -4 -28 -13 5 -13 -70 -107 -86 -107 -5 0 -14 16 -20 35 -9 27 -17 35 -36 35 -28 0 -31 12 -7 31 14 12 16 12 11 -1 -4 -12 2 -15 34 -12 65 7 29 22 -66 29 l-86 6 -56 -62 c-31 -33 -61 -58 -66 -55 -6 4 -8 2 -4 -4 3 -5 -19 -40 -50 -76 l-56 -65 -87 44 c-86 42 -88 44 -89 80 -2 60 44 126 88 125 8 -1 1 -7 -17 -15 -34 -14 -63 -60 -59 -90 1 -10 14 -25 27 -33 24 -14 24 -14 -1 7 -35 29 -17 26 30 -5 22 -15 37 -31 33 -37 -3 -6 -1 -7 5 -3 6 4 22 0 35 -9 22 -14 24 -14 40 20 9 19 30 41 48 50 17 9 29 18 27 20 -2 2 -38 26 -81 54 l-78 51 -222 0 -222 0 -127 -127 c-71 -70 -128 -123 -128 -118 0 6 14 57 30 115 16 58 30 111 30 118 0 10 -42 13 -200 11 -110 -1 -200 -4 -200 -8 0 -3 10 -12 21 -20 20 -12 21 -11 15 4 -8 21 -1 17 147 -87 86 -61 113 -88 90 -88 -5 0 -69 41 -143 90 -74 49 -145 90 -157 90 -12 0 -25 5 -28 10 -4 6 -76 10 -184 10 -176 0 -179 0 -184 -22 -4 -14 0 -29 11 -41 16 -18 16 -20 -6 -37 -12 -10 -22 -27 -22 -38 0 -24 -18 -33 -41 -21 -11 6 -21 4 -29 -6 -16 -19 -39 -19 -46 -1 -3 8 -19 18 -35 21 -26 6 -30 11 -27 35 1 15 -3 35 -11 44 -15 18 -8 46 11 46 10 0 9 -3 -1 -9 -17 -11 -7 -41 13 -41 20 0 25 20 13 48 -10 21 -15 22 -149 22 -83 0 -137 -4 -133 -9z m1583 -55 c38 -64 38 -66 12 -59 -14 4 -20 0 -20 -12 0 -13 6 -16 21 -12 16 4 19 3 11 -5 -14 -14 -42 -3 -42 17 0 9 7 18 15 21 13 5 13 10 -1 35 -16 32 -21 32 -74 -14 l-33 -28 27 -49 c28 -52 27 -70 -4 -70 -27 0 -34 19 -15 40 16 18 15 21 -9 62 l-26 43 48 42 c26 23 49 42 52 43 3 0 20 -24 38 -54z m366 26 c2 -4 -11 -20 -30 -35 -19 -16 -34 -33 -34 -39 0 -6 12 -1 28 13 l27 24 -24 -28 c-16 -18 -28 -24 -34 -18 -7 7 -6 16 3 26 7 8 10 18 6 22 -3 4 -13 -2 -21 -13 -8 -10 -15 -14 -15 -7 0 14 60 63 77 63 6 0 14 -4 17 -8z m-1175 -77 l66 -64 -87 -88 -88 -88 -72 72 -72 72 79 80 c43 45 85 81 93 81 8 0 44 -29 81 -65z m898 38 c-4 -3 -7 0 -7 7 0 7 3 10 7 7 3 -4 3 -10 0 -14z m0 -40 c-4 -3 -7 0 -7 7 0 7 3 10 7 7 3 -4 3 -10 0 -14z m-1479 -36 c23 -23 42 -50 42 -59 0 -25 -26 -41 -47 -30 -23 13 -80 72 -69 72 5 0 3 6 -3 14 -15 18 -4 46 18 46 9 0 36 -19 59 -43z m1509 16 c-4 -3 -10 -3 -14 0 -3 4 0 7 7 7 7 0 10 -3 7 -7z m30 -10 c-4 -3 -10 -3 -14 0 -3 4 0 7 7 7 7 0 10 -3 7 -7z m807 -44 c-8 -8 -14 -22 -14 -30 0 -8 -8 0 -19 16 -17 27 -17 32 -3 48 14 16 16 16 32 0 15 -15 16 -20 4 -34z m-777 34 c-4 -3 -10 -3 -14 0 -3 4 0 7 7 7 7 0 10 -3 7 -7z m20 -30 c-4 -3 -7 0 -7 7 0 7 3 10 7 7 3 -4 3 -10 0 -14z m10 -40 c-4 -3 -7 0 -7 7 0 7 3 10 7 7 3 -4 3 -10 0 -14z m477 1 c5 -12 2 -15 -9 -10 -9 3 -27 -1 -41 -10 -13 -9 -24 -12 -24 -8 -1 5 -12 -4 -26 -21 l-25 -30 12 28 c7 16 23 30 38 34 14 3 35 12 46 19 24 17 22 17 29 -2z m76 -3 c0 -4 -9 -20 -20 -34 -11 -14 -20 -29 -20 -34 0 -17 -51 -63 -77 -69 -15 -4 -34 -2 -45 5 -16 10 -24 9 -41 -6 -22 -18 -22 -18 -4 3 9 11 17 29 18 40 0 10 3 14 5 7 4 -8 29 4 74 33 38 24 72 44 77 44 4 0 -25 -21 -64 -46 -74 -46 -85 -60 -58 -70 20 -8 67 4 61 15 -3 4 6 13 21 20 14 6 23 14 20 18 -4 3 5 20 20 37 l26 31 -29 6 -29 7 33 1 c17 0 32 -3 32 -8z m-2279 -44 c-17 -17 -34 12 -19 31 10 11 13 10 21 -3 6 -11 5 -21 -2 -28z m928 24 c7 -13 6 -23 -3 -36 -17 -24 -50 -15 -54 14 -6 39 39 56 57 22z m816 -1 c3 -5 4 -10 1 -10 -3 0 -8 5 -11 10 -3 6 -4 10 -1 10 3 0 8 -4 11 -10z m-93 -17 c15 -14 18 -32 18 -124 0 -84 -3 -111 -16 -123 -19 -19 -26 -20 -42 -4 -14 14 -16 52 -2 43 5 -3 7 -12 4 -19 -9 -22 16 -30 34 -11 16 17 16 17 -3 11 -19 -6 -19 -5 -2 8 18 14 24 32 7 21 -5 -3 -21 -3 -35 1 -24 6 -25 9 -25 81 0 47 6 85 15 103 18 35 22 36 47 13z m-1372 -23 c0 -13 -7 -20 -20 -20 -13 0 -20 7 -20 20 0 13 7 20 20 20 13 0 20 -7 20 -20z m498 -3 c2 -12 -3 -17 -17 -17 -15 0 -21 6 -21 21 0 25 33 22 38 -4z m337 -1 c94 -40 98 -183 6 -231 -86 -44 -193 20 -190 115 1 19 3 27 6 18 3 -13 15 -18 39 -18 39 0 45 20 17 59 l-16 24 -19 -23 c-10 -12 -18 -18 -18 -14 1 17 35 53 65 68 37 20 66 20 110 2z m885 4 c0 -5 -4 -10 -10 -10 -5 0 -10 5 -10 10 0 6 5 10 10 10 6 0 10 -4 10 -10z m-750 -15 c9 -11 22 -14 46 -9 41 7 59 -5 81 -55 14 -32 28 -131 19 -131 -2 0 -23 9 -48 20 -82 36 -127 100 -97 136 11 14 10 19 -10 35 -13 11 -19 19 -13 19 5 0 15 -7 22 -15z m-376 -26 c-3 -5 -10 -7 -15 -3 -5 3 -7 10 -3 15 3 5 10 7 15 3 5 -3 7 -10 3 -15z m644 -22 c-2 -17 -10 -22 -33 -22 -35 0 -47 31 -20 51 25 18 57 0 53 -29z m450 26 c5 -17 -26 -29 -40 -15 -6 6 -7 15 -3 22 9 14 37 9 43 -7z m-1604 -24 c-3 -5 -10 -7 -15 -3 -5 3 -7 10 -3 15 3 5 10 7 15 3 5 -3 7 -10 3 -15z m2039 14 c-9 -3 -13 -26 -13 -64 0 -52 2 -59 20 -59 13 0 20 7 20 18 0 10 7 27 15 38 20 27 19 39 -7 52 -13 6 -17 11 -10 11 7 1 28 -14 48 -32 28 -25 36 -41 40 -77 2 -25 1 -39 -2 -32 -7 15 -74 16 -74 2 0 -13 29 -70 35 -70 2 0 11 12 19 28 8 15 15 22 16 17 0 -19 -31 -55 -60 -70 -16 -8 -48 -15 -71 -15 -35 0 -48 6 -80 39 -33 33 -39 45 -39 82 0 78 58 139 130 138 14 0 19 -3 13 -6z m-2432 -64 l-15 -27 -16 26 c-14 23 -14 28 -1 44 14 16 16 16 31 0 15 -15 15 -19 1 -43z m2627 32 c-2 -9 -11 -17 -21 -19 -21 -4 -35 27 -17 38 19 12 42 0 38 -19z m-2093 -3 c-4 -10 -1 -26 7 -35 11 -15 10 -16 -9 -11 -13 4 -26 1 -29 -4 -4 -7 -10 -4 -16 6 -5 9 -16 16 -24 16 -8 0 -12 5 -9 11 4 6 13 8 21 5 8 -3 13 -2 13 2 -3 20 3 27 26 28 21 2 25 -2 20 -18z m-287 -2 c15 -8 33 -25 40 -38 11 -19 21 -23 62 -23 40 0 55 -5 76 -26 23 -24 25 -30 15 -55 l-11 -29 5 29 c7 36 -16 63 -61 72 -58 11 -69 1 -92 -85 -12 -43 -22 -81 -22 -85 0 -3 12 -6 26 -6 31 0 99 -30 87 -39 -4 -3 -9 -13 -11 -21 -8 -36 21 12 43 71 30 80 31 69 4 -26 l-21 -73 -82 37 c-44 21 -114 50 -154 66 l-73 28 7 46 c3 25 10 64 15 86 7 35 8 32 4 -20 -2 -33 -1 -50 2 -37 2 12 7 20 11 18 4 -2 8 22 9 53 2 39 0 51 -7 41 -8 -13 -10 -13 -10 2 0 27 95 36 138 14z m592 -1 c16 -20 -3 -44 -137 -178 -109 -108 -109 -108 -128 -87 -18 20 -18 22 106 149 68 70 129 129 135 130 6 0 17 -6 24 -14z m1073 -6 c14 -6 29 -21 35 -33 5 -12 69 -62 141 -112 112 -77 153 -114 124 -114 -5 0 -69 41 -143 90 -74 49 -143 90 -152 90 -10 0 -33 16 -53 35 -35 35 -35 36 -12 45 30 12 32 12 60 -1z m251 -80 c-3 -5 -10 -7 -15 -3 -5 3 -7 10 -3 15 3 5 10 7 15 3 5 -3 7 -10 3 -15z m-1785 -12 c13 -6 25 -19 27 -28 2 -15 -1 -15 -36 0 -30 12 -35 17 -22 22 14 5 12 8 -8 11 -19 4 -20 6 -5 6 11 1 31 -4 44 -11z m241 -32 c0 -8 -4 -15 -10 -15 -5 0 -7 7 -4 15 4 8 8 15 10 15 2 0 4 -7 4 -15z m1179 -3 c48 -22 82 -58 74 -78 -7 -18 -23 -18 -75 3 -44 17 -78 40 -78 54 0 7 28 39 35 39 1 0 21 -8 44 -18z m831 8 c0 -5 -4 -10 -10 -10 -5 0 -10 5 -10 10 0 6 5 10 10 10 6 0 10 -4 10 -10z m-2266 -14 c19 -8 37 -20 42 -27 6 -12 5 -12 -8 -1 -8 7 -22 10 -29 7 -8 -3 -27 -1 -44 4 -29 9 -29 9 -5 11 23 1 23 2 5 10 -11 5 -14 9 -7 9 7 1 28 -5 46 -13z m214 -13 c-9 -2 -19 -15 -22 -29 -5 -17 -13 -24 -30 -24 -17 0 -26 -7 -29 -20 -4 -17 -4 -16 -3 2 1 16 8 24 24 26 13 2 27 14 32 28 6 14 17 24 27 23 16 -1 16 -2 1 -6z m932 -53 c5 0 12 5 15 10 9 15 52 12 69 -6 9 -9 16 -32 16 -54 0 -33 -4 -41 -32 -54 -30 -15 -30 -15 -15 1 10 12 13 28 10 46 -3 15 0 33 6 40 14 17 4 27 -27 27 -15 0 -26 -7 -29 -19 -2 -10 -16 -24 -29 -30 -13 -6 -24 -17 -24 -24 0 -17 29 -43 55 -50 19 -5 19 -5 -1 -6 -39 -2 -81 57 -53 75 8 5 6 10 -5 16 -22 12 -20 28 4 28 15 0 20 7 21 28 l2 27 4 -27 c2 -16 8 -28 13 -28z m-290 -4 c0 -3 -5 -8 -12 -12 -7 -4 -8 -3 -4 4 7 12 16 16 16 8z m1434 -85 c25 -46 46 -85 46 -87 0 -2 -91 -4 -202 -4 -147 0 -199 3 -191 11 11 11 297 169 299 166 1 -1 23 -40 48 -86z m-1844 60 c-5 -11 -8 -26 -5 -33 3 -7 -6 -18 -20 -25 -20 -9 -25 -8 -25 2 0 7 -10 16 -22 19 l-23 7 23 11 c12 6 22 15 22 20 0 5 4 6 10 3 5 -3 18 -1 27 4 24 14 25 14 13 -8z m427 2 c-4 -3 -7 0 -7 7 0 7 3 10 7 7 3 -4 3 -10 0 -14z m-157 -73 c0 -4 -22 -30 -48 -60 -36 -40 -53 -52 -66 -47 -10 4 -16 15 -14 24 4 21 48 31 48 11 0 -7 11 1 24 17 l24 30 -44 28 c-24 15 -48 27 -53 27 -5 0 -21 -16 -35 -35 -30 -39 -47 -45 -39 -15 4 14 0 20 -12 20 -12 0 -16 -6 -12 -20 3 -11 1 -18 -4 -14 -14 8 -10 34 6 40 8 4 21 1 29 -5 10 -9 21 -3 47 27 l34 39 58 -31 c31 -17 57 -33 57 -36z m7 53 c-4 -3 -7 0 -7 7 0 7 3 10 7 7 3 -4 3 -10 0 -14z m143 3 c0 -3 -4 -8 -10 -11 -5 -3 -10 -1 -10 4 0 6 5 11 10 11 6 0 10 -2 10 -4z m60 0 c0 -3 -5 -8 -12 -12 -7 -4 -8 -3 -4 4 7 12 16 16 16 8z m832 -22 c26 -19 58 -64 58 -81 0 -4 -9 7 -20 25 -32 52 -76 74 -138 69 -46 -3 -59 -9 -90 -41 -35 -34 -37 -40 -37 -100 0 -55 4 -68 25 -91 53 -57 128 -71 187 -35 42 25 63 58 73 117 l9 48 -3 -49 c-4 -54 -26 -89 -77 -124 -43 -30 -120 -27 -166 6 -90 64 -79 216 19 266 43 22 125 17 160 -10z m184 -48 l-13 -26 -17 26 c-17 24 -17 27 0 45 17 19 17 19 30 0 12 -16 12 -23 0 -45z m-1181 44 c3 -5 4 -10 1 -10 -3 0 -8 5 -11 10 -3 6 -4 10 -1 10 3 0 8 -4 11 -10z m72 3 c-4 -3 -10 -3 -14 0 -3 4 0 7 7 7 7 0 10 -3 7 -7z m60 0 c-4 -3 -10 -3 -14 0 -3 4 0 7 7 7 7 0 10 -3 7 -7z m-100 -10 c-4 -3 -10 -3 -14 0 -3 4 0 7 7 7 7 0 10 -3 7 -7z m959 -26 c88 -80 32 -216 -90 -217 -31 0 -45 7 -77 39 -33 33 -39 45 -39 81 0 78 51 129 128 130 34 0 49 -6 78 -33z m-322 -12 l28 -26 -31 -35 c-26 -30 -31 -43 -31 -89 0 -68 -7 -85 -35 -85 -47 0 -155 105 -155 151 0 22 20 29 79 29 39 0 52 5 74 28 15 15 27 33 27 40 0 19 15 14 44 -13z m-1729 -35 c-8 -9 -15 -23 -15 -31 0 -8 -8 0 -19 16 -17 27 -17 32 -3 48 14 16 16 16 34 0 16 -15 17 -18 3 -33z m495 -2 c33 -17 51 -35 68 -68 27 -55 28 -82 1 -136 -23 -48 -65 -79 -119 -88 -30 -5 -29 -3 9 9 54 18 97 57 112 103 23 70 -16 151 -86 178 -58 22 -106 12 -152 -29 -28 -26 -36 -42 -40 -79 -8 -65 3 -97 43 -135 20 -18 31 -33 26 -33 -16 0 -71 68 -78 96 -12 49 2 114 32 146 57 60 114 71 184 36z m121 9 c-1 -12 -15 -9 -19 4 -3 6 1 10 8 8 6 -3 11 -8 11 -12z m578 -4 c19 -13 28 -14 42 -5 28 18 34 14 10 -6 -22 -17 -22 -19 -9 -97 9 -50 18 -80 26 -79 7 1 37 2 68 3 l56 1 -5 78 -6 77 14 -80 c19 -111 19 -119 -2 -110 -35 15 -108 23 -118 13 -6 -6 -4 -7 8 -3 10 5 17 2 17 -5 0 -8 -9 -11 -25 -8 -14 3 -28 1 -31 -3 -3 -5 -41 -9 -85 -9 -73 0 -80 2 -88 23 -12 31 -23 98 -13 72 8 -17 10 -14 16 19 4 21 5 41 2 44 -3 3 -6 -3 -7 -14 0 -11 -5 -5 -10 14 -6 19 -16 32 -27 33 -11 0 -13 2 -4 6 7 3 24 16 37 29 29 29 98 33 134 7z m165 11 c9 -3 16 -13 16 -22 0 -14 -1 -14 -12 1 -7 9 -31 18 -53 20 l-40 4 37 1 c20 1 43 -1 52 -4z m-875 -42 c101 -54 85 -196 -26 -233 -39 -12 -46 -10 -33 11 6 9 10 10 10 3 0 -6 9 -9 20 -6 11 3 20 10 20 16 0 6 3 7 7 4 9 -9 44 23 37 34 -3 5 -1 9 4 9 16 0 24 33 10 42 -10 6 -10 8 0 8 17 0 15 25 -4 44 -8 9 -12 16 -8 16 4 0 -1 9 -11 20 -10 11 -22 17 -26 14 -5 -3 -9 -1 -9 4 0 16 -33 24 -42 10 -6 -10 -8 -10 -8 0 0 17 -25 15 -44 -4 -9 -8 -16 -12 -16 -8 0 4 -9 -1 -20 -11 -11 -10 -17 -22 -14 -26 3 -5 0 -9 -5 -9 -6 0 -12 -10 -12 -22 -1 -18 -2 -19 -6 -5 -10 39 64 107 117 107 14 0 41 -8 59 -18z m826 8 l-30 -8 34 -1 c44 -1 37 -7 -18 -14 -29 -4 -40 -2 -30 4 12 7 12 9 -1 10 -25 1 22 18 50 17 23 0 22 -1 -5 -8z m-584 -47 c51 -84 57 -143 17 -164 -15 -8 -18 -18 -15 -37 l6 -27 -11 27 c-7 16 -21 28 -38 31 -15 3 -31 16 -37 30 -12 26 -5 120 8 111 5 -3 9 2 9 11 0 21 18 55 29 55 5 0 19 -17 32 -37z m-581 -53 c0 -75 -5 -80 -46 -54 -23 15 -26 15 -43 0 -25 -23 -31 -20 -31 13 0 16 -6 32 -12 34 -8 3 -6 6 5 6 10 1 30 8 45 17 l27 16 -27 -24 c-16 -13 -28 -33 -28 -43 0 -16 5 -13 28 15 36 46 38 71 3 65 -19 -4 -17 -1 9 9 66 27 70 24 70 -54z m899 20 c0 -9 -4 -8 -9 5 -5 11 -9 27 -9 35 0 9 4 8 9 -5 5 -11 9 -27 9 -35z m299 33 c-15 -2 -42 -2 -60 0 -18 2 -6 4 27 4 33 0 48 -2 33 -4z m-892 -39 c-17 -24 -17 -27 1 -46 18 -21 18 -21 -7 -7 -14 8 -26 15 -28 15 -1 1 8 17 20 37 13 19 25 33 27 31 2 -2 -4 -15 -13 -30z m-446 11 c-19 -7 -29 -14 -21 -14 8 -1 12 -3 9 -6 -3 -3 -14 -2 -24 2 -16 6 -15 8 11 19 17 7 37 13 45 13 8 0 -1 -7 -20 -14z m1320 11 c0 -2 -15 -6 -34 -8 -19 -2 -32 0 -30 4 5 8 64 12 64 4z m1015 -6 c3 -5 4 -10 1 -10 -3 0 -8 5 -11 10 -3 6 -4 10 -1 10 3 0 8 -4 11 -10z m102 3 c-4 -3 -10 -3 -14 0 -3 4 0 7 7 7 7 0 10 -3 7 -7z m-175 -23 c7 -11 23 -20 35 -20 25 0 34 -18 22 -41 -6 -11 -4 -21 6 -29 21 -17 19 -37 -4 -50 -11 -5 -21 -20 -23 -32 -2 -17 -10 -23 -28 -24 -14 0 -36 -6 -49 -13 -20 -11 -26 -11 -35 0 -6 8 -24 20 -40 27 -23 10 -27 17 -23 40 3 17 -1 34 -11 45 -16 18 -15 20 6 37 12 10 22 25 22 33 0 25 29 42 50 29 14 -9 19 -8 24 3 8 21 34 18 48 -5z m105 3 c-4 -3 -10 -3 -14 0 -3 4 0 7 7 7 7 0 10 -3 7 -7z m-2133 -22 c16 -18 16 -19 -13 -29 -29 -10 -31 -9 -30 11 0 12 3 16 6 10 5 -13 33 -18 33 -7 0 4 -8 13 -17 20 -10 7 -13 14 -7 14 6 0 19 -8 28 -19z m79 -32 c-3 -12 -2 -24 3 -28 5 -3 14 -15 21 -26 6 -11 16 -19 22 -17 6 1 11 -2 11 -7 0 -5 8 -12 18 -14 15 -4 15 -5 -1 -6 -28 -2 -87 62 -87 93 0 14 4 26 9 26 5 0 7 -9 4 -21z m589 9 c14 14 48 16 48 3 0 -5 7 -17 16 -25 8 -9 11 -16 5 -16 -6 0 -11 -7 -11 -15 0 -8 2 -15 4 -15 2 0 12 -3 22 -7 14 -5 16 -2 12 20 -3 15 -1 27 4 27 5 0 8 -13 6 -29 -1 -16 3 -36 11 -45 16 -19 8 -46 -13 -46 -9 0 -16 -11 -18 -27 -2 -24 -8 -28 -33 -28 -16 -1 -38 -5 -48 -9 -12 -6 -24 -3 -35 7 -9 8 -28 18 -41 22 -19 6 -22 12 -17 35 3 18 0 33 -9 40 -21 17 -19 38 5 45 13 4 20 15 20 30 0 29 29 48 48 33 9 -8 16 -8 24 0z m1695 5 c-4 -3 -10 -3 -14 0 -3 4 0 7 7 7 7 0 10 -3 7 -7z m-56 -75 c66 -59 79 -76 77 -97 -2 -18 -10 -27 -25 -29 -30 -4 -176 129 -184 169 -6 27 -4 29 23 29 23 0 48 -17 109 -72z m-1001 22 c0 -6 -39 -70 -87 -143 -47 -72 -87 -143 -89 -156 -3 -30 -28 -56 -44 -46 -8 5 -5 14 10 30 13 14 17 25 11 29 -16 10 -46 -41 -33 -57 7 -8 7 -18 1 -27 -8 -13 -10 -13 -19 0 -20 31 2 100 33 100 7 0 54 63 105 140 83 126 112 160 112 130z m214 4 c20 -8 21 -40 1 -48 -8 -3 -21 1 -28 9 -13 12 -18 10 -37 -10 -13 -14 -22 -26 -19 -28 2 -1 21 -17 42 -35 l38 -32 43 35 c45 37 76 39 76 5 0 -23 -26 -33 -42 -16 -11 12 -20 8 -56 -21 l-42 -35 -51 43 -51 43 53 48 c30 26 55 48 56 48 1 0 8 -3 17 -6z m-1754 -38 c0 -3 -5 -8 -12 -12 -7 -4 -8 -3 -4 4 7 12 16 16 16 8z m-95 -45 c-3 -6 -10 -9 -14 -7 -3 3 -7 -4 -7 -14 0 -10 4 -17 7 -14 4 2 10 0 13 -5 11 -17 -47 -19 -65 -2 -18 16 -18 18 0 33 17 14 60 28 70 22 1 -2 0 -8 -4 -13z m2513 -10 c6 -37 -26 -52 -52 -25 -12 12 -13 20 -5 35 15 28 53 21 57 -10z m-2021 3 c-3 -3 -12 -4 -19 -1 -8 3 -5 6 6 6 11 1 17 -2 13 -5z m951 -22 c2 -14 -2 -22 -12 -22 -19 0 -29 17 -22 36 8 22 30 12 34 -14z m-748 -112 c13 0 20 7 20 18 0 10 7 28 16 40 18 27 7 48 -29 55 l-22 4 22 2 c30 2 79 -43 93 -84 23 -69 -19 -146 -91 -165 -33 -9 -47 -8 -83 9 -51 22 -76 61 -76 116 0 66 33 107 99 125 26 6 26 6 29 -57 3 -55 5 -63 22 -63z m643 104 c-4 -10 -9 -12 -15 -6 -12 12 -1 35 12 27 5 -3 6 -13 3 -21z m-1053 6 c13 -7 21 -7 25 0 11 18 25 10 25 -14 0 -19 6 -26 28 -29 26 -4 26 -4 -4 -6 -28 -1 -30 -3 -26 -31 6 -43 -12 -60 -65 -60 -33 0 -45 4 -49 18 -3 9 -10 25 -15 34 -13 26 -12 33 17 67 28 34 36 36 64 21z m1367 -7 c-4 -3 -7 0 -7 7 0 7 3 10 7 7 3 -4 3 -10 0 -14z m519 -18 c4 -14 5 -27 3 -29 -2 -1 -78 -32 -169 -69 -153 -63 -166 -66 -178 -50 -7 9 -11 22 -9 27 3 8 319 144 339 146 4 0 10 -11 14 -25z m-921 -15 c22 -24 11 -27 -13 -4 -12 12 -17 13 -20 4 -3 -7 2 -16 9 -21 11 -7 10 -9 -3 -9 -13 0 -18 8 -18 25 0 30 20 33 45 5z m-1168 -7 c-4 -3 -7 0 -7 7 0 7 3 10 7 7 3 -4 3 -10 0 -14z m1560 0 c-4 -3 -7 0 -7 7 0 7 3 10 7 7 3 -4 3 -10 0 -14z m-219 -46 c-2 -17 -10 -22 -33 -22 -35 0 -47 31 -20 51 25 18 57 0 53 -29z m878 12 c7 -13 -13 -29 -37 -29 -12 0 -14 7 -11 30 4 25 7 28 23 20 10 -6 21 -15 25 -21z m-2209 4 c-4 -3 -7 0 -7 7 0 7 3 10 7 7 3 -4 3 -10 0 -14z m1543 13 c0 -3 -5 -8 -12 -12 -7 -4 -8 -3 -4 4 7 12 16 16 16 8z m950 -6 c0 -5 -4 -10 -10 -10 -5 0 -10 5 -10 10 0 6 5 10 10 10 6 0 10 -4 10 -10z m171 -46 c6 -7 0 -16 -17 -25 -14 -7 -37 -26 -50 -42 -13 -16 -24 -24 -24 -19 0 6 19 27 42 46 37 32 39 36 19 36 -13 0 -38 -15 -57 -34 -19 -19 -34 -31 -34 -26 0 14 53 60 77 66 14 4 23 14 24 28 1 20 2 20 6 1 3 -11 9 -25 14 -31z m-1154 29 c-4 -3 -10 -3 -14 0 -3 4 0 7 7 7 7 0 10 -3 7 -7z m933 -15 c0 -10 6 -18 14 -18 8 0 17 -4 20 -9 3 -4 -6 -6 -20 -3 -24 4 -25 3 -19 -30 8 -44 -13 -68 -59 -68 -43 0 -63 17 -71 60 -5 27 -2 42 15 62 18 23 28 27 70 26 41 -1 50 -5 50 -20z m-960 8 c0 -3 -5 -8 -12 -12 -7 -4 -8 -3 -4 4 7 12 16 16 16 8z m-578 -57 c52 -44 59 -72 26 -93 -33 -20 -124 90 -103 124 11 17 26 11 77 -31z m558 27 c0 -3 -5 -8 -12 -12 -7 -4 -8 -3 -4 4 7 12 16 16 16 8z m-1443 -23 c-4 -3 -7 0 -7 7 0 7 3 10 7 7 3 -4 3 -10 0 -14z m2621 -24 c-16 -11 -28 -25 -28 -31 0 -6 10 -3 22 8 20 18 20 17 -2 -13 -27 -37 -32 -41 -23 -16 4 11 3 14 -5 9 -7 -4 -12 -3 -12 3 0 10 57 61 68 61 4 0 -5 -10 -20 -21z m-1191 -6 c-4 -3 -7 0 -7 7 0 7 3 10 7 7 3 -4 3 -10 0 -14z m717 3 c39 -16 76 -61 75 -90 -1 -17 -2 -17 -6 -3 -6 22 -13 22 -67 -5 -46 -22 -53 -47 -12 -49 17 0 18 -2 4 -7 -15 -7 -15 -9 1 -40 l18 -34 27 33 28 32 -29 14 c-22 10 -23 12 -4 7 14 -4 27 -1 32 7 16 25 10 -19 -6 -51 -39 -76 -170 -80 -217 -8 -9 13 -18 39 -22 58 l-6 35 11 -30 c7 -16 13 -31 14 -33 2 -2 27 9 55 23 63 32 55 50 -20 46 -38 -2 -50 1 -50 12 0 23 41 68 74 83 40 17 59 17 100 0z m-1024 -4 c0 -13 -12 -22 -22 -16 -10 6 -1 24 13 24 5 0 9 -4 9 -8z m516 -13 c71 -34 104 -112 81 -191 -6 -24 -4 -28 13 -28 12 0 30 5 42 11 47 25 33 -22 -26 -85 -23 -25 -47 -46 -52 -46 -6 0 -8 15 -6 34 5 39 -9 52 -37 34 -26 -16 -39 -3 -22 24 12 19 11 20 -6 13 -10 -5 -35 -10 -55 -13 -33 -3 -43 1 -73 31 -28 28 -35 43 -35 74 0 22 7 48 15 59 19 25 19 32 -2 30 -34 -2 -18 29 27 52 55 27 82 28 136 1z m-1356 1 c-34 -11 -60 -11 -35 0 11 5 29 8 40 8 16 0 15 -2 -5 -8z m784 1 c7 -11 -3 -41 -14 -41 -11 0 -21 30 -14 41 3 5 9 9 14 9 5 0 11 -4 14 -9z m782 -26 c-5 -14 -9 -15 -21 -5 -12 10 -13 16 -4 27 15 18 34 1 25 -22z m-1486 10 c53 -27 75 -71 75 -150 0 -64 2 -70 20 -67 15 2 17 1 6 -6 -7 -5 -21 -7 -31 -5 -24 6 -35 -14 -18 -35 12 -15 11 -16 -4 -4 -14 11 -21 11 -42 -3 -24 -16 -26 -16 -33 1 -4 10 -2 19 5 22 7 2 12 8 12 13 0 6 -8 6 -19 -1 -29 -15 -83 -12 -109 6 -25 17 -52 64 -52 91 0 10 7 31 15 47 19 35 19 33 -7 39 l-22 6 24 26 c13 14 28 25 34 24 6 0 1 -7 -11 -16 -37 -25 -26 -35 14 -13 45 24 72 25 118 6 90 -38 101 -160 20 -228 -16 -14 -17 -17 -4 -18 20 0 55 37 68 73 28 73 0 148 -69 184 -24 13 -38 23 -31 23 7 0 25 -7 41 -15z m1067 -2 c-4 -3 -7 0 -7 7 0 7 3 10 7 7 3 -4 3 -10 0 -14z m-1427 3 c0 -3 -5 -8 -12 -12 -7 -4 -8 -3 -4 4 7 12 16 16 16 8z m1410 -20 c0 -3 -5 -8 -12 -12 -7 -4 -8 -3 -4 4 7 12 16 16 16 8z m-1433 -13 c-4 -3 -10 -3 -14 0 -3 4 0 7 7 7 7 0 10 -3 7 -7z m104 -16 c-1 -12 -15 -9 -19 4 -3 6 1 10 8 8 6 -3 11 -8 11 -12z m682 -199 c-6 -11 -33 -10 -33 0 0 4 -16 14 -36 21 -30 11 -38 11 -45 0 -20 -31 -10 -41 34 -35 31 4 35 3 17 -3 -14 -5 -37 -9 -52 -10 -25 -1 -26 0 -15 34 9 31 8 36 -13 53 l-24 20 31 6 c27 6 31 12 37 48 l7 42 48 -85 c27 -46 47 -87 44 -91z m502 148 c18 -13 14 -20 -72 -112 -149 -161 -170 -179 -188 -164 -8 7 -15 17 -15 22 0 10 241 268 251 268 3 0 14 -6 24 -14z m635 -15 c0 -6 -4 -13 -10 -16 -5 -3 -10 1 -10 9 0 9 5 16 10 16 6 0 10 -4 10 -9z m-928 -41 l88 -23 -89 -96 c-112 -121 -189 -196 -195 -190 -9 9 88 340 98 336 6 -2 50 -14 98 -27z m1572 -11 c-8 -17 -11 -28 -6 -25 6 4 13 2 17 -4 3 -5 -2 -10 -12 -10 -11 0 -24 -5 -31 -12 -9 -9 -12 -8 -12 4 0 9 -7 19 -16 22 -15 6 -15 8 2 25 10 10 22 17 26 14 5 -2 16 1 25 6 25 15 25 14 7 -20z m-2718 10 c10 -17 -23 -46 -37 -32 -7 7 -9 19 -6 27 7 18 33 21 43 5z m255 -38 c14 -33 30 -53 47 -60 15 -6 41 -22 57 -35 l30 -24 -20 -22 c-43 -48 -164 -82 -200 -56 -20 14 -20 15 8 70 29 60 28 62 -11 139 -3 5 47 33 65 37 1 0 12 -22 24 -49z m2328 0 c28 -30 61 -115 61 -157 0 -35 -25 -40 -85 -19 -45 15 -57 16 -89 4 -20 -7 -36 -17 -36 -21 0 -4 -5 -8 -11 -8 -6 0 -8 7 -5 16 3 8 2 13 -3 10 -9 -6 -21 16 -21 38 0 7 18 21 41 31 32 15 46 30 70 77 16 32 34 58 40 58 6 0 23 -13 38 -29z m-2515 -2 c-3 -5 -10 -7 -15 -3 -5 3 -7 10 -3 15 3 5 10 7 15 3 5 -3 7 -10 3 -15z m2057 -37 c-14 -5 -15 -142 -1 -142 6 0 10 -4 10 -10 0 -5 -16 -10 -35 -10 -19 0 -35 -5 -35 -11 0 -8 12 -10 34 -6 32 5 34 4 27 -16 -10 -26 -36 -34 -56 -17 -23 19 -21 212 2 247 l17 25 24 -28 c15 -17 20 -30 13 -32z m-1431 33 c0 -18 -34 -66 -74 -105 l-46 -44 1 34 c1 30 2 32 8 11 6 -24 8 -23 49 24 44 50 51 65 30 65 -9 0 -8 4 2 10 17 11 30 13 30 5z m835 -53 c3 -35 12 -52 49 -92 49 -52 51 -70 11 -88 -63 -29 -191 -20 -202 14 -2 6 13 33 33 59 33 43 36 53 32 96 -5 53 0 59 46 56 26 -2 28 -6 31 -45z m-1519 1 c-10 -10 -19 5 -10 18 6 11 8 11 12 0 2 -7 1 -15 -2 -18z m2288 -105 c8 -14 7 -21 -6 -34 -30 -30 -75 9 -48 42 16 18 39 15 54 -8z m-1557 -35 c-4 -3 -7 0 -7 7 0 7 3 10 7 7 3 -4 3 -10 0 -14z m588 7 c3 -5 2 -17 -3 -26 -8 -14 -10 -14 -21 0 -13 15 -8 36 9 36 5 0 12 -4 15 -10z m560 -55 l70 -64 -87 -88 -88 -88 -72 73 -73 72 80 80 c44 44 84 80 90 80 5 0 42 -29 80 -65z m-1148 18 c-4 -3 -7 0 -7 7 0 7 3 10 7 7 3 -4 3 -10 0 -14z m497 -44 c-8 -8 -14 -22 -14 -30 0 -8 -8 0 -19 16 -17 27 -17 32 -3 48 14 16 16 16 32 0 15 -15 16 -20 4 -34z m1263 24 c-4 -3 -7 0 -7 7 0 7 3 10 7 7 3 -4 3 -10 0 -14z m-1987 -3 c11 -8 9 -9 -11 -5 -22 6 -30 -1 -63 -50 -27 -41 -34 -60 -27 -69 6 -7 8 -16 4 -19 -9 -10 125 -70 138 -62 8 6 8 10 -1 15 -9 6 -7 11 9 19 11 7 21 17 21 23 0 7 -5 6 -15 -2 -22 -18 -18 -2 6 28 l21 27 -6 -25 c-7 -24 -6 -24 8 -6 27 34 17 5 -11 -32 -14 -19 -20 -33 -12 -30 8 2 24 19 37 38 12 18 22 27 22 20 0 -7 -18 -30 -40 -52 -31 -29 -37 -38 -23 -39 11 0 13 -3 6 -6 -7 -2 -13 -20 -13 -40 0 -27 -8 -43 -34 -69 l-35 -35 -100 51 c-56 27 -101 54 -101 60 0 5 29 51 65 101 36 51 75 110 87 131 22 38 41 46 68 28z m2077 -17 c-4 -3 -7 0 -7 7 0 7 3 10 7 7 3 -4 3 -10 0 -14z m-1980 -17 c47 -16 51 -20 55 -54 3 -20 1 -48 -4 -62 -11 -29 -47 -70 -62 -70 -6 0 0 7 13 16 20 15 57 81 49 89 -2 1 -40 21 -85 44 l-81 40 -10 -27 c-14 -40 -47 -76 -61 -68 -8 5 -4 16 14 38 14 16 28 40 31 53 5 21 11 23 48 21 23 -2 65 -11 93 -20z m-557 -28 c0 -10 -49 -22 -57 -14 -4 3 3 6 15 6 22 0 30 14 13 24 -5 4 -12 0 -14 -6 -3 -7 -6 -3 -6 10 -1 23 -1 23 24 5 13 -10 25 -21 25 -25z m776 15 c-10 -10 -19 5 -10 18 6 11 8 11 12 0 2 -7 1 -15 -2 -18z m31 10 c-4 -3 -7 0 -7 7 0 7 3 10 7 7 3 -4 3 -10 0 -14z m1518 7 c3 -5 4 -10 1 -10 -3 0 -8 5 -11 10 -3 6 -4 10 -1 10 3 0 8 -4 11 -10z m135 0 c0 -5 -4 -10 -10 -10 -5 0 -10 5 -10 10 0 6 5 10 10 10 6 0 10 -4 10 -10z m57 -7 c-4 -3 -10 -3 -14 0 -3 4 0 7 7 7 7 0 10 -3 7 -7z m-1456 -23 c24 -11 40 -20 35 -20 -4 0 2 -8 15 -18 29 -24 20 -57 -14 -48 -92 23 -136 63 -105 94 16 16 18 15 69 -8z m1369 16 c0 -3 -5 -8 -12 -12 -7 -4 -8 -3 -4 4 7 12 16 16 16 8z m57 -3 c-4 -3 -10 -3 -14 0 -3 4 0 7 7 7 7 0 10 -3 7 -7z m-2341 -89 c25 -47 45 -87 43 -88 -2 -2 -34 -10 -71 -18 -74 -16 -79 -13 -58 37 5 14 2 26 -12 41 -19 21 -19 22 6 28 21 5 27 14 32 46 4 22 8 40 10 40 2 0 24 -38 50 -86z m2246 79 c-24 -9 -1 -22 31 -16 25 4 37 0 56 -21 14 -14 21 -26 17 -26 -4 0 -1 -10 6 -22 15 -29 21 -118 8 -118 -11 0 -61 26 -101 53 -38 25 -56 73 -39 100 11 18 10 23 -8 37 -20 17 -20 17 11 17 18 1 26 -1 19 -4z m-2118 -18 c-4 -8 -11 -12 -18 -8 -6 4 -3 -5 7 -20 9 -15 13 -27 7 -27 -5 0 -10 6 -10 13 -1 7 -6 4 -15 -6 -13 -18 -14 -18 -33 1 -19 19 -19 20 -2 35 16 13 36 22 62 26 4 0 5 -6 2 -14z m511 5 c3 -5 1 -10 -4 -10 -6 0 -11 5 -11 10 0 6 2 10 4 10 3 0 8 -4 11 -10z m556 0 c10 -6 19 -17 19 -25 0 -8 63 -58 140 -111 77 -54 140 -101 140 -106 0 -20 -36 -2 -159 82 -73 50 -140 90 -149 90 -24 0 -86 67 -70 73 22 9 59 7 79 -3z m876 -21 l54 -31 -44 -51 c-48 -56 -73 -68 -83 -42 -10 24 12 42 34 29 13 -9 20 -6 34 12 10 12 18 24 18 27 0 3 -21 17 -47 32 l-46 28 -37 -43 c-39 -45 -70 -50 -70 -11 0 27 17 36 37 19 14 -11 20 -8 47 24 17 21 35 38 40 38 5 0 33 -14 63 -31z m-1349 -62 l53 -33 -43 -50 c-23 -27 -47 -52 -52 -56 -15 -10 -36 3 -36 22 0 25 15 33 39 20 17 -9 23 -6 37 15 9 14 15 27 13 29 -2 1 -24 15 -48 29 l-44 26 -37 -41 c-39 -44 -70 -48 -70 -8 0 21 33 29 45 10 3 -5 22 9 42 30 19 22 38 40 42 40 3 0 30 -15 59 -33z m1121 -41 c17 -20 -41 -136 -68 -136 -38 0 -44 25 -20 79 12 28 25 49 29 46 4 -3 10 2 14 10 7 19 30 19 45 1z m-759 -16 c0 -5 -4 -10 -10 -10 -5 0 -10 5 -10 10 0 6 5 10 10 10 6 0 10 -4 10 -10z m48 -32 c30 -30 -1 -73 -36 -51 -23 14 -25 29 -7 47 20 19 27 20 43 4z m-206 -16 c7 -10 26 -22 42 -26 24 -6 27 -11 23 -33 -3 -15 1 -37 9 -48 17 -27 7 -39 -45 -52 -39 -10 -50 -27 -24 -37 11 -5 22 -1 30 10 7 10 13 13 13 7 0 -21 -28 -35 -48 -24 -15 8 -21 7 -26 -4 -6 -17 -46 -21 -46 -5 0 5 -16 16 -35 24 -19 8 -35 21 -35 28 0 10 2 10 9 -1 11 -18 41 -7 41 15 0 11 -6 15 -20 11 -11 -3 -18 -2 -15 3 3 4 -2 13 -10 20 -21 17 -19 37 5 50 11 6 20 21 20 34 0 27 26 42 45 26 9 -7 16 -6 25 5 16 20 26 19 42 -3z m1646 -15 c2 -11 -3 -17 -17 -17 -23 0 -35 15 -26 31 10 15 39 6 43 -14z m-98 -7 c0 -5 -4 -10 -10 -10 -5 0 -10 5 -10 10 0 6 5 10 10 10 6 0 10 -4 10 -10z m-1257 -20 c7 0 4 -5 -6 -11 -9 -5 -22 -7 -29 -3 -7 4 -8 3 -4 -4 4 -7 1 -12 -6 -13 -10 0 -10 -2 1 -6 11 -5 11 -7 0 -14 -12 -7 -11 -9 1 -9 13 0 13 -2 1 -9 -20 -13 -22 -38 -5 -45 8 -3 14 1 14 9 0 7 4 25 9 38 9 24 12 25 50 15 23 -6 41 -13 41 -17 0 -4 -28 -33 -61 -66 l-61 -60 6 39 c5 27 4 37 -4 34 -6 -2 -11 -7 -10 -12 1 -5 -4 -13 -12 -17 -10 -7 -10 -9 2 -9 13 0 13 -1 0 -10 -17 -11 -20 -32 -5 -42 6 -5 2 -8 -9 -8 -11 0 -16 -3 -13 -7 4 -3 2 -12 -3 -18 -8 -9 -6 -15 6 -19 13 -5 43 20 116 98 54 58 99 109 99 113 0 4 -23 15 -53 25 -29 9 -48 16 -42 17 12 1 117 -29 124 -35 5 -5 -271 -284 -281 -284 -5 0 69 284 86 327 3 9 12 13 21 9 9 -3 21 -6 27 -6z m1025 -5 c57 -17 66 -31 27 -41 -41 -10 -49 -29 -19 -49 24 -15 25 -19 11 -32 -14 -14 -13 -20 5 -55 18 -35 19 -44 9 -79 -15 -48 -58 -79 -116 -80 -22 0 -34 -3 -27 -6 19 -8 14 -33 -7 -33 -11 0 -33 12 -51 26 -103 87 -70 236 61 276 22 6 39 16 39 21 0 6 -15 23 -32 38 l-33 28 41 1 c22 0 64 -7 92 -15z m-295 -41 c-4 -10 -9 -12 -15 -6 -12 12 -1 35 12 27 5 -3 6 -13 3 -21z m-1796 -76 c40 -40 73 -80 73 -88 0 -9 -29 -45 -65 -80 l-66 -65 -87 89 -87 88 75 68 c41 38 77 66 80 64 3 -2 38 -37 77 -76z m348 29 c17 1 17 1 2 -3 -17 -5 -16 -8 6 -37 50 -66 77 -110 71 -118 -3 -5 0 -9 7 -9 7 0 9 9 5 28 -4 15 -7 37 -7 48 0 12 -6 27 -14 34 -8 7 -13 16 -10 20 3 5 -5 16 -17 24 -18 13 -19 16 -5 16 10 0 25 -18 38 -42 22 -45 36 -138 20 -138 -23 0 -94 40 -121 68 -31 33 -37 56 -20 82 6 10 4 21 -8 34 -16 18 -16 18 8 5 14 -7 34 -12 45 -12z m1183 -4 c-2 -10 -10 -18 -18 -18 -8 0 -16 8 -18 18 -2 12 3 17 18 17 15 0 20 -5 18 -17z m859 -13 c3 -13 14 -20 29 -20 29 0 38 -14 24 -40 -9 -16 -8 -22 5 -26 22 -9 19 -45 -4 -51 -12 -3 -21 -15 -23 -32 -2 -20 -8 -26 -28 -26 -14 0 -35 -6 -47 -13 -20 -11 -24 -10 -35 8 -7 11 -18 20 -25 20 -7 0 -13 5 -13 10 0 6 4 10 9 10 5 0 9 13 9 29 -1 28 -1 29 -21 11 -11 -11 -17 -25 -13 -35 3 -10 2 -14 -5 -9 -6 3 -8 15 -5 26 2 11 -2 31 -10 43 -12 18 -12 24 -2 33 18 14 80 30 98 24 13 -5 13 -4 0 9 -25 25 -49 30 -59 11 -6 -9 -11 -12 -11 -6 0 19 28 36 49 29 10 -3 22 -1 26 5 11 18 47 11 52 -10z m-1033 -21 c-3 -5 -10 -7 -15 -3 -5 3 -7 10 -3 15 3 5 10 7 15 3 5 -3 7 -10 3 -15z m359 7 c18 -7 45 -28 61 -45 40 -42 48 -129 17 -179 -61 -96 -217 -97 -267 0 -9 16 -13 32 -11 35 3 2 8 -5 12 -16 3 -11 22 -34 41 -50 29 -26 43 -31 87 -31 99 0 153 59 145 157 -7 79 -51 120 -148 136 -24 4 -24 4 3 6 15 0 42 -5 60 -13z m-121 -13 c-44 -21 -72 -63 -82 -121 -6 -39 -8 -42 -9 -14 0 18 5 47 13 66 15 35 71 86 96 86 8 0 0 -8 -18 -17z m118 -18 c47 -25 70 -62 70 -116 0 -42 -5 -53 -35 -84 -32 -31 -86 -51 -70 -25 4 6 11 8 16 5 5 -4 19 1 31 9 12 9 19 16 14 16 -4 0 2 9 15 20 21 17 22 21 9 30 -10 7 -11 10 -2 10 8 0 12 12 10 33 -2 41 -16 69 -30 61 -7 -4 -8 -3 -4 4 8 13 -30 36 -44 27 -6 -3 -10 -1 -10 4 0 6 -11 11 -25 11 -14 0 -25 -5 -25 -11 0 -5 -5 -7 -11 -4 -16 10 -72 -51 -65 -70 3 -9 2 -13 -4 -10 -6 3 -10 -5 -10 -19 0 -14 4 -26 10 -26 5 0 7 -7 4 -15 -8 -19 14 -47 29 -38 6 3 7 1 3 -5 -7 -12 30 -36 44 -27 5 3 11 1 15 -5 15 -24 -38 -7 -71 23 -28 26 -37 42 -41 77 -10 98 91 170 177 125z m-501 -38 c-10 -18 -13 -18 -20 -4 -13 23 0 51 17 36 10 -8 11 -16 3 -32z m-1013 -40 c-10 -16 -12 -16 -23 0 -17 22 2 49 22 30 9 -9 9 -16 1 -30z m1104 -7 c5 0 12 5 15 10 3 6 17 10 30 10 51 0 78 -100 33 -120 -13 -6 -30 -15 -39 -22 -13 -9 -23 -7 -50 9 -28 16 -34 25 -33 51 1 18 -2 32 -7 32 -5 0 -9 7 -9 15 0 8 9 15 20 15 15 0 20 7 21 28 l2 27 4 -27 c2 -16 8 -28 13 -28z m-1557 19 c15 -24 1 -49 -27 -49 -29 0 -44 33 -25 56 15 18 38 15 52 -7z m1932 -27 c19 11 19 10 5 -8 -8 -10 -15 -20 -16 -22 -2 -4 -64 59 -64 66 0 3 12 -6 28 -20 22 -22 30 -25 47 -16z m-1015 24 c0 -3 -5 -8 -12 -12 -7 -4 -8 -3 -4 4 7 12 16 16 16 8z m480 -36 c-12 -8 -12 -10 3 -16 9 -3 14 -10 11 -15 -8 -13 -24 -11 -21 2 1 6 -4 14 -12 17 -10 3 -13 -1 -8 -17 3 -11 1 -21 -5 -21 -5 0 -8 12 -6 28 2 15 8 26 16 25 6 -2 12 5 12 14 0 14 3 14 12 5 10 -10 10 -15 -2 -22z m-1466 -60 c33 -5 64 -14 70 -20 29 -29 -88 -149 -151 -153 l-28 -2 -3 72 c-3 66 -5 74 -32 97 -37 30 -37 39 -5 65 l26 20 32 -35 c26 -28 43 -36 91 -44z m963 63 c-4 -3 -10 -3 -14 0 -3 4 0 7 7 7 7 0 10 -3 7 -7z m-30 -20 c-4 -3 -10 -3 -14 0 -3 4 0 7 7 7 7 0 10 -3 7 -7z m-70 -10 c-4 -3 -10 -3 -14 0 -3 4 0 7 7 7 7 0 10 -3 7 -7z m40 0 c-4 -3 -10 -3 -14 0 -3 4 0 7 7 7 7 0 10 -3 7 -7z m-70 -20 c-4 -3 -10 -3 -14 0 -3 4 0 7 7 7 7 0 10 -3 7 -7z m202 -27 l23 -25 -31 -33 c-28 -29 -31 -40 -31 -94 0 -73 -13 -90 -56 -74 -57 22 -143 123 -131 154 3 8 32 16 68 20 63 6 93 23 104 57 8 26 27 24 54 -5z m-219 10 c0 -3 -5 -8 -12 -12 -7 -4 -8 -3 -4 4 7 12 16 16 16 8z m1965 -16 c17 -18 16 -19 -9 -26 -33 -8 -37 -4 -29 24 7 27 15 28 38 2z m-2285 -40 c22 14 47 12 64 -6 19 -18 21 -87 4 -101 -20 -15 -50 -24 -43 -13 3 6 12 10 19 10 7 0 13 16 14 37 2 21 5 39 7 42 9 8 -17 31 -36 31 -10 0 -24 -8 -31 -18 -7 -10 -21 -21 -31 -25 -9 -4 -20 -14 -23 -22 -7 -17 22 -55 42 -55 7 0 16 -4 19 -10 10 -16 -28 1 -53 24 -17 15 -21 27 -17 47 4 15 1 30 -4 34 -19 11 -12 25 14 25 20 0 25 5 26 28 2 26 2 25 8 -5 5 -26 9 -30 21 -23z m988 -31 c-6 -75 -15 -93 -41 -83 -18 7 -23 29 -8 38 5 3 8 -2 7 -11 0 -9 5 -18 13 -21 10 -3 12 1 8 17 -3 11 -1 21 4 21 5 0 9 16 9 36 l0 35 -47 -6 c-71 -10 -73 -11 -73 -54 0 -22 -3 -46 -6 -55 -8 -21 -40 -21 -48 0 -8 21 1 34 23 34 15 0 20 11 26 55 l6 55 42 -2 42 -1 -37 -4 c-41 -5 -53 -23 -14 -23 64 0 110 22 69 33 -13 3 -11 5 6 6 23 1 24 0 19 -70z m-751 34 c-4 -3 -10 -3 -14 0 -3 4 0 7 7 7 7 0 10 -3 7 -7z m1873 -12 c0 -13 -8 -21 -22 -23 -15 -2 -19 -6 -11 -11 6 -4 24 4 41 18 16 14 39 25 50 25 49 0 73 -101 30 -120 -13 -6 -30 -15 -39 -22 -27 -19 -84 20 -83 58 0 16 -7 36 -15 44 -13 13 -12 15 12 18 15 2 27 10 27 18 0 8 2 14 5 14 3 0 5 -9 5 -19z m-2312 -34 c-2 -17 -10 -22 -33 -22 -35 0 -47 31 -20 51 25 18 57 0 53 -29z m469 36 c-4 -3 -10 -3 -14 0 -3 4 0 7 7 7 7 0 10 -3 7 -7z m1087 -152 c41 -81 82 -151 90 -154 9 -4 16 -18 16 -32 0 -15 5 -35 10 -46 9 -16 7 -19 -8 -19 -33 0 -72 39 -70 68 1 15 -28 90 -65 171 -70 150 -74 161 -57 161 5 0 43 -67 84 -149z m335 115 l23 -25 -31 -33 c-28 -30 -31 -39 -31 -95 0 -34 -4 -64 -9 -67 -4 -3 -6 7 -5 22 l4 27 -11 -27 c-6 -16 -15 -28 -20 -28 -36 0 -129 84 -144 130 -10 31 2 39 74 46 57 6 65 10 84 40 26 40 36 42 66 10z m-1038 -17 c41 -17 78 -35 83 -39 9 -9 -69 -110 -84 -110 -4 0 -13 14 -19 30 -7 23 -16 30 -35 30 -29 0 -32 7 -11 34 13 17 12 23 -6 53 -11 18 -16 33 -11 33 6 0 43 -14 83 -31z m529 6 c36 -19 63 -52 57 -70 -9 -21 -27 -19 -92 9 -56 25 -69 48 -43 74 12 12 35 9 78 -13z m-916 -57 c8 -49 28 -64 40 -31 5 11 1 22 -10 30 -10 7 -13 13 -7 13 21 0 35 -28 24 -48 -8 -15 -7 -21 4 -26 22 -8 19 -47 -5 -53 -13 -3 -20 -14 -20 -29 0 -29 -14 -38 -39 -25 -14 8 -22 7 -31 -4 -15 -18 -36 -19 -47 -2 -4 7 -21 18 -37 25 -22 10 -27 17 -23 34 3 11 -1 31 -9 43 -14 21 -13 24 8 39 12 9 32 16 44 16 28 0 39 26 13 33 -11 3 -23 -1 -29 -11 -5 -10 -10 -12 -10 -5 0 13 27 43 40 43 5 0 10 -5 12 -12 3 -8 11 -7 28 5 29 20 46 9 54 -35z m-500 1 c25 -22 46 -46 46 -52 0 -6 -7 -2 -15 9 -12 16 -14 16 -9 2 4 -13 -1 -21 -17 -27 -21 -8 -22 -10 -6 -16 9 -4 24 -2 32 5 9 8 15 8 15 2 0 -6 -9 -14 -21 -17 -16 -5 -30 1 -55 26 -18 18 -32 35 -29 38 3 2 -2 13 -11 23 -14 14 -14 20 -4 33 18 21 22 20 74 -26z m2126 30 c0 -6 -6 -9 -13 -6 -7 3 -27 -1 -44 -8 l-31 -13 22 -46 c20 -43 45 -61 47 -33 0 10 2 10 6 0 9 -24 41 -14 48 15 3 15 14 35 22 44 15 16 13 19 -18 32 -19 9 -26 15 -17 16 29 0 87 -58 94 -96 9 -49 -2 -82 -41 -121 -29 -29 -40 -33 -84 -33 -42 0 -56 5 -86 31 -19 17 -35 36 -35 41 0 6 8 0 19 -13 l18 -23 17 32 c23 44 20 52 -18 52 -24 0 -36 -5 -39 -17 -3 -10 -5 0 -5 22 0 22 2 32 5 23 3 -13 15 -18 39 -18 38 0 41 8 18 52 l-17 32 -18 -23 c-11 -13 -19 -19 -19 -14 0 16 42 55 74 69 38 16 56 17 56 3z m-2025 -19 c3 -5 -1 -10 -9 -10 -9 0 -16 5 -16 10 0 6 4 10 9 10 6 0 13 -4 16 -10z m-231 -87 c10 -32 21 -64 23 -70 3 -8 -4 -13 -18 -12 -18 0 -20 2 -8 7 15 6 15 11 -1 57 l-16 49 -12 -44 c-8 -34 -8 -46 1 -52 8 -5 7 -8 -4 -8 -9 0 -23 -10 -32 -22 l-15 -23 -11 28 c-9 22 -17 27 -46 27 -19 0 -35 3 -35 8 0 7 139 109 151 111 3 1 13 -25 23 -56z m2510 -34 c-8 -17 -11 -28 -6 -25 6 4 14 1 17 -5 5 -6 0 -9 -11 -8 -11 2 -25 0 -31 -4 -12 -7 -17 3 -15 24 1 4 -9 5 -21 2 -21 -4 -21 -4 -2 8 11 7 22 16 25 19 4 7 29 15 53 19 4 0 0 -13 -9 -30z m-2228 -18 c21 -15 48 -38 58 -50 l19 -21 -36 0 c-44 0 -53 -12 -32 -44 19 -29 4 -45 -22 -24 -15 11 -16 11 -8 -7 44 -105 -39 -203 -137 -162 -29 12 -36 13 -32 2 10 -24 -17 -27 -41 -5 -58 55 -56 147 4 211 21 21 44 39 52 39 8 0 0 -8 -16 -19 -47 -28 -69 -69 -69 -128 -1 -37 5 -59 20 -79 29 -39 53 -45 26 -6 -25 35 -30 55 -6 26 15 -19 16 -19 8 1 -5 11 -8 42 -8 68 1 55 -15 43 -17 -13 -2 -32 -2 -33 -6 -6 -9 57 51 137 100 135 18 -1 17 -2 -7 -9 -31 -10 -66 -37 -66 -52 0 -6 14 2 31 16 20 17 42 26 65 26 44 0 75 -16 68 -34 -3 -8 -1 -17 5 -21 6 -3 8 -17 5 -31 -5 -18 -2 -24 10 -24 19 0 21 23 4 53 -7 12 -12 29 -13 37 0 8 -16 20 -35 27 -22 8 -28 12 -15 12 22 1 65 -25 78 -46 4 -7 12 -13 18 -13 17 0 -11 40 -41 59 -23 13 -27 20 -18 29 9 9 8 20 -5 47 -16 33 -16 35 2 35 10 0 36 -13 57 -29z m904 -6 c10 -13 14 -12 28 2 16 16 17 15 20 -9 2 -18 10 -28 25 -31 18 -3 16 -5 -6 -6 -24 -1 -27 -4 -22 -22 l7 -21 -21 21 c-12 12 -21 27 -21 34 0 15 -20 37 -32 37 -5 0 -20 -12 -33 -26 -14 -15 -25 -22 -25 -16 0 11 47 52 60 52 4 0 13 -7 20 -15z m310 -35 c23 -97 7 -160 -41 -160 -12 0 -19 -9 -22 -27 -4 -27 -4 -26 -6 4 -1 22 -7 34 -21 38 -28 9 -35 49 -16 89 9 19 16 39 16 45 0 6 5 11 11 11 6 0 20 11 31 25 11 14 23 25 28 25 4 0 13 -23 20 -50z m-707 30 c-30 -7 -83 -35 -83 -45 0 -2 21 -1 48 2 68 8 84 8 112 -1 18 -6 22 -5 15 3 -6 5 -28 15 -50 20 -26 6 -32 9 -17 10 37 2 93 -29 113 -63 25 -40 24 -103 -1 -140 -17 -27 -25 -30 -84 -33 -59 -4 -67 -1 -96 24 -21 19 -32 40 -36 68 -4 28 -3 36 4 26 8 -11 12 -10 21 8 7 11 21 21 31 21 25 0 26 16 3 25 -12 4 -24 -1 -35 -15 -10 -12 -18 -17 -18 -12 0 6 5 14 10 17 6 3 10 11 10 16 0 6 -4 8 -9 5 -5 -3 -14 0 -20 8 -8 10 -7 17 7 28 29 25 56 37 82 37 21 -1 20 -2 -7 -9z m111 -9 c28 -19 66 -68 66 -86 0 -5 -8 4 -19 20 -26 43 -55 66 -93 75 -28 7 -29 8 -8 9 14 0 38 -8 54 -18z m-124 -21 c-8 -5 -19 -10 -25 -10 -5 0 -3 5 5 10 8 5 20 10 25 10 6 0 3 -5 -5 -10z m-587 -17 c-13 -2 -33 -2 -45 0 -13 2 -3 4 22 4 25 0 35 -2 23 -4z m974 -53 c17 0 35 -4 38 -10 10 -15 23 -12 29 8 4 13 4 13 3 -3 -4 -40 -101 -46 -113 -7 -3 9 -10 25 -15 34 -16 30 -9 34 9 6 12 -21 25 -28 49 -28z m733 26 c0 -3 -5 -8 -12 -12 -7 -4 -8 -3 -4 4 7 12 16 16 16 8z m-1438 -18 c6 -16 -1 -38 -12 -38 -11 0 -21 30 -14 41 8 13 21 11 26 -3z m608 -6 c0 -4 -5 -14 -10 -22 -9 -13 -11 -13 -19 0 -6 9 -6 19 1 27 10 12 28 9 28 -5z m1466 -70 c35 -65 41 -84 30 -88 -8 -3 -23 -4 -33 -1 -14 4 -13 5 5 6 12 0 22 6 22 11 0 8 -52 109 -66 128 -6 9 -40 8 -46 -2 -12 -18 -9 -29 7 -22 10 4 21 -7 35 -34 l20 -40 -92 0 c-64 0 -88 3 -78 10 8 5 12 10 8 11 -26 5 -34 3 -45 -11 -7 -8 -13 -11 -13 -7 0 11 -40 -12 -40 -23 0 -5 51 -11 113 -13 106 -3 105 -3 -36 -5 -103 -1 -146 1 -142 9 4 6 13 8 21 5 8 -3 13 -1 11 4 -2 12 242 149 261 147 7 -1 33 -39 58 -85z m-2145 1 l-16 -22 -17 22 c-15 19 -15 23 0 42 l16 22 17 -21 c15 -19 15 -22 0 -43z m1306 48 c3 -12 15 -21 32 -23 22 -3 26 -8 26 -34 0 -17 6 -38 14 -47 11 -14 11 -20 1 -32 -7 -8 -18 -15 -25 -15 -8 0 -11 -8 -8 -18 2 -11 -3 -24 -14 -32 -15 -12 -16 -12 -5 0 18 20 15 37 -7 43 -23 6 -34 -15 -18 -33 9 -10 8 -12 -5 -7 -9 3 -19 0 -22 -9 -6 -16 -46 -19 -46 -4 0 6 -12 16 -27 23 -36 15 -44 27 -33 48 7 12 5 21 -5 29 -21 17 -19 37 5 50 11 6 20 19 20 29 0 27 26 46 44 32 10 -9 16 -8 26 4 17 21 41 19 47 -4z m-726 -71 c-13 -38 -1 -44 45 -25 20 8 39 13 41 11 9 -9 -27 -63 -71 -106 l-46 -44 0 40 c0 50 -6 57 -34 38 -13 -8 -26 -11 -29 -7 -10 10 -8 33 3 33 5 0 6 -8 3 -17 -7 -17 -5 -17 17 -2 40 26 62 64 68 115 5 37 7 42 10 21 2 -16 -1 -41 -7 -57z m924 70 c3 -5 4 -10 1 -10 -3 0 -8 5 -11 10 -3 6 -4 10 -1 10 3 0 8 -4 11 -10z m-1295 -17 c0 -13 -3 -14 -12 -5 -7 7 -18 12 -25 12 -21 0 -15 -21 7 -27 11 -3 20 -9 20 -13 0 -16 -152 -150 -170 -150 -10 0 -23 6 -29 14 -18 21 -3 43 80 120 54 50 79 66 100 66 21 0 29 -5 29 -17z m1583 -44 c-32 -13 -43 -9 -43 14 0 35 11 40 37 15 22 -21 23 -23 6 -29z m-268 31 c3 -5 4 -10 1 -10 -3 0 -8 5 -11 10 -3 6 -4 10 -1 10 3 0 8 -4 11 -10z m-619 -31 c-1 -20 -6 -29 -18 -29 -9 0 -19 -6 -21 -12 -4 -8 -6 -7 -6 3 -1 9 -11 20 -23 23 l-23 7 23 11 c12 6 22 14 22 17 0 3 11 7 24 7 19 1 23 -3 22 -27z m701 24 c-4 -3 -10 -3 -14 0 -3 4 0 7 7 7 7 0 10 -3 7 -7z m-50 -20 c-4 -3 -10 -3 -14 0 -3 4 0 7 7 7 7 0 10 -3 7 -7z m33 -3 c0 -5 -5 -10 -11 -10 -5 0 -7 5 -4 10 3 6 8 10 11 10 2 0 4 -4 4 -10z m27 -7 c-4 -3 -7 0 -7 7 0 7 3 10 7 7 3 -4 3 -10 0 -14z m-861 -56 c-10 -16 -12 -16 -23 0 -17 22 2 49 22 30 9 -9 9 -16 1 -30z m871 6 c-4 -3 -10 -3 -14 0 -3 4 0 7 7 7 7 0 10 -3 7 -7z m40 0 c-4 -3 -10 -3 -14 0 -3 4 0 7 7 7 7 0 10 -3 7 -7z m-857 -29 c0 -8 -4 -12 -10 -9 -5 3 -10 10 -10 16 0 5 5 9 10 9 6 0 10 -7 10 -16z m697 -52 c-30 -32 -18 -37 15 -6 l32 29 -29 -36 c-17 -19 -33 -31 -36 -26 -4 5 -9 3 -12 -4 -3 -8 -6 -9 -6 -3 -1 12 37 64 46 64 3 0 -1 -8 -10 -18z m53 -36 c0 -3 -5 -8 -12 -12 -7 -4 -8 -3 -4 4 7 12 16 16 16 8z"/> <path d="M1712 2940 c-23 -21 -39 -41 -34 -44 6 -3 29 11 53 32 23 21 38 41 33 44 -5 3 -28 -11 -52 -32z"/> <path d="M1697 2794 c-13 -13 -7 -24 14 -24 11 0 19 5 17 12 -5 14 -22 21 -31 12z"/> <path d="M2124 2945 c-10 -8 -14 -14 -9 -14 6 0 19 6 29 14 11 8 15 15 10 15 -6 0 -19 -7 -30 -15z"/> <path d="M844 2880 c-75 -77 -84 -103 -12 -32 30 29 58 49 63 45 4 -5 5 -2 0 6 -5 9 -4 12 3 7 6 -3 13 -2 17 4 4 6 11 8 16 4 6 -3 3 -12 -8 -19 -17 -13 -15 -17 32 -65 36 -37 44 -50 30 -48 -11 2 -26 7 -32 11 -7 5 -13 5 -13 1 0 -5 -16 7 -35 26 -19 18 -32 37 -29 42 3 4 10 6 15 2 5 -3 6 -10 3 -16 -5 -7 -2 -8 6 -3 9 6 11 4 5 -5 -6 -9 -4 -11 5 -5 9 6 11 4 5 -5 -6 -9 -4 -11 5 -5 9 6 11 4 5 -5 -6 -9 -4 -11 5 -5 8 5 11 4 7 -2 -3 -5 0 -10 8 -10 9 0 0 17 -23 42 l-37 42 -23 -21 c-13 -12 -33 -34 -44 -49 l-21 -29 54 -54 53 -54 68 67 68 67 -62 63 c-34 35 -65 63 -69 63 -3 0 -33 -27 -65 -60z m76 46 c0 -3 -5 -8 -12 -12 -7 -4 -8 -3 -4 4 7 12 16 16 16 8z m98 -123 c-6 -7 -13 -13 -16 -13 -3 0 -1 5 6 12 9 9 3 22 -30 58 l-43 45 47 -44 c37 -34 45 -48 36 -58z"/> <path d="M756 2792 c-6 -10 31 -48 38 -41 2 2 -4 14 -14 27 -10 12 -21 18 -24 14z"/> <path d="M860 2682 c0 -12 19 -26 26 -19 2 2 -2 10 -11 17 -9 8 -15 8 -15 2z"/> <path d="M335 2870 c-4 -6 -1 -17 5 -25 7 -8 9 -15 5 -15 -4 0 -2 -7 5 -15 7 -8 16 -13 20 -10 5 3 11 1 15 -5 11 -18 38 -12 30 8 -5 14 -4 15 7 4 11 -11 10 -16 -5 -27 -19 -13 -7 -32 13 -20 17 10 11 41 -12 61 -12 10 -18 13 -14 7 4 -7 3 -13 -2 -13 -12 0 -48 40 -44 48 6 12 -16 13 -23 2z m30 -50 c3 -5 4 -10 1 -10 -3 0 -8 5 -11 10 -3 6 -4 10 -1 10 3 0 8 -4 11 -10z"/> <path d="M2725 2838 c-9 -22 4 -43 17 -30 7 7 7 16 0 29 -10 17 -11 17 -17 1z"/> <path d="M1895 2721 c-3 -5 -1 -12 5 -16 12 -7 30 2 30 16 0 12 -27 12 -35 0z"/> <path d="M1883 2625 c0 -44 2 -61 4 -37 2 23 2 59 0 80 -2 20 -4 1 -4 -43z"/> <path d="M1933 2625 c0 -44 2 -61 4 -37 2 23 2 59 0 80 -2 20 -4 1 -4 -43z"/> <path d="M1900 2615 c0 -43 4 -75 10 -75 6 0 10 32 10 75 0 43 -4 75 -10 75 -6 0 -10 -32 -10 -75z"/> <path d="M1293 2700 c-26 -11 -29 -27 -8 -54 8 -11 15 -28 15 -39 0 -12 6 -17 18 -15 13 2 18 15 20 61 3 61 -1 65 -45 47z"/> <path d="M1350 2651 c0 -45 4 -61 14 -61 8 0 17 12 21 28 3 15 13 34 21 43 16 18 6 31 -33 43 -22 7 -23 5 -23 -53z"/> <path d="M1405 2640 c-22 -42 -19 -50 20 -50 38 0 43 11 23 55 -15 33 -24 32 -43 -5z"/> <path d="M1220 2570 c0 -19 24 -60 35 -60 11 0 35 41 35 60 0 6 -16 10 -35 10 -19 0 -35 -4 -35 -10z"/> <path d="M1284 2535 l-20 -43 23 -11 c46 -21 53 -15 53 44 0 46 -3 55 -17 55 -11 -1 -26 -18 -39 -45z"/> <path d="M1350 2525 c0 -58 4 -62 43 -44 l23 11 -20 43 c-29 62 -46 58 -46 -10z"/> <path d="M1390 2567 c0 -16 28 -57 39 -57 8 0 31 44 31 60 0 6 -16 10 -35 10 -22 0 -35 -5 -35 -13z"/> <path d="M1567 2674 c-3 -4 9 -25 27 -48 32 -39 76 -106 64 -96 -3 3 -27 33 -53 68 -46 63 -67 73 -73 36 -4 -26 38 -70 94 -100 47 -25 53 -20 34 30 -6 18 -6 26 1 26 6 0 1 14 -11 30 -12 17 -18 30 -14 30 3 0 1 7 -6 15 -13 15 -51 20 -63 9z"/> <path d="M2621 2647 c-13 -6 -23 -15 -22 -19 1 -4 10 -26 19 -48 25 -60 42 -52 42 20 0 64 -2 66 -39 47z"/> <path d="M2562 2595 c-20 -44 -15 -55 23 -55 39 0 42 8 20 50 -19 37 -28 38 -43 5z"/> <path d="M2736 2599 c-28 -40 -21 -59 20 -59 34 0 36 1 29 28 -3 15 -12 33 -19 40 -11 12 -16 10 -30 -9z"/> <path d="M2550 2512 c0 -10 7 -27 15 -38 15 -19 15 -19 35 5 30 35 26 51 -15 51 -27 0 -35 -4 -35 -18z"/> <path d="M2614 2484 c-20 -43 -21 -45 -3 -54 40 -22 49 -13 49 45 0 68 -17 72 -46 9z"/> <path d="M2670 2475 c0 -46 3 -55 18 -55 10 0 26 6 36 13 16 12 16 15 2 42 -9 17 -16 36 -16 43 0 6 -9 12 -20 12 -18 0 -20 -7 -20 -55z"/> <path d="M225 2630 c-4 -6 -3 -16 3 -22 6 -6 12 -6 17 2 4 6 3 16 -3 22 -6 6 -12 6 -17 -2z"/> <path d="M755 2619 c-4 -6 -5 -12 -2 -15 2 -3 7 2 10 11 7 17 1 20 -8 4z"/> <path d="M408 2619 c-10 -5 -18 -18 -17 -27 0 -14 2 -14 10 3 8 17 9 17 4 -5 -2 -14 -5 -32 -6 -40 0 -10 -3 -8 -9 5 -6 15 -7 9 -6 -20 0 -22 -3 -50 -7 -61 -7 -19 -3 -22 28 -27 19 -3 49 -15 65 -27 23 -16 31 -18 35 -8 17 51 35 125 35 144 0 49 -86 90 -132 63z m71 -23 c35 -19 55 -42 46 -56 -4 -7 -16 -3 -35 10 -15 11 -33 20 -38 20 -6 0 -14 4 -17 10 -4 6 3 6 21 0 40 -16 43 -3 3 14 -19 9 -28 15 -21 16 7 0 25 -6 41 -14z m-8 -53 c13 -17 13 -17 -6 -3 -11 8 -22 16 -24 17 -2 2 0 3 6 3 6 0 17 -8 24 -17z"/> <path d="M500 2555 c7 -9 15 -13 17 -11 7 7 -7 26 -19 26 -6 0 -6 -6 2 -15z"/> <path d="M344 2441 c1 -14 83 -51 125 -56 l23 -3 -23 24 c-12 13 -27 24 -33 24 -5 0 -1 -7 10 -15 18 -14 17 -15 -8 -4 -15 7 -26 15 -23 18 2 4 -11 5 -30 3 -22 -3 -35 1 -38 10 -3 11 -4 11 -3 -1z"/> <path d="M545 2361 c-18 -7 -15 -10 19 -25 21 -9 40 -16 41 -16 6 0 -2 30 -10 37 -4 4 -5 2 -1 -4 8 -15 5 -16 -18 -7 -9 3 -13 10 -10 15 6 10 6 10 -21 0z"/> <path d="M940 2505 c-120 -121 -124 -125 -106 -142 10 -10 16 -12 12 -5 -4 6 -3 12 1 12 5 0 18 7 29 16 10 8 12 12 4 8 -8 -5 36 42 98 104 98 98 122 132 94 132 -4 0 -63 -56 -132 -125z"/> <path d="M2142 2589 c18 -28 38 -36 38 -16 0 7 -12 19 -27 26 -26 12 -26 12 -11 -10z"/> <path d="M2200 2545 c7 -8 17 -15 22 -15 6 0 5 7 -2 15 -7 8 -17 15 -22 15 -6 0 -5 -7 2 -15z"/> <path d="M2240 2523 c0 -4 40 -34 88 -66 144 -95 139 -93 122 -75 -25 25 -210 150 -210 141z"/> <path d="M620 2510 c20 -13 33 -13 25 0 -3 6 -14 10 -23 10 -15 0 -15 -2 -2 -10z"/> <path d="M1990 2485 c-8 -10 -10 -19 -4 -25 5 -5 14 1 21 16 12 27 2 32 -17 9z"/> <path d="M2024 2482 c-17 -11 -13 -41 4 -34 10 3 13 1 8 -6 -5 -8 -1 -10 10 -5 10 4 22 0 30 -12 9 -11 19 -15 31 -11 17 7 16 9 -6 27 -13 10 -30 19 -38 19 -8 0 -11 4 -8 10 4 6 -1 7 -11 3 -12 -4 -15 -3 -10 5 8 14 6 15 -10 4z"/> <path d="M2053 2423 c4 -3 10 -3 14 0 3 4 0 7 -7 7 -7 0 -10 -3 -7 -7z"/> <path d="M598 2473 c7 -3 16 -2 19 1 4 3 -2 6 -13 5 -11 0 -14 -3 -6 -6z"/> <path d="M1718 2403 c6 -2 18 -2 25 0 6 3 1 5 -13 5 -14 0 -19 -2 -12 -5z"/> <path d="M1830 2379 c0 -13 5 -31 10 -39 7 -11 8 -5 4 20 -8 43 -14 51 -14 19z"/> <path d="M2840 2390 c0 -6 -5 -8 -10 -5 -6 3 -13 -1 -16 -9 -3 -9 -10 -14 -14 -11 -5 3 -11 1 -15 -5 -4 -6 -10 -8 -15 -5 -4 3 -11 -2 -14 -11 -3 -8 -10 -13 -15 -10 -5 3 -12 -2 -15 -11 -10 -24 11 -33 81 -33 l62 0 -17 30 -17 29 -44 -25 c-24 -13 -46 -22 -49 -19 -3 2 3 7 12 11 9 3 13 11 9 17 -3 6 -1 7 5 3 6 -4 25 0 41 8 29 16 30 15 50 -18 12 -18 21 -36 21 -40 0 -3 -38 -6 -84 -6 -84 0 -84 0 -81 25 2 22 0 23 -14 13 -9 -7 -22 -19 -28 -27 -11 -12 -13 -12 -13 -1 0 9 -5 8 -16 -6 -8 -10 -13 -12 -9 -4 4 9 1 8 -8 -3 -9 -10 -18 -18 -21 -17 -4 1 -12 -1 -19 -3 -6 -3 68 -5 166 -6 97 -1 177 1 177 4 0 3 -12 29 -26 58 -26 52 -64 97 -64 77z"/> <path d="M1020 2370 c0 -7 3 -10 7 -7 3 4 3 10 0 14 -4 3 -7 0 -7 -7z"/> <path d="M1220 2357 c30 -27 89 -57 94 -48 3 5 -14 21 -38 35 -49 28 -81 36 -56 13z"/> <path d="M1210 2235 c0 -8 7 -15 15 -15 8 0 15 7 15 15 0 8 -7 15 -15 15 -8 0 -15 -7 -15 -15z"/> <path d="M2534 2337 c-8 -21 2 -35 16 -21 5 5 6 15 0 24 -8 12 -10 12 -16 -3z"/> <path d="M2206 2306 c-29 -30 -34 -42 -34 -81 0 -39 5 -51 34 -80 35 -36 68 -45 77 -22 4 10 6 10 6 0 1 -18 30 -16 37 1 3 8 11 13 18 10 17 -6 40 22 30 37 -4 7 -3 9 4 5 13 -8 21 19 18 59 -4 45 -5 47 -18 39 -7 -4 -8 -3 -4 5 10 16 -13 43 -31 37 -7 -3 -13 1 -13 9 0 18 -36 20 -43 3 -4 -10 -6 -10 -6 0 -2 23 -40 12 -75 -22z m105 -39 c-19 -32 -19 -34 -3 -51 16 -16 16 -17 -5 -9 -12 4 -23 10 -25 13 -4 7 40 80 47 80 4 0 -3 -15 -14 -33z"/> <path d="M2016 2290 c4 -23 2 -30 -8 -28 -7 2 -26 -7 -42 -20 -25 -19 -27 -26 -5 -24 4 1 9 -7 12 -18 5 -18 3 -18 -27 3 -40 29 -88 34 -107 11 -12 -15 -12 -17 0 -9 11 6 13 4 7 -11 -4 -10 -4 -16 -1 -13 3 3 25 -14 49 -37 52 -52 89 -59 84 -16 -3 29 -44 69 -65 64 -7 -2 -13 1 -13 6 0 21 15 20 42 -3 36 -30 48 -25 48 20 0 29 3 33 21 30 12 -3 19 -2 15 2 -3 4 1 14 9 23 14 15 13 19 -4 34 -19 17 -19 17 -15 -14z m19 0 c3 -5 4 -10 1 -10 -3 0 -8 5 -11 10 -3 6 -4 10 -1 10 3 0 8 -4 11 -10z m-145 -91 c0 -5 -7 -9 -15 -9 -15 0 -20 12 -9 23 8 8 24 -1 24 -14z m20 -49 c0 -5 -2 -10 -4 -10 -3 0 -8 5 -11 10 -3 6 -1 10 4 10 6 0 11 -4 11 -10z m45 -10 c3 -5 1 -10 -4 -10 -6 0 -11 5 -11 10 0 6 2 10 4 10 3 0 8 -4 11 -10z"/> <path d="M1991 2118 c-1 -16 -8 -28 -18 -31 -17 -4 -17 -5 0 -6 20 -1 31 19 24 46 -3 12 -5 9 -6 -9z"/> <path d="M282 2286 c1 -10 8 -17 13 -17 15 1 12 24 -3 29 -9 3 -13 -2 -10 -12z"/> <path d="M1394 2274 c-8 -3 -8 -21 -1 -60 6 -39 6 -63 -2 -80 -6 -14 -11 -33 -10 -42 0 -9 6 -1 12 18 l11 35 4 -32 c3 -30 4 -31 33 -21 33 11 103 2 94 -12 -3 -6 0 -7 8 -4 22 8 -7 163 -34 187 -20 16 -87 23 -115 11z m101 -29 c17 -7 23 -14 15 -14 -12 -1 -13 -3 -1 -10 8 -5 -5 -7 -35 -4 -70 7 -77 11 -19 13 44 1 47 2 25 11 -14 6 -35 8 -47 6 -12 -2 -20 0 -17 4 8 13 45 10 79 -6z m-27 -42 c-10 -2 -28 -2 -40 0 -13 2 -5 4 17 4 22 1 32 -1 23 -4z"/> <path d="M1372 2230 c0 -14 2 -19 5 -12 2 6 2 18 0 25 -3 6 -5 1 -5 -13z"/> <path d="M1473 2083 c9 -2 23 -2 30 0 6 3 -1 5 -18 5 -16 0 -22 -2 -12 -5z"/> <path d="M1683 2073 c4 -3 10 -3 14 0 3 4 0 7 -7 7 -7 0 -10 -3 -7 -7z"/> <path d="M1390 2060 c0 -7 3 -10 7 -7 3 4 3 10 0 14 -4 3 -7 0 -7 -7z"/> <path d="M1420 2060 c-10 -7 6 -10 55 -10 49 0 65 3 55 10 -8 5 -33 10 -55 10 -22 0 -47 -5 -55 -10z"/> <path d="M997 2216 c-4 -10 -7 -26 -7 -37 0 -10 -5 -19 -11 -19 -8 0 -10 -12 -6 -35 3 -21 2 -33 -4 -30 -14 9 -11 -8 7 -33 8 -12 21 -22 29 -22 10 0 12 18 10 83 l-4 82 8 -78 c10 -86 11 -90 34 -82 19 8 33 58 18 63 -6 2 -11 17 -11 33 0 18 -4 28 -10 24 -5 -3 -10 0 -10 8 0 8 -8 25 -18 37 -17 21 -19 21 -25 6z"/> <path d="M422 2159 c-23 -39 -23 -41 -5 -55 29 -22 33 -17 33 41 0 30 -1 55 -2 55 -2 0 -13 -18 -26 -41z"/> <path d="M2537 2156 c-8 -19 15 -37 32 -26 17 10 7 40 -13 40 -7 0 -16 -6 -19 -14z"/> <path d="M2470 2129 c0 -12 7 -19 20 -19 13 0 20 7 20 18 0 11 -8 18 -20 19 -14 1 -20 -4 -20 -18z"/> <path d="M2520 2120 c0 -5 5 -10 10 -10 6 0 10 5 10 10 0 6 -4 10 -10 10 -5 0 -10 -4 -10 -10z"/> <path d="M2590 2115 c0 -21 30 -31 40 -14 11 17 3 29 -21 29 -10 0 -19 -7 -19 -15z"/> <path d="M2565 2110 c3 -5 8 -10 11 -10 2 0 4 5 4 10 0 6 -5 10 -11 10 -5 0 -7 -4 -4 -10z"/> <path d="M2435 2090 c-4 -6 -1 -17 5 -26 15 -18 42 0 33 22 -6 16 -29 19 -38 4z"/> <path d="M2483 2093 c4 -3 10 -3 14 0 3 4 0 7 -7 7 -7 0 -10 -3 -7 -7z"/> <path d="M2510 2081 c-20 -38 13 -71 51 -51 21 12 25 40 7 58 -18 18 -46 14 -58 -7z m24 -16 c-4 -8 -1 -15 4 -15 6 0 13 8 15 18 3 12 5 11 6 -6 1 -17 -4 -23 -16 -20 -19 3 -31 38 -14 38 6 0 8 -7 5 -15z"/> <path d="M2590 2080 c0 -5 5 -10 11 -10 5 0 7 5 4 10 -3 6 -8 10 -11 10 -2 0 -4 -4 -4 -10z"/> <path d="M2617 2063 c-9 -9 -9 -43 1 -43 18 1 34 19 29 34 -7 17 -19 21 -30 9z"/> <path d="M2467 2042 c-10 -10 -17 -26 -17 -35 0 -19 2 -20 24 -11 19 7 22 34 4 34 -9 0 -8 3 2 10 8 5 12 11 9 15 -3 3 -13 -3 -22 -13z"/> <path d="M2584 2028 c-4 -7 -3 -8 4 -4 7 4 12 9 12 12 0 8 -9 4 -16 -8z"/> <path d="M2500 2010 c0 -5 5 -10 10 -10 6 0 10 5 10 10 0 6 -4 10 -10 10 -5 0 -10 -4 -10 -10z"/> <path d="M2523 1998 c-25 -12 -27 -16 -14 -37 8 -12 12 -13 26 -1 9 7 14 18 11 25 -2 6 2 12 10 12 8 0 14 -6 14 -14 0 -7 9 -13 20 -13 18 0 30 29 13 31 -5 0 -19 2 -33 4 -14 2 -35 -1 -47 -7z"/> <path d="M1221 2101 c-16 -29 -14 -32 15 -25 19 5 25 4 20 -5 -4 -6 -3 -11 3 -11 5 0 9 12 8 27 -3 34 -31 42 -46 14z"/> <path d="M1160 2089 c0 -12 7 -19 20 -19 11 0 20 6 20 14 0 7 -9 16 -20 19 -15 4 -20 0 -20 -14z"/> <path d="M1170 2050 c0 -5 5 -10 10 -10 6 0 10 5 10 10 0 6 -4 10 -10 10 -5 0 -10 -4 -10 -10z"/> <path d="M1127 2044 c-13 -13 -7 -22 23 -38 17 -8 30 -10 30 -5 0 5 -4 9 -9 9 -5 0 -8 8 -7 17 1 18 -24 29 -37 17z"/> <path d="M1199 2034 c-9 -11 -10 -20 -2 -32 24 -39 82 -15 68 28 -8 24 -47 27 -66 4z m48 -10 c8 -21 -13 -42 -28 -27 -13 13 -5 43 11 43 6 0 13 -7 17 -16z"/> <path d="M1220 2015 c0 -8 5 -15 10 -15 6 0 10 7 10 15 0 8 -4 15 -10 15 -5 0 -10 -7 -10 -15z"/> <path d="M1280 2030 c0 -5 5 -10 10 -10 6 0 10 5 10 10 0 6 -4 10 -10 10 -5 0 -10 -4 -10 -10z"/> <path d="M1297 2013 c-3 -5 -2 -15 3 -22 10 -17 43 -6 38 12 -6 15 -34 22 -41 10z"/> <path d="M1147 1984 c-14 -15 -6 -34 14 -34 14 0 19 5 17 17 -3 18 -20 27 -31 17z"/> <path d="M1273 1983 c4 -3 10 -3 14 0 3 4 0 7 -7 7 -7 0 -10 -3 -7 -7z"/> <path d="M1193 1944 c0 -32 25 -43 43 -19 16 22 19 49 4 40 -6 -4 -8 -10 -5 -15 3 -4 -4 -6 -15 -3 -11 3 -17 9 -14 14 3 5 1 9 -4 9 -5 0 -9 -12 -9 -26z"/> <path d="M1262 1942 c5 -24 38 -28 38 -5 0 12 -8 19 -21 20 -14 1 -19 -3 -17 -15z"/> <path d="M2740 2092 c0 -10 27 -44 60 -77 33 -33 60 -55 60 -49 0 6 -14 20 -31 33 -17 13 -28 25 -25 29 4 3 22 -10 41 -28 19 -19 36 -31 36 -27 1 4 2 13 3 20 2 6 -18 33 -42 59 -44 46 -46 47 -62 28 -9 -11 -20 -17 -24 -13 -3 3 1 15 11 25 15 17 15 18 -5 18 -14 0 -22 -6 -22 -18z m105 -54 l40 -41 -47 37 c-27 21 -48 40 -48 42 0 13 21 -1 55 -38z m-54 5 c13 -16 12 -17 -3 -4 -17 13 -22 21 -14 21 2 0 10 -8 17 -17z"/> <path d="M2889 1970 c-19 -20 -8 -40 23 -40 18 0 23 16 12 44 -8 20 -15 19 -35 -4z m31 -4 c0 -2 -8 -10 -17 -17 -16 -13 -17 -12 -4 4 13 16 21 21 21 13z"/> <path d="M1760 1943 c-101 -150 -103 -153 -93 -153 8 0 186 270 181 275 -2 2 -41 -53 -88 -122z"/> <path d="M2052 2056 c1 -10 8 -17 13 -17 15 1 12 24 -3 29 -9 3 -13 -2 -10 -12z"/> <path d="M1990 1959 c45 -38 70 -53 70 -40 0 14 -72 71 -90 71 -9 0 -2 -12 20 -31z"/> <path d="M2152 1976 c1 -10 8 -17 13 -17 15 1 12 24 -3 29 -9 3 -13 -2 -10 -12z"/> <path d="M180 1970 c0 -7 3 -10 7 -7 3 4 3 10 0 14 -4 3 -7 0 -7 -7z"/> <path d="M814 1926 c-19 -19 -34 -43 -34 -55 0 -17 6 -21 35 -21 39 0 41 3 20 44 -9 16 -13 31 -11 33 2 2 12 -14 22 -36 26 -59 44 -53 44 14 0 49 -2 55 -21 55 -12 0 -36 -15 -55 -34z"/> <path d="M966 1908 c-27 -39 -21 -58 19 -58 40 0 40 -1 21 45 -18 41 -20 42 -40 13z"/> <path d="M780 1821 c0 -27 45 -77 80 -90 l30 -10 0 60 c0 72 -19 80 -43 17 -9 -23 -20 -39 -23 -35 -4 4 -2 12 3 19 6 7 14 23 17 36 7 20 4 22 -28 22 -29 0 -36 -4 -36 -19z"/> <path d="M900 1781 l0 -60 31 9 c43 13 45 17 26 49 -9 16 -17 36 -17 45 0 9 -8 16 -20 16 -18 0 -20 -7 -20 -59z"/> <path d="M950 1821 c0 -10 9 -29 19 -42 l20 -24 15 37 c21 49 21 48 -19 48 -28 0 -35 -4 -35 -19z"/> <path d="M451 1934 c-24 -31 -25 -38 -9 -63 7 -11 19 -17 32 -14 18 4 18 2 -4 -11 -29 -18 -23 -20 16 -6 18 7 30 7 39 0 6 -5 15 -7 18 -3 13 12 7 54 -8 59 -8 4 -15 14 -15 23 0 20 -19 41 -36 41 -7 0 -22 -12 -33 -26z"/> <path d="M536 1944 c-4 -9 -4 -19 -1 -22 2 -3 7 3 11 12 4 9 4 19 1 22 -2 3 -7 -3 -11 -12z"/> <path d="M2220 1885 c-85 -36 -159 -66 -164 -68 -5 -2 -4 -12 2 -23 6 -10 12 -13 12 -6 0 7 4 11 9 7 5 -3 12 -1 16 5 4 6 11 8 16 5 5 -4 9 -1 9 6 0 7 3 9 7 6 3 -4 17 0 30 8 13 9 23 13 23 10 0 -3 10 0 23 7 12 7 25 11 30 10 4 -1 7 3 7 9 0 5 4 8 9 4 5 -3 12 -1 16 5 4 6 11 8 16 5 5 -4 9 -1 9 5 0 6 4 9 9 5 5 -3 12 -1 16 5 4 6 11 8 16 5 5 -4 9 -1 9 5 0 6 4 9 9 6 14 -9 47 21 36 32 -7 7 -63 -12 -165 -53z"/> <path d="M2490 1875 c0 -16 16 -20 24 -6 3 5 -1 11 -9 15 -9 3 -15 0 -15 -9z"/> <path d="M2645 1846 c-12 -18 -14 -35 -9 -63 4 -21 9 -32 11 -25 6 17 62 15 69 -3 5 -12 10 -13 20 -4 20 16 17 32 -13 78 -30 47 -55 52 -78 17z"/> <path d="M2730 1848 c0 -19 2 -20 10 -8 13 19 13 30 0 30 -5 0 -10 -10 -10 -22z"/> <path d="M2670 1750 c-18 -12 -2 -12 25 0 13 6 15 9 5 9 -8 0 -22 -4 -30 -9z"/> <path d="M1150 1827 c0 -8 9 -22 20 -32 11 -10 18 -21 15 -25 -8 -13 43 -53 59 -47 18 7 21 33 6 42 -5 3 -10 -1 -10 -9 0 -21 -24 -20 -41 2 -11 14 -11 15 1 5 37 -34 37 12 0 52 -26 27 -50 33 -50 12z m55 -27 c10 -11 16 -20 13 -20 -3 0 -13 9 -23 20 -10 11 -16 20 -13 20 3 0 13 -9 23 -20z"/> <path d="M2401 1781 c-12 -8 -13 -14 -3 -35 6 -14 16 -26 21 -26 14 0 52 51 45 61 -7 12 -45 11 -63 0z"/> <path d="M2465 1751 c-8 -17 -22 -34 -30 -38 -9 -6 -11 -13 -5 -23 7 -12 16 -10 59 9 43 21 49 27 40 42 -5 10 -18 23 -29 29 -16 9 -22 6 -35 -19z"/> <path d="M2341 1744 c-29 -37 -27 -44 19 -44 43 0 46 5 28 45 -14 32 -21 31 -47 -1z"/> <path d="M2378 1635 c-49 -26 -53 -41 -17 -63 19 -12 24 -9 54 25 18 21 30 43 28 50 -7 17 -10 16 -65 -12z"/> <path d="M2421 1594 c-29 -37 -27 -44 19 -44 43 0 46 5 28 45 -14 32 -21 31 -47 -1z"/> <path d="M1843 1760 c-24 -10 -43 -24 -43 -30 0 -15 11 -12 32 6 28 26 107 29 144 6 35 -23 64 -77 63 -119 -1 -21 -3 -17 -10 16 -5 25 -14 49 -20 55 -9 8 -10 6 -5 -9 4 -11 9 -31 10 -45 2 -14 1 -17 -1 -7 -2 9 -10 17 -18 17 -7 0 -20 11 -29 25 -10 15 -12 25 -5 25 6 0 13 -9 16 -20 5 -20 23 -28 23 -11 0 13 -59 61 -76 61 -20 0 -17 -20 4 -21 12 0 13 -2 3 -6 -8 -3 -20 2 -26 11 -7 9 -19 14 -29 10 -20 -8 -21 -20 -1 -28 21 -8 19 -26 -2 -26 -13 0 -14 3 -6 8 9 6 7 11 -7 20 -16 10 -22 8 -35 -10 -24 -35 -20 -55 8 -32 l22 19 -22 -26 c-30 -34 -29 -55 6 -90 35 -34 51 -37 51 -8 0 18 5 20 27 16 31 -6 83 10 83 26 0 6 3 8 6 5 3 -4 1 -15 -5 -25 -8 -16 -19 -19 -55 -17 -35 2 -46 -1 -46 -12 0 -16 23 -18 50 -4 10 5 26 7 36 3 16 -6 16 -7 -1 -20 -10 -7 -15 -16 -12 -20 13 -12 67 50 78 89 19 72 -22 150 -94 177 -40 15 -66 13 -114 -9z m120 -111 c6 -9 7 -25 3 -35 -7 -18 -8 -18 -26 3 -9 12 -20 20 -23 16 -4 -3 -14 -3 -23 1 -13 5 -14 9 -3 22 15 19 58 15 72 -7z m-63 -40 c0 -6 -9 -8 -20 -4 -12 4 -20 2 -20 -5 0 -6 5 -8 10 -5 6 3 10 1 10 -4 0 -6 -7 -11 -15 -11 -8 0 -15 9 -15 20 0 15 7 20 25 20 14 0 25 -5 25 -11z m120 -49 c-6 -12 -14 -20 -17 -17 -2 3 1 14 8 26 7 11 15 18 17 16 2 -2 -2 -13 -8 -25z"/> <path d="M1900 1650 c0 -6 6 -10 14 -8 8 2 22 -6 31 -17 15 -20 16 -19 13 5 -2 19 -10 26 -30 28 -16 2 -28 -2 -28 -8z"/> <path d="M1854 1736 c-17 -13 -14 -13 24 -3 39 10 48 9 85 -11 l42 -22 -28 25 c-32 29 -91 34 -123 11z"/> <path d="M2095 1545 c-19 -8 -34 -10 -42 -4 -18 15 -23 -4 -15 -51 l7 -43 43 47 c23 25 42 50 42 56 0 5 -1 10 -2 9 -2 0 -16 -7 -33 -14z"/> <path d="M574 1730 c-12 -5 -25 -13 -28 -19 -4 -6 9 -4 28 4 45 19 67 19 60 0 -4 -9 3 -16 20 -21 15 -3 31 -15 37 -26 12 -23 22 -19 13 6 -3 9 -18 23 -33 31 -14 8 -20 14 -13 15 8 0 27 -13 43 -29 33 -33 40 -93 14 -127 -22 -29 -17 -43 5 -15 24 28 26 90 4 132 -24 47 -96 71 -150 49z"/> <path d="M590 1710 c-12 -7 -12 -12 -2 -22 19 -19 14 -38 -10 -38 -13 0 -31 -12 -41 -25 -16 -23 -16 -27 -2 -55 13 -25 42 -50 59 -50 2 0 6 8 8 17 2 14 14 18 52 19 53 2 66 13 66 57 0 17 -5 27 -14 27 -8 0 -17 9 -21 19 -3 11 -19 22 -35 26 -17 4 -30 13 -30 21 0 16 -9 18 -30 4z m67 -56 c24 -7 38 -43 22 -59 -7 -7 -14 -4 -23 8 -7 9 -23 17 -35 17 -23 0 -24 1 -15 24 7 17 17 19 51 10z m-44 -51 c3 -5 -6 -16 -18 -26 -25 -18 -42 -8 -31 18 6 16 41 21 49 8z"/> <path d="M615 1640 c-3 -5 3 -10 15 -10 11 0 23 -7 26 -15 7 -16 24 -21 24 -6 0 28 -52 52 -65 31z"/> <path d="M570 1590 c0 -5 4 -10 9 -10 6 0 13 5 16 10 3 6 -1 10 -9 10 -9 0 -16 -4 -16 -10z"/> <path d="M547 1682 c-8 -9 -18 -28 -21 -42 l-7 -25 17 23 c9 12 25 22 35 22 23 0 24 7 5 25 -12 12 -16 12 -29 -3z"/> <path d="M610 1534 c0 -18 40 -18 63 -1 16 11 13 12 -23 13 -28 1 -40 -3 -40 -12z"/> <path d="M1010 1624 c0 -25 8 -38 36 -59 l36 -27 -20 38 c-11 22 -27 48 -36 59 -15 19 -15 19 -16 -11z"/> <path d="M970 1585 c0 -2 19 -14 43 -26 l42 -21 -24 26 c-21 22 -61 36 -61 21z"/> <path d="M1460 1535 c-113 -113 -123 -126 -109 -140 14 -15 18 -14 34 12 10 15 36 45 58 66 22 20 36 37 31 37 -5 1 4 8 19 16 15 8 25 19 22 24 -4 6 -1 10 4 10 6 0 29 17 51 39 31 30 37 41 27 49 -10 9 -42 -18 -137 -113z"/> <path d="M1220 1597 c-20 -16 -22 -34 -5 -41 8 -3 15 0 15 6 0 10 78 4 89 -8 6 -5 -110 -124 -121 -124 -4 0 -1 21 7 48 18 56 19 75 4 70 -6 -2 -10 -7 -9 -12 1 -5 -4 -13 -12 -17 -10 -7 -10 -9 2 -9 13 0 13 -2 1 -9 -17 -11 -24 -41 -9 -41 5 0 3 -7 -6 -15 -8 -9 -13 -22 -10 -30 4 -8 1 -15 -5 -15 -6 0 -10 -3 -10 -7 1 -5 0 -10 -1 -13 -23 -61 3 -43 129 84 70 70 100 107 90 110 -24 8 -127 36 -131 36 -1 0 -10 -6 -18 -13z"/> <path d="M1236 1548 c-3 -7 -9 -28 -15 -47 -6 -19 -9 -36 -7 -38 2 -3 23 15 45 38 28 30 37 46 28 51 -19 12 -47 9 -51 -4z"/> <path d="M2850 1580 c0 -7 3 -10 7 -7 3 4 3 10 0 14 -4 3 -7 0 -7 -7z"/> <path d="M368 1583 c6 -2 12 -9 12 -14 0 -6 -5 -7 -12 -3 -7 4 -8 3 -4 -5 4 -6 12 -9 17 -6 5 4 9 2 9 -4 0 -5 -4 -11 -10 -13 -6 -2 -4 -14 5 -30 8 -17 10 -28 3 -28 -5 0 -8 -7 -4 -15 3 -8 0 -15 -6 -15 -6 0 -9 -2 -6 -6 3 -3 21 2 39 10 33 15 33 15 5 9 -26 -5 -28 -4 -16 9 14 15 45 13 55 -2 3 -4 -9 -13 -25 -20 -16 -7 -27 -16 -24 -22 3 -5 -5 -6 -18 -3 -19 5 -27 1 -36 -19 -9 -21 -9 -26 3 -26 9 0 12 6 9 15 -4 10 0 15 11 15 11 0 15 -5 11 -15 -4 -11 2 -15 24 -15 23 0 28 4 24 18 -5 14 -4 15 5 2 9 -13 14 -13 39 2 16 10 31 15 34 12 3 -2 11 3 18 11 10 12 11 18 1 28 -10 9 -11 8 -5 -8 7 -18 6 -18 -9 -6 -9 7 -15 17 -12 21 3 5 0 12 -6 16 -7 4 -9 3 -5 -4 16 -26 -20 -15 -49 15 -17 18 -35 30 -38 26 -4 -3 -7 4 -7 16 0 29 -17 61 -33 60 -9 0 -9 -2 1 -6z m99 -160 c-4 -3 -7 0 -7 7 0 7 3 10 7 7 3 -4 3 -10 0 -14z"/> <path d="M353 1363 c4 -3 10 -3 14 0 3 4 0 7 -7 7 -7 0 -10 -3 -7 -7z"/> <path d="M2699 1568 c-1 -7 -1 -19 0 -27 2 -8 -2 -10 -11 -5 -9 6 -9 3 1 -10 13 -15 11 -20 -12 -42 -15 -14 -27 -32 -27 -40 0 -10 -6 -14 -15 -10 -17 6 -45 -2 -45 -14 0 -4 17 -5 38 -3 20 2 49 5 64 5 27 2 27 2 12 37 -12 32 -12 34 1 17 8 -11 15 -23 15 -28 0 -4 3 -7 8 -6 13 4 53 -23 47 -33 -9 -14 -25 -11 -25 6 0 8 -4 15 -10 15 -5 0 -10 -7 -10 -15 0 -8 1 -15 3 -15 1 0 16 -4 33 -9 l31 -9 -13 55 c-13 56 -37 102 -61 116 -7 5 -11 12 -8 18 4 5 1 9 -4 9 -6 0 -12 -6 -12 -12z m36 -58 c3 -5 -1 -10 -10 -10 -9 0 -13 5 -10 10 3 6 8 10 10 10 2 0 7 -4 10 -10z m-38 -76 c-9 -10 -27 15 -21 31 7 17 8 16 16 -5 5 -13 7 -24 5 -26z m70 39 c-4 -3 -10 -3 -14 0 -3 4 0 7 7 7 7 0 10 -3 7 -7z"/> <path d="M2570 1410 c0 -7 3 -10 7 -7 3 4 3 10 0 14 -4 3 -7 0 -7 -7z"/> <path d="M2240 1545 c-11 -13 -8 -15 13 -15 19 0 25 4 21 15 -4 8 -10 15 -14 15 -4 0 -13 -7 -20 -15z"/> <path d="M2233 1445 c0 -44 2 -61 4 -37 2 23 2 59 0 80 -2 20 -4 1 -4 -43z"/> <path d="M2250 1445 c0 -43 4 -75 10 -75 6 0 10 32 10 75 0 43 -4 75 -10 75 -6 0 -10 -32 -10 -75z"/> <path d="M2235 1320 c3 -5 15 -10 26 -10 10 0 19 5 19 10 0 6 -12 10 -26 10 -14 0 -23 -4 -19 -10z"/> <path d="M1643 1533 c9 -2 23 -2 30 0 6 3 -1 5 -18 5 -16 0 -22 -2 -12 -5z"/> <path d="M1656 1505 c4 -8 1 -15 -6 -15 -9 0 -11 -11 -7 -35 3 -21 2 -33 -4 -30 -5 4 -9 1 -9 -4 0 -6 6 -11 13 -12 6 0 3 -5 -8 -10 -14 -6 -6 -7 26 -3 26 3 49 2 53 -4 3 -5 -5 -7 -20 -4 -15 3 -32 -2 -44 -13 -11 -10 -20 -13 -20 -8 0 24 -29 20 -49 -8 -17 -23 -18 -27 -4 -22 9 4 14 2 10 -3 -5 -9 96 -10 148 -1 29 4 46 17 39 28 -3 5 -9 7 -13 4 -5 -2 -19 7 -31 20 -13 14 -34 25 -47 25 -13 0 -23 5 -23 11 0 6 9 8 23 4 l22 -6 -21 18 c-16 14 -20 27 -16 51 2 19 0 32 -7 32 -6 0 -8 -7 -5 -15z m-36 -150 c0 -8 -4 -15 -8 -15 -5 0 -9 7 -9 15 0 8 4 15 9 15 4 0 8 -7 8 -15z m90 5 c0 -5 -5 -10 -11 -10 -5 0 -7 5 -4 10 3 6 8 10 11 10 2 0 4 -4 4 -10z m60 -4 c0 -3 -5 -8 -12 -12 -7 -4 -8 -3 -4 4 7 12 16 16 16 8z m-103 -23 c-4 -3 -7 0 -7 7 0 7 3 10 7 7 3 -4 3 -10 0 -14z"/> <path d="M1745 1390 c3 -5 8 -10 11 -10 3 0 2 5 -1 10 -3 6 -8 10 -11 10 -3 0 -2 -4 1 -10z"/> <path d="M1902 1307 c-34 -35 -59 -66 -55 -70 7 -8 133 111 133 125 0 18 -19 5 -78 -55z"/> <path d="M1927 1292 l-67 -68 53 -52 c29 -29 58 -52 64 -52 6 0 27 20 47 44 38 47 36 59 -12 62 -23 1 -86 53 -77 63 3 2 18 -8 33 -22 16 -15 32 -24 37 -20 4 5 5 3 2 -3 -3 -6 0 -11 8 -11 11 0 12 4 4 14 -6 7 -16 10 -22 6 -6 -4 -7 -1 -2 7 6 9 4 11 -5 5 -9 -6 -11 -4 -5 5 6 9 4 11 -5 5 -9 -6 -11 -4 -5 5 5 8 4 11 -3 6 -19 -11 -22 11 -4 31 9 10 14 14 10 9 -13 -17 -10 -22 38 -61 34 -28 48 -35 57 -26 8 8 1 22 -28 54 -34 37 -33 36 8 -4 26 -26 47 -44 47 -40 0 3 -24 30 -53 59 l-53 52 -67 -68z"/> <path d="M1820 1222 c0 -10 33 -42 44 -42 9 0 -27 49 -36 50 -5 0 -8 -4 -8 -8z"/> <path d="M1930 1105 c7 -8 17 -15 22 -15 6 0 5 7 -2 15 -7 8 -17 15 -22 15 -6 0 -5 -7 2 -15z"/> <path d="M1372 1306 c1 -10 8 -17 13 -17 15 1 12 24 -3 29 -9 3 -13 -2 -10 -12z"/> <path d="M560 1137 c0 -7 -13 -33 -28 -58 l-29 -45 79 -42 78 -43 30 30 c22 22 30 39 30 65 0 34 -3 37 -70 71 -76 38 -90 42 -90 22z m101 -62 c11 8 -2 -25 -21 -51 -8 -11 -22 -24 -30 -29 -13 -8 -13 -7 0 9 8 10 15 24 15 30 1 6 5 25 10 41 7 21 10 25 13 12 2 -9 8 -15 13 -12z m39 -29 c0 -19 -40 -67 -51 -61 -5 4 1 24 13 45 22 37 38 44 38 16z"/> <path d="M636 1055 c-9 -26 -7 -32 5 -12 6 10 9 21 6 23 -2 3 -7 -2 -11 -11z"/> <path d="M667 1017 l-17 -32 20 24 c17 20 26 41 18 41 -2 0 -11 -15 -21 -33z"/> <path d="M505 1105 c-30 -38 -25 -67 6 -39 10 9 16 20 14 24 -8 12 6 41 16 34 5 -3 9 0 9 5 0 21 -19 11 -45 -24z m15 -19 c0 -2 -8 -10 -17 -17 -16 -13 -17 -12 -4 4 13 16 21 21 21 13z"/> <path d="M708 1283 c6 -2 10 -9 7 -14 -4 -5 2 -6 11 -2 10 3 15 2 12 -3 -4 -5 4 -10 15 -10 12 -1 33 -5 47 -9 47 -14 7 12 -44 29 -46 15 -78 21 -48 9z"/> <path d="M626 1233 c-6 -14 -5 -15 5 -6 7 7 10 15 7 18 -3 3 -9 -2 -12 -12z"/> <path d="M751 1246 c10 -9 69 -36 69 -32 0 6 -55 36 -66 36 -4 0 -5 -2 -3 -4z"/> <path d="M1217 1253 c-11 -10 -8 -43 3 -43 6 0 10 9 10 19 0 11 6 22 13 24 8 4 6 6 -4 6 -9 1 -19 -2 -22 -6z"/> <path d="M1254 1242 c-17 -11 -13 -41 4 -34 9 3 13 1 9 -5 -5 -7 0 -9 13 -6 12 3 22 -1 26 -11 8 -20 34 -21 34 -1 0 9 -14 22 -30 29 -17 7 -27 16 -23 20 4 4 -1 4 -11 0 -14 -5 -17 -4 -12 4 8 14 6 15 -10 4z"/> <path d="M1283 1183 c4 -3 10 -3 14 0 3 4 0 7 -7 7 -7 0 -10 -3 -7 -7z"/> <path d="M315 1210 c-5 -16 0 -30 22 -53 l28 -30 -32 21 c-17 12 -36 22 -42 22 -20 0 -11 -17 17 -30 28 -13 72 -22 72 -14 0 3 -13 28 -29 55 -26 46 -30 49 -36 29z"/> <path d="M290 1111 c0 -5 -3 -17 -7 -26 -5 -15 -1 -16 38 -10 62 10 68 17 28 31 -42 15 -59 17 -59 5z"/> <path d="M2630 1216 c0 -8 4 -17 9 -20 12 -8 81 -112 81 -122 0 -4 -21 24 -48 62 -26 38 -54 69 -62 69 -29 0 -21 -40 15 -80 19 -22 35 -36 35 -32 0 5 14 -1 31 -13 37 -27 46 -21 32 25 -8 25 -8 35 -1 35 6 0 3 9 -6 19 -10 11 -18 25 -20 33 -3 25 -17 38 -42 38 -14 0 -24 -6 -24 -14z"/> <path d="M450 1210 c0 -7 3 -10 7 -7 3 4 3 10 0 14 -4 3 -7 0 -7 -7z"/> <path d="M1532 1233 c-10 -4 -9 -9 4 -24 22 -24 33 -24 31 0 -1 12 -6 17 -16 13 -9 -3 -12 -1 -7 6 8 13 8 13 -12 5z"/> <path d="M1580 1180 c0 -5 9 -14 20 -20 11 -6 20 -7 20 -3 0 5 -9 14 -20 21 -11 7 -20 8 -20 2z"/> <path d="M1630 1146 c0 -3 47 -37 105 -76 58 -39 105 -68 105 -66 0 2 -42 33 -92 69 -107 73 -118 80 -118 73z"/> <path d="M2370 1232 c0 -7 85 -62 95 -62 18 0 -2 23 -38 45 -46 26 -57 30 -57 17z"/> <path d="M2260 1170 c0 -13 5 -20 13 -17 6 2 12 10 12 17 0 7 -6 15 -12 18 -8 2 -13 -5 -13 -18z"/> <path d="M2370 1105 c0 -8 7 -15 15 -15 8 0 15 7 15 15 0 8 -7 15 -15 15 -8 0 -15 -7 -15 -15z"/> <path d="M1020 1170 c0 -9 79 -60 93 -60 21 0 1 22 -39 44 -52 29 -54 30 -54 16z"/> <path d="M910 1105 c0 -8 7 -15 15 -15 8 0 15 7 15 15 0 8 -7 15 -15 15 -8 0 -15 -7 -15 -15z"/> <path d="M1022 1046 c1 -10 8 -17 13 -17 15 1 12 24 -3 29 -9 3 -13 -2 -10 -12z"/> <path d="M2160 1090 c-7 -16 -15 -28 -19 -26 -3 2 -6 -7 -6 -20 0 -34 11 -30 35 14 12 20 19 29 16 20 -3 -10 -9 -26 -12 -35 -3 -10 4 -1 16 20 11 21 18 42 15 47 -12 19 -33 10 -45 -20z"/> <path d="M2113 1006 c5 -16 44 -19 49 -4 4 9 -4 13 -24 14 -17 1 -27 -3 -25 -10z"/> <path d="M1261 1051 c-8 -5 -11 -15 -8 -23 3 -9 -1 -15 -9 -15 -8 0 -14 4 -14 8 0 3 -9 9 -20 12 -15 4 -20 0 -20 -13 0 -14 7 -19 33 -18 17 0 42 6 55 12 19 10 20 14 10 29 -9 11 -18 14 -27 8z"/> <path d="M1310 1001 c0 -21 26 -36 36 -20 9 15 -3 39 -21 39 -8 0 -15 -9 -15 -19z"/> <path d="M1280 1000 c0 -5 5 -10 10 -10 6 0 10 5 10 10 0 6 -4 10 -10 10 -5 0 -10 -4 -10 -10z"/> <path d="M1158 979 c-16 -10 -1 -42 17 -35 8 3 15 1 15 -4 0 -6 5 -10 12 -10 9 0 9 3 0 12 -14 14 -16 42 -3 33 5 -3 12 -1 16 5 7 11 -39 10 -57 -1z"/> <path d="M1235 976 c-13 -9 -16 -20 -12 -36 3 -13 1 -30 -5 -37 -8 -10 -6 -13 6 -13 10 0 15 4 11 9 -3 5 7 11 22 13 22 2 29 9 31 30 4 34 -26 54 -53 34z m42 -22 c8 -22 -18 -37 -36 -20 -7 8 -10 19 -7 25 10 16 36 13 43 -5z"/> <path d="M1242 949 c2 -6 8 -10 13 -10 5 0 11 4 13 10 2 6 -4 11 -13 11 -9 0 -15 -5 -13 -11z"/> <path d="M1310 959 c0 -5 5 -7 10 -4 6 3 10 8 10 11 0 2 -4 4 -10 4 -5 0 -10 -5 -10 -11z"/> <path d="M1331 946 c-14 -17 -7 -36 14 -36 21 0 26 15 12 34 -12 16 -14 16 -26 2z"/> <path d="M1260 890 c0 -5 5 -10 10 -10 6 0 10 5 10 10 0 6 -4 10 -10 10 -5 0 -10 -4 -10 -10z"/> <path d="M1220 866 c0 -8 5 -18 10 -21 13 -8 42 14 34 26 -9 15 -44 10 -44 -5z"/> <path d="M1561 915 c-6 -23 -14 -51 -17 -61 -4 -11 16 3 44 30 28 28 50 51 48 53 -2 2 -17 8 -34 12 -29 9 -30 8 -41 -34z"/> <path d="M1473 733 c4 -3 10 -3 14 0 3 4 0 7 -7 7 -7 0 -10 -3 -7 -7z"/> <path d="M1460 709 c0 -5 5 -7 10 -4 6 3 10 8 10 11 0 2 -4 4 -10 4 -5 0 -10 -5 -10 -11z"/> <path d="M2523 991 c15 -13 27 -29 27 -36 0 -22 22 -29 35 -12 6 9 22 20 36 25 l23 9 -22 12 c-12 7 -46 15 -75 18 l-52 6 28 -22z"/> <path d="M2470 908 c-96 -49 -109 -180 -24 -247 49 -38 55 -22 9 22 -42 40 -45 47 -45 94 0 56 22 93 70 118 31 16 87 20 107 7 17 -11 -1 -37 -18 -27 -8 5 -5 -2 5 -14 20 -22 30 -65 14 -55 -5 4 -7 11 -5 18 3 7 -6 23 -19 35 -21 20 -29 22 -57 14 -23 -6 -31 -14 -29 -27 2 -10 -2 -24 -8 -31 -7 -8 -9 -27 -5 -44 4 -17 2 -32 -5 -36 -8 -5 -8 -11 1 -21 15 -18 29 -18 29 0 0 23 20 30 33 12 7 -8 24 -20 39 -25 31 -12 52 3 69 46 14 36 11 53 -8 53 -15 0 -16 2 -3 10 12 7 11 13 -10 34 -13 15 -18 26 -11 26 7 0 9 5 6 10 -3 6 2 10 12 10 31 0 -20 29 -63 35 -29 5 -50 0 -84 -17z m70 -81 c0 -7 -5 -18 -11 -24 -8 -8 -8 -13 0 -17 16 -10 13 -36 -3 -36 -8 0 -18 4 -21 10 -4 6 1 7 11 3 14 -5 15 -3 6 14 -8 14 -8 23 0 31 16 16 2 27 -16 13 -8 -7 -12 -20 -9 -29 4 -14 3 -15 -6 -2 -7 11 -6 19 6 32 19 21 43 24 43 5z m45 -57 c28 -11 25 -30 -4 -30 -10 0 -21 9 -24 20 -6 23 -6 23 28 10z"/> <path d="M2578 753 c7 -3 16 -2 19 1 4 3 -2 6 -13 5 -11 0 -14 -3 -6 -6z"/> <path d="M2473 880 c-41 -25 -53 -48 -53 -104 0 -33 6 -52 26 -76 15 -17 29 -29 31 -26 3 3 -6 19 -21 36 -37 44 -36 99 3 142 24 28 36 32 75 33 25 0 46 3 46 8 0 15 -76 6 -107 -13z"/> <path d="M2446 824 c-10 -26 -7 -84 4 -84 7 0 8 13 5 34 -4 20 -2 36 4 40 13 9 15 26 2 26 -5 0 -12 -7 -15 -16z"/> <path d="M2497 708 c-6 -22 10 -31 46 -26 24 3 23 3 -9 24 -32 21 -32 22 -37 2z"/> <path d="M415 940 c-24 -27 -16 -33 13 -10 12 10 18 21 14 24 -5 3 -17 -3 -27 -14z"/> <path d="M450 923 c0 -4 24 -32 53 -62 28 -29 46 -50 38 -46 -10 6 -12 4 -7 -4 5 -7 11 -10 14 -7 3 3 11 1 19 -5 9 -8 13 -8 13 -1 0 6 -25 38 -56 71 -52 56 -74 72 -74 54z"/> <path d="M380 862 l-54 -48 21 -30 c12 -16 42 -49 67 -73 l45 -44 53 54 c30 30 52 53 49 51 -2 -1 -13 6 -23 15 -18 16 -21 14 -63 -27 -37 -37 -42 -46 -32 -59 11 -14 10 -14 -6 -2 -12 9 -14 17 -7 26 5 6 7 15 3 18 -3 4 6 16 21 28 15 12 25 24 22 27 -3 3 -16 -3 -28 -14 -13 -10 -7 -2 11 19 19 20 39 37 45 37 5 0 1 -9 -8 -19 -13 -14 -14 -21 -5 -27 8 -5 10 -3 4 7 -5 8 -5 11 0 7 4 -4 14 -3 22 4 12 9 6 19 -29 55 -23 23 -45 43 -48 43 -3 0 -30 -22 -60 -48z m140 -36 c0 -3 -5 -8 -12 -12 -7 -4 -8 -3 -4 4 7 12 16 16 16 8z m30 -60 c0 -2 -24 -23 -52 -47 l-53 -43 45 47 c39 41 60 56 60 43z"/> <path d="M350 865 c-7 -8 -18 -15 -26 -15 -16 0 -27 -17 -16 -24 5 -3 22 8 37 24 16 17 26 30 23 30 -3 0 -11 -7 -18 -15z"/> <path d="M459 763 l-24 -28 28 24 c15 14 27 26 27 28 0 8 -8 1 -31 -24z"/> <path d="M825 879 c-10 -15 3 -59 18 -59 7 0 18 -9 25 -20 7 -12 16 -18 21 -15 5 2 14 -2 21 -10 22 -27 32 -16 13 16 -25 42 -73 99 -83 99 -5 0 -12 -5 -15 -11z"/> <path d="M2862 893 c5 -26 38 -29 38 -4 0 15 -6 21 -21 21 -14 0 -19 -5 -17 -17z"/> <path d="M2895 859 c-20 -9 -20 -9 0 -6 11 1 26 -4 32 -13 11 -13 14 -13 23 0 5 8 10 18 10 23 0 10 -40 8 -65 -4z"/> <path d="M2800 840 c0 -5 5 -10 10 -10 6 0 10 5 10 10 0 6 -4 10 -10 10 -5 0 -10 -4 -10 -10z"/> <path d="M2757 833 c-3 -5 -2 -15 3 -22 10 -17 43 -6 38 12 -6 15 -34 22 -41 10z"/> <path d="M2834 826 c-12 -31 0 -51 31 -51 27 0 30 3 30 30 0 25 -4 30 -28 33 -17 2 -29 -2 -33 -12z m43 -7 c14 -14 6 -39 -12 -39 -18 0 -28 17 -21 35 6 18 18 19 33 4z"/> <path d="M2850 805 c0 -9 5 -15 11 -13 6 2 11 8 11 13 0 5 -5 11 -11 13 -6 2 -11 -4 -11 -13z"/> <path d="M2910 820 c0 -5 5 -10 10 -10 6 0 10 5 10 10 0 6 -4 10 -10 10 -5 0 -10 -4 -10 -10z"/> <path d="M2937 804 c-14 -15 -6 -34 14 -34 14 0 19 5 17 17 -3 18 -20 27 -31 17z"/> <path d="M2826 733 c4 -16 9 -32 11 -36 7 -12 35 14 29 28 -2 6 2 12 10 12 7 0 15 -6 18 -14 7 -17 36 -17 36 1 0 19 -18 24 -63 20 -22 -2 -35 1 -32 6 4 6 1 10 -5 10 -6 0 -8 -10 -4 -27z"/> <path d="M1833 761 c-2 -10 -16 -24 -29 -30 -36 -16 -31 -48 11 -68 32 -15 36 -15 53 0 13 12 17 26 14 47 -2 17 1 36 7 44 14 16 4 26 -27 26 -15 0 -26 -7 -29 -19z"/> <path d="M1778 748 c9 -9 15 -9 24 0 9 9 7 12 -12 12 -19 0 -21 -3 -12 -12z"/> <path d="M1890 724 c0 -10 5 -26 10 -34 8 -11 9 -7 4 15 -8 37 -14 45 -14 19z"/> <path d="M55 740 c-3 -6 1 -13 9 -16 9 -3 16 -10 16 -16 0 -5 -5 -6 -11 -2 -15 9 5 -29 24 -44 10 -8 13 -29 10 -71 -2 -39 0 -62 8 -67 7 -4 9 -3 6 3 -3 5 9 15 28 22 18 6 47 27 63 46 17 18 32 31 35 28 3 -3 3 5 0 17 -5 18 -11 21 -36 16 -35 -7 -67 -32 -67 -53 0 -14 -16 -18 -24 -5 -3 5 8 19 25 31 26 19 28 24 15 36 -8 8 -24 15 -36 15 -17 0 -21 5 -17 20 3 10 2 19 -2 18 -14 -3 -41 15 -35 23 3 5 3 9 0 9 -3 0 -8 -5 -11 -10z m95 -83 c0 -2 -9 -12 -19 -21 -19 -17 -19 -17 -14 3 3 12 12 21 19 21 8 0 14 -2 14 -3z m54 -38 c-3 -5 -10 -7 -15 -3 -5 3 -7 10 -3 15 3 5 10 7 15 3 5 -3 7 -10 3 -15z m-17 -36 c-4 -3 -10 -3 -14 0 -3 4 0 7 7 7 7 0 10 -3 7 -7z m-55 -18 c0 -5 -5 -11 -11 -13 -6 -2 -11 4 -11 13 0 9 5 15 11 13 6 -2 11 -8 11 -13z"/> <path d="M190 670 c-18 -12 -2 -12 25 0 13 6 15 9 5 9 -8 0 -22 -4 -30 -9z"/> <path d="M246 655 c4 -8 8 -15 10 -15 2 0 4 7 4 15 0 8 -4 15 -10 15 -5 0 -7 -7 -4 -15z"/> <path d="M1207 681 c9 -11 9 -17 -2 -28 -8 -7 -18 -12 -24 -11 -5 2 -16 -6 -24 -16 -15 -21 -39 -27 -99 -26 -20 0 -40 -5 -44 -12 -4 -7 -3 -10 1 -5 5 4 19 -11 32 -32 22 -37 77 -81 102 -81 19 0 6 79 -18 104 l-22 23 25 -4 c14 -3 23 -9 21 -13 -3 -5 -1 -11 5 -15 9 -6 14 14 11 43 -1 6 5 12 12 12 8 0 22 11 30 24 15 22 15 25 -1 37 -14 11 -15 11 -5 0z m-139 -102 c-2 -6 -8 -10 -13 -10 -5 0 -11 4 -13 10 -2 6 4 11 13 11 9 0 15 -5 13 -11z m82 -35 c0 -3 -10 1 -22 8 -13 7 -29 11 -35 10 -14 -3 -17 10 -7 21 6 6 64 -29 64 -39z m-60 -14 c0 -5 -5 -10 -11 -10 -5 0 -7 5 -4 10 3 6 8 10 11 10 2 0 4 -4 4 -10z m50 -14 c0 -3 -4 -8 -10 -11 -5 -3 -10 -1 -10 4 0 6 5 11 10 11 6 0 10 -2 10 -4z"/> <path d="M1160 520 c0 -7 3 -10 7 -7 3 4 3 10 0 14 -4 3 -7 0 -7 -7z"/> <path d="M1171 483 c-1 -12 -7 -24 -13 -26 -10 -4 -10 -6 0 -6 15 -1 26 23 19 41 -3 7 -6 3 -6 -9z"/> <path d="M2946 665 c-3 -9 0 -15 9 -15 16 0 20 16 6 24 -5 3 -11 -1 -15 -9z"/> <path d="M625 610 c3 -5 15 -10 26 -10 11 0 17 5 14 10 -3 6 -15 10 -26 10 -11 0 -17 -4 -14 -10z"/> <path d="M1502 528 c5 -15 28 -18 29 -3 0 6 -7 12 -17 13 -10 3 -15 -1 -12 -10z"/> <path d="M2823 601 c-2 -10 -16 -24 -29 -30 -36 -16 -31 -48 11 -68 32 -15 36 -15 53 0 13 12 17 26 14 47 -2 17 1 36 7 44 14 16 4 26 -27 26 -15 0 -26 -7 -29 -19z"/> <path d="M2881 570 c0 -8 4 -24 9 -35 5 -13 9 -14 9 -5 0 8 -4 24 -9 35 -5 13 -9 14 -9 5z"/> <path d="M1961 608 c-2 -14 109 -241 115 -236 3 3 -22 59 -55 124 -33 66 -60 116 -60 112z"/> <path d="M2080 348 c0 -9 5 -20 10 -23 13 -8 13 5 0 25 -8 13 -10 13 -10 -2z"/> <path d="M2097 285 c-2 -14 -2 -23 1 -20 3 2 12 -1 20 -8 13 -10 15 -9 9 6 -4 10 -7 25 -7 33 0 24 -17 15 -23 -11z"/> <path d="M2353 593 c4 -6 3 -14 -3 -18 -6 -4 -7 -11 -4 -17 5 -7 1 -9 -8 -5 -10 3 -23 -3 -34 -18 -9 -13 -23 -21 -30 -18 -22 8 -24 -14 -1 -33 18 -16 19 -16 8 -1 -12 15 -11 17 8 17 21 0 25 -19 6 -32 -6 -5 -5 -8 3 -8 15 0 32 39 25 58 -3 6 1 12 8 12 8 0 22 11 31 24 16 22 16 25 1 38 -10 7 -14 8 -10 1z m17 -17 c0 -3 -5 -8 -12 -12 -7 -4 -8 -3 -4 4 7 12 16 16 16 8z"/> <path d="M2215 500 c5 -15 2 -20 -10 -20 -11 0 -15 5 -11 15 6 18 -19 21 -30 3 -5 -7 -3 -8 6 -3 10 6 12 4 6 -11 -4 -10 -4 -15 0 -11 4 4 14 -2 22 -14 8 -11 20 -18 28 -15 8 3 14 1 14 -4 0 -6 -6 -10 -12 -10 -7 0 4 -11 24 -24 21 -12 35 -26 31 -30 -4 -4 0 -4 10 0 9 3 17 9 17 13 0 3 3 16 6 27 4 17 -2 26 -30 43 -20 12 -41 19 -46 16 -6 -4 -11 -1 -9 6 3 26 -1 39 -12 39 -6 0 -8 -9 -4 -20z m70 -69 c3 -5 1 -12 -5 -16 -5 -3 -10 1 -10 9 0 18 6 21 15 7z"/> <path d="M1282 565 c6 -14 19 -25 28 -25 10 0 33 -3 51 -6 45 -9 35 0 -34 30 l-56 25 11 -24z"/> <path d="M1289 513 c-13 -15 -11 -16 11 -10 14 4 34 7 45 7 17 0 17 2 5 10 -23 15 -46 12 -61 -7z"/> <path d="M1352 497 c-27 -8 -31 -14 -26 -31 11 -38 20 -37 53 4 33 41 29 45 -27 27z"/> <path d="M1797 583 c-12 -11 -8 -41 6 -46 8 -3 12 6 13 24 1 28 -6 36 -19 22z"/> <path d="M1820 559 c0 -5 7 -12 15 -15 8 -4 12 -10 9 -15 -3 -5 3 -6 12 -2 12 4 15 3 10 -5 -5 -8 -1 -10 10 -5 12 4 15 3 10 -5 -5 -8 0 -12 13 -12 27 0 28 30 1 37 -11 3 -17 9 -14 14 3 5 -3 6 -12 2 -10 -3 -15 -2 -12 3 4 5 -5 10 -18 10 -13 1 -24 -2 -24 -7z"/> <path d="M913 553 c-19 -7 -16 -26 7 -46 24 -20 34 -22 23 -4 -4 6 -6 19 -5 29 3 19 -7 27 -25 21z"/> <path d="M883 503 c4 -3 10 -3 14 0 3 4 0 7 -7 7 -7 0 -10 -3 -7 -7z"/> <path d="M806 477 c-16 -12 -16 -14 -2 -26 8 -7 19 -10 24 -7 5 3 9 -1 9 -9 0 -8 -6 -16 -14 -19 -20 -8 -16 -38 4 -34 22 4 27 52 10 85 -11 20 -15 22 -31 10z"/> <path d="M840 480 c0 -5 5 -10 10 -10 6 0 10 5 10 10 0 6 -4 10 -10 10 -5 0 -10 -4 -10 -10z"/> <path d="M874 466 c-12 -31 0 -51 31 -51 27 0 30 3 30 30 0 25 -4 30 -28 33 -17 2 -29 -2 -33 -12z m49 -10 c8 -20 -20 -43 -35 -28 -14 14 -3 42 16 42 7 0 16 -6 19 -14z"/> <path d="M892 451 c4 -13 18 -16 19 -4 0 4 -5 9 -11 12 -7 2 -11 -2 -8 -8z"/> <path d="M950 460 c0 -5 5 -10 10 -10 6 0 10 -9 10 -20 0 -13 7 -20 20 -20 12 0 20 7 20 16 0 9 -9 18 -20 21 -11 3 -20 9 -20 14 0 5 -4 9 -10 9 -5 0 -10 -4 -10 -10z"/> <path d="M950 420 c0 -7 3 -10 7 -7 3 4 3 10 0 14 -4 3 -7 0 -7 -7z"/> <path d="M865 379 c9 -41 10 -43 30 -36 21 9 19 28 -5 34 -11 3 -18 9 -15 13 3 5 0 12 -6 16 -8 4 -9 -3 -4 -27z"/> <path d="M910 395 c0 -10 40 -45 52 -45 4 0 8 9 8 19 0 13 -6 18 -17 16 -10 -1 -24 2 -30 8 -7 5 -13 6 -13 2z"/> <path d="M385 539 c-4 -5 1 -19 11 -30 9 -10 13 -19 9 -19 -4 0 0 -9 9 -19 10 -11 25 -17 37 -14 19 5 18 8 -13 41 -18 19 -26 31 -18 27 13 -8 13 -7 1 8 -16 20 -27 22 -36 6z m46 -66 c13 -16 12 -17 -3 -4 -17 13 -22 21 -14 21 2 0 10 -8 17 -17z"/> <path d="M2636 482 c-23 -45 -20 -52 20 -52 34 0 36 1 29 28 -3 15 -12 33 -20 41 -11 11 -16 9 -29 -17z"/> <path d="M2514 374 c-20 -43 -21 -45 -3 -54 28 -15 102 -12 127 6 22 15 52 63 52 84 0 5 -16 10 -35 10 -39 0 -42 -7 -18 -53 14 -28 14 -31 0 -19 -9 7 -19 27 -22 43 -6 26 -11 29 -43 29 -34 -1 -39 -5 -58 -46z"/> <path d="M216 430 c-53 -40 -53 -40 -20 -40 23 0 34 7 48 31 10 17 20 28 23 25 3 -3 -4 -18 -16 -35 -13 -17 -18 -36 -14 -46 5 -14 11 -6 25 29 28 72 15 82 -46 36z"/> <path d="M2800 400 c0 -7 3 -10 7 -7 3 4 3 10 0 14 -4 3 -7 0 -7 -7z"/> <path d="M555 393 c5 -10 8 -29 9 -43 1 -29 22 -46 39 -32 7 6 23 12 37 14 23 3 22 6 -25 40 -55 41 -71 47 -60 21z"/> <path d="M460 267 c0 -7 -9 -20 -20 -30 -11 -9 -20 -26 -20 -36 0 -11 -7 -24 -15 -29 -10 -5 -13 -15 -9 -25 8 -21 20 -22 28 -2 3 8 11 15 19 15 9 0 12 10 9 34 -3 27 0 37 18 46 30 16 49 -2 29 -26 -8 -9 -13 -25 -11 -36 2 -11 -3 -18 -12 -18 -24 0 -19 -34 7 -57 28 -24 55 -17 86 23 27 34 27 44 0 44 -18 0 -20 5 -16 26 2 14 -2 39 -10 55 -12 24 -21 29 -49 29 -21 0 -34 -5 -34 -13z m80 -137 c-19 -12 -45 12 -36 35 5 14 8 14 28 -5 19 -18 20 -22 8 -30z"/> <path d="M510 150 c0 -13 18 -22 24 -11 3 5 -1 11 -9 15 -8 3 -15 1 -15 -4z"/> <path d="M417 253 c-20 -23 -33 -73 -18 -73 6 0 11 9 11 20 0 11 9 29 20 40 11 11 20 22 20 25 0 11 -18 4 -33 -12z"/> <path d="M473 233 c-16 -6 -17 -63 -2 -63 6 0 8 9 4 20 -4 13 -1 22 9 26 9 3 16 10 16 15 0 10 -8 10 -27 2z"/> <path d="M430 135 c-11 -13 -11 -18 1 -29 8 -8 25 -17 39 -20 23 -6 23 -6 8 7 -10 8 -21 24 -26 36 -7 21 -9 21 -22 6z"/> <path d="M1536 371 c-4 -7 -5 -15 -2 -18 9 -9 19 4 14 18 -4 11 -6 11 -12 0z"/> <path d="M1774 364 c-10 -16 -24 -33 -31 -37 -7 -4 -13 -19 -13 -32 0 -14 -4 -25 -10 -25 -16 0 -12 -36 5 -50 22 -18 29 -6 44 70 7 36 16 69 21 74 5 5 3 -15 -5 -45 -26 -106 -26 -119 -6 -119 10 0 23 6 29 13 12 15 7 140 -7 164 -7 14 -11 11 -27 -13z"/> <path d="M1144 329 c-3 -5 0 -9 7 -9 7 0 10 -3 7 -6 -3 -3 -15 0 -27 7 -23 15 -41 5 -23 -13 19 -19 14 -38 -10 -38 -33 -1 -60 -42 -49 -73 9 -23 46 -57 62 -57 4 0 9 8 11 17 2 14 14 18 52 19 29 1 52 7 57 15 12 19 11 69 -1 69 -5 0 -21 12 -35 26 -25 25 -25 25 -3 18 20 -6 21 -5 10 8 -16 19 -50 29 -58 17z m53 -76 c12 -16 7 -43 -8 -43 -5 0 -12 7 -15 15 -4 8 -17 15 -30 15 -26 0 -27 1 -18 25 8 20 52 13 71 -12z m-71 -31 c8 -5 4 -13 -11 -25 -25 -18 -42 -8 -31 18 6 16 24 19 42 7z"/> <path d="M1135 260 c-3 -5 3 -10 14 -10 11 0 24 -7 29 -16 5 -9 12 -12 15 -7 3 5 3 14 -1 20 -10 16 -49 25 -57 13z"/> <path d="M1090 204 c0 -14 3 -14 15 -4 8 7 15 14 15 16 0 2 -7 4 -15 4 -8 0 -15 -7 -15 -16z"/> <path d="M1230 300 c24 -42 25 -80 5 -123 l-16 -32 21 24 c30 35 27 102 -5 138 l-26 28 21 -35z"/> <path d="M1210 291 c0 -5 5 -13 10 -16 6 -3 10 -2 10 4 0 5 -4 13 -10 16 -5 3 -10 2 -10 -4z"/> <path d="M1130 154 c0 -18 40 -18 63 -1 16 11 13 12 -23 13 -28 1 -40 -3 -40 -12z"/> <path d="M1493 263 c4 -3 10 -3 14 0 3 4 0 7 -7 7 -7 0 -10 -3 -7 -7z"/> <path d="M2744 255 c-4 -8 -10 -12 -15 -9 -5 3 -12 -2 -15 -10 -3 -9 -10 -14 -14 -11 -5 3 -11 1 -15 -5 -4 -6 -11 -8 -16 -5 -5 4 -9 2 -9 -4 0 -19 38 -31 94 -31 59 0 65 5 41 36 -14 19 -15 19 -54 -3 -51 -29 -67 -29 -21 0 19 12 36 30 36 40 2 21 -5 22 -12 2z"/> <path d="M2550 150 c0 -7 3 -10 7 -7 3 4 3 10 0 14 -4 3 -7 0 -7 -7z"/> <path d="M686 251 c-4 -6 -3 -18 2 -27 8 -14 10 -14 15 -2 7 19 -8 44 -17 29z"/> <path d="M1983 263 c-15 -6 -17 -29 -3 -38 5 -3 17 -2 25 2 12 7 13 12 3 25 -7 9 -19 14 -25 11z"/> <path d="M1910 230 c0 -14 8 -18 35 -18 19 0 32 4 29 9 -3 5 -10 7 -15 4 -5 -4 -9 -2 -9 3 0 5 -9 12 -20 15 -15 4 -20 0 -20 -13z"/> <path d="M2030 211 c0 -19 23 -35 34 -24 14 15 5 43 -14 43 -13 0 -20 -7 -20 -19z"/> <path d="M2000 210 c0 -5 5 -10 10 -10 6 0 10 5 10 10 0 6 -4 10 -10 10 -5 0 -10 -4 -10 -10z"/> <path d="M1881 191 c-18 -12 -6 -45 14 -37 8 3 15 1 15 -4 0 -6 4 -10 9 -10 5 0 3 14 -5 30 -9 17 -16 30 -17 30 -1 0 -8 -4 -16 -9z"/> <path d="M1920 189 c0 -5 5 -7 10 -4 6 3 10 8 10 11 0 2 -4 4 -10 4 -5 0 -10 -5 -10 -11z"/> <path d="M1952 188 c-25 -25 -6 -68 30 -68 9 0 22 9 28 21 9 16 8 25 -6 40 -20 22 -35 24 -52 7z m46 -31 c2 -9 -1 -17 -7 -17 -6 0 -8 7 -4 16 4 12 2 15 -8 12 -8 -3 -13 -11 -11 -17 1 -7 -2 -10 -7 -6 -15 9 -1 36 18 33 9 -2 17 -11 19 -21z"/> <path d="M2030 169 c0 -5 5 -7 10 -4 6 3 10 8 10 11 0 2 -4 4 -10 4 -5 0 -10 -5 -10 -11z"/> <path d="M2043 147 l-20 -24 28 -1 c34 -1 47 15 27 34 -12 12 -17 11 -35 -9z"/> <path d="M1887 116 c-4 -9 -2 -18 3 -21 13 -8 41 6 37 19 -6 17 -34 19 -40 2z"/> <path d="M1940 112 c0 -7 6 -12 13 -12 8 0 8 -3 -2 -9 -14 -9 -9 -41 7 -41 5 0 15 6 21 13 8 11 5 19 -14 37 -14 13 -25 18 -25 12z"/> <path d="M1980 100 c0 -5 5 -10 10 -10 6 0 10 5 10 10 0 6 -4 10 -10 10 -5 0 -10 -4 -10 -10z"/> <path d="M1337 154 c-3 -4 -21 -7 -39 -8 -19 -1 -33 -7 -32 -14 1 -7 2 -29 3 -49 l2 -38 44 48 c25 27 45 53 45 58 0 10 -14 12 -23 3z"/> <path d="M800 189 c-30 -27 -51 -49 -45 -49 5 0 32 21 60 47 50 48 50 48 -5 -10 -44 -46 -52 -60 -41 -67 11 -6 29 3 63 32 26 22 51 45 55 51 8 15 -19 -6 -72 -52 -28 -25 -24 -19 13 20 42 44 50 58 40 66 -10 8 -27 -1 -68 -38z"/> <path d="M730 121 c0 -12 31 -43 37 -37 6 6 -20 46 -29 46 -5 0 -8 -4 -8 -9z"/> <path d="M715 100 c-8 -14 9 -34 23 -29 7 3 6 11 -3 22 -9 13 -15 15 -20 7z"/> <path d="M2470 215 c0 -9 5 -15 11 -13 6 2 11 8 11 13 0 5 -5 11 -11 13 -6 2 -11 -4 -11 -13z"/> <path d="M1553 193 c4 -3 10 -3 14 0 3 4 0 7 -7 7 -7 0 -10 -3 -7 -7z"/> <path d="M508 2993 c6 -2 18 -2 25 0 6 3 1 5 -13 5 -14 0 -19 -2 -12 -5z"/> <path d="M553 2993 c4 -3 10 -3 14 0 3 4 0 7 -7 7 -7 0 -10 -3 -7 -7z"/> <path d="M595 2990 c-3 -5 -1 -10 4 -10 6 0 11 5 11 10 0 6 -2 10 -4 10 -3 0 -8 -4 -11 -10z"/> <path d="M620 2986 c0 -15 24 -28 34 -19 13 14 5 33 -14 33 -11 0 -20 -6 -20 -14z"/> <path d="M1503 2985 c0 -8 5 -15 11 -15 6 0 3 -5 -6 -10 -10 -6 -15 -19 -13 -30 2 -11 -1 -20 -6 -20 -6 0 -8 -4 -4 -9 3 -5 0 -13 -6 -17 -8 -4 -7 -9 2 -15 11 -7 11 -9 1 -9 -7 0 -10 -4 -7 -10 3 -5 2 -10 -4 -10 -6 0 -8 -7 -5 -15 4 -8 1 -15 -7 -15 -7 0 -9 -3 -6 -7 4 -3 1 -13 -5 -22 -7 -9 41 36 105 99 102 100 115 115 95 119 -17 2 -36 -11 -76 -54 -29 -31 -55 -55 -58 -53 -2 3 3 27 11 54 8 27 15 50 15 52 0 1 -8 2 -18 2 -10 0 -19 -7 -19 -15z"/> <path d="M1540 2964 c-7 -19 -10 -37 -8 -39 2 -3 22 13 43 35 l39 40 -31 0 c-27 0 -33 -5 -43 -36z"/> <path d="M2160 2996 c0 -4 138 -96 145 -96 3 0 5 6 5 13 0 7 13 28 29 47 30 35 36 25 12 -18 -20 -38 -6 -36 23 3 17 22 21 33 11 29 -10 -4 -15 -2 -13 7 2 10 -12 15 -57 17 -48 3 -62 0 -74 -15 -13 -16 -13 -17 -8 0 7 19 -9 24 -16 5 -4 -10 -6 -10 -6 0 -1 10 -51 19 -51 8z"/> <path d="M2638 2993 c6 -2 18 -2 25 0 6 3 1 5 -13 5 -14 0 -19 -2 -12 -5z"/> <path d="M2771 2993 c2 -26 119 -258 129 -258 18 0 22 35 4 42 -8 3 -11 9 -8 14 3 5 0 9 -6 9 -6 0 -9 4 -5 9 3 5 1 12 -5 16 -6 4 -8 11 -5 16 4 5 1 9 -4 9 -6 0 -10 3 -9 8 1 4 -3 17 -10 28 -6 12 -8 24 -5 28 3 3 1 6 -5 6 -7 0 -12 7 -12 15 0 8 -5 15 -11 15 -5 0 -8 4 -4 9 3 5 1 12 -5 16 -6 4 -8 11 -5 16 4 5 -3 9 -14 9 -12 0 -21 -3 -20 -7z"/> <path d="M510 2970 c0 -5 5 -10 10 -10 6 0 10 5 10 10 0 6 -4 10 -10 10 -5 0 -10 -4 -10 -10z"/> <path d="M545 2964 c-19 -20 -16 -43 8 -58 20 -13 50 2 55 26 3 16 -23 48 -38 48 -5 0 -16 -7 -25 -16z m45 -23 c0 -11 -4 -22 -9 -25 -5 -4 -7 3 -4 14 3 11 0 20 -6 20 -6 0 -11 -7 -11 -17 0 -9 -3 -14 -6 -10 -11 10 4 37 21 37 8 0 15 -9 15 -19z"/> <path d="M2344 2958 c-4 -7 -3 -8 4 -4 12 7 16 16 8 16 -3 0 -8 -5 -12 -12z"/> <path d="M2627 2958 c-32 -9 -37 -13 -31 -32 11 -37 18 -36 52 5 18 21 30 39 25 38 -4 -1 -25 -6 -46 -11z"/> <path d="M620 2950 c0 -5 5 -10 10 -10 6 0 10 5 10 10 0 6 -4 10 -10 10 -5 0 -10 -4 -10 -10z"/> <path d="M1145 2953 c10 -10 177 -122 205 -138 32 -17 -7 14 -94 74 -82 58 -135 89 -111 64z"/> <path d="M630 2925 c-13 -14 -18 -25 -12 -25 7 0 12 6 12 13 0 8 3 8 9 -2 9 -14 41 -9 41 7 0 5 -6 15 -13 21 -11 8 -19 5 -37 -14z"/> <path d="M10 2930 c-13 -8 -13 -13 1 -37 8 -16 23 -27 32 -27 11 1 16 -4 15 -14 -2 -10 13 -25 37 -39 53 -30 59 -29 51 9 -7 34 -50 77 -77 78 -10 0 -16 7 -15 17 1 20 -22 27 -44 13z m30 -21 c0 -5 -7 -9 -15 -9 -15 0 -20 12 -9 23 8 8 24 -1 24 -14z m65 -58 c3 -5 1 -12 -5 -16 -5 -3 -10 1 -10 9 0 18 6 21 15 7z m32 -43 c-3 -8 -6 -5 -6 6 -1 11 2 17 5 13 3 -3 4 -12 1 -19z"/> <path d="M509 2933 c-1 -5 -1 -11 0 -15 0 -5 -6 -8 -14 -8 -8 0 -15 -9 -15 -20 0 -39 35 -18 38 23 2 23 -6 40 -9 20z"/> <path d="M2325 2929 c-4 -6 -5 -12 -2 -15 2 -3 7 2 10 11 7 17 1 20 -8 4z"/> <path d="M2984 2918 c-4 -7 -3 -8 4 -4 7 4 12 9 12 12 0 8 -9 4 -16 -8z"/> <path d="M530 2890 c0 -5 5 -10 11 -10 5 0 7 5 4 10 -3 6 -8 10 -11 10 -2 0 -4 -4 -4 -10z"/> <path d="M575 2881 c-3 -6 -15 -11 -26 -11 -21 0 -23 -8 -10 -29 11 -18 45 -6 38 13 -3 8 -1 17 6 19 7 2 9 7 6 11 -4 4 -10 3 -14 -3z"/> <path d="M600 2866 c0 -15 24 -28 34 -19 13 14 5 33 -14 33 -11 0 -20 -6 -20 -14z"/> <path d="M2283 2873 c4 -3 10 -3 14 0 3 4 0 7 -7 7 -7 0 -10 -3 -7 -7z"/> <path d="M2242 2847 c-11 -12 -17 -28 -14 -36 3 -9 0 -11 -8 -6 -9 5 -11 4 -6 -3 4 -7 3 -18 -1 -26 -7 -13 -16 -11 -55 12 -25 15 -45 31 -44 36 0 5 -8 10 -19 11 -11 2 -28 6 -37 10 -10 4 -18 3 -18 -2 0 -5 37 -27 83 -50 l84 -41 41 48 c47 54 48 56 28 63 -8 3 -23 -4 -34 -16z m28 10 c0 -2 -10 -12 -22 -23 l-23 -19 19 23 c18 21 26 27 26 19z"/> <path d="M50 2741 c0 -5 7 -12 16 -15 14 -5 15 -4 4 9 -14 17 -20 19 -20 6z"/> <path d="M18 2653 c-9 -2 -16 -13 -15 -23 1 -15 7 -18 29 -13 23 4 27 2 23 -10 -4 -10 3 -18 25 -25 16 -6 33 -18 36 -27 3 -8 10 -15 15 -15 17 0 -11 39 -39 54 -15 9 -21 15 -14 16 22 0 72 -56 72 -81 0 -21 -1 -21 -28 8 -15 18 -40 35 -55 38 -15 4 -27 13 -27 21 0 16 -9 18 -30 4 -12 -7 -12 -12 4 -29 17 -19 17 -21 2 -27 -23 -9 -20 -41 6 -47 l22 -6 -22 -19 c-12 -11 -22 -29 -22 -41 0 -27 17 -27 25 0 5 15 13 19 29 15 37 -9 80 8 88 35 6 18 7 17 3 -9 -6 -44 11 -32 20 14 3 20 8 34 11 32 12 -13 -13 -74 -43 -104 -18 -19 -28 -34 -20 -34 15 0 49 34 66 67 17 34 13 104 -9 140 -28 46 -104 79 -152 66z m40 -20 c-10 -2 -26 -2 -35 0 -10 3 -2 5 17 5 19 0 27 -2 18 -5z m78 -37 c19 -19 34 -42 34 -52 -1 -12 -6 -7 -15 13 -8 18 -29 42 -47 53 -18 11 -27 20 -19 20 7 0 28 -15 47 -34z m-92 -61 c-18 -14 -18 -14 5 -15 13 0 30 -8 37 -17 12 -17 13 -17 14 -1 0 9 -8 22 -17 27 -16 9 -17 10 -1 11 21 0 34 -38 18 -54 -8 -8 -15 -7 -24 7 -7 9 -23 17 -35 17 -11 0 -21 4 -21 8 0 11 22 32 34 32 5 0 1 -7 -10 -15z"/> <path d="M2968 2634 c-16 -8 -28 -19 -28 -24 0 -13 17 -13 25 0 9 15 27 12 19 -2 -4 -7 -3 -10 1 -5 8 7 19 48 12 47 -1 -1 -14 -8 -29 -16z"/> <path d="M2966 2568 c-25 -36 -20 -52 9 -31 25 19 32 38 16 48 -5 3 -17 -5 -25 -17z"/> <path d="M0 2560 c0 -5 5 -10 11 -10 5 0 7 5 4 10 -3 6 -8 10 -11 10 -2 0 -4 -4 -4 -10z"/> <path d="M0 2479 c0 -5 5 -7 10 -4 5 3 10 8 10 11 0 2 -4 4 -10 4 -5 0 -10 -5 -10 -11z"/> <path d="M35 2431 c-3 -2 -5 -8 -5 -13 0 -12 58 -10 65 2 4 6 15 8 26 5 10 -4 19 -2 19 2 0 9 -97 13 -105 4z"/> <path d="M76 2220 c-8 -16 -10 -30 -5 -30 5 0 9 5 9 10 0 6 9 10 20 10 13 0 20 7 20 20 0 30 -27 24 -44 -10z"/> <path d="M140 2189 c0 -14 5 -19 17 -17 26 5 29 38 4 38 -15 0 -21 -6 -21 -21z"/> <path d="M110 2190 c0 -5 5 -10 10 -10 6 0 10 5 10 10 0 6 -4 10 -10 10 -5 0 -10 -4 -10 -10z"/> <path d="M1 2124 c0 -42 3 -52 15 -47 17 6 18 30 1 36 -7 3 -4 6 6 6 10 1 15 6 12 11 -4 6 -10 8 -15 5 -4 -3 -6 3 -3 13 6 26 33 23 33 -3 0 -13 7 -28 16 -36 23 -19 49 1 49 37 0 28 -1 29 -57 30 l-57 0 0 -52z m107 19 c5 -17 -26 -29 -40 -15 -6 6 -7 15 -3 22 9 14 37 9 43 -7z"/> <path d="M70 2140 c0 -5 7 -10 15 -10 8 0 15 5 15 10 0 6 -7 10 -15 10 -8 0 -15 -4 -15 -10z"/> <path d="M145 2138 c11 -35 22 -43 41 -27 15 12 14 15 -6 31 -30 24 -43 23 -35 -4z"/> <path d="M40 2090 c0 -5 5 -10 10 -10 6 0 10 5 10 10 0 6 -4 10 -10 10 -5 0 -10 -4 -10 -10z"/> <path d="M90 2080 c0 -5 5 -10 10 -10 6 0 10 5 10 10 0 6 -4 10 -10 10 -5 0 -10 -4 -10 -10z"/> <path d="M116 2074 c-6 -16 17 -29 34 -19 16 10 12 22 -9 28 -12 3 -22 -1 -25 -9z"/> <path d="M53 2064 c-9 -23 13 -40 32 -24 12 10 13 16 4 26 -15 18 -28 18 -36 -2z"/> <path d="M18 1960 c-13 -8 -16 -23 -14 -71 2 -59 2 -60 46 -86 43 -26 95 -40 85 -22 -7 11 11 47 38 76 11 13 19 25 16 27 -12 11 -140 86 -147 86 -4 0 -15 -5 -24 -10z m24 -56 c-15 -17 -29 -29 -31 -27 -3 2 1 9 7 15 16 16 15 31 0 22 -10 -6 -10 -5 -1 7 7 8 21 15 32 15 18 0 17 -3 -7 -32z m30 3 c-25 -27 -30 -46 -7 -27 13 10 12 6 -2 -18 -10 -17 -20 -27 -21 -22 -2 6 -8 7 -14 4 -5 -4 -4 4 2 17 13 26 50 69 58 69 3 0 -4 -10 -16 -23z"/> <path d="M40 1860 c0 -7 3 -10 7 -7 3 4 3 10 0 14 -4 3 -7 0 -7 -7z"/> <path d="M184 1855 c-19 -15 -19 -15 1 -8 20 6 20 6 1 -15 -10 -12 -23 -19 -27 -16 -5 3 -6 -3 -2 -12 4 -12 3 -15 -5 -10 -8 5 -10 2 -5 -9 5 -14 11 -11 32 16 14 19 27 41 27 51 2 22 2 22 -22 3z"/> <path d="M0 1741 c0 -83 13 -111 30 -66 11 29 57 75 74 75 6 0 4 -5 -4 -10 -9 -6 -10 -10 -3 -10 6 0 0 -13 -15 -28 -15 -15 -31 -26 -36 -23 -5 2 -6 -1 -2 -7 3 -6 2 -22 -4 -36 -5 -14 -8 -26 -6 -26 6 0 80 113 82 127 2 12 -34 40 -93 72 -23 12 -23 12 -23 -68z"/> <path d="M64 1708 l-19 -23 23 19 c21 18 27 26 19 26 -2 0 -12 -10 -23 -22z"/> <path d="M2890 1699 c32 -18 26 -19 -15 -3 -8 3 -15 2 -15 -4 0 -8 58 -34 125 -57 16 -5 15 -4 -3 7 -12 8 -19 17 -15 22 4 4 -1 4 -11 0 -13 -5 -17 -4 -12 4 5 8 1 10 -10 5 -11 -4 -15 -3 -10 5 4 7 -6 17 -23 27 -44 22 -52 18 -11 -6z"/> <path d="M3 1623 c4 -3 10 -3 14 0 3 4 0 7 -7 7 -7 0 -10 -3 -7 -7z"/> <path d="M62 1490 c17 -26 40 -35 36 -14 -2 9 -13 20 -25 25 -21 7 -22 6 -11 -11z"/> <path d="M120 1445 c7 -8 17 -15 22 -15 6 0 5 7 -2 15 -7 8 -17 15 -22 15 -6 0 -5 -7 2 -15z"/> <path d="M160 1423 c0 -8 220 -157 220 -149 0 4 -173 128 -207 150 -7 4 -13 4 -13 -1z"/> <path d="M2930 1392 c-101 -50 -108 -206 -11 -257 34 -17 81 -20 81 -5 0 6 -9 10 -20 10 -61 0 -110 58 -110 129 0 52 46 107 96 117 19 3 34 10 34 15 0 14 -32 10 -70 -9z"/> <path d="M0 1333 c1 -47 1 -47 15 -23 19 33 19 17 0 -20 -14 -26 -13 -30 3 -40 16 -11 16 -11 -1 -6 -15 5 -17 -2 -17 -44 0 -43 3 -50 20 -50 11 0 20 5 20 11 0 5 4 8 9 5 4 -3 16 3 26 14 10 11 14 20 9 20 -5 0 -3 4 5 9 15 10 24 65 15 93 -3 10 -10 16 -15 13 -5 -3 -6 0 -3 8 6 16 -21 42 -35 33 -5 -3 -11 1 -15 9 -3 8 -12 15 -21 15 -11 0 -15 -11 -15 -47z"/> <path d="M2952 1373 c-6 -2 -10 -8 -7 -13 3 -4 -2 -7 -11 -6 -9 0 -21 -8 -28 -19 -6 -11 -15 -23 -19 -26 -25 -19 13 -139 45 -139 10 0 18 -5 18 -11 0 -6 10 -9 23 -7 18 2 23 10 25 46 2 24 -2 49 -8 57 -8 9 -8 15 0 20 11 7 14 64 4 89 -6 16 -18 19 -42 9z"/> <path d="M70 1060 c-13 -8 -13 -13 3 -39 9 -16 17 -36 17 -45 0 -9 8 -16 20 -16 18 0 20 7 20 55 0 50 -2 55 -22 55 -13 0 -30 -5 -38 -10z"/> <path d="M90 934 c0 -9 -8 -29 -17 -45 -16 -26 -16 -31 -3 -39 8 -5 25 -10 38 -10 20 0 22 5 22 55 0 48 -2 55 -20 55 -12 0 -20 -7 -20 -16z"/> <path d="M180 940 c0 -6 7 -25 16 -42 l17 -32 18 23 c31 38 25 61 -16 61 -19 0 -35 -5 -35 -10z"/> <path d="M2950 415 c-7 -8 -9 -15 -4 -15 5 0 -2 -7 -14 -16 -13 -9 -21 -21 -19 -28 3 -6 -1 -20 -9 -31 -22 -30 -18 -49 9 -40 12 3 29 8 39 9 27 4 48 27 48 54 l0 26 -32 -30 c-61 -56 -73 -58 -20 -3 28 30 52 62 52 72 0 21 -33 23 -50 2z"/> <path d="M171 293 c0 -4 4 -17 9 -28 8 -19 9 -19 9 2 1 12 -3 25 -9 28 -5 3 -10 3 -9 -2z"/> <path d="M0 205 c0 -27 49 -125 62 -125 10 0 10 2 -1 9 -11 7 -11 9 0 13 11 4 12 10 1 32 -7 16 -10 38 -7 50 4 15 3 17 -3 8 -7 -11 -10 -9 -15 7 -6 24 -37 29 -37 6z"/> <path d="M222 156 c6 -19 14 -33 19 -31 10 7 0 42 -16 55 -11 9 -12 5 -3 -24z"/> <path d="M76 155 c-9 -26 -7 -32 5 -12 6 10 9 21 6 23 -2 3 -7 -2 -11 -11z"/> <path d="M85 120 c-4 -12 -4 -24 -1 -27 3 -4 6 2 6 13 0 16 2 16 10 4 5 -8 11 -12 14 -10 2 3 -2 13 -9 23 -13 18 -14 17 -20 -3z"/> <path d="M125 98 c-89 -34 -91 -35 -82 -44 7 -8 177 58 177 69 0 11 -9 9 -95 -25z"/> <path d="M2758 59 c-14 -8 -15 -14 -6 -34 11 -24 28 -32 41 -19 3 4 1 16 -5 28 -7 11 -11 24 -10 29 3 9 1 9 -20 -4z"/> <path d="M571 36 c-9 -10 -8 -16 4 -26 20 -16 38 -1 29 23 -8 21 -18 22 -33 3z"/> <path d="M1047 41 c-17 -6 -17 -8 2 -25 23 -21 41 -15 23 7 -7 8 -9 17 -5 20 8 8 4 8 -20 -2z"/> <path d="M2550 44 c0 -3 5 -14 10 -25 8 -14 21 -19 53 -19 l42 1 -45 24 c-46 25 -60 29 -60 19z"/> <path d="M500 15 c0 -8 9 -15 20 -15 24 0 27 15 4 24 -22 9 -24 8 -24 -9z"/> <path d="M1523 3 c4 -3 10 -3 14 0 3 4 0 7 -7 7 -7 0 -10 -3 -7 -7z"/> </g> </svg> 